  0
SECTION
  2
HEADER
  9
$ACADVER
  1
AC1024
  9
$ACADMAINTVER
 70
     6
  9
$DWGCODEPAGE
  3
ANSI_1252
  9
$INSBASE
 10
0.0
 20
0.0
 30
0.0
  9
$EXTMIN
 10
1.000000000000000E+20
 20
1.000000000000000E+20
 30
1.000000000000000E+20
  9
$EXTMAX
 10
-1.000000000000000E+20
 20
-1.000000000000000E+20
 30
-1.000000000000000E+20
  9
$LIMMIN
 10
0.0
 20
0.0
  9
$LIMMAX
 10
12.0
 20
9.0
  9
$ORTHOMODE
 70
     0
  9
$REGENMODE
 70
     1
  9
$FILLMODE
 70
     1
  9
$QTEXTMODE
 70
     0
  9
$MIRRTEXT
 70
     1
  9
$LTSCALE
 40
1.0
  9
$ATTMODE
 70
     1
  9
$TEXTSIZE
 40
0.2
  9
$TRACEWID
 40
0.05
  9
$TEXTSTYLE
  7
Standard
  9
$CLAYER
  8
0
  9
$CELTYPE
  6
ByLayer
  9
$CECOLOR
 62
   256
  9
$CELTSCALE
 40
1.0
  9
$DISPSILH
 70
     0
  9
$DIMSCALE
 40
1.0
  9
$DIMASZ
 40
0.18
  9
$DIMEXO
 40
0.0625
  9
$DIMDLI
 40
0.38
  9
$DIMRND
 40
0.0
  9
$DIMDLE
 40
0.0
  9
$DIMEXE
 40
0.18
  9
$DIMTP
 40
0.0
  9
$DIMTM
 40
0.0
  9
$DIMTXT
 40
0.18
  9
$DIMCEN
 40
0.09
  9
$DIMTSZ
 40
0.0
  9
$DIMTOL
 70
     0
  9
$DIMLIM
 70
     0
  9
$DIMTIH
 70
     1
  9
$DIMTOH
 70
     1
  9
$DIMSE1
 70
     0
  9
$DIMSE2
 70
     0
  9
$DIMTAD
 70
     0
  9
$DIMZIN
 70
     0
  9
$DIMBLK
  1

  9
$DIMASO
 70
     1
  9
$DIMSHO
 70
     1
  9
$DIMPOST
  1

  9
$DIMAPOST
  1

  9
$DIMALT
 70
     0
  9
$DIMALTD
 70
     2
  9
$DIMALTF
 40
25.4
  9
$DIMLFAC
 40
1.0
  9
$DIMTOFL
 70
     0
  9
$DIMTVP
 40
0.0
  9
$DIMTIX
 70
     0
  9
$DIMSOXD
 70
     0
  9
$DIMSAH
 70
     0
  9
$DIMBLK1
  1

  9
$DIMBLK2
  1

  9
$DIMSTYLE
  2
Standard
  9
$DIMCLRD
 70
     0
  9
$DIMCLRE
 70
     0
  9
$DIMCLRT
 70
     0
  9
$DIMTFAC
 40
1.0
  9
$DIMGAP
 40
0.09
  9
$DIMJUST
 70
     0
  9
$DIMSD1
 70
     0
  9
$DIMSD2
 70
     0
  9
$DIMTOLJ
 70
     1
  9
$DIMTZIN
 70
     0
  9
$DIMALTZ
 70
     0
  9
$DIMALTTZ
 70
     0
  9
$DIMUPT
 70
     0
  9
$DIMDEC
 70
     4
  9
$DIMTDEC
 70
     4
  9
$DIMALTU
 70
     2
  9
$DIMALTTD
 70
     2
  9
$DIMTXSTY
  7
Standard
  9
$DIMAUNIT
 70
     0
  9
$DIMADEC
 70
     0
  9
$DIMALTRND
 40
0.0
  9
$DIMAZIN
 70
     0
  9
$DIMDSEP
 70
    46
  9
$DIMATFIT
 70
     3
  9
$DIMFRAC
 70
     0
  9
$DIMLDRBLK
  1

  9
$DIMLUNIT
 70
     2
  9
$DIMLWD
 70
    -2
  9
$DIMLWE
 70
    -2
  9
$DIMTMOVE
 70
     0
  9
$DIMFXL
 40
1.0
  9
$DIMFXLON
 70
     0
  9
$DIMJOGANG
 40
0.7853981633974483
  9
$DIMTFILL
 70
     0
  9
$DIMTFILLCLR
 70
     0
  9
$DIMARCSYM
 70
     0
  9
$DIMLTYPE
  6

  9
$DIMLTEX1
  6

  9
$DIMLTEX2
  6

  9
$DIMTXTDIRECTION
 70
     0
  9
$LUNITS
 70
     2
  9
$LUPREC
 70
     4
  9
$SKETCHINC
 40
0.1
  9
$FILLETRAD
 40
0.5
  9
$AUNITS
 70
     0
  9
$AUPREC
 70
     0
  9
$MENU
  1
.
  9
$ELEVATION
 40
0.0
  9
$PELEVATION
 40
0.0
  9
$THICKNESS
 40
0.0
  9
$LIMCHECK
 70
     0
  9
$CHAMFERA
 40
0.5
  9
$CHAMFERB
 40
0.5
  9
$CHAMFERC
 40
1.0
  9
$CHAMFERD
 40
0.0
  9
$SKPOLY
 70
     0
  9
$TDCREATE
 40
2457286.557827581
  9
$TDUCREATE
 40
2457286.474494248
  9
$TDUPDATE
 40
2457286.557827627
  9
$TDUUPDATE
 40
2457286.474494294
  9
$TDINDWG
 40
0.0000000116
  9
$TDUSRTIMER
 40
0.0000000116
  9
$USRTIMER
 70
     1
  9
$ANGBASE
 50
0.0
  9
$ANGDIR
 70
     0
  9
$PDMODE
 70
     0
  9
$PDSIZE
 40
0.0
  9
$PLINEWID
 40
0.0
  9
$SPLFRAME
 70
     0
  9
$SPLINETYPE
 70
     6
  9
$SPLINESEGS
 70
     8
  9
$HANDSEED
  5
5E
  9
$SURFTAB1
 70
     6
  9
$SURFTAB2
 70
     6
  9
$SURFTYPE
 70
     6
  9
$SURFU
 70
     6
  9
$SURFV
 70
     6
  9
$UCSBASE
  2

  9
$UCSNAME
  2

  9
$UCSORG
 10
0.0
 20
0.0
 30
0.0
  9
$UCSXDIR
 10
1.0
 20
0.0
 30
0.0
  9
$UCSYDIR
 10
0.0
 20
1.0
 30
0.0
  9
$UCSORTHOREF
  2

  9
$UCSORTHOVIEW
 70
     0
  9
$UCSORGTOP
 10
0.0
 20
0.0
 30
0.0
  9
$UCSORGBOTTOM
 10
0.0
 20
0.0
 30
0.0
  9
$UCSORGLEFT
 10
0.0
 20
0.0
 30
0.0
  9
$UCSORGRIGHT
 10
0.0
 20
0.0
 30
0.0
  9
$UCSORGFRONT
 10
0.0
 20
0.0
 30
0.0
  9
$UCSORGBACK
 10
0.0
 20
0.0
 30
0.0
  9
$PUCSBASE
  2

  9
$PUCSNAME
  2

  9
$PUCSORG
 10
0.0
 20
0.0
 30
0.0
  9
$PUCSXDIR
 10
1.0
 20
0.0
 30
0.0
  9
$PUCSYDIR
 10
0.0
 20
1.0
 30
0.0
  9
$PUCSORTHOREF
  2

  9
$PUCSORTHOVIEW
 70
     0
  9
$PUCSORGTOP
 10
0.0
 20
0.0
 30
0.0
  9
$PUCSORGBOTTOM
 10
0.0
 20
0.0
 30
0.0
  9
$PUCSORGLEFT
 10
0.0
 20
0.0
 30
0.0
  9
$PUCSORGRIGHT
 10
0.0
 20
0.0
 30
0.0
  9
$PUCSORGFRONT
 10
0.0
 20
0.0
 30
0.0
  9
$PUCSORGBACK
 10
0.0
 20
0.0
 30
0.0
  9
$USERI1
 70
     0
  9
$USERI2
 70
     0
  9
$USERI3
 70
     0
  9
$USERI4
 70
     0
  9
$USERI5
 70
     0
  9
$USERR1
 40
0.0
  9
$USERR2
 40
0.0
  9
$USERR3
 40
0.0
  9
$USERR4
 40
0.0
  9
$USERR5
 40
0.0
  9
$WORLDVIEW
 70
     1
  9
$SHADEDGE
 70
     3
  9
$SHADEDIF
 70
    70
  9
$TILEMODE
 70
     1
  9
$MAXACTVP
 70
    64
  9
$PINSBASE
 10
0.0
 20
0.0
 30
0.0
  9
$PLIMCHECK
 70
     0
  9
$PEXTMIN
 10
1.000000000000000E+20
 20
1.000000000000000E+20
 30
1.000000000000000E+20
  9
$PEXTMAX
 10
-1.000000000000000E+20
 20
-1.000000000000000E+20
 30
-1.000000000000000E+20
  9
$PLIMMIN
 10
0.0
 20
0.0
  9
$PLIMMAX
 10
12.0
 20
9.0
  9
$UNITMODE
 70
     0
  9
$VISRETAIN
 70
     1
  9
$PLINEGEN
 70
     0
  9
$PSLTSCALE
 70
     1
  9
$TREEDEPTH
 70
  3020
  9
$CMLSTYLE
  2
Standard
  9
$CMLJUST
 70
     0
  9
$CMLSCALE
 40
1.0
  9
$PROXYGRAPHICS
 70
     1
  9
$MEASUREMENT
 70
     0
  9
$CELWEIGHT
370
    -1
  9
$ENDCAPS
280
     0
  9
$JOINSTYLE
280
     0
  9
$LWDISPLAY
290
     1
  9
$INSUNITS
 70
     1
  9
$HYPERLINKBASE
  1

  9
$STYLESHEET
  1

  9
$XEDIT
290
     1
  9
$CEPSNTYPE
380
     0
  9
$PSTYLEMODE
290
     1
  9
$FINGERPRINTGUID
  2
{08E2E2A9-7FD1-42ED-BE8B-6A5D3D18A7DB}
  9
$VERSIONGUID
  2
{FAEB1C32-E019-11D5-929B-00C0DF256EC4}
  9
$EXTNAMES
290
     1
  9
$PSVPSCALE
 40
0.0
  9
$OLESTARTUP
290
     0
  9
$SORTENTS
280
   127
  9
$INDEXCTL
280
     0
  9
$HIDETEXT
280
     1
  9
$XCLIPFRAME
280
     2
  9
$HALOGAP
280
     0
  9
$OBSCOLOR
 70
   257
  9
$OBSLTYPE
280
     0
  9
$INTERSECTIONDISPLAY
280
     0
  9
$INTERSECTIONCOLOR
 70
   257
  9
$DIMASSOC
280
     2
  9
$PROJECTNAME
  1

  9
$CAMERADISPLAY
290
     0
  9
$LENSLENGTH
 40
50.0
  9
$CAMERAHEIGHT
 40
0.0
  9
$STEPSPERSEC
 40
2.0
  9
$STEPSIZE
 40
6.0
  9
$3DDWFPREC
 40
2.0
  9
$PSOLWIDTH
 40
0.25
  9
$PSOLHEIGHT
 40
4.0
  9
$LOFTANG1
 40
1.570796326794897
  9
$LOFTANG2
 40
1.570796326794897
  9
$LOFTMAG1
 40
0.0
  9
$LOFTMAG2
 40
0.0
  9
$LOFTPARAM
 70
     7
  9
$LOFTNORMALS
280
     1
  9
$LATITUDE
 40
37.795
  9
$LONGITUDE
 40
-122.394
  9
$NORTHDIRECTION
 40
0.0
  9
$TIMEZONE
 70
 -8000
  9
$LIGHTGLYPHDISPLAY
280
     1
  9
$TILEMODELIGHTSYNCH
280
     1
  9
$CMATERIAL
347
3C
  9
$SOLIDHIST
280
     1
  9
$SHOWHIST
280
     1
  9
$DWFFRAME
280
     2
  9
$DGNFRAME
280
     2
  9
$REALWORLDSCALE
290
     1
  9
$INTERFERECOLOR
 62
   256
  9
$CSHADOW
280
     0
  9
$SHADOWPLANELOCATION
 40
0.0
  0
ENDSEC
  0
SECTION
  2
CLASSES
  0
CLASS
  1
ACDBDICTIONARYWDFLT
  2
AcDbDictionaryWithDefault
  3
ObjectDBX Classes
 90
        0
 91
        4
280
     0
281
     0
  0
CLASS
  1
VISUALSTYLE
  2
AcDbVisualStyle
  3
ObjectDBX Classes
 90
     4095
 91
        4
280
     0
281
     0
  0
CLASS
  1
MATERIAL
  2
AcDbMaterial
  3
ObjectDBX Classes
 90
     1153
 91
        4
280
     0
281
     0
  0
CLASS
  1
SUN
  2
AcDbSun
  3
SCENEOE
 90
     1024
 91
        4
280
     0
281
     0
  0
ENDSEC
  0
SECTION
  2
TABLES
  0
TABLE
  2
VPORT
  5
8
330
0
100
AcDbSymbolTable
 70
     1
  0
VPORT
  5
29
330
8
100
AcDbSymbolTableRecord
100
AcDbViewportTableRecord
  2
*Active
 70
     0
 10
0.0
 20
0.0
 11
1.0
 21
1.0
 12
0.0
 22
0.0
 13
0.0
 23
0.0
 14
0.5
 24
0.5
 15
0.5
 25
0.5
 16
0.0
 26
0.0
 36
1.0
 17
243.6236051893088
 27
396.7113303390197
 37
0.0
 40
173.2569423634886
 41
0.999976031309051
 42
50.0
 43
0.0
 44
0.0
 50
0.0
 51
0.0
 71
     0
 72
   100
 73
     1
 74
     3
 75
     0
 76
     0
 77
     0
 78
     0
281
     0
 65
     1
110
0.0
120
0.0
130
0.0
111
1.0
121
0.0
131
0.0
112
0.0
122
1.0
132
0.0
 79
     0
146
0.0
 60
     3
 61
     5
292
     1
282
     1
141
0.0
142
0.0
 63
   250
361
3F
  0
ENDTAB
  0
TABLE
  2
LTYPE
  5
5
330
0
100
AcDbSymbolTable
 70
     1
  0
LTYPE
  5
14
330
5
100
AcDbSymbolTableRecord
100
AcDbLinetypeTableRecord
  2
ByBlock
 70
     0
  3

 72
    65
 73
     0
 40
0.0
  0
LTYPE
  5
15
330
5
100
AcDbSymbolTableRecord
100
AcDbLinetypeTableRecord
  2
ByLayer
 70
     0
  3

 72
    65
 73
     0
 40
0.0
  0
LTYPE
  5
16
330
5
100
AcDbSymbolTableRecord
100
AcDbLinetypeTableRecord
  2
Continuous
 70
     0
  3
Solid line
 72
    65
 73
     0
 40
0.0
  0
ENDTAB
  0
TABLE
  2
LAYER
  5
2
330
0
100
AcDbSymbolTable
 70
     2
  0
LAYER
  5
10
330
2
100
AcDbSymbolTableRecord
100
AcDbLayerTableRecord
  2
0
 70
     0
 62
     7
  6
Continuous
370
    -3
390
F
347
3E
  0
LAYER
  5
40
330
2
100
AcDbSymbolTableRecord
100
AcDbLayerTableRecord
  2
Ebene 1
 70
     0
 62
     7
  6
Continuous
370
    -3
390
F
347
3E
  0
ENDTAB
  0
TABLE
  2
STYLE
  5
3
330
0
100
AcDbSymbolTable
 70
     1
  0
STYLE
  5
11
330
3
100
AcDbSymbolTableRecord
100
AcDbTextStyleTableRecord
  2
Standard
 70
     0
 40
0.0
 41
1.0
 50
0.0
 71
     0
 42
0.2
  3
txt
  4

  0
ENDTAB
  0
TABLE
  2
VIEW
  5
6
330
0
100
AcDbSymbolTable
 70
     0
  0
ENDTAB
  0
TABLE
  2
UCS
  5
7
330
0
100
AcDbSymbolTable
 70
     0
  0
ENDTAB
  0
TABLE
  2
APPID
  5
9
330
0
100
AcDbSymbolTable
 70
     1
  0
APPID
  5
12
330
9
100
AcDbSymbolTableRecord
100
AcDbRegAppTableRecord
  2
ACAD
 70
     0
  0
ENDTAB
  0
TABLE
  2
DIMSTYLE
  5
A
330
0
100
AcDbSymbolTable
 70
     1
100
AcDbDimStyleTable
  0
DIMSTYLE
105
27
330
A
100
AcDbSymbolTableRecord
100
AcDbDimStyleTableRecord
  2
Standard
 70
     0
178
     0
340
11
  0
ENDTAB
  0
TABLE
  2
BLOCK_RECORD
  5
1
330
0
100
AcDbSymbolTable
 70
     4
  0
BLOCK_RECORD
  5
1F
330
1
100
AcDbSymbolTableRecord
100
AcDbBlockTableRecord
  2
*Model_Space
340
22
 70
     0
280
     1
281
     0
  0
BLOCK_RECORD
  5
1B
330
1
100
AcDbSymbolTableRecord
100
AcDbBlockTableRecord
  2
*Paper_Space
340
1E
 70
     0
280
     1
281
     0
  0
BLOCK_RECORD
  5
23
330
1
100
AcDbSymbolTableRecord
100
AcDbBlockTableRecord
  2
*Paper_Space0
340
26
 70
     0
280
     1
281
     0
  0
BLOCK_RECORD
  5
41
330
1
100
AcDbSymbolTableRecord
100
AcDbBlockTableRecord
  2
block 2
340
0
102
{BLKREFS
331
42
102
}
 70
     0
280
     1
281
     0
  0
BLOCK_RECORD
  5
49
330
1
100
AcDbSymbolTableRecord
100
AcDbBlockTableRecord
  2
block 3
340
0
102
{BLKREFS
331
4A
102
}
 70
     0
280
     1
281
     0
  0
BLOCK_RECORD
  5
4F
330
1
100
AcDbSymbolTableRecord
100
AcDbBlockTableRecord
  2
block 4
340
0
102
{BLKREFS
331
50
102
}
 70
     0
280
     1
281
     0
  0
ENDTAB
  0
ENDSEC
  0
SECTION
  2
BLOCKS
  0
BLOCK
  5
20
330
1F
100
AcDbEntity
  8
0
100
AcDbBlockBegin
  2
*Model_Space
 70
     0
 10
0.0
 20
0.0
 30
0.0
  3
*Model_Space
  1

  0
ENDBLK
  5
21
330
1F
100
AcDbEntity
  8
0
100
AcDbBlockEnd
  0
BLOCK
  5
1C
330
1B
100
AcDbEntity
 67
     1
  8
0
100
AcDbBlockBegin
  2
*Paper_Space
 70
     0
 10
0.0
 20
0.0
 30
0.0
  3
*Paper_Space
  1

  0
ENDBLK
  5
1D
330
1B
100
AcDbEntity
 67
     1
  8
0
100
AcDbBlockEnd
  0
BLOCK
  5
24
330
23
100
AcDbEntity
  8
0
100
AcDbBlockBegin
  2
*Paper_Space0
 70
     0
 10
0.0
 20
0.0
 30
0.0
  3
*Paper_Space0
  1

  0
ENDBLK
  5
25
330
23
100
AcDbEntity
  8
0
100
AcDbBlockEnd
  0
BLOCK
  5
43
330
41
100
AcDbEntity
  8
0
100
AcDbBlockBegin
  2
block 2
 70
     0
 10
0.0
 20
0.0
 30
0.0
  3
block 2
  1

  0
SPLINE
  5
45
330
41
100
AcDbEntity
  8
Ebene 1
370
     0
100
AcDbSpline
210
0.0
220
0.0
230
1.0
 70
    11
 71
     3
 72
    47
 73
    43
 74
     0
 42
0.0000000001
 43
0.0000000001
 12
1.0
 22
0.0
 32
0.0
 13
1.0
 23
0.0
 33
0.0
 40
0.0
 40
0.0
 40
0.0
 40
0.0
 40
1.0
 40
1.0
 40
1.0
 40
2.0
 40
2.0
 40
2.0
 40
3.0
 40
3.0
 40
3.0
 40
4.0
 40
4.0
 40
4.0
 40
5.0
 40
5.0
 40
5.0
 40
6.0
 40
6.0
 40
6.0
 40
7.0
 40
7.0
 40
7.0
 40
8.0
 40
8.0
 40
8.0
 40
9.0
 40
9.0
 40
9.0
 40
10.0
 40
10.0
 40
10.0
 40
11.0
 40
11.0
 40
11.0
 40
12.0
 40
12.0
 40
12.0
 40
13.0
 40
13.0
 40
13.0
 40
14.0
 40
14.0
 40
14.0
 40
14.0
 10
272.0683597056859
 20
400.5922103582643
 30
0.0
 10
271.5840397570037
 20
404.3265147489656
 30
0.0
 10
270.3828080436151
 20
407.8314167097506
 30
0.0
 10
268.4678539516262
 20
411.1132950128294
 30
0.0
 10
265.9029068607297
 20
415.5103499468632
 30
0.0
 10
262.4235005413175
 20
418.9897562662763
 30
0.0
 10
258.0264456072828
 20
421.5578927432789
 30
0.0
 10
253.629390673249
 20
424.1228398341755
 30
0.0
 10
248.8308425919067
 20
425.4037284103097
 30
0.0
 10
243.6244809334739
 20
425.4037284103097
 30
0.0
 10
238.4180998275651
 20
425.4037284103097
 30
0.0
 10
233.6163818075929
 20
424.1228398341755
 30
0.0
 10
229.2225162596651
 20
421.5578927432789
 30
0.0
 10
224.8254613256304
 20
418.9897562662763
 30
0.0
 10
221.3460550062182
 20
415.5103499468632
 30
0.0
 10
218.7779185292156
 20
411.1132950128294
 30
0.0
 10
216.2129519908422
 20
406.7194100174247
 30
0.0
 10
214.9320828621849
 20
401.9176919974534
 30
0.0
 10
214.9320828621849
 20
396.7113303390206
 30
0.0
 10
214.9320828621849
 20
391.5081386192178
 30
0.0
 10
216.2129519908422
 20
386.7064205992465
 30
0.0
 10
218.7779185292156
 20
382.3093656652109
 30
0.0
 10
221.3428656201122
 20
377.915500117284
 30
0.0
 10
224.8254613256304
 20
374.432904411764
 30
0.0
 10
229.2193268735591
 20
371.8679378733923
 30
0.0
 10
233.6163818075929
 20
369.3029907824948
 30
0.0
 10
238.4180998275651
 20
368.0189322677306
 30
0.0
 10
243.6244809334739
 20
368.0189322677306
 30
0.0
 10
248.8276726532767
 20
368.0189322677306
 30
0.0
 10
253.629390673249
 20
369.3029907824948
 30
0.0
 10
258.0264456072828
 20
371.8679378733923
 30
0.0
 10
261.744822514931
 20
374.0377900366693
 30
0.0
 10
264.8068276514578
 20
376.8608440324369
 30
0.0
 10
267.2124610168648
 20
380.3370609657431
 30
0.0
 10
267.6553578411222
 20
380.9711264815978
 30
0.0
 10
268.0727590240067
 20
381.6306876388244
 30
0.0
 10
268.4678539516262
 20
382.3093656652109
 30
0.0
 10
271.0328204899997
 20
386.7064205992465
 30
0.0
 10
272.316879004763
 20
391.5081386192178
 30
0.0
 10
272.316879004763
 20
396.7113303390206
 30
0.0
 10
272.316879004763
 20
398.0304526534737
 30
0.0
 10
272.2340327559123
 20
399.324079326555
 30
0.0
 10
272.0683597056859
 20
400.5922103582643
 30
0.0
  0
SPLINE
  5
46
330
41
100
AcDbEntity
  8
Ebene 1
370
     0
100
AcDbSpline
210
0.0
220
0.0
230
1.0
 70
    11
 71
     3
 72
   926
 73
   922
 74
     0
 42
0.0000000001
 43
0.0000000001
 12
1.0
 22
0.0
 32
0.0
 13
1.0
 23
0.0
 33
0.0
 40
0.0
 40
0.0
 40
0.0
 40
0.0
 40
1.0
 40
1.0
 40
1.0
 40
2.0
 40
2.0
 40
2.0
 40
3.0
 40
3.0
 40
3.0
 40
4.0
 40
4.0
 40
4.0
 40
5.0
 40
5.0
 40
5.0
 40
6.0
 40
6.0
 40
6.0
 40
7.0
 40
7.0
 40
7.0
 40
8.0
 40
8.0
 40
8.0
 40
9.0
 40
9.0
 40
9.0
 40
10.0
 40
10.0
 40
10.0
 40
11.0
 40
11.0
 40
11.0
 40
12.0
 40
12.0
 40
12.0
 40
13.0
 40
13.0
 40
13.0
 40
14.0
 40
14.0
 40
14.0
 40
15.0
 40
15.0
 40
15.0
 40
16.0
 40
16.0
 40
16.0
 40
17.0
 40
17.0
 40
17.0
 40
18.0
 40
18.0
 40
18.0
 40
19.0
 40
19.0
 40
19.0
 40
20.0
 40
20.0
 40
20.0
 40
21.0
 40
21.0
 40
21.0
 40
22.0
 40
22.0
 40
22.0
 40
23.0
 40
23.0
 40
23.0
 40
24.0
 40
24.0
 40
24.0
 40
25.0
 40
25.0
 40
25.0
 40
26.0
 40
26.0
 40
26.0
 40
27.0
 40
27.0
 40
27.0
 40
28.0
 40
28.0
 40
28.0
 40
29.0
 40
29.0
 40
29.0
 40
30.0
 40
30.0
 40
30.0
 40
31.0
 40
31.0
 40
31.0
 40
32.0
 40
32.0
 40
32.0
 40
33.0
 40
33.0
 40
33.0
 40
34.0
 40
34.0
 40
34.0
 40
35.0
 40
35.0
 40
35.0
 40
36.0
 40
36.0
 40
36.0
 40
37.0
 40
37.0
 40
37.0
 40
38.0
 40
38.0
 40
38.0
 40
39.0
 40
39.0
 40
39.0
 40
40.0
 40
40.0
 40
40.0
 40
41.0
 40
41.0
 40
41.0
 40
42.0
 40
42.0
 40
42.0
 40
43.0
 40
43.0
 40
43.0
 40
44.0
 40
44.0
 40
44.0
 40
45.0
 40
45.0
 40
45.0
 40
46.0
 40
46.0
 40
46.0
 40
47.0
 40
47.0
 40
47.0
 40
48.0
 40
48.0
 40
48.0
 40
49.0
 40
49.0
 40
49.0
 40
50.0
 40
50.0
 40
50.0
 40
51.0
 40
51.0
 40
51.0
 40
52.0
 40
52.0
 40
52.0
 40
53.0
 40
53.0
 40
53.0
 40
54.0
 40
54.0
 40
54.0
 40
55.0
 40
55.0
 40
55.0
 40
56.0
 40
56.0
 40
56.0
 40
57.0
 40
57.0
 40
57.0
 40
58.0
 40
58.0
 40
58.0
 40
59.0
 40
59.0
 40
59.0
 40
60.0
 40
60.0
 40
60.0
 40
61.0
 40
61.0
 40
61.0
 40
62.0
 40
62.0
 40
62.0
 40
63.0
 40
63.0
 40
63.0
 40
64.0
 40
64.0
 40
64.0
 40
65.0
 40
65.0
 40
65.0
 40
66.0
 40
66.0
 40
66.0
 40
67.0
 40
67.0
 40
67.0
 40
68.0
 40
68.0
 40
68.0
 40
69.0
 40
69.0
 40
69.0
 40
70.0
 40
70.0
 40
70.0
 40
71.0
 40
71.0
 40
71.0
 40
72.0
 40
72.0
 40
72.0
 40
73.0
 40
73.0
 40
73.0
 40
74.0
 40
74.0
 40
74.0
 40
75.0
 40
75.0
 40
75.0
 40
76.0
 40
76.0
 40
76.0
 40
77.0
 40
77.0
 40
77.0
 40
78.0
 40
78.0
 40
78.0
 40
79.0
 40
79.0
 40
79.0
 40
80.0
 40
80.0
 40
80.0
 40
81.0
 40
81.0
 40
81.0
 40
82.0
 40
82.0
 40
82.0
 40
83.0
 40
83.0
 40
83.0
 40
84.0
 40
84.0
 40
84.0
 40
85.0
 40
85.0
 40
85.0
 40
86.0
 40
86.0
 40
86.0
 40
87.0
 40
87.0
 40
87.0
 40
88.0
 40
88.0
 40
88.0
 40
89.0
 40
89.0
 40
89.0
 40
90.0
 40
90.0
 40
90.0
 40
91.0
 40
91.0
 40
91.0
 40
92.0
 40
92.0
 40
92.0
 40
93.0
 40
93.0
 40
93.0
 40
94.0
 40
94.0
 40
94.0
 40
95.0
 40
95.0
 40
95.0
 40
96.0
 40
96.0
 40
96.0
 40
97.0
 40
97.0
 40
97.0
 40
98.0
 40
98.0
 40
98.0
 40
99.0
 40
99.0
 40
99.0
 40
100.0
 40
100.0
 40
100.0
 40
101.0
 40
101.0
 40
101.0
 40
102.0
 40
102.0
 40
102.0
 40
103.0
 40
103.0
 40
103.0
 40
104.0
 40
104.0
 40
104.0
 40
105.0
 40
105.0
 40
105.0
 40
106.0
 40
106.0
 40
106.0
 40
107.0
 40
107.0
 40
107.0
 40
108.0
 40
108.0
 40
108.0
 40
109.0
 40
109.0
 40
109.0
 40
110.0
 40
110.0
 40
110.0
 40
111.0
 40
111.0
 40
111.0
 40
112.0
 40
112.0
 40
112.0
 40
113.0
 40
113.0
 40
113.0
 40
114.0
 40
114.0
 40
114.0
 40
115.0
 40
115.0
 40
115.0
 40
116.0
 40
116.0
 40
116.0
 40
117.0
 40
117.0
 40
117.0
 40
118.0
 40
118.0
 40
118.0
 40
119.0
 40
119.0
 40
119.0
 40
120.0
 40
120.0
 40
120.0
 40
121.0
 40
121.0
 40
121.0
 40
122.0
 40
122.0
 40
122.0
 40
123.0
 40
123.0
 40
123.0
 40
124.0
 40
124.0
 40
124.0
 40
125.0
 40
125.0
 40
125.0
 40
126.0
 40
126.0
 40
126.0
 40
127.0
 40
127.0
 40
127.0
 40
128.0
 40
128.0
 40
128.0
 40
129.0
 40
129.0
 40
129.0
 40
130.0
 40
130.0
 40
130.0
 40
131.0
 40
131.0
 40
131.0
 40
132.0
 40
132.0
 40
132.0
 40
133.0
 40
133.0
 40
133.0
 40
134.0
 40
134.0
 40
134.0
 40
135.0
 40
135.0
 40
135.0
 40
136.0
 40
136.0
 40
136.0
 40
137.0
 40
137.0
 40
137.0
 40
138.0
 40
138.0
 40
138.0
 40
139.0
 40
139.0
 40
139.0
 40
140.0
 40
140.0
 40
140.0
 40
141.0
 40
141.0
 40
141.0
 40
142.0
 40
142.0
 40
142.0
 40
143.0
 40
143.0
 40
143.0
 40
144.0
 40
144.0
 40
144.0
 40
145.0
 40
145.0
 40
145.0
 40
146.0
 40
146.0
 40
146.0
 40
147.0
 40
147.0
 40
147.0
 40
148.0
 40
148.0
 40
148.0
 40
149.0
 40
149.0
 40
149.0
 40
150.0
 40
150.0
 40
150.0
 40
151.0
 40
151.0
 40
151.0
 40
152.0
 40
152.0
 40
152.0
 40
153.0
 40
153.0
 40
153.0
 40
154.0
 40
154.0
 40
154.0
 40
155.0
 40
155.0
 40
155.0
 40
156.0
 40
156.0
 40
156.0
 40
157.0
 40
157.0
 40
157.0
 40
158.0
 40
158.0
 40
158.0
 40
159.0
 40
159.0
 40
159.0
 40
160.0
 40
160.0
 40
160.0
 40
161.0
 40
161.0
 40
161.0
 40
162.0
 40
162.0
 40
162.0
 40
163.0
 40
163.0
 40
163.0
 40
164.0
 40
164.0
 40
164.0
 40
165.0
 40
165.0
 40
165.0
 40
166.0
 40
166.0
 40
166.0
 40
167.0
 40
167.0
 40
167.0
 40
168.0
 40
168.0
 40
168.0
 40
169.0
 40
169.0
 40
169.0
 40
170.0
 40
170.0
 40
170.0
 40
171.0
 40
171.0
 40
171.0
 40
172.0
 40
172.0
 40
172.0
 40
173.0
 40
173.0
 40
173.0
 40
174.0
 40
174.0
 40
174.0
 40
175.0
 40
175.0
 40
175.0
 40
176.0
 40
176.0
 40
176.0
 40
177.0
 40
177.0
 40
177.0
 40
178.0
 40
178.0
 40
178.0
 40
179.0
 40
179.0
 40
179.0
 40
180.0
 40
180.0
 40
180.0
 40
181.0
 40
181.0
 40
181.0
 40
182.0
 40
182.0
 40
182.0
 40
183.0
 40
183.0
 40
183.0
 40
184.0
 40
184.0
 40
184.0
 40
185.0
 40
185.0
 40
185.0
 40
186.0
 40
186.0
 40
186.0
 40
187.0
 40
187.0
 40
187.0
 40
188.0
 40
188.0
 40
188.0
 40
189.0
 40
189.0
 40
189.0
 40
190.0
 40
190.0
 40
190.0
 40
191.0
 40
191.0
 40
191.0
 40
192.0
 40
192.0
 40
192.0
 40
193.0
 40
193.0
 40
193.0
 40
194.0
 40
194.0
 40
194.0
 40
195.0
 40
195.0
 40
195.0
 40
196.0
 40
196.0
 40
196.0
 40
197.0
 40
197.0
 40
197.0
 40
198.0
 40
198.0
 40
198.0
 40
199.0
 40
199.0
 40
199.0
 40
200.0
 40
200.0
 40
200.0
 40
201.0
 40
201.0
 40
201.0
 40
202.0
 40
202.0
 40
202.0
 40
203.0
 40
203.0
 40
203.0
 40
204.0
 40
204.0
 40
204.0
 40
205.0
 40
205.0
 40
205.0
 40
206.0
 40
206.0
 40
206.0
 40
207.0
 40
207.0
 40
207.0
 40
208.0
 40
208.0
 40
208.0
 40
209.0
 40
209.0
 40
209.0
 40
210.0
 40
210.0
 40
210.0
 40
211.0
 40
211.0
 40
211.0
 40
212.0
 40
212.0
 40
212.0
 40
213.0
 40
213.0
 40
213.0
 40
214.0
 40
214.0
 40
214.0
 40
215.0
 40
215.0
 40
215.0
 40
216.0
 40
216.0
 40
216.0
 40
217.0
 40
217.0
 40
217.0
 40
218.0
 40
218.0
 40
218.0
 40
219.0
 40
219.0
 40
219.0
 40
220.0
 40
220.0
 40
220.0
 40
221.0
 40
221.0
 40
221.0
 40
222.0
 40
222.0
 40
222.0
 40
223.0
 40
223.0
 40
223.0
 40
224.0
 40
224.0
 40
224.0
 40
225.0
 40
225.0
 40
225.0
 40
226.0
 40
226.0
 40
226.0
 40
227.0
 40
227.0
 40
227.0
 40
228.0
 40
228.0
 40
228.0
 40
229.0
 40
229.0
 40
229.0
 40
230.0
 40
230.0
 40
230.0
 40
231.0
 40
231.0
 40
231.0
 40
232.0
 40
232.0
 40
232.0
 40
233.0
 40
233.0
 40
233.0
 40
234.0
 40
234.0
 40
234.0
 40
235.0
 40
235.0
 40
235.0
 40
236.0
 40
236.0
 40
236.0
 40
237.0
 40
237.0
 40
237.0
 40
238.0
 40
238.0
 40
238.0
 40
239.0
 40
239.0
 40
239.0
 40
240.0
 40
240.0
 40
240.0
 40
241.0
 40
241.0
 40
241.0
 40
242.0
 40
242.0
 40
242.0
 40
243.0
 40
243.0
 40
243.0
 40
244.0
 40
244.0
 40
244.0
 40
245.0
 40
245.0
 40
245.0
 40
246.0
 40
246.0
 40
246.0
 40
247.0
 40
247.0
 40
247.0
 40
248.0
 40
248.0
 40
248.0
 40
249.0
 40
249.0
 40
249.0
 40
250.0
 40
250.0
 40
250.0
 40
251.0
 40
251.0
 40
251.0
 40
252.0
 40
252.0
 40
252.0
 40
253.0
 40
253.0
 40
253.0
 40
254.0
 40
254.0
 40
254.0
 40
255.0
 40
255.0
 40
255.0
 40
256.0
 40
256.0
 40
256.0
 40
257.0
 40
257.0
 40
257.0
 40
258.0
 40
258.0
 40
258.0
 40
259.0
 40
259.0
 40
259.0
 40
260.0
 40
260.0
 40
260.0
 40
261.0
 40
261.0
 40
261.0
 40
262.0
 40
262.0
 40
262.0
 40
263.0
 40
263.0
 40
263.0
 40
264.0
 40
264.0
 40
264.0
 40
265.0
 40
265.0
 40
265.0
 40
266.0
 40
266.0
 40
266.0
 40
267.0
 40
267.0
 40
267.0
 40
268.0
 40
268.0
 40
268.0
 40
269.0
 40
269.0
 40
269.0
 40
270.0
 40
270.0
 40
270.0
 40
271.0
 40
271.0
 40
271.0
 40
272.0
 40
272.0
 40
272.0
 40
273.0
 40
273.0
 40
273.0
 40
274.0
 40
274.0
 40
274.0
 40
275.0
 40
275.0
 40
275.0
 40
276.0
 40
276.0
 40
276.0
 40
277.0
 40
277.0
 40
277.0
 40
278.0
 40
278.0
 40
278.0
 40
279.0
 40
279.0
 40
279.0
 40
280.0
 40
280.0
 40
280.0
 40
281.0
 40
281.0
 40
281.0
 40
282.0
 40
282.0
 40
282.0
 40
283.0
 40
283.0
 40
283.0
 40
284.0
 40
284.0
 40
284.0
 40
285.0
 40
285.0
 40
285.0
 40
286.0
 40
286.0
 40
286.0
 40
287.0
 40
287.0
 40
287.0
 40
288.0
 40
288.0
 40
288.0
 40
289.0
 40
289.0
 40
289.0
 40
290.0
 40
290.0
 40
290.0
 40
291.0
 40
291.0
 40
291.0
 40
292.0
 40
292.0
 40
292.0
 40
293.0
 40
293.0
 40
293.0
 40
294.0
 40
294.0
 40
294.0
 40
295.0
 40
295.0
 40
295.0
 40
296.0
 40
296.0
 40
296.0
 40
297.0
 40
297.0
 40
297.0
 40
298.0
 40
298.0
 40
298.0
 40
299.0
 40
299.0
 40
299.0
 40
300.0
 40
300.0
 40
300.0
 40
301.0
 40
301.0
 40
301.0
 40
302.0
 40
302.0
 40
302.0
 40
303.0
 40
303.0
 40
303.0
 40
304.0
 40
304.0
 40
304.0
 40
305.0
 40
305.0
 40
305.0
 40
306.0
 40
306.0
 40
306.0
 40
307.0
 40
307.0
 40
307.0
 40
307.0
 10
247.2122291431097
 20
381.6147601557714
 30
0.0
 10
246.9636903965556
 20
381.9142707375922
 30
0.0
 10
246.874484822969
 20
382.1627900366693
 30
0.0
 10
246.9509522996086
 20
382.3635268865855
 30
0.0
 10
246.9254566582367
 20
382.239276960785
 30
0.0
 10
246.8394210232791
 20
382.1277456844546
 30
0.0
 10
246.6896754561076
 20
382.0289719525499
 30
0.0
 10
246.565406082831
 20
382.1755475810933
 30
0.0
 10
246.3391930390189
 20
382.3635268865855
 30
0.0
 10
246.0173762019331
 20
382.5865699917667
 30
0.0
 10
245.6923699787403
 20
382.812802483053
 30
0.0
 10
245.4693268735591
 20
382.9976118499162
 30
0.0
 10
245.3450769477586
 20
383.1505468031937
 30
0.0
 10
245.2940856650148
 20
383.2238248937265
 30
0.0
 10
245.227166899218
 20
383.3289773978431
 30
0.0
 10
245.1379613256304
 20
383.4659848680676
 30
0.0
 10
245.0519256906737
 20
383.6029923382921
 30
0.0
 10
244.9404138618211
 20
383.7846123190484
 30
0.0
 10
244.8034063915966
 20
384.0076554242296
 30
0.0
 10
244.6663989213721
 20
384.2306985294126
 30
0.0
 10
244.5676251894674
 20
384.425056607115
 30
0.0
 10
244.5038958097757
 20
384.5875597187114
 30
0.0
 10
244.4433558161909
 20
384.7500628303078
 30
0.0
 10
244.4369770439789
 20
384.8424577900005
 30
0.0
 10
244.4847789406167
 20
384.8679534313724
 30
0.0
 10
244.0131970888815
 20
384.6672165814562
 30
0.0
 10
243.3281597377591
 20
384.8042240516806
 30
0.0
 10
242.4296279922974
 20
385.2789758420458
 30
0.0
 10
242.2575761698599
 20
385.3777495739505
 30
0.0
 10
241.9931099402529
 20
385.6390264174515
 30
0.0
 10
241.6457974617942
 20
386.0628063725489
 30
0.0
 10
241.2985044308125
 20
386.4865668801704
 30
0.0
 10
240.9352644693008
 20
386.6713762470317
 30
0.0
 10
240.5624757969463
 20
386.6235743503948
 30
0.0
 10
240.4382064236697
 20
386.598098156499
 30
0.0
 10
240.2693245398623
 20
386.5534856459672
 30
0.0
 10
240.0590389791041
 20
386.4929456523823
 30
0.0
 10
239.8455640322409
 20
386.4292162726906
 30
0.0
 10
239.6671334375906
 20
386.4005506926896
 30
0.0
 10
239.5173684229421
 20
386.4005506926896
 30
0.0
 10
239.3676228557706
 20
386.4005506926896
 30
0.0
 10
239.1668860058544
 20
386.4483331418505
 30
0.0
 10
238.9183472593013
 20
386.5502962598621
 30
0.0
 10
238.7207997954911
 20
386.6235743503948
 30
0.0
 10
238.453163627255
 20
386.7669605928313
 30
0.0
 10
238.1154193071143
 20
386.9772656010646
 30
0.0
 10
237.7808449256045
 20
387.1907405479287
 30
0.0
 10
237.5482531095804
 20
387.3213692459412
 30
0.0
 10
237.4239837363039
 20
387.3691711425781
 30
0.0
 10
237.102166899218
 20
387.5444123511224
 30
0.0
 10
236.9396832350976
 20
387.6304479860792
 30
0.0
 10
236.9396832350976
 20
387.6304479860792
 30
0.0
 10
236.9396832350976
 20
387.6304479860792
 30
0.0
 10
236.3406620714568
 20
387.9299585679
 30
0.0
 10
236.3406620714568
 20
387.9299585679
 30
0.0
 10
236.1908970568084
 20
388.0032366584328
 30
0.0
 10
236.0347727174239
 20
388.1211272594974
 30
0.0
 10
235.8754589919336
 20
388.2836303710938
 30
0.0
 10
235.7129558803372
 20
388.4461334826901
 30
0.0
 10
235.6078033762205
 20
388.6149959190225
 30
0.0
 10
235.5568315409537
 20
388.7902565750428
 30
0.0
 10
235.5058597056859
 20
388.9400021422152
 30
0.0
 10
235.4453197121011
 20
389.2363233379292
 30
0.0
 10
235.3688327879854
 20
389.6855989343985
 30
0.0
 10
235.2955546974526
 20
390.13485508339
 30
0.0
 10
235.1967809655471
 20
390.4598613065828
 30
0.0
 10
235.0725115922705
 20
390.6574087703921
 30
0.0
 10
234.9227660250981
 20
390.9059280694692
 30
0.0
 10
234.7092910782349
 20
391.1544668160241
 30
0.0
 10
234.4352566903099
 20
391.4029861151012
 30
0.0
 10
234.1612417498609
 20
391.6515248616543
 30
0.0
 10
233.9127224507838
 20
391.7789836210359
 30
0.0
 10
233.6896793456026
 20
391.7789836210359
 30
0.0
 10
233.8872268094119
 20
391.7789836210359
 30
0.0
 10
233.8872268094119
 20
391.9446566712631
 30
0.0
 10
233.6896793456026
 20
392.282400991402
 30
0.0
 10
233.4889424956864
 20
392.6201453115427
 30
0.0
 10
233.316890673249
 20
392.8623052858838
 30
0.0
 10
233.1671256586005
 20
393.0120703005323
 30
0.0
 10
233.1161538233328
 20
393.0598527496932
 30
0.0
 10
232.9663888086843
 20
393.2223558612895
 30
0.0
 10
232.7178695096072
 20
393.4963708017385
 30
0.0
 10
232.4693307630541
 20
393.7704051896635
 30
0.0
 10
232.2558558161909
 20
394.0061863917927
 30
0.0
 10
232.0837845462765
 20
394.2069232417089
 30
0.0
 10
231.9085433377322
 20
394.4076600916251
 30
0.0
 10
231.7587977705607
 20
394.6370625215422
 30
0.0
 10
231.6345283972842
 20
394.8983393650433
 30
0.0
 10
231.5102590240067
 20
395.1596162085443
 30
0.0
 10
231.4847828301117
 20
395.3794699276186
 30
0.0
 10
231.5580609206445
 20
395.5515217500579
 30
0.0
 10
231.5835565620164
 20
395.5770173914298
 30
0.0
 10
231.5580609206445
 20
395.6152511297496
 30
0.0
 10
231.4847828301117
 20
395.6630530263865
 30
0.0
 10
231.4082959059961
 20
395.7140248616543
 30
0.0
 10
231.3159009463034
 20
395.7649966969202
 30
0.0
 10
231.2043891174508
 20
395.8127985935589
 30
0.0
 10
231.0928578411222
 20
395.8637704288267
 30
0.0
 10
230.9877053370046
 20
395.9083829393567
 30
0.0
 10
230.88576166647
 20
395.9434272915714
 30
0.0
 10
230.7869879345653
 20
395.9816804773673
 30
0.0
 10
230.7136903965556
 20
396.0007973465263
 30
0.0
 10
230.6627185612888
 20
396.0007973465263
 30
0.0
 10
230.7136903965556
 20
395.8988342285156
 30
0.0
 10
230.7678710654054
 20
395.7204036338662
 30
0.0
 10
230.8315809976211
 20
395.4591267903652
 30
0.0
 10
230.892120991206
 20
395.1978499468642
 30
0.0
 10
230.9622291431097
 20
395.0034918691599
 30
0.0
 10
231.0355072336424
 20
394.8792224958834
 30
0.0
 10
231.0864985163862
 20
394.7804487639787
 30
0.0
 10
231.2967840771435
 20
394.4172088024661
 30
0.0
 10
231.6727621356031
 20
393.7958813835594
 30
0.0
 10
232.3195851958817
 20
392.7507934570312
 30
0.0
 10
232.6190957777026
 20
391.9765310848452
 30
0.0
 10
232.5681044949588
 20
391.479473039215
 30
0.0
 10
232.4183589277873
 20
391.4316711425781
 30
0.0
 10
232.3195851958817
 20
391.4539773978431
 30
0.0
 10
232.2685939131388
 20
391.5527511297496
 30
0.0
 10
232.220811463977
 20
391.6515248616543
 30
0.0
 10
232.1825582781812
 20
391.7917217179838
 30
0.0
 10
232.1570820842862
 20
391.9637735404212
 30
0.0
 10
232.1315864429143
 20
392.1390147489656
 30
0.0
 10
232.1060908015425
 20
392.2632841222421
 30
0.0
 10
232.0806146076466
 20
392.3397515988818
 30
0.0
 10
232.0073170696378
 20
392.4863272274233
 30
0.0
 10
231.8129589919336
 20
392.6488303390197
 30
0.0
 10
231.5038996992716
 20
392.824071547564
 30
0.0
 10
231.1916315730268
 20
392.9993127561083
 30
0.0
 10
230.9972734953226
 20
393.1745539646527
 30
0.0
 10
230.9239954047898
 20
393.3466252345661
 30
0.0
 10
230.9494715986857
 20
393.3466252345661
 30
0.0
 10
230.9781566261636
 20
393.359363331514
 30
0.0
 10
231.0163903644825
 20
393.3848589728859
 30
0.0
 10
231.0546241028023
 20
393.4103546142578
 30
0.0
 10
231.0864985163862
 20
393.4230927112058
 30
0.0
 10
231.1119747102812
 20
393.4230927112058
 30
0.0
 10
231.1374703516531
 20
393.646135816387
 30
0.0
 10
231.0068416536405
 20
393.9328888537839
 30
0.0
 10
230.7200691687685
 20
394.2802013322416
 30
0.0
 10
230.4332966838956
 20
394.6306837493303
 30
0.0
 10
230.315406082831
 20
394.8792224958834
 30
0.0
 10
230.3632079794679
 20
395.0289680630558
 30
0.0
 10
230.1656605156586
 20
395.1787330777042
 30
0.0
 10
229.9904193071143
 20
395.4718648873131
 30
0.0
 10
229.8406542924658
 20
395.9051935532516
 30
0.0
 10
229.6909087252934
 20
396.341711605297
 30
0.0
 10
229.5666393520169
 20
396.622105317957
 30
0.0
 10
229.4678656201122
 20
396.7463746912345
 30
0.0
 10
229.3659025021016
 20
396.8961397058829
 30
0.0
 10
229.244822514931
 20
397.0267684038945
 30
0.0
 10
229.0950769477586
 20
397.1382802327471
 30
0.0
 10
228.9453119331101
 20
397.2498115090766
 30
0.0
 10
228.7573131801419
 20
397.3772508209831
 30
0.0
 10
228.5342895224367
 20
397.5142777386836
 30
0.0
 10
228.3080570311495
 20
397.6512852089081
 30
0.0
 10
228.158311463977
 20
397.7436801686008
 30
0.0
 10
228.0850139259683
 20
397.7946520038677
 30
0.0
 10
228.0340420907005
 20
397.8169582591336
 30
0.0
 10
227.9352683587958
 20
397.9284895354631
 30
0.0
 10
227.7855033441474
 20
398.1292263853784
 30
0.0
 10
226.9634585228005
 20
399.1265318627447
 30
0.0
 10
226.7149197762474
 20
399.6618236466948
 30
0.0
 10
227.0399259994401
 20
399.7351017372284
 30
0.0
 10
226.7149197762474
 20
399.6618236466948
 30
0.0
 10
226.4472641605344
 20
399.9039836210359
 30
0.0
 10
226.2369785997771
 20
400.4647515988818
 30
0.0
 10
226.023503652913
 20
401.0255390242037
 30
0.0
 10
225.9565848871162
 20
401.4556977515131
 30
0.0
 10
226.0298629776489
 20
401.752018947227
 30
0.0
 10
226.0298629776489
 20
401.752018947227
 30
0.0
 10
225.9565848871162
 20
401.7902526855469
 30
0.0
 10
225.9565848871162
 20
401.7902526855469
 30
0.0
 10
225.9788911423821
 20
401.8890264174515
 30
0.0
 10
225.9916292393291
 20
402.1821582270604
 30
0.0
 10
225.9916292393291
 20
402.6696675618487
 30
0.0
 10
225.9916292393291
 20
403.1539680630558
 30
0.0
 10
226.023503652913
 20
403.5968648873122
 30
0.0
 10
226.0872330326047
 20
403.9951492010377
 30
0.0
 10
226.1477730261904
 20
404.3934335147633
 30
0.0
 10
226.265663627255
 20
404.5941703646795
 30
0.0
 10
226.4409048357984
 20
404.5941703646795
 30
0.0
 10
226.265663627255
 20
404.5686747233076
 30
0.0
 10
226.1350154817655
 20
404.7247990626911
 30
0.0
 10
226.0489798468088
 20
405.0593734442018
 30
0.0
 10
225.9629636593281
 20
405.3971177643425
 30
0.0
 10
225.9565848871162
 20
405.6265201942597
 30
0.0
 10
226.0298629776489
 20
405.7507895675362
 30
0.0
 10
226.0553586190208
 20
405.827257044175
 30
0.0
 10
226.1668898953494
 20
405.7762852089081
 30
0.0
 10
226.3676072977896
 20
405.6010245528878
 30
0.0
 10
226.5651742090749
 20
405.4289727304495
 30
0.0
 10
226.6766860379275
 20
405.3142715154909
 30
0.0
 10
226.7021816792994
 20
405.2664696188531
 30
0.0
 10
227.0271684550162
 20
405.4417108273974
 30
0.0
 10
227.1514378282927
 20
405.6647539325786
 30
0.0
 10
227.0749703516531
 20
405.9387883205036
 30
0.0
 10
227.0271684550162
 20
406.0375620524092
 30
0.0
 10
226.7658916115151
 20
406.2988194484333
 30
0.0
 10
226.29113982115
 20
406.7225994035307
 30
0.0
 10
225.2205562532499
 20
407.4203942990771
 30
0.0
 10
224.6725263723529
 20
407.7581386192169
 30
0.0
 10
224.647030730981
 20
407.7326429778459
 30
0.0
 10
224.7967762981534
 20
408.0066773657709
 30
0.0
 10
224.7585425598336
 20
408.2424585679
 30
0.0
 10
224.5354994546524
 20
408.4431954178153
 30
0.0
 10
224.2869801555753
 20
408.2934304031669
 30
0.0
 10
224.1435939131388
 20
408.255196664848
 30
0.0
 10
224.105360174819
 20
408.3284942028567
 30
0.0
 10
224.0703158226052
 20
408.4049616794964
 30
0.0
 10
224.0384414090213
 20
408.5419691497209
 30
0.0
 10
224.0129652151263
 20
408.7395166135302
 30
0.0
 10
223.9874695737544
 20
408.9402534634464
 30
0.0
 10
223.9237401940627
 20
409.051765292299
 30
0.0
 10
223.824966462158
 20
409.07726093367
 30
0.0
 10
223.7006970888815
 20
409.1027565750419
 30
0.0
 10
223.5509515217091
 20
409.2015303069475
 30
0.0
 10
223.3788996992716
 20
409.3735821293849
 30
0.0
 10
225.5933449256045
 20
412.9103390562768
 30
0.0
 10
228.5215319780127
 20
415.6760424445656
 30
0.0
 10
232.1570820842862
 20
417.6706339518232
 30
0.0
 10
232.3068276514578
 20
417.6929402070891
 30
0.0
 10
232.5808425919067
 20
417.7056977515131
 30
0.0
 10
232.9791269056323
 20
417.7056977515131
 30
0.0
 10
233.1766938169185
 20
417.6802021101412
 30
0.0
 10
233.3646731224098
 20
417.6196621165554
 30
0.0
 10
233.5399143309542
 20
417.5208883846508
 30
0.0
 10
233.7119856008685
 20
417.4189252666401
 30
0.0
 10
233.8936055816239
 20
417.2819177964157
 30
0.0
 10
234.0815848871162
 20
417.1098659739773
 30
0.0
 10
234.2663942539775
 20
416.934605317957
 30
0.0
 10
234.409780496414
 20
416.8103553921574
 30
0.0
 10
234.5117436144255
 20
416.7370578541477
 30
0.0
 10
234.5595260635864
 20
416.8868228687961
 30
0.0
 10
234.4989860700016
 20
417.1098659739773
 30
0.0
 10
234.3237448614573
 20
417.4093765557982
 30
0.0
 10
234.3715467580951
 20
417.5591221229706
 30
0.0
 10
234.64875108465
 20
417.7088676901421
 30
0.0
 10
235.1458091302802
 20
417.8554433186846
 30
0.0
 10
235.7193346525492
 20
417.9319107953243
 30
0.0
 10
236.0921233249028
 20
417.9191726983763
 30
0.0
 10
236.2673645334471
 20
417.8203989664717
 30
0.0
 10
236.1176189662747
 20
418.0434420716529
 30
0.0
 10
235.8690802197216
 20
418.3556907504217
 30
0.0
 10
235.5185978026338
 20
418.7539750641472
 30
0.0
 10
235.5185978026338
 20
418.7539750641472
 30
0.0
 10
235.3337884357716
 20
418.5659763111789
 30
0.0
 10
235.3337884357716
 20
418.5659763111789
 30
0.0
 10
235.1330515858563
 20
418.7412369671993
 30
0.0
 10
234.6105173463302
 20
418.6552013322416
 30
0.0
 10
233.7629574361354
 20
418.3047189151539
 30
0.0
 10
233.7151749869745
 20
418.279223273782
 30
0.0
 10
233.587716227592
 20
418.2123045079852
 30
0.0
 10
233.3901687637817
 20
418.1007926791326
 30
0.0
 10
233.1894319138664
 20
417.9892614028031
 30
0.0
 10
233.02692880227
 20
417.9064346014284
 30
0.0
 10
232.9026594289935
 20
417.8586327047906
 30
0.0
 10
232.7561032479271
 20
417.8076608695237
 30
0.0
 10
232.6063382332786
 20
417.7949033250998
 30
0.0
 10
232.4565926661062
 20
417.8203989664717
 30
0.0
 10
233.6514456072828
 20
418.4672025792743
 30
0.0
 10
234.8208029070875
 20
418.9770181693284
 30
0.0
 10
235.9678539516262
 20
419.352996227788
 30
0.0
 10
236.0411514896359
 20
419.3020049450442
 30
0.0
 10
236.1654014154365
 20
419.1968718884036
 30
0.0
 10
236.3406620714568
 20
419.0343687768072
 30
0.0
 10
236.5159032800002
 20
418.8718656652118
 30
0.0
 10
236.6529107502247
 20
418.7539750641472
 30
0.0
 10
236.7516844821293
 20
418.6806969736135
 30
0.0
 10
236.6784063915966
 20
418.7284794227753
 30
0.0
 10
236.6274151088528
 20
418.7061731675094
 30
0.0
 10
236.6019389149578
 20
418.6042294969748
 30
0.0
 10
236.5031651830523
 20
418.3047189151539
 30
0.0
 10
236.5031651830523
 20
418.0561801686008
 30
0.0
 10
236.6019389149578
 20
417.8586327047906
 30
0.0
 10
236.7261888407584
 20
417.6833914962472
 30
0.0
 10
236.8950707245658
 20
417.5846177643425
 30
0.0
 10
237.105356285324
 20
417.5591221229706
 30
0.0
 10
237.3188506796632
 20
417.5336264815987
 30
0.0
 10
237.5737487509523
 20
417.5463840260227
 30
0.0
 10
237.8732593327732
 20
417.5973558612895
 30
0.0
 10
238.172769914594
 20
417.6451577579273
 30
0.0
 10
238.3703173784033
 20
417.6706339518232
 30
0.0
 10
238.472280496414
 20
417.6706339518232
 30
0.0
 10
238.472280496414
 20
417.6706339518232
 30
0.0
 10
238.8450691687685
 20
417.6324002135034
 30
0.0
 10
238.8450691687685
 20
417.6324002135034
 30
0.0
 10
239.5715296443159
 20
417.5655008951826
 30
0.0
 10
239.8933464814017
 20
417.6196621165554
 30
0.0
 10
239.813689618657
 20
417.8012820973117
 30
0.0
 10
239.8806083844547
 20
417.6865808823532
 30
0.0
 10
239.9570758610935
 20
417.5017715154909
 30
0.0
 10
240.0399221099442
 20
417.2404946719898
 30
0.0
 10
240.1386958418498
 20
416.9282459932219
 30
0.0
 10
240.2502076707024
 20
416.7115816602518
 30
0.0
 10
240.3744770439789
 20
416.5873122869752
 30
0.0
 10
240.5019358033614
 20
416.6860860188799
 30
0.0
 10
240.5242420586274
 20
416.8613272274242
 30
0.0
 10
240.4509445206177
 20
417.1098659739773
 30
0.0
 10
240.3744770439789
 20
417.3583852730544
 30
0.0
 10
240.3744770439789
 20
417.5336264815987
 30
0.0
 10
240.4509445206177
 20
417.6324002135034
 30
0.0
 10
240.4764401619896
 20
417.6833914962472
 30
0.0
 10
240.5497182525223
 20
417.734363331514
 30
0.0
 10
240.6739876257998
 20
417.7821652281518
 30
0.0
 10
240.7982569990763
 20
417.8331370634187
 30
0.0
 10
240.9416432415128
 20
417.8873177322685
 30
0.0
 10
241.1041269056323
 20
417.9510276644842
 30
0.0
 10
241.2666300172286
 20
418.014757044175
 30
0.0
 10
241.3717825213453
 20
418.0561801686008
 30
0.0
 10
241.422754356613
 20
418.0816758099727
 30
0.0
 10
241.5725193712615
 20
418.1804495418774
 30
0.0
 10
241.4705562532499
 20
418.3556907504217
 30
0.0
 10
241.1232632222682
 20
418.6042294969748
 30
0.0
 10
241.0722719395244
 20
418.6297056908697
 30
0.0
 10
240.9671194354078
 20
418.6679394291896
 30
0.0
 10
240.8046357712883
 20
418.7157413258274
 30
0.0
 10
240.6453220457979
 20
418.7667131610942
 30
0.0
 10
240.5019358033614
 20
418.817704443838
 30
0.0
 10
240.3776664300849
 20
418.8654868929998
 30
0.0
 10
240.2533970568084
 20
418.9164781757427
 30
0.0
 10
240.1227683587958
 20
418.9833774940644
 30
0.0
 10
239.9857608885713
 20
419.0726025151271
 30
0.0
 10
239.8487534183469
 20
419.1586381500847
 30
0.0
 10
239.7850240386551
 20
419.2574118819894
 30
0.0
 10
239.7977621356031
 20
419.3721130969479
 30
0.0
 10
239.810500232551
 20
419.4836249258005
 30
0.0
 10
239.8774189983487
 20
419.627011168237
 30
0.0
 10
240.0016883716253
 20
419.7990824381513
 30
0.0
 10
240.1514339387968
 20
419.9233323639519
 30
0.0
 10
240.3967832992448
 20
419.9743236466948
 30
0.0
 10
240.7313382332786
 20
419.9488280053229
 30
0.0
 10
241.0658931673124
 20
419.9265217500579
 30
0.0
 10
241.3239806247075
 20
419.8627923703662
 30
0.0
 10
241.4960518946218
 20
419.7640186384615
 30
0.0
 10
242.1683511487963
 20
419.3880405800019
 30
0.0
 10
242.270314266807
 20
419.0534856459672
 30
0.0
 10
241.7955624764427
 20
418.7539750641472
 30
0.0
 10
242.0440817755198
 20
418.7284794227753
 30
0.0
 10
242.3435923573406
 20
418.6297056908697
 30
0.0
 10
242.6940942219044
 20
418.4544644823263
 30
0.0
 10
243.0413872528861
 20
418.282412659888
 30
0.0
 10
243.1783947231106
 20
418.0944139069206
 30
0.0
 10
243.1051166325778
 20
417.8936770570044
 30
0.0
 10
243.3026640963872
 20
418.269655115464
 30
0.0
 10
243.5034009463034
 20
418.4544644823263
 30
0.0
 10
243.7009484101127
 20
418.4544644823263
 30
0.0
 10
243.8252177833901
 20
418.4321582270604
 30
0.0
 10
243.9462977705607
 20
418.2632957907281
 30
0.0
 10
244.0578095994133
 20
417.9510276644842
 30
0.0
 10
244.1693408757419
 20
417.6387789857154
 30
0.0
 10
244.2362401940627
 20
417.473086488013
 30
0.0
 10
244.2617358354346
 20
417.447610294118
 30
0.0
 10
244.4624726853508
 20
417.1735759061921
 30
0.0
 10
244.6600201491601
 20
417.1098659739773
 30
0.0
 10
244.8607569990763
 20
417.2596115411498
 30
0.0
 10
245.0583044628856
 20
417.4093765557982
 30
0.0
 10
245.2654200850138
 20
417.6260408887674
 30
0.0
 10
245.4757056457711
 20
417.9127939261643
 30
0.0
 10
245.6700637234744
 20
418.1772601557714
 30
0.0
 10
245.787954324539
 20
418.3078888537839
 30
0.0
 10
245.8230181242288
 20
418.3078888537839
 30
0.0
 10
245.5808581498877
 20
418.4098519717945
 30
0.0
 10
245.5585518946218
 20
418.5054363175932
 30
0.0
 10
245.756099358432
 20
418.6042294969748
 30
0.0
 10
246.1288880307857
 20
418.830442540786
 30
0.0
 10
246.4666323509255
 20
418.8909825343708
 30
0.0
 10
246.7661429327463
 20
418.7922088024661
 30
0.0
 10
246.8394210232791
 20
418.7412369671993
 30
0.0
 10
246.9382142026607
 20
418.6297056908697
 30
0.0
 10
247.0624641284612
 20
418.4544644823263
 30
0.0
 10
247.2855072336424
 20
418.005208333333
 30
0.0
 10
247.2504628814286
 20
417.7949033250998
 30
0.0
 10
246.9509522996086
 20
417.8203989664717
 30
0.0
 10
247.1739954047898
 20
417.6196621165554
 30
0.0
 10
247.2663903644825
 20
417.3711233700024
 30
0.0
 10
247.2313460122696
 20
417.0716127881815
 30
0.0
 10
247.1931122739497
 20
416.7752915924675
 30
0.0
 10
246.9987347487695
 20
416.638284122243
 30
0.0
 10
246.6514417177877
 20
416.6605903775089
 30
0.0
 10
246.5271723445112
 20
416.6605903775089
 30
0.0
 10
246.3455523637549
 20
416.7243197571997
 30
0.0
 10
246.1097711616258
 20
416.8485891304763
 30
0.0
 10
245.8739899594966
 20
416.9728390562768
 30
0.0
 10
245.6923699787403
 20
417.0429472081805
 30
0.0
 10
245.5681006054638
 20
417.0524959190216
 30
0.0
 10
245.4438506796632
 20
417.0684428495515
 30
0.0
 10
245.2685900236429
 20
416.9983346976487
 30
0.0
 10
245.0455663659377
 20
416.8485891304763
 30
0.0
 10
244.9436032479271
 20
416.7243197571997
 30
0.0
 10
244.8129551024385
 20
416.5108448103365
 30
0.0
 10
244.6536413769481
 20
416.2145236146216
 30
0.0
 10
244.4911382653518
 20
415.9150130328007
 30
0.0
 10
244.3477714703922
 20
415.7015186384615
 30
0.0
 10
244.2235020971148
 20
415.577268712661
 30
0.0
 10
243.8507134247611
 20
415.2076499789373
 30
0.0
 10
243.2357453305904
 20
415.0706425087128
 30
0.0
 10
242.3754667709245
 20
415.1630374684055
 30
0.0
 10
242.4264386061914
 20
415.1471099853516
 30
0.0
 10
242.4137005092434
 20
415.0770212809248
 30
0.0
 10
242.3340436464987
 20
414.9431837493303
 30
0.0
 10
242.248008011542
 20
414.7934381821578
 30
0.0
 10
242.1301174104765
 20
414.6245562983495
 30
0.0
 10
241.980352395828
 20
414.4397663789641
 30
0.0
 10
241.8306068286565
 20
414.2517676259959
 30
0.0
 10
241.7445711936989
 20
414.1466151218792
 30
0.0
 10
241.7190949998039
 20
414.1211389279833
 30
0.0
 10
241.4960518946218
 20
413.8726001814302
 30
0.0
 10
241.3462868799734
 20
413.5858471440333
 30
0.0
 10
241.2698194033346
 20
413.2608409208406
 30
0.0
 10
241.2698194033346
 20
413.2130390242037
 30
0.0
 10
241.2570813063867
 20
413.0441765878713
 30
0.0
 10
241.2315856650148
 20
412.7574041029984
 30
0.0
 10
241.2060900236429
 20
412.4706510656024
 30
0.0
 10
241.158307574482
 20
412.2539672851562
 30
0.0
 10
241.0818400978433
 20
412.1042217179838
 30
0.0
 10
241.3813506796632
 20
412.1774998085175
 30
0.0
 10
241.6203212678984
 20
412.0277542413451
 30
0.0
 10
241.7923730903367
 20
411.6549461215154
 30
0.0
 10
241.9421186575091
 20
411.3076530905328
 30
0.0
 10
241.9421186575091
 20
411.1196543375654
 30
0.0
 10
241.7923730903367
 20
411.0941781436695
 30
0.0
 10
242.6144373591596
 20
411.2184280694701
 30
0.0
 10
243.337708448601
 20
411.1706456203083
 30
0.0
 10
243.9622252536137
 20
410.9444131290211
 30
0.0
 10
244.8575676129703
 20
410.6225962919343
 30
0.0
 10
245.3673637555485
 20
410.2976095162185
 30
0.0
 10
245.491633128825
 20
409.9726032930266
 30
0.0
 10
245.6413981434735
 20
410.1988357843138
 30
0.0
 10
246.0014487188791
 20
410.2115738812618
 30
0.0
 10
246.574974241149
 20
410.0108370313455
 30
0.0
 10
246.8011872849602
 20
409.886567658069
 30
0.0
 10
246.9987347487695
 20
409.5137789857154
 30
0.0
 10
247.1739954047898
 20
408.8924515668086
 30
0.0
 10
247.2727691366945
 20
408.516473508349
 30
0.0
 10
247.4416315730268
 20
408.1946566712622
 30
0.0
 10
247.677412775156
 20
407.9206417308133
 30
0.0
 10
247.9163833633911
 20
407.6466267903643
 30
0.0
 10
248.1713008821562
 20
407.5701593137255
 30
0.0
 10
248.4453158226052
 20
407.6944092395261
 30
0.0
 10
248.4453158226052
 20
407.6944092395261
 30
0.0
 10
248.5568276514578
 20
407.7708961636417
 30
0.0
 10
248.5568276514578
 20
407.7708961636417
 30
0.0
 10
248.6556013833633
 20
407.8186786128026
 30
0.0
 10
248.7352582461081
 20
407.8632911233344
 30
0.0
 10
248.7989876257998
 20
407.9015248616533
 30
0.0
 10
248.8627170054906
 20
407.9365692138672
 30
0.0
 10
248.9296357712883
 20
407.987560496611
 30
0.0
 10
249.0029138618211
 20
408.0512704288258
 30
0.0
 10
249.0793813384598
 20
408.1118104224115
 30
0.0
 10
249.1239938489916
 20
408.1691804773673
 30
0.0
 10
249.1335425598336
 20
408.2169629265281
 30
0.0
 10
249.1463001042575
 20
408.2679542092719
 30
0.0
 10
249.1271832350976
 20
408.3189260445388
 30
0.0
 10
249.0793813384598
 20
408.3667279411766
 30
0.0
 10
248.9041401299164
 20
408.516473508349
 30
0.0
 10
248.7734919844279
 20
408.7235891304763
 30
0.0
 10
248.6874757969463
 20
408.9848659739773
 30
0.0
 10
248.6014401619896
 20
409.2461233700024
 30
0.0
 10
248.6205570311495
 20
409.4755452473955
 30
0.0
 10
248.74163701832
 20
409.6762820973117
 30
0.0
 10
248.8181044949588
 20
409.7750558292164
 30
0.0
 10
249.015651958769
 20
409.9248013963888
 30
0.0
 10
249.3406581819609
 20
410.1255382463041
 30
0.0
 10
249.6656644051536
 20
410.3230857101144
 30
0.0
 10
249.8632118689638
 20
410.5238225600297
 30
0.0
 10
249.9396793456026
 20
410.7213700238399
 30
0.0
 10
250.0384530775073
 20
411.0463762470317
 30
0.0
 10
249.9141837042307
 20
411.3140318627447
 30
0.0
 10
249.563701287143
 20
411.5243174235029
 30
0.0
 10
249.2163888086843
 20
411.7377923703662
 30
0.0
 10
249.0411476001409
 20
411.9289805094404
 30
0.0
 10
249.0411476001409
 20
412.1042217179838
 30
0.0
 10
249.0411476001409
 20
412.2284910912604
 30
0.0
 10
249.1239938489916
 20
412.3782366584328
 30
0.0
 10
249.283307574482
 20
412.5534778669771
 30
0.0
 10
249.4458106860784
 20
412.7287385229974
 30
0.0
 10
249.5158993905052
 20
412.8880522484869
 30
0.0
 10
249.4904037491333
 20
413.0377978156594
 30
0.0
 10
249.4904037491333
 20
413.114265292299
 30
0.0
 10
249.4458106860784
 20
413.2703896316825
 30
0.0
 10
249.3597750511208
 20
413.5061902812886
 30
0.0
 10
249.2737394161641
 20
413.7419714834177
 30
0.0
 10
249.2227675808963
 20
413.917212691962
 30
0.0
 10
249.2100100364723
 20
414.0287245208146
 30
0.0
 10
249.1972719395244
 20
414.1402557971433
 30
0.0
 10
249.2546225470041
 20
414.2708844951558
 30
0.0
 10
249.3788919202807
 20
414.4206495098042
 30
0.0
 10
249.550943742719
 20
414.5225931803388
 30
0.0
 10
249.9619856008685
 20
414.5162338556029
 30
0.0
 10
250.6087892136711
 20
414.4015326406443
 30
0.0
 10
251.2588016600557
 20
414.2900013643157
 30
0.0
 10
251.6825621676762
 20
414.1721107632511
 30
0.0
 10
251.8801096314864
 20
414.0478413899737
 30
0.0
 10
251.9565965556021
 20
414.0000589408128
 30
0.0
 10
252.1190802197216
 20
413.923591464174
 30
0.0
 10
252.3676189662747
 20
413.8248177322685
 30
0.0
 10
252.6161382653518
 20
413.7260245528878
 30
0.0
 10
252.8328220457979
 20
413.6177021101412
 30
0.0
 10
253.0208013512893
 20
413.5061902812886
 30
0.0
 10
253.2056107181515
 20
413.3946590049591
 30
0.0
 10
253.3139331608982
 20
413.2895065008424
 30
0.0
 10
253.33942880227
 20
413.1907327689378
 30
0.0
 10
253.33942880227
 20
413.1907327689378
 30
0.0
 10
253.1514494967778
 20
413.1907327689378
 30
0.0
 10
253.1514494967778
 20
413.1907327689378
 30
0.0
 10
253.3266907053221
 20
413.0377978156594
 30
0.0
 10
253.4318237619627
 20
412.8657459932219
 30
0.0
 10
253.4700769477586
 20
412.6650091433057
 30
0.0
 10
253.5051212999724
 20
412.4674616794964
 30
0.0
 10
253.4127068928028
 20
412.317696664848
 30
0.0
 10
253.1896832350976
 20
412.2157335468364
 30
0.0
 10
253.33942880227
 20
412.2412291882083
 30
0.0
 10
253.5369762660794
 20
412.2061848359954
 30
0.0
 10
253.7855150126334
 20
412.1042217179838
 30
0.0
 10
254.1869887124649
 20
411.9544567033354
 30
0.0
 10
254.1965374233059
 20
411.8174492331109
 30
0.0
 10
253.8237487509523
 20
411.6931993073113
 30
0.0
 10
253.900216227592
 20
411.7186755012062
 30
0.0
 10
254.0053687317086
 20
411.7441711425781
 30
0.0
 10
254.1423762019331
 20
411.76966678395
 30
0.0
 10
254.2793836721576
 20
411.7951429778459
 30
0.0
 10
254.3845361762742
 20
411.8302067775348
 30
0.0
 10
254.457814266807
 20
411.8811786128026
 30
0.0
 10
254.5087861020747
 20
411.9066742541745
 30
0.0
 10
254.5693260956596
 20
411.9480973786003
 30
0.0
 10
254.6457935722992
 20
412.0118267582911
 30
0.0
 10
254.719091110308
 20
412.0755366905059
 30
0.0
 10
254.7764417177877
 20
412.1106004901958
 30
0.0
 10
254.8146754561076
 20
412.1233385871437
 30
0.0
 10
254.8497198083205
 20
412.1360766840917
 30
0.0
 10
254.9070704158003
 20
412.1488342285156
 30
0.0
 10
254.980367953809
 20
412.1615723254636
 30
0.0
 10
255.0568354304487
 20
412.1743104224115
 30
0.0
 10
255.1301135209815
 20
412.1551935532516
 30
0.0
 10
255.2033916115151
 20
412.1042217179838
 30
0.0
 10
255.2320766389921
 20
412.1042217179838
 30
0.0
 10
255.2862378603659
 20
412.1679510976755
 30
0.0
 10
255.3722734953226
 20
412.2922010234761
 30
0.0
 10
255.4583091302802
 20
412.4164703967526
 30
0.0
 10
255.5538934760789
 20
412.5407397700292
 30
0.0
 10
255.6526672079835
 20
412.6650091433057
 30
0.0
 10
255.7514409398882
 20
412.7892785165823
 30
0.0
 10
255.8406465134758
 20
412.852988448798
 30
0.0
 10
255.9139440514846
 20
412.852988448798
 30
0.0
 10
255.9872221420183
 20
412.852988448798
 30
0.0
 10
256.057330293921
 20
412.8211334826901
 30
0.0
 10
256.1178702875068
 20
412.7574041029984
 30
0.0
 10
256.1815802197216
 20
412.6968641094136
 30
0.0
 10
256.2293821163594
 20
412.6267754049859
 30
0.0
 10
256.2676158546792
 20
412.5534778669771
 30
0.0
 10
256.3058495929981
 20
412.4770103903375
 30
0.0
 10
256.344083331318
 20
412.3973535275927
 30
0.0
 10
256.3791276835318
 20
412.311337340112
 30
0.0
 10
256.4173808693276
 20
412.2221123190484
 30
0.0
 10
256.4492358354346
 20
412.1551935532516
 30
0.0
 10
256.4747314768065
 20
412.1042217179838
 30
0.0
 10
256.5225139259683
 20
411.9799523447073
 30
0.0
 10
256.6435939131388
 20
411.8493236466948
 30
0.0
 10
256.8284032800002
 20
411.7123161764703
 30
0.0
 10
257.0132126468625
 20
411.5752892587698
 30
0.0
 10
257.134292634033
 20
411.4446605607573
 30
0.0
 10
257.1820750831948
 20
411.3203911874807
 30
0.0
 10
257.2075707245658
 20
411.2471130969479
 30
0.0
 10
257.2585425598336
 20
411.0591143439797
 30
0.0
 10
257.3318400978433
 20
410.7596037621588
 30
0.0
 10
257.405118188376
 20
410.4600931803388
 30
0.0
 10
257.5070813063867
 20
410.2561863917927
 30
0.0
 10
257.6313506796632
 20
410.144655115464
 30
0.0
 10
257.7556006054638
 20
410.0299539005055
 30
0.0
 10
257.943599358432
 20
409.9375589408128
 30
0.0
 10
258.1921186575091
 20
409.8642614028031
 30
0.0
 10
258.239920554146
 20
409.8387852089081
 30
0.0
 10
258.3546217691055
 20
409.8515233058552
 30
0.0
 10
258.5266930390189
 20
409.8993252024929
 30
0.0
 10
258.7019342475633
 20
409.9502970377607
 30
0.0
 10
258.8453204899997
 20
409.9630351347078
 30
0.0
 10
258.9568323188523
 20
409.9375589408128
 30
0.0
 10
259.0683441477049
 20
409.9152526855469
 30
0.0
 10
259.1257142026607
 20
409.8132895675362
 30
0.0
 10
259.1257142026607
 20
409.6380483589919
 30
0.0
 10
259.2754597698331
 20
409.7877939261643
 30
0.0
 10
259.3487378603659
 20
409.889757044175
 30
0.0
 10
259.3487378603659
 20
409.9375589408128
 30
0.0
 10
259.3742335017378
 20
409.615742103726
 30
0.0
 10
259.4538903644825
 20
409.351275874119
 30
0.0
 10
259.590897834707
 20
409.1537284103097
 30
0.0
 10
259.7279053049315
 20
408.9561809464994
 30
0.0
 10
259.9477590240067
 20
408.8669559254367
 30
0.0
 10
260.2472696058276
 20
408.8924515668086
 30
0.0
 10
260.2472696058276
 20
408.8924515668086
 30
0.0
 10
260.1708021291888
 20
408.0703872979857
 30
0.0
 10
260.1708021291888
 20
408.0703872979857
 30
0.0
 10
260.0975240386551
 20
407.9461373721851
 30
0.0
 10
259.9095252856878
 20
407.8537229650165
 30
0.0
 10
259.6100147038669
 20
407.7900130328007
 30
0.0
 10
259.310504122046
 20
407.7294730392159
 30
0.0
 10
259.1257142026607
 20
407.6721029842602
 30
0.0
 10
259.049227278545
 20
407.6211311489933
 30
0.0
 10
258.9759491880122
 20
407.5988248937274
 30
0.0
 10
258.7943292072559
 20
407.449079326555
 30
0.0
 10
258.5075761698599
 20
407.17504493863
 30
0.0
 10
258.2431099402529
 20
406.9201468673409
 30
0.0
 10
258.1220299530814
 20
406.7640225279565
 30
0.0
 10
258.1443362083473
 20
406.7002931482657
 30
0.0
 10
257.7173668671439
 20
407.165496227788
 30
0.0
 10
257.0833013512893
 20
407.2961249258005
 30
0.0
 10
256.2484989855193
 20
407.0985774619903
 30
0.0
 10
255.3021847908958
 20
406.9488318948188
 30
0.0
 10
254.6521723445112
 20
406.7990668801704
 30
0.0
 10
254.3048793135295
 20
406.6493213129979
 30
0.0
 10
253.9065949998039
 20
406.4517738491886
 30
0.0
 10
253.6325606118789
 20
406.2637750962203
 30
0.0
 10
253.4828150447065
 20
406.091723273782
 30
0.0
 10
253.4573194033346
 20
406.0662276324101
 30
0.0
 10
253.4158962789088
 20
405.9770220588234
 30
0.0
 10
253.352166899218
 20
405.827257044175
 30
0.0
 10
253.2916269056323
 20
405.6806814156325
 30
0.0
 10
253.2279169734175
 20
405.5405040067781
 30
0.0
 10
253.1673769798317
 20
405.4162346335015
 30
0.0
 10
253.1195750831948
 20
405.3238202263328
 30
0.0
 10
253.078151958769
 20
405.2664696188531
 30
0.0
 10
253.0399182204492
 20
405.2441633635881
 30
0.0
 10
253.1801150767797
 20
405.282397101907
 30
0.0
 10
253.3330500300581
 20
405.3939283782365
 30
0.0
 10
253.5019319138664
 20
405.5850970698339
 30
0.0
 10
253.6899112193578
 20
405.798591464174
 30
0.0
 10
253.8078212678984
 20
405.9164820652386
 30
0.0
 10
253.8587931031661
 20
405.9419582591336
 30
0.0
 10
254.5056161634448
 20
406.362548828125
 30
0.0
 10
255.0409079473948
 20
406.5123138427734
 30
0.0
 10
255.4646684550162
 20
406.3848550833909
 30
0.0
 10
256.0127177833892
 20
406.2351095162185
 30
0.0
 10
256.1019233569768
 20
406.0375620524092
 30
0.0
 10
255.7259452985172
 20
405.7890233058552
 30
0.0
 10
255.6781628493554
 20
405.7380514705883
 30
0.0
 10
255.5475147038669
 20
405.7189346014284
 30
0.0
 10
255.3340397570037
 20
405.7316726983763
 30
0.0
 10
255.1237347487695
 20
405.7444107953243
 30
0.0
 10
254.980367953809
 20
405.7380514705883
 30
0.0
 10
254.9070704158003
 20
405.7125558292164
 30
0.0
 10
255.1301135209815
 20
405.6647539325786
 30
0.0
 10
255.3181122739497
 20
405.5946652281518
 30
0.0
 10
255.4678578411222
 20
405.5086295931951
 30
0.0
 10
255.6144334696646
 20
405.4225939582375
 30
0.0
 10
255.6526672079835
 20
405.3015334185429
 30
0.0
 10
255.5793891174508
 20
405.1517684038945
 30
0.0
 10
255.9776734311763
 20
404.9287252987133
 30
0.0
 10
256.0509515217091
 20
404.6802059996362
 30
0.0
 10
255.802412775156
 20
404.4061716117112
 30
0.0
 10
255.4774259994401
 20
404.0811848359954
 30
0.0
 10
255.0950691687685
 20
403.9441773657709
 30
0.0
 10
254.6457935722992
 20
403.9951492010377
 30
0.0
 10
254.719091110308
 20
403.9951492010377
 30
0.0
 10
254.719091110308
 20
403.9441773657709
 30
0.0
 10
254.6457935722992
 20
403.8454036338653
 30
0.0
 10
254.6457935722992
 20
403.8454036338653
 30
0.0
 10
254.0085386703386
 20
403.4343617757158
 30
0.0
 10
254.0085386703386
 20
403.4343617757158
 30
0.0
 10
253.9607562211768
 20
403.4088855818209
 30
0.0
 10
253.7982531095804
 20
403.3483455882351
 30
0.0
 10
253.5242381691323
 20
403.2463824702245
 30
0.0
 10
253.2502232286834
 20
403.1476087383198
 30
0.0
 10
253.0622244757151
 20
403.0360774619903
 30
0.0
 10
252.9634507438104
 20
402.9118275361907
 30
0.0
 10
252.8901726532767
 20
402.8130343568091
 30
0.0
 10
252.8519389149578
 20
402.6632887896367
 30
0.0
 10
252.8519389149578
 20
402.4625519397214
 30
0.0
 10
252.8519389149578
 20
402.2618150898052
 30
0.0
 10
252.8391813705339
 20
402.1120695226336
 30
0.0
 10
252.813685729162
 20
402.0132957907281
 30
0.0
 10
252.7882095352661
 20
401.9145220588234
 30
0.0
 10
252.6894358033614
 20
401.8890264174515
 30
0.0
 10
252.5141945948171
 20
401.9399982527193
 30
0.0
 10
252.4408970568084
 20
401.7902526855469
 30
0.0
 10
252.2083052407852
 20
401.6723620844823
 30
0.0
 10
251.8227590240067
 20
401.5863264495256
 30
0.0
 10
251.437232254706
 20
401.497120875938
 30
0.0
 10
251.1823147359401
 20
401.3664727304495
 30
0.0
 10
251.0580648101395
 20
401.194420908012
 30
0.0
 10
251.2078103773119
 20
400.9936840580958
 30
0.0
 10
251.195072280364
 20
400.7929472081805
 30
0.0
 10
251.0198310718206
 20
400.5953997443703
 30
0.0
 10
250.7203204899997
 20
400.3468609978172
 30
0.0
 10
250.4590436464987
 20
400.3723566391891
 30
0.0
 10
250.2360005413175
 20
400.6686778349031
 30
0.0
 10
250.11173116804
 20
400.6208953857422
 30
0.0
 10
250.0193362083473
 20
400.4966260124656
 30
0.0
 10
249.9556068286565
 20
400.2958891625494
 30
0.0
 10
249.8950668350708
 20
400.0951523126341
 30
0.0
 10
249.7994824892721
 20
399.9581448424096
 30
0.0
 10
249.6752131159956
 20
399.8848667518769
 30
0.0
 10
249.850454324539
 20
399.6108323639519
 30
0.0
 10
249.824978130644
 20
399.4100955140357
 30
0.0
 10
249.6019350254619
 20
399.2858455882351
 30
0.0
 10
249.6274112193578
 20
399.2858455882351
 30
0.0
 10
249.6815918882075
 20
399.2635393329692
 30
0.0
 10
249.7676080756883
 20
399.2125480502264
 30
0.0
 10
249.856833096751
 20
399.1615762149586
 30
0.0
 10
249.9492280564446
 20
399.1010362213738
 30
0.0
 10
250.0480017883492
 20
399.0245687447341
 30
0.0
 10
250.1499649063599
 20
398.9512712067253
 30
0.0
 10
250.2105048999456
 20
398.9130374684055
 30
0.0
 10
250.2360005413175
 20
398.9130374684055
 30
0.0
 10
250.1372268094119
 20
398.6900138107003
 30
0.0
 10
250.0002193391874
 20
398.5784825343708
 30
0.0
 10
249.824978130644
 20
398.5784825343708
 30
0.0
 10
249.9747236978164
 20
398.1801982206453
 30
0.0
 10
249.7867249448482
 20
397.7436801686008
 30
0.0
 10
249.2641907053221
 20
397.2689283782365
 30
0.0
 10
249.1654169734175
 20
397.170154646331
 30
0.0
 10
249.009292634033
 20
397.0713809144263
 30
0.0
 10
248.7989876257998
 20
396.9726071825216
 30
0.0
 10
248.5855126789356
 20
396.870644064511
 30
0.0
 10
248.3911546012323
 20
396.7909872017653
 30
0.0
 10
248.219083331318
 20
396.7272578220745
 30
0.0
 10
248.0438421227736
 20
396.6667178284888
 30
0.0
 10
247.945068390869
 20
396.622105317957
 30
0.0
 10
247.9195727494971
 20
396.596629124062
 30
0.0
 10
247.67105345042
 20
396.3735860188799
 30
0.0
 10
247.4830546974526
 20
396.1441641414867
 30
0.0
 10
247.3587853241752
 20
395.9051935532516
 30
0.0
 10
247.2345353983756
 20
395.6694123511224
 30
0.0
 10
247.2154185292156
 20
395.4400099212053
 30
0.0
 10
247.3014347166963
 20
395.2137774299172
 30
0.0
 10
247.3906597377591
 20
394.990734324736
 30
0.0
 10
247.6200621676762
 20
394.8409887575635
 30
0.0
 10
247.9928702875068
 20
394.7676912195548
 30
0.0
 10
247.9928702875068
 20
394.7676912195548
 30
0.0
 10
248.0311040258257
 20
394.4682000852099
 30
0.0
 10
248.0311040258257
 20
394.4682000852099
 30
0.0
 10
248.0311040258257
 20
394.4682000852099
 30
0.0
 10
248.0311040258257
 20
393.7958813835594
 30
0.0
 10
248.0311040258257
 20
393.7958813835594
 30
0.0
 10
248.0311040258257
 20
393.7958813835594
 30
0.0
 10
248.0693377641455
 20
393.4963708017385
 30
0.0
 10
248.0693377641455
 20
393.4963708017385
 30
0.0
 10
248.0948139580414
 20
393.3211295931942
 30
0.0
 10
248.1107608885713
 20
393.1650052538098
 30
0.0
 10
248.1234989855193
 20
393.0279977835853
 30
0.0
 10
248.1362370824663
 20
392.8909903133608
 30
0.0
 10
248.1362370824663
 20
392.7189190434474
 30
0.0
 10
248.1234989855193
 20
392.5054440965832
 30
0.0
 10
248.1107608885713
 20
392.295158535826
 30
0.0
 10
248.0565802197216
 20
392.1772679347614
 30
0.0
 10
247.9578064878169
 20
392.1517722933895
 30
0.0
 10
247.8590327559123
 20
392.1262766520176
 30
0.0
 10
247.7220252856878
 20
392.1517722933895
 30
0.0
 10
247.5467840771435
 20
392.2250503839223
 30
0.0
 10
247.3460472272282
 20
392.3270135019338
 30
0.0
 10
247.1102660250981
 20
392.8750628303078
 30
0.0
 10
246.83625108465
 20
393.8691789215682
 30
0.0
 10
246.7852598019062
 20
394.1176982206453
 30
0.0
 10
246.6355142347338
 20
394.4172088024661
 30
0.0
 10
246.3869754881807
 20
394.7676912195548
 30
0.0
 10
246.2627061149042
 20
394.6434412937542
 30
0.0
 10
246.1575730582636
 20
394.5605950449026
 30
0.0
 10
246.0683480371999
 20
394.5255506926896
 30
0.0
 10
245.9823318497192
 20
394.4873169543698
 30
0.0
 10
245.9186024700284
 20
394.4809381821578
 30
0.0
 10
245.8835386703386
 20
394.5064338235297
 30
0.0
 10
245.8453049320187
 20
394.5287206313187
 30
0.0
 10
245.7784056136979
 20
394.5860906862745
 30
0.0
 10
245.6764424956864
 20
394.6721068737552
 30
0.0
 10
245.5776687637817
 20
394.7613318948188
 30
0.0
 10
245.491633128825
 20
394.8282312131396
 30
0.0
 10
245.4151656521854
 20
394.8792224958834
 30
0.0
 10
245.2908962789088
 20
394.9525005864161
 30
0.0
 10
245.0742319459396
 20
395.0162299661079
 30
0.0
 10
244.7619832671708
 20
395.0640318627447
 30
0.0
 10
244.4529045270328
 20
395.1150036980125
 30
0.0
 10
244.2585464493286
 20
395.1755436915973
 30
0.0
 10
244.1820789726899
 20
395.252011168237
 30
0.0
 10
243.5862471951541
 20
394.8027550192437
 30
0.0
 10
243.2230072336424
 20
394.9142668480963
 30
0.0
 10
243.0987378603659
 20
395.5865661022708
 30
0.0
 10
243.0509554112041
 20
395.4623161764703
 30
0.0
 10
243.0573147359401
 20
395.2934342926619
 30
0.0
 10
243.1178547295258
 20
395.0831487319047
 30
0.0
 10
243.1815841092166
 20
394.8696543375645
 30
0.0
 10
243.2102691366945
 20
394.7517637364999
 30
0.0
 10
243.2102691366945
 20
394.7262875426059
 30
0.0
 10
243.0381978667801
 20
394.4044707055182
 30
0.0
 10
242.7641829263321
 20
394.3789750641463
 30
0.0
 10
242.3913942539775
 20
394.6529900045953
 30
0.0
 10
242.2416292393291
 20
394.8027550192437
 30
0.0
 10
241.8975255944533
 20
394.8218718884036
 30
0.0
 10
241.3622338105033
 20
394.710340612075
 30
0.0
 10
240.8492288343432
 20
394.6052075554344
 30
0.0
 10
240.5051251894674
 20
394.5829013001694
 30
0.0
 10
240.3235052087111
 20
394.6434412937542
 30
0.0
 10
240.352170788713
 20
394.6306837493303
 30
0.0
 10
240.3935939131388
 20
394.5956393971155
 30
0.0
 10
240.4477551345117
 20
394.5414781757427
 30
0.0
 10
240.5210526725214
 20
394.4936762791058
 30
0.0
 10
240.5720245077882
 20
394.455442540786
 30
0.0
 10
240.5975201491601
 20
394.4299468994141
 30
0.0
 10
240.5720245077882
 20
394.3311731675094
 30
0.0
 10
240.5337907694693
 20
394.2547056908697
 30
0.0
 10
240.4828189342015
 20
394.2069232417089
 30
0.0
 10
240.4350170375637
 20
394.1559319589651
 30
0.0
 10
240.3840452022969
 20
394.1368150898052
 30
0.0
 10
240.3362433056591
 20
394.1495726342291
 30
0.0
 10
240.2852714703922
 20
394.1623107311771
 30
0.0
 10
240.2279014154365
 20
394.1623107311771
 30
0.0
 10
240.1673808693276
 20
394.1495726342291
 30
0.0
 10
240.1036514896359
 20
394.1368150898052
 30
0.0
 10
240.0494708207862
 20
394.1176982206453
 30
0.0
 10
239.9984989855193
 20
394.0922025792734
 30
0.0
 10
239.8997252536137
 20
394.0189244887406
 30
0.0
 10
239.7754558803372
 20
393.8882957907281
 30
0.0
 10
239.6257103131657
 20
393.7034864238667
 30
0.0
 10
239.4759452985172
 20
393.5154876708984
 30
0.0
 10
239.3644334696646
 20
393.3975970698339
 30
0.0
 10
239.287965993025
 20
393.3466252345661
 30
0.0
 10
239.4377115601974
 20
392.9483409208406
 30
0.0
 10
239.5078197121011
 20
392.6424515668077
 30
0.0
 10
239.4950621676762
 20
392.4321660060505
 30
0.0
 10
239.4823240707292
 20
392.2186716117103
 30
0.0
 10
239.4440903324094
 20
391.9096123190484
 30
0.0
 10
239.3803609527176
 20
391.4985899083749
 30
0.0
 10
239.3198209591328
 20
391.0875480502255
 30
0.0
 10
239.287965993025
 20
390.7561825022985
 30
0.0
 10
239.287965993025
 20
390.5076437557436
 30
0.0
 10
239.287965993025
 20
390.1093594420199
 30
0.0
 10
239.4058565940895
 20
389.6473651960787
 30
0.0
 10
239.6416377962187
 20
389.1248115090766
 30
0.0
 10
239.8806083844547
 20
388.6022578220745
 30
0.0
 10
240.1610020971148
 20
388.2422072466688
 30
0.0
 10
240.4828189342015
 20
388.0414703967526
 30
0.0
 10
240.6580601427459
 20
387.942696664848
 30
0.0
 10
240.9575707245658
 20
387.8821566712631
 30
0.0
 10
241.3813506796632
 20
387.8566804773673
 30
0.0
 10
241.8051111872846
 20
387.8311848359954
 30
0.0
 10
242.1046217691055
 20
387.8566804773673
 30
0.0
 10
242.2766930390189
 20
387.9299585679
 30
0.0
 10
242.4264386061914
 20
388.0032366584328
 30
0.0
 10
242.537950435044
 20
388.0924616794964
 30
0.0
 10
242.6144373591596
 20
388.1912354114011
 30
0.0
 10
242.6877154496924
 20
388.2900091433057
 30
0.0
 10
242.7514448293841
 20
388.4365653243713
 30
0.0
 10
242.799227278545
 20
388.6213746912345
 30
0.0
 10
242.8502185612888
 20
388.8061840580958
 30
0.0
 10
242.8884522996086
 20
388.9368127561083
 30
0.0
 10
242.9139479409805
 20
389.013280232748
 30
0.0
 10
243.0859997634179
 20
389.4880514705874
 30
0.0
 10
243.4110059866107
 20
389.7365707696645
 30
0.0
 10
243.882568390869
 20
389.7620664110364
 30
0.0
 10
244.1820789726899
 20
389.7843726663032
 30
0.0
 10
244.3987433056591
 20
389.7524982527193
 30
0.0
 10
244.5389401619896
 20
389.6664820652386
 30
0.0
 10
244.675947632214
 20
389.5804464302819
 30
0.0
 10
244.7301088535869
 20
389.4625558292173
 30
0.0
 10
244.7046326596919
 20
389.3127908145689
 30
0.0
 10
244.67913701832
 20
389.1630452473964
 30
0.0
 10
244.6313351216822
 20
389.006920908012
 30
0.0
 10
244.5548676450435
 20
388.8444177964157
 30
0.0
 10
244.4815895545107
 20
388.6819146848193
 30
0.0
 10
244.3891945948171
 20
388.5034840901699
 30
0.0
 10
244.2744739323825
 20
388.3027472402537
 30
0.0
 10
244.1629621035299
 20
388.1020103903375
 30
0.0
 10
244.0960433377322
 20
387.9554542092719
 30
0.0
 10
244.0705671438373
 20
387.8534910912604
 30
0.0
 10
244.0227652471995
 20
387.6559436274511
 30
0.0
 10
243.9781527366677
 20
387.3755499147901
 30
0.0
 10
243.9399189983487
 20
387.0123099532775
 30
0.0
 10
243.9016852600289
 20
386.6522593778718
 30
0.0
 10
243.873000232551
 20
386.4355950449026
 30
0.0
 10
243.8475240386551
 20
386.3591275682629
 30
0.0
 10
243.8953064878169
 20
386.333631926891
 30
0.0
 10
244.0833052407852
 20
386.3208938299449
 30
0.0
 10
244.408311463977
 20
386.3208938299449
 30
0.0
 10
244.408311463977
 20
386.3718656652109
 30
0.0
 10
244.424238947031
 20
386.4515225279574
 30
0.0
 10
244.4624726853508
 20
386.5662237429151
 30
0.0
 10
244.5007064236697
 20
386.6777550192437
 30
0.0
 10
244.5198232928296
 20
386.7446543375645
 30
0.0
 10
244.5198232928296
 20
386.7701499789364
 30
0.0
 10
244.6440926661062
 20
386.569413129022
 30
0.0
 10
244.8416401299164
 20
386.4579013001694
 30
0.0
 10
245.1156550703654
 20
386.4355950449026
 30
0.0
 10
245.3896700108135
 20
386.4100994035307
 30
0.0
 10
245.5904068607297
 20
386.5088731354354
 30
0.0
 10
245.7146762340062
 20
386.7319162406166
 30
0.0
 10
245.765648069274
 20
386.6586381500838
 30
0.0
 10
245.9154130839224
 20
386.4706393971155
 30
0.0
 10
246.1639323829995
 20
386.1711288152965
 30
0.0
 10
246.4124711295526
 20
385.8748076195807
 30
0.0
 10
246.5494785997771
 20
385.6230989343985
 30
0.0
 10
246.574974241149
 20
385.4255514705874
 30
0.0
 10
246.600450435044
 20
385.3235883525776
 30
0.0
 10
246.6482523316818
 20
385.1642746270863
 30
0.0
 10
246.7247198083205
 20
384.9380421358001
 30
0.0
 10
246.7980173463302
 20
384.7149990306189
 30
0.0
 10
246.8234935402261
 20
384.5588746912345
 30
0.0
 10
246.7980173463302
 20
384.4696691176468
 30
0.0
 10
246.7725217049583
 20
384.3836334826901
 30
0.0
 10
246.6482523316818
 20
384.3390209721583
 30
0.0
 10
246.4252092265006
 20
384.3390209721583
 30
0.0
 10
246.326435494595
 20
384.3390209721583
 30
0.0
 10
246.2627061149042
 20
384.3039766199454
 30
0.0
 10
246.2404193071143
 20
384.2275091433057
 30
0.0
 10
246.2149236657424
 20
384.154211605297
 30
0.0
 10
246.2149236657424
 20
384.0618166456043
 30
0.0
 10
246.2404193071143
 20
383.9503048167517
 30
0.0
 10
246.2658955010102
 20
383.8355841543162
 30
0.0
 10
246.294580528488
 20
383.7304510976755
 30
0.0
 10
246.332814266807
 20
383.6316773657709
 30
0.0
 10
246.3710480051268
 20
383.5329036338662
 30
0.0
 10
246.4188499017646
 20
383.4245617436427
 30
0.0
 10
246.4825598339794
 20
383.3130499147901
 30
0.0
 10
246.5462892136711
 20
383.2015186384615
 30
0.0
 10
246.574974241149
 20
383.1346193201407
 30
0.0
 10
246.574974241149
 20
383.1091236787688
 30
0.0
 10
247.0242303901414
 20
382.2870594099459
 30
0.0
 10
247.6328197121011
 20
382.0640163047647
 30
0.0
 10
248.4070820842862
 20
382.4368244245943
 30
0.0
 10
248.4070820842862
 20
381.713533887676
 30
0.0
 10
248.2318408757419
 20
381.3152495739505
 30
0.0
 10
247.8813390111773
 20
381.2419714834177
 30
0.0
 10
247.6837915473679
 20
381.1909802006739
 30
0.0
 10
247.4607484421867
 20
381.3184389600574
 30
0.0
 10
247.2122291431097
 20
381.6147601557714
 30
0.0
  0
SPLINE
  5
47
330
41
100
AcDbEntity
  8
Ebene 1
370
     0
100
AcDbSpline
210
0.0
220
0.0
230
1.0
 70
    11
 71
     3
 72
   140
 73
   136
 74
     0
 42
0.0000000001
 43
0.0000000001
 12
1.0
 22
0.0
 32
0.0
 13
1.0
 23
0.0
 33
0.0
 40
0.0
 40
0.0
 40
0.0
 40
0.0
 40
1.0
 40
1.0
 40
1.0
 40
2.0
 40
2.0
 40
2.0
 40
3.0
 40
3.0
 40
3.0
 40
4.0
 40
4.0
 40
4.0
 40
5.0
 40
5.0
 40
5.0
 40
6.0
 40
6.0
 40
6.0
 40
7.0
 40
7.0
 40
7.0
 40
8.0
 40
8.0
 40
8.0
 40
9.0
 40
9.0
 40
9.0
 40
10.0
 40
10.0
 40
10.0
 40
11.0
 40
11.0
 40
11.0
 40
12.0
 40
12.0
 40
12.0
 40
13.0
 40
13.0
 40
13.0
 40
14.0
 40
14.0
 40
14.0
 40
15.0
 40
15.0
 40
15.0
 40
16.0
 40
16.0
 40
16.0
 40
17.0
 40
17.0
 40
17.0
 40
18.0
 40
18.0
 40
18.0
 40
19.0
 40
19.0
 40
19.0
 40
20.0
 40
20.0
 40
20.0
 40
21.0
 40
21.0
 40
21.0
 40
22.0
 40
22.0
 40
22.0
 40
23.0
 40
23.0
 40
23.0
 40
24.0
 40
24.0
 40
24.0
 40
25.0
 40
25.0
 40
25.0
 40
26.0
 40
26.0
 40
26.0
 40
27.0
 40
27.0
 40
27.0
 40
28.0
 40
28.0
 40
28.0
 40
29.0
 40
29.0
 40
29.0
 40
30.0
 40
30.0
 40
30.0
 40
31.0
 40
31.0
 40
31.0
 40
32.0
 40
32.0
 40
32.0
 40
33.0
 40
33.0
 40
33.0
 40
34.0
 40
34.0
 40
34.0
 40
35.0
 40
35.0
 40
35.0
 40
36.0
 40
36.0
 40
36.0
 40
37.0
 40
37.0
 40
37.0
 40
38.0
 40
38.0
 40
38.0
 40
39.0
 40
39.0
 40
39.0
 40
40.0
 40
40.0
 40
40.0
 40
41.0
 40
41.0
 40
41.0
 40
42.0
 40
42.0
 40
42.0
 40
43.0
 40
43.0
 40
43.0
 40
44.0
 40
44.0
 40
44.0
 40
45.0
 40
45.0
 40
45.0
 40
45.0
 10
247.7698271823247
 20
373.1743220908975
 30
0.0
 10
247.7220252856878
 20
373.4228413899746
 30
0.0
 10
247.6965296443159
 20
373.623578239889
 30
0.0
 10
247.6997190304219
 20
373.7733432545374
 30
0.0
 10
247.674242836526
 20
373.9708907183485
 30
0.0
 10
247.7602590240067
 20
374.2385268865855
 30
0.0
 10
247.9578064878169
 20
374.5762712067244
 30
0.0
 10
248.1585433377322
 20
374.910845588236
 30
0.0
 10
248.2573170696378
 20
375.1657436595251
 30
0.0
 10
248.2573170696378
 20
375.3409848680676
 30
0.0
 10
247.8590327559123
 20
375.4397585999741
 30
0.0
 10
247.7092871887398
 20
375.764764823165
 30
0.0
 10
247.8080609206445
 20
376.312794704063
 30
0.0
 10
247.8590327559123
 20
376.6855833764166
 30
0.0
 10
248.219083331318
 20
377.1858308081537
 30
0.0
 10
248.8913825854925
 20
377.8071582270604
 30
0.0
 10
249.3661538233328
 20
378.2309381821578
 30
0.0
 10
249.5158993905052
 20
378.8299593457996
 30
0.0
 10
249.3406581819609
 20
379.6010323318787
 30
0.0
 10
249.2673800914281
 20
379.9228491689646
 30
0.0
 10
249.2036507117373
 20
380.3976009593298
 30
0.0
 10
249.1526594289935
 20
381.0189283782365
 30
0.0
 10
249.1080663659377
 20
381.6211389279833
 30
0.0
 10
249.0570750831948
 20
382.0480888217098
 30
0.0
 10
249.009292634033
 20
382.2998169543698
 30
0.0
 10
249.0347688279289
 20
382.239276960785
 30
0.0
 10
249.1526594289935
 20
382.1755475810933
 30
0.0
 10
249.3597750511208
 20
382.1213863597204
 30
0.0
 10
249.5955562532499
 20
382.0608463661338
 30
0.0
 10
249.7389424956864
 20
381.981189503389
 30
0.0
 10
249.7899143309542
 20
381.8824157714844
 30
0.0
 10
249.837716227592
 20
381.9556938620171
 30
0.0
 10
249.9014456072828
 20
382.0927013322416
 30
0.0
 10
249.9747236978164
 20
382.2902487960509
 30
0.0
 10
250.0511911744552
 20
382.4909856459672
 30
0.0
 10
250.1244887124649
 20
382.6407312131396
 30
0.0
 10
250.1977668029976
 20
382.7395049450442
 30
0.0
 10
250.2487386382645
 20
382.8159918691599
 30
0.0
 10
250.3538911423821
 20
382.9083868288526
 30
0.0
 10
250.5163942539775
 20
383.0198986577052
 30
0.0
 10
250.6788973655739
 20
383.1314299340338
 30
0.0
 10
250.7840304222145
 20
383.2015186384615
 30
0.0
 10
250.8350217049583
 20
383.2270142798334
 30
0.0
 10
250.8828041541201
 20
383.2493205350984
 30
0.0
 10
250.9975248165547
 20
383.33216678395
 30
0.0
 10
251.1695766389921
 20
383.4691742541745
 30
0.0
 10
251.3448178475364
 20
383.606181724399
 30
0.0
 10
251.4882040899729
 20
383.7113342285156
 30
0.0
 10
251.5997159188255
 20
383.7846123190484
 30
0.0
 10
251.7144365812601
 20
383.8610797956881
 30
0.0
 10
251.8609927623265
 20
383.9152410170609
 30
0.0
 10
252.0489915152948
 20
383.9534942028567
 30
0.0
 10
252.2369708207862
 20
383.9917279411766
 30
0.0
 10
252.3676189662747
 20
383.9343578862208
 30
0.0
 10
252.4408970568084
 20
383.7846123190484
 30
0.0
 10
252.5651664300849
 20
383.634866751876
 30
0.0
 10
252.539670788713
 20
383.4054448744828
 30
0.0
 10
252.3676189662747
 20
383.093196195714
 30
0.0
 10
252.1923777577313
 20
382.7809280694692
 30
0.0
 10
252.1923777577313
 20
382.5642637364999
 30
0.0
 10
252.3676189662747
 20
382.4400138106994
 30
0.0
 10
252.3931146076466
 20
382.513291901234
 30
0.0
 10
252.4154014154365
 20
382.6757950128285
 30
0.0
 10
252.4408970568084
 20
382.9243143119056
 30
0.0
 10
252.4663926981802
 20
383.1760424445656
 30
0.0
 10
252.539670788713
 20
383.360832363951
 30
0.0
 10
252.6639401619896
 20
383.4882911233344
 30
0.0
 10
252.813685729162
 20
383.634866751876
 30
0.0
 10
252.9570719715985
 20
383.7240723254636
 30
0.0
 10
253.0940794418229
 20
383.7463785807286
 30
0.0
 10
253.2311063595234
 20
383.7750441607313
 30
0.0
 10
253.355356285324
 20
383.7559272915714
 30
0.0
 10
253.4668875616526
 20
383.6922173593557
 30
0.0
 10
253.5815887766112
 20
383.628487979664
 30
0.0
 10
253.7122174746237
 20
383.5424523447073
 30
0.0
 10
253.8587931031661
 20
383.4309405158547
 30
0.0
 10
254.0085386703386
 20
383.3194092395261
 30
0.0
 10
254.1455655880391
 20
383.2493205350984
 30
0.0
 10
254.2698155138396
 20
383.2270142798334
 30
0.0
 10
254.6426236336692
 20
383.0995555204499
 30
0.0
 10
255.0918797826616
 20
382.825540580001
 30
0.0
 10
255.6144334696646
 20
382.4049500110104
 30
0.0
 10
255.5921272143987
 20
382.4272562662754
 30
0.0
 10
255.5921272143987
 20
382.4591306798593
 30
0.0
 10
255.6144334696646
 20
382.4973644181791
 30
0.0
 10
255.6399291110356
 20
382.535598156499
 30
0.0
 10
255.6909009463034
 20
382.5706425087119
 30
0.0
 10
255.7641790368361
 20
382.6088762470317
 30
0.0
 10
255.8406465134758
 20
382.6471099853516
 30
0.0
 10
255.9075652792726
 20
382.6821543375645
 30
0.0
 10
255.9712946589643
 20
382.7203880758843
 30
0.0
 10
256.0318346525492
 20
382.7586412616802
 30
0.0
 10
256.1019233569768
 20
382.7873068416811
 30
0.0
 10
256.1752208949856
 20
382.812802483053
 30
0.0
 10
256.1752208949856
 20
382.812802483053
 30
0.0
 10
256.2867327238382
 20
382.8510362213729
 30
0.0
 10
256.2867327238382
 20
382.8510362213729
 30
0.0
 10
256.4619739323825
 20
382.8510362213729
 30
0.0
 10
256.5862433056591
 20
382.8637743183208
 30
0.0
 10
256.6595213961918
 20
382.8892699596927
 30
0.0
 10
256.7360083203075
 20
382.9147656010646
 30
0.0
 10
256.8411413769481
 20
382.8892699596927
 30
0.0
 10
256.9781488471726
 20
382.812802483053
 30
0.0
 10
257.1151563173971
 20
382.7395049450442
 30
0.0
 10
257.2075707245658
 20
382.6821543375645
 30
0.0
 10
257.2585425598336
 20
382.6471099853516
 30
0.0
 10
257.3063444564714
 20
382.6088762470317
 30
0.0
 10
257.3955500300581
 20
382.5419574812349
 30
0.0
 10
257.5198194033346
 20
382.4400138106994
 30
0.0
 10
257.6440887766112
 20
382.3412206313187
 30
0.0
 10
257.7301244115679
 20
382.2647531546791
 30
0.0
 10
257.7810962468357
 20
382.2169707055182
 30
0.0
 10
257.8543743373684
 20
382.1691688088813
 30
0.0
 10
257.9913818075929
 20
382.0799632352937
 30
0.0
 10
258.1921186575091
 20
381.9556938620171
 30
0.0
 10
258.3896661213184
 20
381.8314244887406
 30
0.0
 10
258.5458099081789
 20
381.7326507568359
 30
0.0
 10
258.6573217370315
 20
381.6561832801963
 30
0.0
 10
258.77202295199
 20
381.5829051896635
 30
0.0
 10
258.8707966838956
 20
381.4713739133349
 30
0.0
 10
258.9568323188523
 20
381.3216283461625
 30
0.0
 10
259.042867953809
 20
381.171863331514
 30
0.0
 10
259.0747229199169
 20
381.0093602199177
 30
0.0
 10
259.049227278545
 20
380.8341190113733
 30
0.0
 10
259.1989922931934
 20
380.8086233700014
 30
0.0
 10
259.4985028750143
 20
380.7098496380968
 30
0.0
 10
259.9477590240067
 20
380.5377978156594
 30
0.0
 10
260.0210565620164
 20
380.4868259803916
 30
0.0
 10
260.1771809014008
 20
380.4422134698598
 30
0.0
 10
260.4161514896359
 20
380.4071691176468
 30
0.0
 10
260.6519326917651
 20
380.368935379327
 30
0.0
 10
260.8080570311495
 20
380.3115653243713
 30
0.0
 10
260.8813351216822
 20
380.2382872338385
 30
0.0
 10
257.2744700428875
 20
376.4243259803916
 30
0.0
 10
252.8997213641187
 20
374.0728538363583
 30
0.0
 10
247.7698271823247
 20
373.1743220908975
 30
0.0
  0
HATCH
  5
48
330
41
100
AcDbEntity
  8
Ebene 1
 62
   252
420
  7835547
100
AcDbHatch
 10
0.0
 20
0.0
 30
0.0
210
0.0
220
0.0
230
1.0
  2
SOLID
 70
     1
 71
     0
 91
        3
 92
        1
 93
        1
 72
     4
 94
        3
 73
     0
 74
     1
 95
       47
 96
       43
 40
0.0
 40
0.0
 40
0.0
 40
0.0
 40
1.0
 40
1.0
 40
1.0
 40
2.0
 40
2.0
 40
2.0
 40
3.0
 40
3.0
 40
3.0
 40
4.0
 40
4.0
 40
4.0
 40
5.0
 40
5.0
 40
5.0
 40
6.0
 40
6.0
 40
6.0
 40
7.0
 40
7.0
 40
7.0
 40
8.0
 40
8.0
 40
8.0
 40
9.0
 40
9.0
 40
9.0
 40
10.0
 40
10.0
 40
10.0
 40
11.0
 40
11.0
 40
11.0
 40
12.0
 40
12.0
 40
12.0
 40
13.0
 40
13.0
 40
13.0
 40
14.0
 40
14.0
 40
14.0
 40
14.0
 10
272.0683597056859
 20
400.5922103582643
 10
271.5840397570037
 20
404.3265147489656
 10
270.3828080436151
 20
407.8314167097506
 10
268.4678539516262
 20
411.1132950128294
 10
265.9029068607297
 20
415.5103499468632
 10
262.4235005413175
 20
418.9897562662763
 10
258.0264456072828
 20
421.5578927432789
 10
253.629390673249
 20
424.1228398341755
 10
248.8308425919067
 20
425.4037284103097
 10
243.6244809334739
 20
425.4037284103097
 10
238.4180998275651
 20
425.4037284103097
 10
233.6163818075929
 20
424.1228398341755
 10
229.2225162596651
 20
421.5578927432789
 10
224.8254613256304
 20
418.9897562662763
 10
221.3460550062182
 20
415.5103499468632
 10
218.7779185292156
 20
411.1132950128294
 10
216.2129519908422
 20
406.7194100174247
 10
214.9320828621849
 20
401.9176919974534
 10
214.9320828621849
 20
396.7113303390206
 10
214.9320828621849
 20
391.5081386192178
 10
216.2129519908422
 20
386.7064205992465
 10
218.7779185292156
 20
382.3093656652109
 10
221.3428656201122
 20
377.915500117284
 10
224.8254613256304
 20
374.432904411764
 10
229.2193268735591
 20
371.8679378733923
 10
233.6163818075929
 20
369.3029907824948
 10
238.4180998275651
 20
368.0189322677306
 10
243.6244809334739
 20
368.0189322677306
 10
248.8276726532767
 20
368.0189322677306
 10
253.629390673249
 20
369.3029907824948
 10
258.0264456072828
 20
371.8679378733923
 10
261.744822514931
 20
374.0377900366693
 10
264.8068276514578
 20
376.8608440324369
 10
267.2124610168648
 20
380.3370609657431
 10
267.6553578411222
 20
380.9711264815978
 10
268.0727590240067
 20
381.6306876388244
 10
268.4678539516262
 20
382.3093656652109
 10
271.0328204899997
 20
386.7064205992465
 10
272.316879004763
 20
391.5081386192178
 10
272.316879004763
 20
396.7113303390206
 10
272.316879004763
 20
398.0304526534737
 10
272.2340327559123
 20
399.324079326555
 10
272.0683597056859
 20
400.5922103582643
 97
        0
 97
        0
 92
        1
 93
        1
 72
     4
 94
        3
 73
     0
 74
     1
 95
      926
 96
      922
 40
0.0
 40
0.0
 40
0.0
 40
0.0
 40
1.0
 40
1.0
 40
1.0
 40
2.0
 40
2.0
 40
2.0
 40
3.0
 40
3.0
 40
3.0
 40
4.0
 40
4.0
 40
4.0
 40
5.0
 40
5.0
 40
5.0
 40
6.0
 40
6.0
 40
6.0
 40
7.0
 40
7.0
 40
7.0
 40
8.0
 40
8.0
 40
8.0
 40
9.0
 40
9.0
 40
9.0
 40
10.0
 40
10.0
 40
10.0
 40
11.0
 40
11.0
 40
11.0
 40
12.0
 40
12.0
 40
12.0
 40
13.0
 40
13.0
 40
13.0
 40
14.0
 40
14.0
 40
14.0
 40
15.0
 40
15.0
 40
15.0
 40
16.0
 40
16.0
 40
16.0
 40
17.0
 40
17.0
 40
17.0
 40
18.0
 40
18.0
 40
18.0
 40
19.0
 40
19.0
 40
19.0
 40
20.0
 40
20.0
 40
20.0
 40
21.0
 40
21.0
 40
21.0
 40
22.0
 40
22.0
 40
22.0
 40
23.0
 40
23.0
 40
23.0
 40
24.0
 40
24.0
 40
24.0
 40
25.0
 40
25.0
 40
25.0
 40
26.0
 40
26.0
 40
26.0
 40
27.0
 40
27.0
 40
27.0
 40
28.0
 40
28.0
 40
28.0
 40
29.0
 40
29.0
 40
29.0
 40
30.0
 40
30.0
 40
30.0
 40
31.0
 40
31.0
 40
31.0
 40
32.0
 40
32.0
 40
32.0
 40
33.0
 40
33.0
 40
33.0
 40
34.0
 40
34.0
 40
34.0
 40
35.0
 40
35.0
 40
35.0
 40
36.0
 40
36.0
 40
36.0
 40
37.0
 40
37.0
 40
37.0
 40
38.0
 40
38.0
 40
38.0
 40
39.0
 40
39.0
 40
39.0
 40
40.0
 40
40.0
 40
40.0
 40
41.0
 40
41.0
 40
41.0
 40
42.0
 40
42.0
 40
42.0
 40
43.0
 40
43.0
 40
43.0
 40
44.0
 40
44.0
 40
44.0
 40
45.0
 40
45.0
 40
45.0
 40
46.0
 40
46.0
 40
46.0
 40
47.0
 40
47.0
 40
47.0
 40
48.0
 40
48.0
 40
48.0
 40
49.0
 40
49.0
 40
49.0
 40
50.0
 40
50.0
 40
50.0
 40
51.0
 40
51.0
 40
51.0
 40
52.0
 40
52.0
 40
52.0
 40
53.0
 40
53.0
 40
53.0
 40
54.0
 40
54.0
 40
54.0
 40
55.0
 40
55.0
 40
55.0
 40
56.0
 40
56.0
 40
56.0
 40
57.0
 40
57.0
 40
57.0
 40
58.0
 40
58.0
 40
58.0
 40
59.0
 40
59.0
 40
59.0
 40
60.0
 40
60.0
 40
60.0
 40
61.0
 40
61.0
 40
61.0
 40
62.0
 40
62.0
 40
62.0
 40
63.0
 40
63.0
 40
63.0
 40
64.0
 40
64.0
 40
64.0
 40
65.0
 40
65.0
 40
65.0
 40
66.0
 40
66.0
 40
66.0
 40
67.0
 40
67.0
 40
67.0
 40
68.0
 40
68.0
 40
68.0
 40
69.0
 40
69.0
 40
69.0
 40
70.0
 40
70.0
 40
70.0
 40
71.0
 40
71.0
 40
71.0
 40
72.0
 40
72.0
 40
72.0
 40
73.0
 40
73.0
 40
73.0
 40
74.0
 40
74.0
 40
74.0
 40
75.0
 40
75.0
 40
75.0
 40
76.0
 40
76.0
 40
76.0
 40
77.0
 40
77.0
 40
77.0
 40
78.0
 40
78.0
 40
78.0
 40
79.0
 40
79.0
 40
79.0
 40
80.0
 40
80.0
 40
80.0
 40
81.0
 40
81.0
 40
81.0
 40
82.0
 40
82.0
 40
82.0
 40
83.0
 40
83.0
 40
83.0
 40
84.0
 40
84.0
 40
84.0
 40
85.0
 40
85.0
 40
85.0
 40
86.0
 40
86.0
 40
86.0
 40
87.0
 40
87.0
 40
87.0
 40
88.0
 40
88.0
 40
88.0
 40
89.0
 40
89.0
 40
89.0
 40
90.0
 40
90.0
 40
90.0
 40
91.0
 40
91.0
 40
91.0
 40
92.0
 40
92.0
 40
92.0
 40
93.0
 40
93.0
 40
93.0
 40
94.0
 40
94.0
 40
94.0
 40
95.0
 40
95.0
 40
95.0
 40
96.0
 40
96.0
 40
96.0
 40
97.0
 40
97.0
 40
97.0
 40
98.0
 40
98.0
 40
98.0
 40
99.0
 40
99.0
 40
99.0
 40
100.0
 40
100.0
 40
100.0
 40
101.0
 40
101.0
 40
101.0
 40
102.0
 40
102.0
 40
102.0
 40
103.0
 40
103.0
 40
103.0
 40
104.0
 40
104.0
 40
104.0
 40
105.0
 40
105.0
 40
105.0
 40
106.0
 40
106.0
 40
106.0
 40
107.0
 40
107.0
 40
107.0
 40
108.0
 40
108.0
 40
108.0
 40
109.0
 40
109.0
 40
109.0
 40
110.0
 40
110.0
 40
110.0
 40
111.0
 40
111.0
 40
111.0
 40
112.0
 40
112.0
 40
112.0
 40
113.0
 40
113.0
 40
113.0
 40
114.0
 40
114.0
 40
114.0
 40
115.0
 40
115.0
 40
115.0
 40
116.0
 40
116.0
 40
116.0
 40
117.0
 40
117.0
 40
117.0
 40
118.0
 40
118.0
 40
118.0
 40
119.0
 40
119.0
 40
119.0
 40
120.0
 40
120.0
 40
120.0
 40
121.0
 40
121.0
 40
121.0
 40
122.0
 40
122.0
 40
122.0
 40
123.0
 40
123.0
 40
123.0
 40
124.0
 40
124.0
 40
124.0
 40
125.0
 40
125.0
 40
125.0
 40
126.0
 40
126.0
 40
126.0
 40
127.0
 40
127.0
 40
127.0
 40
128.0
 40
128.0
 40
128.0
 40
129.0
 40
129.0
 40
129.0
 40
130.0
 40
130.0
 40
130.0
 40
131.0
 40
131.0
 40
131.0
 40
132.0
 40
132.0
 40
132.0
 40
133.0
 40
133.0
 40
133.0
 40
134.0
 40
134.0
 40
134.0
 40
135.0
 40
135.0
 40
135.0
 40
136.0
 40
136.0
 40
136.0
 40
137.0
 40
137.0
 40
137.0
 40
138.0
 40
138.0
 40
138.0
 40
139.0
 40
139.0
 40
139.0
 40
140.0
 40
140.0
 40
140.0
 40
141.0
 40
141.0
 40
141.0
 40
142.0
 40
142.0
 40
142.0
 40
143.0
 40
143.0
 40
143.0
 40
144.0
 40
144.0
 40
144.0
 40
145.0
 40
145.0
 40
145.0
 40
146.0
 40
146.0
 40
146.0
 40
147.0
 40
147.0
 40
147.0
 40
148.0
 40
148.0
 40
148.0
 40
149.0
 40
149.0
 40
149.0
 40
150.0
 40
150.0
 40
150.0
 40
151.0
 40
151.0
 40
151.0
 40
152.0
 40
152.0
 40
152.0
 40
153.0
 40
153.0
 40
153.0
 40
154.0
 40
154.0
 40
154.0
 40
155.0
 40
155.0
 40
155.0
 40
156.0
 40
156.0
 40
156.0
 40
157.0
 40
157.0
 40
157.0
 40
158.0
 40
158.0
 40
158.0
 40
159.0
 40
159.0
 40
159.0
 40
160.0
 40
160.0
 40
160.0
 40
161.0
 40
161.0
 40
161.0
 40
162.0
 40
162.0
 40
162.0
 40
163.0
 40
163.0
 40
163.0
 40
164.0
 40
164.0
 40
164.0
 40
165.0
 40
165.0
 40
165.0
 40
166.0
 40
166.0
 40
166.0
 40
167.0
 40
167.0
 40
167.0
 40
168.0
 40
168.0
 40
168.0
 40
169.0
 40
169.0
 40
169.0
 40
170.0
 40
170.0
 40
170.0
 40
171.0
 40
171.0
 40
171.0
 40
172.0
 40
172.0
 40
172.0
 40
173.0
 40
173.0
 40
173.0
 40
174.0
 40
174.0
 40
174.0
 40
175.0
 40
175.0
 40
175.0
 40
176.0
 40
176.0
 40
176.0
 40
177.0
 40
177.0
 40
177.0
 40
178.0
 40
178.0
 40
178.0
 40
179.0
 40
179.0
 40
179.0
 40
180.0
 40
180.0
 40
180.0
 40
181.0
 40
181.0
 40
181.0
 40
182.0
 40
182.0
 40
182.0
 40
183.0
 40
183.0
 40
183.0
 40
184.0
 40
184.0
 40
184.0
 40
185.0
 40
185.0
 40
185.0
 40
186.0
 40
186.0
 40
186.0
 40
187.0
 40
187.0
 40
187.0
 40
188.0
 40
188.0
 40
188.0
 40
189.0
 40
189.0
 40
189.0
 40
190.0
 40
190.0
 40
190.0
 40
191.0
 40
191.0
 40
191.0
 40
192.0
 40
192.0
 40
192.0
 40
193.0
 40
193.0
 40
193.0
 40
194.0
 40
194.0
 40
194.0
 40
195.0
 40
195.0
 40
195.0
 40
196.0
 40
196.0
 40
196.0
 40
197.0
 40
197.0
 40
197.0
 40
198.0
 40
198.0
 40
198.0
 40
199.0
 40
199.0
 40
199.0
 40
200.0
 40
200.0
 40
200.0
 40
201.0
 40
201.0
 40
201.0
 40
202.0
 40
202.0
 40
202.0
 40
203.0
 40
203.0
 40
203.0
 40
204.0
 40
204.0
 40
204.0
 40
205.0
 40
205.0
 40
205.0
 40
206.0
 40
206.0
 40
206.0
 40
207.0
 40
207.0
 40
207.0
 40
208.0
 40
208.0
 40
208.0
 40
209.0
 40
209.0
 40
209.0
 40
210.0
 40
210.0
 40
210.0
 40
211.0
 40
211.0
 40
211.0
 40
212.0
 40
212.0
 40
212.0
 40
213.0
 40
213.0
 40
213.0
 40
214.0
 40
214.0
 40
214.0
 40
215.0
 40
215.0
 40
215.0
 40
216.0
 40
216.0
 40
216.0
 40
217.0
 40
217.0
 40
217.0
 40
218.0
 40
218.0
 40
218.0
 40
219.0
 40
219.0
 40
219.0
 40
220.0
 40
220.0
 40
220.0
 40
221.0
 40
221.0
 40
221.0
 40
222.0
 40
222.0
 40
222.0
 40
223.0
 40
223.0
 40
223.0
 40
224.0
 40
224.0
 40
224.0
 40
225.0
 40
225.0
 40
225.0
 40
226.0
 40
226.0
 40
226.0
 40
227.0
 40
227.0
 40
227.0
 40
228.0
 40
228.0
 40
228.0
 40
229.0
 40
229.0
 40
229.0
 40
230.0
 40
230.0
 40
230.0
 40
231.0
 40
231.0
 40
231.0
 40
232.0
 40
232.0
 40
232.0
 40
233.0
 40
233.0
 40
233.0
 40
234.0
 40
234.0
 40
234.0
 40
235.0
 40
235.0
 40
235.0
 40
236.0
 40
236.0
 40
236.0
 40
237.0
 40
237.0
 40
237.0
 40
238.0
 40
238.0
 40
238.0
 40
239.0
 40
239.0
 40
239.0
 40
240.0
 40
240.0
 40
240.0
 40
241.0
 40
241.0
 40
241.0
 40
242.0
 40
242.0
 40
242.0
 40
243.0
 40
243.0
 40
243.0
 40
244.0
 40
244.0
 40
244.0
 40
245.0
 40
245.0
 40
245.0
 40
246.0
 40
246.0
 40
246.0
 40
247.0
 40
247.0
 40
247.0
 40
248.0
 40
248.0
 40
248.0
 40
249.0
 40
249.0
 40
249.0
 40
250.0
 40
250.0
 40
250.0
 40
251.0
 40
251.0
 40
251.0
 40
252.0
 40
252.0
 40
252.0
 40
253.0
 40
253.0
 40
253.0
 40
254.0
 40
254.0
 40
254.0
 40
255.0
 40
255.0
 40
255.0
 40
256.0
 40
256.0
 40
256.0
 40
257.0
 40
257.0
 40
257.0
 40
258.0
 40
258.0
 40
258.0
 40
259.0
 40
259.0
 40
259.0
 40
260.0
 40
260.0
 40
260.0
 40
261.0
 40
261.0
 40
261.0
 40
262.0
 40
262.0
 40
262.0
 40
263.0
 40
263.0
 40
263.0
 40
264.0
 40
264.0
 40
264.0
 40
265.0
 40
265.0
 40
265.0
 40
266.0
 40
266.0
 40
266.0
 40
267.0
 40
267.0
 40
267.0
 40
268.0
 40
268.0
 40
268.0
 40
269.0
 40
269.0
 40
269.0
 40
270.0
 40
270.0
 40
270.0
 40
271.0
 40
271.0
 40
271.0
 40
272.0
 40
272.0
 40
272.0
 40
273.0
 40
273.0
 40
273.0
 40
274.0
 40
274.0
 40
274.0
 40
275.0
 40
275.0
 40
275.0
 40
276.0
 40
276.0
 40
276.0
 40
277.0
 40
277.0
 40
277.0
 40
278.0
 40
278.0
 40
278.0
 40
279.0
 40
279.0
 40
279.0
 40
280.0
 40
280.0
 40
280.0
 40
281.0
 40
281.0
 40
281.0
 40
282.0
 40
282.0
 40
282.0
 40
283.0
 40
283.0
 40
283.0
 40
284.0
 40
284.0
 40
284.0
 40
285.0
 40
285.0
 40
285.0
 40
286.0
 40
286.0
 40
286.0
 40
287.0
 40
287.0
 40
287.0
 40
288.0
 40
288.0
 40
288.0
 40
289.0
 40
289.0
 40
289.0
 40
290.0
 40
290.0
 40
290.0
 40
291.0
 40
291.0
 40
291.0
 40
292.0
 40
292.0
 40
292.0
 40
293.0
 40
293.0
 40
293.0
 40
294.0
 40
294.0
 40
294.0
 40
295.0
 40
295.0
 40
295.0
 40
296.0
 40
296.0
 40
296.0
 40
297.0
 40
297.0
 40
297.0
 40
298.0
 40
298.0
 40
298.0
 40
299.0
 40
299.0
 40
299.0
 40
300.0
 40
300.0
 40
300.0
 40
301.0
 40
301.0
 40
301.0
 40
302.0
 40
302.0
 40
302.0
 40
303.0
 40
303.0
 40
303.0
 40
304.0
 40
304.0
 40
304.0
 40
305.0
 40
305.0
 40
305.0
 40
306.0
 40
306.0
 40
306.0
 40
307.0
 40
307.0
 40
307.0
 40
307.0
 10
247.2122291431097
 20
381.6147601557714
 10
246.9636903965556
 20
381.9142707375922
 10
246.874484822969
 20
382.1627900366693
 10
246.9509522996086
 20
382.3635268865855
 10
246.9254566582367
 20
382.239276960785
 10
246.8394210232791
 20
382.1277456844546
 10
246.6896754561076
 20
382.0289719525499
 10
246.565406082831
 20
382.1755475810933
 10
246.3391930390189
 20
382.3635268865855
 10
246.0173762019331
 20
382.5865699917667
 10
245.6923699787403
 20
382.812802483053
 10
245.4693268735591
 20
382.9976118499162
 10
245.3450769477586
 20
383.1505468031937
 10
245.2940856650148
 20
383.2238248937265
 10
245.227166899218
 20
383.3289773978431
 10
245.1379613256304
 20
383.4659848680676
 10
245.0519256906737
 20
383.6029923382921
 10
244.9404138618211
 20
383.7846123190484
 10
244.8034063915966
 20
384.0076554242296
 10
244.6663989213721
 20
384.2306985294126
 10
244.5676251894674
 20
384.425056607115
 10
244.5038958097757
 20
384.5875597187114
 10
244.4433558161909
 20
384.7500628303078
 10
244.4369770439789
 20
384.8424577900005
 10
244.4847789406167
 20
384.8679534313724
 10
244.0131970888815
 20
384.6672165814562
 10
243.3281597377591
 20
384.8042240516806
 10
242.4296279922974
 20
385.2789758420458
 10
242.2575761698599
 20
385.3777495739505
 10
241.9931099402529
 20
385.6390264174515
 10
241.6457974617942
 20
386.0628063725489
 10
241.2985044308125
 20
386.4865668801704
 10
240.9352644693008
 20
386.6713762470317
 10
240.5624757969463
 20
386.6235743503948
 10
240.4382064236697
 20
386.598098156499
 10
240.2693245398623
 20
386.5534856459672
 10
240.0590389791041
 20
386.4929456523823
 10
239.8455640322409
 20
386.4292162726906
 10
239.6671334375906
 20
386.4005506926896
 10
239.5173684229421
 20
386.4005506926896
 10
239.3676228557706
 20
386.4005506926896
 10
239.1668860058544
 20
386.4483331418505
 10
238.9183472593013
 20
386.5502962598621
 10
238.7207997954911
 20
386.6235743503948
 10
238.453163627255
 20
386.7669605928313
 10
238.1154193071143
 20
386.9772656010646
 10
237.7808449256045
 20
387.1907405479287
 10
237.5482531095804
 20
387.3213692459412
 10
237.4239837363039
 20
387.3691711425781
 10
237.102166899218
 20
387.5444123511224
 10
236.9396832350976
 20
387.6304479860792
 10
236.9396832350976
 20
387.6304479860792
 10
236.9396832350976
 20
387.6304479860792
 10
236.3406620714568
 20
387.9299585679
 10
236.3406620714568
 20
387.9299585679
 10
236.1908970568084
 20
388.0032366584328
 10
236.0347727174239
 20
388.1211272594974
 10
235.8754589919336
 20
388.2836303710938
 10
235.7129558803372
 20
388.4461334826901
 10
235.6078033762205
 20
388.6149959190225
 10
235.5568315409537
 20
388.7902565750428
 10
235.5058597056859
 20
388.9400021422152
 10
235.4453197121011
 20
389.2363233379292
 10
235.3688327879854
 20
389.6855989343985
 10
235.2955546974526
 20
390.13485508339
 10
235.1967809655471
 20
390.4598613065828
 10
235.0725115922705
 20
390.6574087703921
 10
234.9227660250981
 20
390.9059280694692
 10
234.7092910782349
 20
391.1544668160241
 10
234.4352566903099
 20
391.4029861151012
 10
234.1612417498609
 20
391.6515248616543
 10
233.9127224507838
 20
391.7789836210359
 10
233.6896793456026
 20
391.7789836210359
 10
233.8872268094119
 20
391.7789836210359
 10
233.8872268094119
 20
391.9446566712631
 10
233.6896793456026
 20
392.282400991402
 10
233.4889424956864
 20
392.6201453115427
 10
233.316890673249
 20
392.8623052858838
 10
233.1671256586005
 20
393.0120703005323
 10
233.1161538233328
 20
393.0598527496932
 10
232.9663888086843
 20
393.2223558612895
 10
232.7178695096072
 20
393.4963708017385
 10
232.4693307630541
 20
393.7704051896635
 10
232.2558558161909
 20
394.0061863917927
 10
232.0837845462765
 20
394.2069232417089
 10
231.9085433377322
 20
394.4076600916251
 10
231.7587977705607
 20
394.6370625215422
 10
231.6345283972842
 20
394.8983393650433
 10
231.5102590240067
 20
395.1596162085443
 10
231.4847828301117
 20
395.3794699276186
 10
231.5580609206445
 20
395.5515217500579
 10
231.5835565620164
 20
395.5770173914298
 10
231.5580609206445
 20
395.6152511297496
 10
231.4847828301117
 20
395.6630530263865
 10
231.4082959059961
 20
395.7140248616543
 10
231.3159009463034
 20
395.7649966969202
 10
231.2043891174508
 20
395.8127985935589
 10
231.0928578411222
 20
395.8637704288267
 10
230.9877053370046
 20
395.9083829393567
 10
230.88576166647
 20
395.9434272915714
 10
230.7869879345653
 20
395.9816804773673
 10
230.7136903965556
 20
396.0007973465263
 10
230.6627185612888
 20
396.0007973465263
 10
230.7136903965556
 20
395.8988342285156
 10
230.7678710654054
 20
395.7204036338662
 10
230.8315809976211
 20
395.4591267903652
 10
230.892120991206
 20
395.1978499468642
 10
230.9622291431097
 20
395.0034918691599
 10
231.0355072336424
 20
394.8792224958834
 10
231.0864985163862
 20
394.7804487639787
 10
231.2967840771435
 20
394.4172088024661
 10
231.6727621356031
 20
393.7958813835594
 10
232.3195851958817
 20
392.7507934570312
 10
232.6190957777026
 20
391.9765310848452
 10
232.5681044949588
 20
391.479473039215
 10
232.4183589277873
 20
391.4316711425781
 10
232.3195851958817
 20
391.4539773978431
 10
232.2685939131388
 20
391.5527511297496
 10
232.220811463977
 20
391.6515248616543
 10
232.1825582781812
 20
391.7917217179838
 10
232.1570820842862
 20
391.9637735404212
 10
232.1315864429143
 20
392.1390147489656
 10
232.1060908015425
 20
392.2632841222421
 10
232.0806146076466
 20
392.3397515988818
 10
232.0073170696378
 20
392.4863272274233
 10
231.8129589919336
 20
392.6488303390197
 10
231.5038996992716
 20
392.824071547564
 10
231.1916315730268
 20
392.9993127561083
 10
230.9972734953226
 20
393.1745539646527
 10
230.9239954047898
 20
393.3466252345661
 10
230.9494715986857
 20
393.3466252345661
 10
230.9781566261636
 20
393.359363331514
 10
231.0163903644825
 20
393.3848589728859
 10
231.0546241028023
 20
393.4103546142578
 10
231.0864985163862
 20
393.4230927112058
 10
231.1119747102812
 20
393.4230927112058
 10
231.1374703516531
 20
393.646135816387
 10
231.0068416536405
 20
393.9328888537839
 10
230.7200691687685
 20
394.2802013322416
 10
230.4332966838956
 20
394.6306837493303
 10
230.315406082831
 20
394.8792224958834
 10
230.3632079794679
 20
395.0289680630558
 10
230.1656605156586
 20
395.1787330777042
 10
229.9904193071143
 20
395.4718648873131
 10
229.8406542924658
 20
395.9051935532516
 10
229.6909087252934
 20
396.341711605297
 10
229.5666393520169
 20
396.622105317957
 10
229.4678656201122
 20
396.7463746912345
 10
229.3659025021016
 20
396.8961397058829
 10
229.244822514931
 20
397.0267684038945
 10
229.0950769477586
 20
397.1382802327471
 10
228.9453119331101
 20
397.2498115090766
 10
228.7573131801419
 20
397.3772508209831
 10
228.5342895224367
 20
397.5142777386836
 10
228.3080570311495
 20
397.6512852089081
 10
228.158311463977
 20
397.7436801686008
 10
228.0850139259683
 20
397.7946520038677
 10
228.0340420907005
 20
397.8169582591336
 10
227.9352683587958
 20
397.9284895354631
 10
227.7855033441474
 20
398.1292263853784
 10
226.9634585228005
 20
399.1265318627447
 10
226.7149197762474
 20
399.6618236466948
 10
227.0399259994401
 20
399.7351017372284
 10
226.7149197762474
 20
399.6618236466948
 10
226.4472641605344
 20
399.9039836210359
 10
226.2369785997771
 20
400.4647515988818
 10
226.023503652913
 20
401.0255390242037
 10
225.9565848871162
 20
401.4556977515131
 10
226.0298629776489
 20
401.752018947227
 10
226.0298629776489
 20
401.752018947227
 10
225.9565848871162
 20
401.7902526855469
 10
225.9565848871162
 20
401.7902526855469
 10
225.9788911423821
 20
401.8890264174515
 10
225.9916292393291
 20
402.1821582270604
 10
225.9916292393291
 20
402.6696675618487
 10
225.9916292393291
 20
403.1539680630558
 10
226.023503652913
 20
403.5968648873122
 10
226.0872330326047
 20
403.9951492010377
 10
226.1477730261904
 20
404.3934335147633
 10
226.265663627255
 20
404.5941703646795
 10
226.4409048357984
 20
404.5941703646795
 10
226.265663627255
 20
404.5686747233076
 10
226.1350154817655
 20
404.7247990626911
 10
226.0489798468088
 20
405.0593734442018
 10
225.9629636593281
 20
405.3971177643425
 10
225.9565848871162
 20
405.6265201942597
 10
226.0298629776489
 20
405.7507895675362
 10
226.0553586190208
 20
405.827257044175
 10
226.1668898953494
 20
405.7762852089081
 10
226.3676072977896
 20
405.6010245528878
 10
226.5651742090749
 20
405.4289727304495
 10
226.6766860379275
 20
405.3142715154909
 10
226.7021816792994
 20
405.2664696188531
 10
227.0271684550162
 20
405.4417108273974
 10
227.1514378282927
 20
405.6647539325786
 10
227.0749703516531
 20
405.9387883205036
 10
227.0271684550162
 20
406.0375620524092
 10
226.7658916115151
 20
406.2988194484333
 10
226.29113982115
 20
406.7225994035307
 10
225.2205562532499
 20
407.4203942990771
 10
224.6725263723529
 20
407.7581386192169
 10
224.647030730981
 20
407.7326429778459
 10
224.7967762981534
 20
408.0066773657709
 10
224.7585425598336
 20
408.2424585679
 10
224.5354994546524
 20
408.4431954178153
 10
224.2869801555753
 20
408.2934304031669
 10
224.1435939131388
 20
408.255196664848
 10
224.105360174819
 20
408.3284942028567
 10
224.0703158226052
 20
408.4049616794964
 10
224.0384414090213
 20
408.5419691497209
 10
224.0129652151263
 20
408.7395166135302
 10
223.9874695737544
 20
408.9402534634464
 10
223.9237401940627
 20
409.051765292299
 10
223.824966462158
 20
409.07726093367
 10
223.7006970888815
 20
409.1027565750419
 10
223.5509515217091
 20
409.2015303069475
 10
223.3788996992716
 20
409.3735821293849
 10
225.5933449256045
 20
412.9103390562768
 10
228.5215319780127
 20
415.6760424445656
 10
232.1570820842862
 20
417.6706339518232
 10
232.3068276514578
 20
417.6929402070891
 10
232.5808425919067
 20
417.7056977515131
 10
232.9791269056323
 20
417.7056977515131
 10
233.1766938169185
 20
417.6802021101412
 10
233.3646731224098
 20
417.6196621165554
 10
233.5399143309542
 20
417.5208883846508
 10
233.7119856008685
 20
417.4189252666401
 10
233.8936055816239
 20
417.2819177964157
 10
234.0815848871162
 20
417.1098659739773
 10
234.2663942539775
 20
416.934605317957
 10
234.409780496414
 20
416.8103553921574
 10
234.5117436144255
 20
416.7370578541477
 10
234.5595260635864
 20
416.8868228687961
 10
234.4989860700016
 20
417.1098659739773
 10
234.3237448614573
 20
417.4093765557982
 10
234.3715467580951
 20
417.5591221229706
 10
234.64875108465
 20
417.7088676901421
 10
235.1458091302802
 20
417.8554433186846
 10
235.7193346525492
 20
417.9319107953243
 10
236.0921233249028
 20
417.9191726983763
 10
236.2673645334471
 20
417.8203989664717
 10
236.1176189662747
 20
418.0434420716529
 10
235.8690802197216
 20
418.3556907504217
 10
235.5185978026338
 20
418.7539750641472
 10
235.5185978026338
 20
418.7539750641472
 10
235.3337884357716
 20
418.5659763111789
 10
235.3337884357716
 20
418.5659763111789
 10
235.1330515858563
 20
418.7412369671993
 10
234.6105173463302
 20
418.6552013322416
 10
233.7629574361354
 20
418.3047189151539
 10
233.7151749869745
 20
418.279223273782
 10
233.587716227592
 20
418.2123045079852
 10
233.3901687637817
 20
418.1007926791326
 10
233.1894319138664
 20
417.9892614028031
 10
233.02692880227
 20
417.9064346014284
 10
232.9026594289935
 20
417.8586327047906
 10
232.7561032479271
 20
417.8076608695237
 10
232.6063382332786
 20
417.7949033250998
 10
232.4565926661062
 20
417.8203989664717
 10
233.6514456072828
 20
418.4672025792743
 10
234.8208029070875
 20
418.9770181693284
 10
235.9678539516262
 20
419.352996227788
 10
236.0411514896359
 20
419.3020049450442
 10
236.1654014154365
 20
419.1968718884036
 10
236.3406620714568
 20
419.0343687768072
 10
236.5159032800002
 20
418.8718656652118
 10
236.6529107502247
 20
418.7539750641472
 10
236.7516844821293
 20
418.6806969736135
 10
236.6784063915966
 20
418.7284794227753
 10
236.6274151088528
 20
418.7061731675094
 10
236.6019389149578
 20
418.6042294969748
 10
236.5031651830523
 20
418.3047189151539
 10
236.5031651830523
 20
418.0561801686008
 10
236.6019389149578
 20
417.8586327047906
 10
236.7261888407584
 20
417.6833914962472
 10
236.8950707245658
 20
417.5846177643425
 10
237.105356285324
 20
417.5591221229706
 10
237.3188506796632
 20
417.5336264815987
 10
237.5737487509523
 20
417.5463840260227
 10
237.8732593327732
 20
417.5973558612895
 10
238.172769914594
 20
417.6451577579273
 10
238.3703173784033
 20
417.6706339518232
 10
238.472280496414
 20
417.6706339518232
 10
238.472280496414
 20
417.6706339518232
 10
238.8450691687685
 20
417.6324002135034
 10
238.8450691687685
 20
417.6324002135034
 10
239.5715296443159
 20
417.5655008951826
 10
239.8933464814017
 20
417.6196621165554
 10
239.813689618657
 20
417.8012820973117
 10
239.8806083844547
 20
417.6865808823532
 10
239.9570758610935
 20
417.5017715154909
 10
240.0399221099442
 20
417.2404946719898
 10
240.1386958418498
 20
416.9282459932219
 10
240.2502076707024
 20
416.7115816602518
 10
240.3744770439789
 20
416.5873122869752
 10
240.5019358033614
 20
416.6860860188799
 10
240.5242420586274
 20
416.8613272274242
 10
240.4509445206177
 20
417.1098659739773
 10
240.3744770439789
 20
417.3583852730544
 10
240.3744770439789
 20
417.5336264815987
 10
240.4509445206177
 20
417.6324002135034
 10
240.4764401619896
 20
417.6833914962472
 10
240.5497182525223
 20
417.734363331514
 10
240.6739876257998
 20
417.7821652281518
 10
240.7982569990763
 20
417.8331370634187
 10
240.9416432415128
 20
417.8873177322685
 10
241.1041269056323
 20
417.9510276644842
 10
241.2666300172286
 20
418.014757044175
 10
241.3717825213453
 20
418.0561801686008
 10
241.422754356613
 20
418.0816758099727
 10
241.5725193712615
 20
418.1804495418774
 10
241.4705562532499
 20
418.3556907504217
 10
241.1232632222682
 20
418.6042294969748
 10
241.0722719395244
 20
418.6297056908697
 10
240.9671194354078
 20
418.6679394291896
 10
240.8046357712883
 20
418.7157413258274
 10
240.6453220457979
 20
418.7667131610942
 10
240.5019358033614
 20
418.817704443838
 10
240.3776664300849
 20
418.8654868929998
 10
240.2533970568084
 20
418.9164781757427
 10
240.1227683587958
 20
418.9833774940644
 10
239.9857608885713
 20
419.0726025151271
 10
239.8487534183469
 20
419.1586381500847
 10
239.7850240386551
 20
419.2574118819894
 10
239.7977621356031
 20
419.3721130969479
 10
239.810500232551
 20
419.4836249258005
 10
239.8774189983487
 20
419.627011168237
 10
240.0016883716253
 20
419.7990824381513
 10
240.1514339387968
 20
419.9233323639519
 10
240.3967832992448
 20
419.9743236466948
 10
240.7313382332786
 20
419.9488280053229
 10
241.0658931673124
 20
419.9265217500579
 10
241.3239806247075
 20
419.8627923703662
 10
241.4960518946218
 20
419.7640186384615
 10
242.1683511487963
 20
419.3880405800019
 10
242.270314266807
 20
419.0534856459672
 10
241.7955624764427
 20
418.7539750641472
 10
242.0440817755198
 20
418.7284794227753
 10
242.3435923573406
 20
418.6297056908697
 10
242.6940942219044
 20
418.4544644823263
 10
243.0413872528861
 20
418.282412659888
 10
243.1783947231106
 20
418.0944139069206
 10
243.1051166325778
 20
417.8936770570044
 10
243.3026640963872
 20
418.269655115464
 10
243.5034009463034
 20
418.4544644823263
 10
243.7009484101127
 20
418.4544644823263
 10
243.8252177833901
 20
418.4321582270604
 10
243.9462977705607
 20
418.2632957907281
 10
244.0578095994133
 20
417.9510276644842
 10
244.1693408757419
 20
417.6387789857154
 10
244.2362401940627
 20
417.473086488013
 10
244.2617358354346
 20
417.447610294118
 10
244.4624726853508
 20
417.1735759061921
 10
244.6600201491601
 20
417.1098659739773
 10
244.8607569990763
 20
417.2596115411498
 10
245.0583044628856
 20
417.4093765557982
 10
245.2654200850138
 20
417.6260408887674
 10
245.4757056457711
 20
417.9127939261643
 10
245.6700637234744
 20
418.1772601557714
 10
245.787954324539
 20
418.3078888537839
 10
245.8230181242288
 20
418.3078888537839
 10
245.5808581498877
 20
418.4098519717945
 10
245.5585518946218
 20
418.5054363175932
 10
245.756099358432
 20
418.6042294969748
 10
246.1288880307857
 20
418.830442540786
 10
246.4666323509255
 20
418.8909825343708
 10
246.7661429327463
 20
418.7922088024661
 10
246.8394210232791
 20
418.7412369671993
 10
246.9382142026607
 20
418.6297056908697
 10
247.0624641284612
 20
418.4544644823263
 10
247.2855072336424
 20
418.005208333333
 10
247.2504628814286
 20
417.7949033250998
 10
246.9509522996086
 20
417.8203989664717
 10
247.1739954047898
 20
417.6196621165554
 10
247.2663903644825
 20
417.3711233700024
 10
247.2313460122696
 20
417.0716127881815
 10
247.1931122739497
 20
416.7752915924675
 10
246.9987347487695
 20
416.638284122243
 10
246.6514417177877
 20
416.6605903775089
 10
246.5271723445112
 20
416.6605903775089
 10
246.3455523637549
 20
416.7243197571997
 10
246.1097711616258
 20
416.8485891304763
 10
245.8739899594966
 20
416.9728390562768
 10
245.6923699787403
 20
417.0429472081805
 10
245.5681006054638
 20
417.0524959190216
 10
245.4438506796632
 20
417.0684428495515
 10
245.2685900236429
 20
416.9983346976487
 10
245.0455663659377
 20
416.8485891304763
 10
244.9436032479271
 20
416.7243197571997
 10
244.8129551024385
 20
416.5108448103365
 10
244.6536413769481
 20
416.2145236146216
 10
244.4911382653518
 20
415.9150130328007
 10
244.3477714703922
 20
415.7015186384615
 10
244.2235020971148
 20
415.577268712661
 10
243.8507134247611
 20
415.2076499789373
 10
243.2357453305904
 20
415.0706425087128
 10
242.3754667709245
 20
415.1630374684055
 10
242.4264386061914
 20
415.1471099853516
 10
242.4137005092434
 20
415.0770212809248
 10
242.3340436464987
 20
414.9431837493303
 10
242.248008011542
 20
414.7934381821578
 10
242.1301174104765
 20
414.6245562983495
 10
241.980352395828
 20
414.4397663789641
 10
241.8306068286565
 20
414.2517676259959
 10
241.7445711936989
 20
414.1466151218792
 10
241.7190949998039
 20
414.1211389279833
 10
241.4960518946218
 20
413.8726001814302
 10
241.3462868799734
 20
413.5858471440333
 10
241.2698194033346
 20
413.2608409208406
 10
241.2698194033346
 20
413.2130390242037
 10
241.2570813063867
 20
413.0441765878713
 10
241.2315856650148
 20
412.7574041029984
 10
241.2060900236429
 20
412.4706510656024
 10
241.158307574482
 20
412.2539672851562
 10
241.0818400978433
 20
412.1042217179838
 10
241.3813506796632
 20
412.1774998085175
 10
241.6203212678984
 20
412.0277542413451
 10
241.7923730903367
 20
411.6549461215154
 10
241.9421186575091
 20
411.3076530905328
 10
241.9421186575091
 20
411.1196543375654
 10
241.7923730903367
 20
411.0941781436695
 10
242.6144373591596
 20
411.2184280694701
 10
243.337708448601
 20
411.1706456203083
 10
243.9622252536137
 20
410.9444131290211
 10
244.8575676129703
 20
410.6225962919343
 10
245.3673637555485
 20
410.2976095162185
 10
245.491633128825
 20
409.9726032930266
 10
245.6413981434735
 20
410.1988357843138
 10
246.0014487188791
 20
410.2115738812618
 10
246.574974241149
 20
410.0108370313455
 10
246.8011872849602
 20
409.886567658069
 10
246.9987347487695
 20
409.5137789857154
 10
247.1739954047898
 20
408.8924515668086
 10
247.2727691366945
 20
408.516473508349
 10
247.4416315730268
 20
408.1946566712622
 10
247.677412775156
 20
407.9206417308133
 10
247.9163833633911
 20
407.6466267903643
 10
248.1713008821562
 20
407.5701593137255
 10
248.4453158226052
 20
407.6944092395261
 10
248.4453158226052
 20
407.6944092395261
 10
248.5568276514578
 20
407.7708961636417
 10
248.5568276514578
 20
407.7708961636417
 10
248.6556013833633
 20
407.8186786128026
 10
248.7352582461081
 20
407.8632911233344
 10
248.7989876257998
 20
407.9015248616533
 10
248.8627170054906
 20
407.9365692138672
 10
248.9296357712883
 20
407.987560496611
 10
249.0029138618211
 20
408.0512704288258
 10
249.0793813384598
 20
408.1118104224115
 10
249.1239938489916
 20
408.1691804773673
 10
249.1335425598336
 20
408.2169629265281
 10
249.1463001042575
 20
408.2679542092719
 10
249.1271832350976
 20
408.3189260445388
 10
249.0793813384598
 20
408.3667279411766
 10
248.9041401299164
 20
408.516473508349
 10
248.7734919844279
 20
408.7235891304763
 10
248.6874757969463
 20
408.9848659739773
 10
248.6014401619896
 20
409.2461233700024
 10
248.6205570311495
 20
409.4755452473955
 10
248.74163701832
 20
409.6762820973117
 10
248.8181044949588
 20
409.7750558292164
 10
249.015651958769
 20
409.9248013963888
 10
249.3406581819609
 20
410.1255382463041
 10
249.6656644051536
 20
410.3230857101144
 10
249.8632118689638
 20
410.5238225600297
 10
249.9396793456026
 20
410.7213700238399
 10
250.0384530775073
 20
411.0463762470317
 10
249.9141837042307
 20
411.3140318627447
 10
249.563701287143
 20
411.5243174235029
 10
249.2163888086843
 20
411.7377923703662
 10
249.0411476001409
 20
411.9289805094404
 10
249.0411476001409
 20
412.1042217179838
 10
249.0411476001409
 20
412.2284910912604
 10
249.1239938489916
 20
412.3782366584328
 10
249.283307574482
 20
412.5534778669771
 10
249.4458106860784
 20
412.7287385229974
 10
249.5158993905052
 20
412.8880522484869
 10
249.4904037491333
 20
413.0377978156594
 10
249.4904037491333
 20
413.114265292299
 10
249.4458106860784
 20
413.2703896316825
 10
249.3597750511208
 20
413.5061902812886
 10
249.2737394161641
 20
413.7419714834177
 10
249.2227675808963
 20
413.917212691962
 10
249.2100100364723
 20
414.0287245208146
 10
249.1972719395244
 20
414.1402557971433
 10
249.2546225470041
 20
414.2708844951558
 10
249.3788919202807
 20
414.4206495098042
 10
249.550943742719
 20
414.5225931803388
 10
249.9619856008685
 20
414.5162338556029
 10
250.6087892136711
 20
414.4015326406443
 10
251.2588016600557
 20
414.2900013643157
 10
251.6825621676762
 20
414.1721107632511
 10
251.8801096314864
 20
414.0478413899737
 10
251.9565965556021
 20
414.0000589408128
 10
252.1190802197216
 20
413.923591464174
 10
252.3676189662747
 20
413.8248177322685
 10
252.6161382653518
 20
413.7260245528878
 10
252.8328220457979
 20
413.6177021101412
 10
253.0208013512893
 20
413.5061902812886
 10
253.2056107181515
 20
413.3946590049591
 10
253.3139331608982
 20
413.2895065008424
 10
253.33942880227
 20
413.1907327689378
 10
253.33942880227
 20
413.1907327689378
 10
253.1514494967778
 20
413.1907327689378
 10
253.1514494967778
 20
413.1907327689378
 10
253.3266907053221
 20
413.0377978156594
 10
253.4318237619627
 20
412.8657459932219
 10
253.4700769477586
 20
412.6650091433057
 10
253.5051212999724
 20
412.4674616794964
 10
253.4127068928028
 20
412.317696664848
 10
253.1896832350976
 20
412.2157335468364
 10
253.33942880227
 20
412.2412291882083
 10
253.5369762660794
 20
412.2061848359954
 10
253.7855150126334
 20
412.1042217179838
 10
254.1869887124649
 20
411.9544567033354
 10
254.1965374233059
 20
411.8174492331109
 10
253.8237487509523
 20
411.6931993073113
 10
253.900216227592
 20
411.7186755012062
 10
254.0053687317086
 20
411.7441711425781
 10
254.1423762019331
 20
411.76966678395
 10
254.2793836721576
 20
411.7951429778459
 10
254.3845361762742
 20
411.8302067775348
 10
254.457814266807
 20
411.8811786128026
 10
254.5087861020747
 20
411.9066742541745
 10
254.5693260956596
 20
411.9480973786003
 10
254.6457935722992
 20
412.0118267582911
 10
254.719091110308
 20
412.0755366905059
 10
254.7764417177877
 20
412.1106004901958
 10
254.8146754561076
 20
412.1233385871437
 10
254.8497198083205
 20
412.1360766840917
 10
254.9070704158003
 20
412.1488342285156
 10
254.980367953809
 20
412.1615723254636
 10
255.0568354304487
 20
412.1743104224115
 10
255.1301135209815
 20
412.1551935532516
 10
255.2033916115151
 20
412.1042217179838
 10
255.2320766389921
 20
412.1042217179838
 10
255.2862378603659
 20
412.1679510976755
 10
255.3722734953226
 20
412.2922010234761
 10
255.4583091302802
 20
412.4164703967526
 10
255.5538934760789
 20
412.5407397700292
 10
255.6526672079835
 20
412.6650091433057
 10
255.7514409398882
 20
412.7892785165823
 10
255.8406465134758
 20
412.852988448798
 10
255.9139440514846
 20
412.852988448798
 10
255.9872221420183
 20
412.852988448798
 10
256.057330293921
 20
412.8211334826901
 10
256.1178702875068
 20
412.7574041029984
 10
256.1815802197216
 20
412.6968641094136
 10
256.2293821163594
 20
412.6267754049859
 10
256.2676158546792
 20
412.5534778669771
 10
256.3058495929981
 20
412.4770103903375
 10
256.344083331318
 20
412.3973535275927
 10
256.3791276835318
 20
412.311337340112
 10
256.4173808693276
 20
412.2221123190484
 10
256.4492358354346
 20
412.1551935532516
 10
256.4747314768065
 20
412.1042217179838
 10
256.5225139259683
 20
411.9799523447073
 10
256.6435939131388
 20
411.8493236466948
 10
256.8284032800002
 20
411.7123161764703
 10
257.0132126468625
 20
411.5752892587698
 10
257.134292634033
 20
411.4446605607573
 10
257.1820750831948
 20
411.3203911874807
 10
257.2075707245658
 20
411.2471130969479
 10
257.2585425598336
 20
411.0591143439797
 10
257.3318400978433
 20
410.7596037621588
 10
257.405118188376
 20
410.4600931803388
 10
257.5070813063867
 20
410.2561863917927
 10
257.6313506796632
 20
410.144655115464
 10
257.7556006054638
 20
410.0299539005055
 10
257.943599358432
 20
409.9375589408128
 10
258.1921186575091
 20
409.8642614028031
 10
258.239920554146
 20
409.8387852089081
 10
258.3546217691055
 20
409.8515233058552
 10
258.5266930390189
 20
409.8993252024929
 10
258.7019342475633
 20
409.9502970377607
 10
258.8453204899997
 20
409.9630351347078
 10
258.9568323188523
 20
409.9375589408128
 10
259.0683441477049
 20
409.9152526855469
 10
259.1257142026607
 20
409.8132895675362
 10
259.1257142026607
 20
409.6380483589919
 10
259.2754597698331
 20
409.7877939261643
 10
259.3487378603659
 20
409.889757044175
 10
259.3487378603659
 20
409.9375589408128
 10
259.3742335017378
 20
409.615742103726
 10
259.4538903644825
 20
409.351275874119
 10
259.590897834707
 20
409.1537284103097
 10
259.7279053049315
 20
408.9561809464994
 10
259.9477590240067
 20
408.8669559254367
 10
260.2472696058276
 20
408.8924515668086
 10
260.2472696058276
 20
408.8924515668086
 10
260.1708021291888
 20
408.0703872979857
 10
260.1708021291888
 20
408.0703872979857
 10
260.0975240386551
 20
407.9461373721851
 10
259.9095252856878
 20
407.8537229650165
 10
259.6100147038669
 20
407.7900130328007
 10
259.310504122046
 20
407.7294730392159
 10
259.1257142026607
 20
407.6721029842602
 10
259.049227278545
 20
407.6211311489933
 10
258.9759491880122
 20
407.5988248937274
 10
258.7943292072559
 20
407.449079326555
 10
258.5075761698599
 20
407.17504493863
 10
258.2431099402529
 20
406.9201468673409
 10
258.1220299530814
 20
406.7640225279565
 10
258.1443362083473
 20
406.7002931482657
 10
257.7173668671439
 20
407.165496227788
 10
257.0833013512893
 20
407.2961249258005
 10
256.2484989855193
 20
407.0985774619903
 10
255.3021847908958
 20
406.9488318948188
 10
254.6521723445112
 20
406.7990668801704
 10
254.3048793135295
 20
406.6493213129979
 10
253.9065949998039
 20
406.4517738491886
 10
253.6325606118789
 20
406.2637750962203
 10
253.4828150447065
 20
406.091723273782
 10
253.4573194033346
 20
406.0662276324101
 10
253.4158962789088
 20
405.9770220588234
 10
253.352166899218
 20
405.827257044175
 10
253.2916269056323
 20
405.6806814156325
 10
253.2279169734175
 20
405.5405040067781
 10
253.1673769798317
 20
405.4162346335015
 10
253.1195750831948
 20
405.3238202263328
 10
253.078151958769
 20
405.2664696188531
 10
253.0399182204492
 20
405.2441633635881
 10
253.1801150767797
 20
405.282397101907
 10
253.3330500300581
 20
405.3939283782365
 10
253.5019319138664
 20
405.5850970698339
 10
253.6899112193578
 20
405.798591464174
 10
253.8078212678984
 20
405.9164820652386
 10
253.8587931031661
 20
405.9419582591336
 10
254.5056161634448
 20
406.362548828125
 10
255.0409079473948
 20
406.5123138427734
 10
255.4646684550162
 20
406.3848550833909
 10
256.0127177833892
 20
406.2351095162185
 10
256.1019233569768
 20
406.0375620524092
 10
255.7259452985172
 20
405.7890233058552
 10
255.6781628493554
 20
405.7380514705883
 10
255.5475147038669
 20
405.7189346014284
 10
255.3340397570037
 20
405.7316726983763
 10
255.1237347487695
 20
405.7444107953243
 10
254.980367953809
 20
405.7380514705883
 10
254.9070704158003
 20
405.7125558292164
 10
255.1301135209815
 20
405.6647539325786
 10
255.3181122739497
 20
405.5946652281518
 10
255.4678578411222
 20
405.5086295931951
 10
255.6144334696646
 20
405.4225939582375
 10
255.6526672079835
 20
405.3015334185429
 10
255.5793891174508
 20
405.1517684038945
 10
255.9776734311763
 20
404.9287252987133
 10
256.0509515217091
 20
404.6802059996362
 10
255.802412775156
 20
404.4061716117112
 10
255.4774259994401
 20
404.0811848359954
 10
255.0950691687685
 20
403.9441773657709
 10
254.6457935722992
 20
403.9951492010377
 10
254.719091110308
 20
403.9951492010377
 10
254.719091110308
 20
403.9441773657709
 10
254.6457935722992
 20
403.8454036338653
 10
254.6457935722992
 20
403.8454036338653
 10
254.0085386703386
 20
403.4343617757158
 10
254.0085386703386
 20
403.4343617757158
 10
253.9607562211768
 20
403.4088855818209
 10
253.7982531095804
 20
403.3483455882351
 10
253.5242381691323
 20
403.2463824702245
 10
253.2502232286834
 20
403.1476087383198
 10
253.0622244757151
 20
403.0360774619903
 10
252.9634507438104
 20
402.9118275361907
 10
252.8901726532767
 20
402.8130343568091
 10
252.8519389149578
 20
402.6632887896367
 10
252.8519389149578
 20
402.4625519397214
 10
252.8519389149578
 20
402.2618150898052
 10
252.8391813705339
 20
402.1120695226336
 10
252.813685729162
 20
402.0132957907281
 10
252.7882095352661
 20
401.9145220588234
 10
252.6894358033614
 20
401.8890264174515
 10
252.5141945948171
 20
401.9399982527193
 10
252.4408970568084
 20
401.7902526855469
 10
252.2083052407852
 20
401.6723620844823
 10
251.8227590240067
 20
401.5863264495256
 10
251.437232254706
 20
401.497120875938
 10
251.1823147359401
 20
401.3664727304495
 10
251.0580648101395
 20
401.194420908012
 10
251.2078103773119
 20
400.9936840580958
 10
251.195072280364
 20
400.7929472081805
 10
251.0198310718206
 20
400.5953997443703
 10
250.7203204899997
 20
400.3468609978172
 10
250.4590436464987
 20
400.3723566391891
 10
250.2360005413175
 20
400.6686778349031
 10
250.11173116804
 20
400.6208953857422
 10
250.0193362083473
 20
400.4966260124656
 10
249.9556068286565
 20
400.2958891625494
 10
249.8950668350708
 20
400.0951523126341
 10
249.7994824892721
 20
399.9581448424096
 10
249.6752131159956
 20
399.8848667518769
 10
249.850454324539
 20
399.6108323639519
 10
249.824978130644
 20
399.4100955140357
 10
249.6019350254619
 20
399.2858455882351
 10
249.6274112193578
 20
399.2858455882351
 10
249.6815918882075
 20
399.2635393329692
 10
249.7676080756883
 20
399.2125480502264
 10
249.856833096751
 20
399.1615762149586
 10
249.9492280564446
 20
399.1010362213738
 10
250.0480017883492
 20
399.0245687447341
 10
250.1499649063599
 20
398.9512712067253
 10
250.2105048999456
 20
398.9130374684055
 10
250.2360005413175
 20
398.9130374684055
 10
250.1372268094119
 20
398.6900138107003
 10
250.0002193391874
 20
398.5784825343708
 10
249.824978130644
 20
398.5784825343708
 10
249.9747236978164
 20
398.1801982206453
 10
249.7867249448482
 20
397.7436801686008
 10
249.2641907053221
 20
397.2689283782365
 10
249.1654169734175
 20
397.170154646331
 10
249.009292634033
 20
397.0713809144263
 10
248.7989876257998
 20
396.9726071825216
 10
248.5855126789356
 20
396.870644064511
 10
248.3911546012323
 20
396.7909872017653
 10
248.219083331318
 20
396.7272578220745
 10
248.0438421227736
 20
396.6667178284888
 10
247.945068390869
 20
396.622105317957
 10
247.9195727494971
 20
396.596629124062
 10
247.67105345042
 20
396.3735860188799
 10
247.4830546974526
 20
396.1441641414867
 10
247.3587853241752
 20
395.9051935532516
 10
247.2345353983756
 20
395.6694123511224
 10
247.2154185292156
 20
395.4400099212053
 10
247.3014347166963
 20
395.2137774299172
 10
247.3906597377591
 20
394.990734324736
 10
247.6200621676762
 20
394.8409887575635
 10
247.9928702875068
 20
394.7676912195548
 10
247.9928702875068
 20
394.7676912195548
 10
248.0311040258257
 20
394.4682000852099
 10
248.0311040258257
 20
394.4682000852099
 10
248.0311040258257
 20
394.4682000852099
 10
248.0311040258257
 20
393.7958813835594
 10
248.0311040258257
 20
393.7958813835594
 10
248.0311040258257
 20
393.7958813835594
 10
248.0693377641455
 20
393.4963708017385
 10
248.0693377641455
 20
393.4963708017385
 10
248.0948139580414
 20
393.3211295931942
 10
248.1107608885713
 20
393.1650052538098
 10
248.1234989855193
 20
393.0279977835853
 10
248.1362370824663
 20
392.8909903133608
 10
248.1362370824663
 20
392.7189190434474
 10
248.1234989855193
 20
392.5054440965832
 10
248.1107608885713
 20
392.295158535826
 10
248.0565802197216
 20
392.1772679347614
 10
247.9578064878169
 20
392.1517722933895
 10
247.8590327559123
 20
392.1262766520176
 10
247.7220252856878
 20
392.1517722933895
 10
247.5467840771435
 20
392.2250503839223
 10
247.3460472272282
 20
392.3270135019338
 10
247.1102660250981
 20
392.8750628303078
 10
246.83625108465
 20
393.8691789215682
 10
246.7852598019062
 20
394.1176982206453
 10
246.6355142347338
 20
394.4172088024661
 10
246.3869754881807
 20
394.7676912195548
 10
246.2627061149042
 20
394.6434412937542
 10
246.1575730582636
 20
394.5605950449026
 10
246.0683480371999
 20
394.5255506926896
 10
245.9823318497192
 20
394.4873169543698
 10
245.9186024700284
 20
394.4809381821578
 10
245.8835386703386
 20
394.5064338235297
 10
245.8453049320187
 20
394.5287206313187
 10
245.7784056136979
 20
394.5860906862745
 10
245.6764424956864
 20
394.6721068737552
 10
245.5776687637817
 20
394.7613318948188
 10
245.491633128825
 20
394.8282312131396
 10
245.4151656521854
 20
394.8792224958834
 10
245.2908962789088
 20
394.9525005864161
 10
245.0742319459396
 20
395.0162299661079
 10
244.7619832671708
 20
395.0640318627447
 10
244.4529045270328
 20
395.1150036980125
 10
244.2585464493286
 20
395.1755436915973
 10
244.1820789726899
 20
395.252011168237
 10
243.5862471951541
 20
394.8027550192437
 10
243.2230072336424
 20
394.9142668480963
 10
243.0987378603659
 20
395.5865661022708
 10
243.0509554112041
 20
395.4623161764703
 10
243.0573147359401
 20
395.2934342926619
 10
243.1178547295258
 20
395.0831487319047
 10
243.1815841092166
 20
394.8696543375645
 10
243.2102691366945
 20
394.7517637364999
 10
243.2102691366945
 20
394.7262875426059
 10
243.0381978667801
 20
394.4044707055182
 10
242.7641829263321
 20
394.3789750641463
 10
242.3913942539775
 20
394.6529900045953
 10
242.2416292393291
 20
394.8027550192437
 10
241.8975255944533
 20
394.8218718884036
 10
241.3622338105033
 20
394.710340612075
 10
240.8492288343432
 20
394.6052075554344
 10
240.5051251894674
 20
394.5829013001694
 10
240.3235052087111
 20
394.6434412937542
 10
240.352170788713
 20
394.6306837493303
 10
240.3935939131388
 20
394.5956393971155
 10
240.4477551345117
 20
394.5414781757427
 10
240.5210526725214
 20
394.4936762791058
 10
240.5720245077882
 20
394.455442540786
 10
240.5975201491601
 20
394.4299468994141
 10
240.5720245077882
 20
394.3311731675094
 10
240.5337907694693
 20
394.2547056908697
 10
240.4828189342015
 20
394.2069232417089
 10
240.4350170375637
 20
394.1559319589651
 10
240.3840452022969
 20
394.1368150898052
 10
240.3362433056591
 20
394.1495726342291
 10
240.2852714703922
 20
394.1623107311771
 10
240.2279014154365
 20
394.1623107311771
 10
240.1673808693276
 20
394.1495726342291
 10
240.1036514896359
 20
394.1368150898052
 10
240.0494708207862
 20
394.1176982206453
 10
239.9984989855193
 20
394.0922025792734
 10
239.8997252536137
 20
394.0189244887406
 10
239.7754558803372
 20
393.8882957907281
 10
239.6257103131657
 20
393.7034864238667
 10
239.4759452985172
 20
393.5154876708984
 10
239.3644334696646
 20
393.3975970698339
 10
239.287965993025
 20
393.3466252345661
 10
239.4377115601974
 20
392.9483409208406
 10
239.5078197121011
 20
392.6424515668077
 10
239.4950621676762
 20
392.4321660060505
 10
239.4823240707292
 20
392.2186716117103
 10
239.4440903324094
 20
391.9096123190484
 10
239.3803609527176
 20
391.4985899083749
 10
239.3198209591328
 20
391.0875480502255
 10
239.287965993025
 20
390.7561825022985
 10
239.287965993025
 20
390.5076437557436
 10
239.287965993025
 20
390.1093594420199
 10
239.4058565940895
 20
389.6473651960787
 10
239.6416377962187
 20
389.1248115090766
 10
239.8806083844547
 20
388.6022578220745
 10
240.1610020971148
 20
388.2422072466688
 10
240.4828189342015
 20
388.0414703967526
 10
240.6580601427459
 20
387.942696664848
 10
240.9575707245658
 20
387.8821566712631
 10
241.3813506796632
 20
387.8566804773673
 10
241.8051111872846
 20
387.8311848359954
 10
242.1046217691055
 20
387.8566804773673
 10
242.2766930390189
 20
387.9299585679
 10
242.4264386061914
 20
388.0032366584328
 10
242.537950435044
 20
388.0924616794964
 10
242.6144373591596
 20
388.1912354114011
 10
242.6877154496924
 20
388.2900091433057
 10
242.7514448293841
 20
388.4365653243713
 10
242.799227278545
 20
388.6213746912345
 10
242.8502185612888
 20
388.8061840580958
 10
242.8884522996086
 20
388.9368127561083
 10
242.9139479409805
 20
389.013280232748
 10
243.0859997634179
 20
389.4880514705874
 10
243.4110059866107
 20
389.7365707696645
 10
243.882568390869
 20
389.7620664110364
 10
244.1820789726899
 20
389.7843726663032
 10
244.3987433056591
 20
389.7524982527193
 10
244.5389401619896
 20
389.6664820652386
 10
244.675947632214
 20
389.5804464302819
 10
244.7301088535869
 20
389.4625558292173
 10
244.7046326596919
 20
389.3127908145689
 10
244.67913701832
 20
389.1630452473964
 10
244.6313351216822
 20
389.006920908012
 10
244.5548676450435
 20
388.8444177964157
 10
244.4815895545107
 20
388.6819146848193
 10
244.3891945948171
 20
388.5034840901699
 10
244.2744739323825
 20
388.3027472402537
 10
244.1629621035299
 20
388.1020103903375
 10
244.0960433377322
 20
387.9554542092719
 10
244.0705671438373
 20
387.8534910912604
 10
244.0227652471995
 20
387.6559436274511
 10
243.9781527366677
 20
387.3755499147901
 10
243.9399189983487
 20
387.0123099532775
 10
243.9016852600289
 20
386.6522593778718
 10
243.873000232551
 20
386.4355950449026
 10
243.8475240386551
 20
386.3591275682629
 10
243.8953064878169
 20
386.333631926891
 10
244.0833052407852
 20
386.3208938299449
 10
244.408311463977
 20
386.3208938299449
 10
244.408311463977
 20
386.3718656652109
 10
244.424238947031
 20
386.4515225279574
 10
244.4624726853508
 20
386.5662237429151
 10
244.5007064236697
 20
386.6777550192437
 10
244.5198232928296
 20
386.7446543375645
 10
244.5198232928296
 20
386.7701499789364
 10
244.6440926661062
 20
386.569413129022
 10
244.8416401299164
 20
386.4579013001694
 10
245.1156550703654
 20
386.4355950449026
 10
245.3896700108135
 20
386.4100994035307
 10
245.5904068607297
 20
386.5088731354354
 10
245.7146762340062
 20
386.7319162406166
 10
245.765648069274
 20
386.6586381500838
 10
245.9154130839224
 20
386.4706393971155
 10
246.1639323829995
 20
386.1711288152965
 10
246.4124711295526
 20
385.8748076195807
 10
246.5494785997771
 20
385.6230989343985
 10
246.574974241149
 20
385.4255514705874
 10
246.600450435044
 20
385.3235883525776
 10
246.6482523316818
 20
385.1642746270863
 10
246.7247198083205
 20
384.9380421358001
 10
246.7980173463302
 20
384.7149990306189
 10
246.8234935402261
 20
384.5588746912345
 10
246.7980173463302
 20
384.4696691176468
 10
246.7725217049583
 20
384.3836334826901
 10
246.6482523316818
 20
384.3390209721583
 10
246.4252092265006
 20
384.3390209721583
 10
246.326435494595
 20
384.3390209721583
 10
246.2627061149042
 20
384.3039766199454
 10
246.2404193071143
 20
384.2275091433057
 10
246.2149236657424
 20
384.154211605297
 10
246.2149236657424
 20
384.0618166456043
 10
246.2404193071143
 20
383.9503048167517
 10
246.2658955010102
 20
383.8355841543162
 10
246.294580528488
 20
383.7304510976755
 10
246.332814266807
 20
383.6316773657709
 10
246.3710480051268
 20
383.5329036338662
 10
246.4188499017646
 20
383.4245617436427
 10
246.4825598339794
 20
383.3130499147901
 10
246.5462892136711
 20
383.2015186384615
 10
246.574974241149
 20
383.1346193201407
 10
246.574974241149
 20
383.1091236787688
 10
247.0242303901414
 20
382.2870594099459
 10
247.6328197121011
 20
382.0640163047647
 10
248.4070820842862
 20
382.4368244245943
 10
248.4070820842862
 20
381.713533887676
 10
248.2318408757419
 20
381.3152495739505
 10
247.8813390111773
 20
381.2419714834177
 10
247.6837915473679
 20
381.1909802006739
 10
247.4607484421867
 20
381.3184389600574
 10
247.2122291431097
 20
381.6147601557714
 97
        0
 97
        0
 92
        1
 93
        1
 72
     4
 94
        3
 73
     0
 74
     1
 95
      140
 96
      136
 40
0.0
 40
0.0
 40
0.0
 40
0.0
 40
1.0
 40
1.0
 40
1.0
 40
2.0
 40
2.0
 40
2.0
 40
3.0
 40
3.0
 40
3.0
 40
4.0
 40
4.0
 40
4.0
 40
5.0
 40
5.0
 40
5.0
 40
6.0
 40
6.0
 40
6.0
 40
7.0
 40
7.0
 40
7.0
 40
8.0
 40
8.0
 40
8.0
 40
9.0
 40
9.0
 40
9.0
 40
10.0
 40
10.0
 40
10.0
 40
11.0
 40
11.0
 40
11.0
 40
12.0
 40
12.0
 40
12.0
 40
13.0
 40
13.0
 40
13.0
 40
14.0
 40
14.0
 40
14.0
 40
15.0
 40
15.0
 40
15.0
 40
16.0
 40
16.0
 40
16.0
 40
17.0
 40
17.0
 40
17.0
 40
18.0
 40
18.0
 40
18.0
 40
19.0
 40
19.0
 40
19.0
 40
20.0
 40
20.0
 40
20.0
 40
21.0
 40
21.0
 40
21.0
 40
22.0
 40
22.0
 40
22.0
 40
23.0
 40
23.0
 40
23.0
 40
24.0
 40
24.0
 40
24.0
 40
25.0
 40
25.0
 40
25.0
 40
26.0
 40
26.0
 40
26.0
 40
27.0
 40
27.0
 40
27.0
 40
28.0
 40
28.0
 40
28.0
 40
29.0
 40
29.0
 40
29.0
 40
30.0
 40
30.0
 40
30.0
 40
31.0
 40
31.0
 40
31.0
 40
32.0
 40
32.0
 40
32.0
 40
33.0
 40
33.0
 40
33.0
 40
34.0
 40
34.0
 40
34.0
 40
35.0
 40
35.0
 40
35.0
 40
36.0
 40
36.0
 40
36.0
 40
37.0
 40
37.0
 40
37.0
 40
38.0
 40
38.0
 40
38.0
 40
39.0
 40
39.0
 40
39.0
 40
40.0
 40
40.0
 40
40.0
 40
41.0
 40
41.0
 40
41.0
 40
42.0
 40
42.0
 40
42.0
 40
43.0
 40
43.0
 40
43.0
 40
44.0
 40
44.0
 40
44.0
 40
45.0
 40
45.0
 40
45.0
 40
45.0
 10
247.7698271823247
 20
373.1743220908975
 10
247.7220252856878
 20
373.4228413899746
 10
247.6965296443159
 20
373.623578239889
 10
247.6997190304219
 20
373.7733432545374
 10
247.674242836526
 20
373.9708907183485
 10
247.7602590240067
 20
374.2385268865855
 10
247.9578064878169
 20
374.5762712067244
 10
248.1585433377322
 20
374.910845588236
 10
248.2573170696378
 20
375.1657436595251
 10
248.2573170696378
 20
375.3409848680676
 10
247.8590327559123
 20
375.4397585999741
 10
247.7092871887398
 20
375.764764823165
 10
247.8080609206445
 20
376.312794704063
 10
247.8590327559123
 20
376.6855833764166
 10
248.219083331318
 20
377.1858308081537
 10
248.8913825854925
 20
377.8071582270604
 10
249.3661538233328
 20
378.2309381821578
 10
249.5158993905052
 20
378.8299593457996
 10
249.3406581819609
 20
379.6010323318787
 10
249.2673800914281
 20
379.9228491689646
 10
249.2036507117373
 20
380.3976009593298
 10
249.1526594289935
 20
381.0189283782365
 10
249.1080663659377
 20
381.6211389279833
 10
249.0570750831948
 20
382.0480888217098
 10
249.009292634033
 20
382.2998169543698
 10
249.0347688279289
 20
382.239276960785
 10
249.1526594289935
 20
382.1755475810933
 10
249.3597750511208
 20
382.1213863597204
 10
249.5955562532499
 20
382.0608463661338
 10
249.7389424956864
 20
381.981189503389
 10
249.7899143309542
 20
381.8824157714844
 10
249.837716227592
 20
381.9556938620171
 10
249.9014456072828
 20
382.0927013322416
 10
249.9747236978164
 20
382.2902487960509
 10
250.0511911744552
 20
382.4909856459672
 10
250.1244887124649
 20
382.6407312131396
 10
250.1977668029976
 20
382.7395049450442
 10
250.2487386382645
 20
382.8159918691599
 10
250.3538911423821
 20
382.9083868288526
 10
250.5163942539775
 20
383.0198986577052
 10
250.6788973655739
 20
383.1314299340338
 10
250.7840304222145
 20
383.2015186384615
 10
250.8350217049583
 20
383.2270142798334
 10
250.8828041541201
 20
383.2493205350984
 10
250.9975248165547
 20
383.33216678395
 10
251.1695766389921
 20
383.4691742541745
 10
251.3448178475364
 20
383.606181724399
 10
251.4882040899729
 20
383.7113342285156
 10
251.5997159188255
 20
383.7846123190484
 10
251.7144365812601
 20
383.8610797956881
 10
251.8609927623265
 20
383.9152410170609
 10
252.0489915152948
 20
383.9534942028567
 10
252.2369708207862
 20
383.9917279411766
 10
252.3676189662747
 20
383.9343578862208
 10
252.4408970568084
 20
383.7846123190484
 10
252.5651664300849
 20
383.634866751876
 10
252.539670788713
 20
383.4054448744828
 10
252.3676189662747
 20
383.093196195714
 10
252.1923777577313
 20
382.7809280694692
 10
252.1923777577313
 20
382.5642637364999
 10
252.3676189662747
 20
382.4400138106994
 10
252.3931146076466
 20
382.513291901234
 10
252.4154014154365
 20
382.6757950128285
 10
252.4408970568084
 20
382.9243143119056
 10
252.4663926981802
 20
383.1760424445656
 10
252.539670788713
 20
383.360832363951
 10
252.6639401619896
 20
383.4882911233344
 10
252.813685729162
 20
383.634866751876
 10
252.9570719715985
 20
383.7240723254636
 10
253.0940794418229
 20
383.7463785807286
 10
253.2311063595234
 20
383.7750441607313
 10
253.355356285324
 20
383.7559272915714
 10
253.4668875616526
 20
383.6922173593557
 10
253.5815887766112
 20
383.628487979664
 10
253.7122174746237
 20
383.5424523447073
 10
253.8587931031661
 20
383.4309405158547
 10
254.0085386703386
 20
383.3194092395261
 10
254.1455655880391
 20
383.2493205350984
 10
254.2698155138396
 20
383.2270142798334
 10
254.6426236336692
 20
383.0995555204499
 10
255.0918797826616
 20
382.825540580001
 10
255.6144334696646
 20
382.4049500110104
 10
255.5921272143987
 20
382.4272562662754
 10
255.5921272143987
 20
382.4591306798593
 10
255.6144334696646
 20
382.4973644181791
 10
255.6399291110356
 20
382.535598156499
 10
255.6909009463034
 20
382.5706425087119
 10
255.7641790368361
 20
382.6088762470317
 10
255.8406465134758
 20
382.6471099853516
 10
255.9075652792726
 20
382.6821543375645
 10
255.9712946589643
 20
382.7203880758843
 10
256.0318346525492
 20
382.7586412616802
 10
256.1019233569768
 20
382.7873068416811
 10
256.1752208949856
 20
382.812802483053
 10
256.1752208949856
 20
382.812802483053
 10
256.2867327238382
 20
382.8510362213729
 10
256.2867327238382
 20
382.8510362213729
 10
256.4619739323825
 20
382.8510362213729
 10
256.5862433056591
 20
382.8637743183208
 10
256.6595213961918
 20
382.8892699596927
 10
256.7360083203075
 20
382.9147656010646
 10
256.8411413769481
 20
382.8892699596927
 10
256.9781488471726
 20
382.812802483053
 10
257.1151563173971
 20
382.7395049450442
 10
257.2075707245658
 20
382.6821543375645
 10
257.2585425598336
 20
382.6471099853516
 10
257.3063444564714
 20
382.6088762470317
 10
257.3955500300581
 20
382.5419574812349
 10
257.5198194033346
 20
382.4400138106994
 10
257.6440887766112
 20
382.3412206313187
 10
257.7301244115679
 20
382.2647531546791
 10
257.7810962468357
 20
382.2169707055182
 10
257.8543743373684
 20
382.1691688088813
 10
257.9913818075929
 20
382.0799632352937
 10
258.1921186575091
 20
381.9556938620171
 10
258.3896661213184
 20
381.8314244887406
 10
258.5458099081789
 20
381.7326507568359
 10
258.6573217370315
 20
381.6561832801963
 10
258.77202295199
 20
381.5829051896635
 10
258.8707966838956
 20
381.4713739133349
 10
258.9568323188523
 20
381.3216283461625
 10
259.042867953809
 20
381.171863331514
 10
259.0747229199169
 20
381.0093602199177
 10
259.049227278545
 20
380.8341190113733
 10
259.1989922931934
 20
380.8086233700014
 10
259.4985028750143
 20
380.7098496380968
 10
259.9477590240067
 20
380.5377978156594
 10
260.0210565620164
 20
380.4868259803916
 10
260.1771809014008
 20
380.4422134698598
 10
260.4161514896359
 20
380.4071691176468
 10
260.6519326917651
 20
380.368935379327
 10
260.8080570311495
 20
380.3115653243713
 10
260.8813351216822
 20
380.2382872338385
 10
257.2744700428875
 20
376.4243259803916
 10
252.8997213641187
 20
374.0728538363583
 10
247.7698271823247
 20
373.1743220908975
 97
        0
 97
        0
 75
     2
 76
     1
 98
        0
  0
ENDBLK
  5
44
330
41
100
AcDbEntity
  8
0
100
AcDbBlockEnd
  0
BLOCK
  5
4B
330
49
100
AcDbEntity
  8
0
100
AcDbBlockBegin
  2
block 3
 70
     0
 10
0.0
 20
0.0
 30
0.0
  3
block 3
  1

  0
SPLINE
  5
4D
330
49
100
AcDbEntity
  8
Ebene 1
370
     0
100
AcDbSpline
210
0.0
220
0.0
230
1.0
 70
    11
 71
     3
 72
    53
 73
    49
 74
     0
 42
0.0000000001
 43
0.0000000001
 12
1.0
 22
0.0
 32
0.0
 13
1.0
 23
0.0
 33
0.0
 40
0.0
 40
0.0
 40
0.0
 40
0.0
 40
1.0
 40
1.0
 40
1.0
 40
2.0
 40
2.0
 40
2.0
 40
3.0
 40
3.0
 40
3.0
 40
4.0
 40
4.0
 40
4.0
 40
5.0
 40
5.0
 40
5.0
 40
6.0
 40
6.0
 40
6.0
 40
7.0
 40
7.0
 40
7.0
 40
8.0
 40
8.0
 40
8.0
 40
9.0
 40
9.0
 40
9.0
 40
10.0
 40
10.0
 40
10.0
 40
11.0
 40
11.0
 40
11.0
 40
12.0
 40
12.0
 40
12.0
 40
13.0
 40
13.0
 40
13.0
 40
14.0
 40
14.0
 40
14.0
 40
15.0
 40
15.0
 40
15.0
 40
16.0
 40
16.0
 40
16.0
 40
16.0
 10
280.1582959059961
 20
396.7113303390206
 30
0.0
 10
280.1582959059961
 20
388.4620609657431
 30
0.0
 10
277.4244863787671
 20
380.8500464944282
 30
0.0
 10
272.8139370503932
 20
374.7355849322157
 30
0.0
 10
266.1450668350708
 20
365.8905032288803
 30
0.0
 10
255.5507040899729
 20
360.1743259803916
 30
0.0
 10
243.6244809334739
 20
360.1743259803916
 30
0.0
 10
223.4457990175924
 20
360.1743259803916
 30
0.0
 10
207.0874765748458
 20
376.5326484231391
 30
0.0
 10
207.0874765748458
 20
396.7113303390206
 30
0.0
 10
207.0874765748458
 20
416.8900122549021
 30
0.0
 10
223.4457990175924
 20
433.2483346976487
 30
0.0
 10
243.6244809334739
 20
433.2483346976487
 30
0.0
 10
243.6244809334739
 20
433.2483346976487
 30
0.0
 10
243.6244809334739
 20
425.4037284103097
 30
0.0
 10
243.6244809334739
 20
425.4037284103097
 30
0.0
 10
238.4180998275651
 20
425.4037284103097
 30
0.0
 10
233.6163818075929
 20
424.1228398341755
 30
0.0
 10
229.2225162596651
 20
421.5578927432789
 30
0.0
 10
224.8254613256304
 20
418.9897562662763
 30
0.0
 10
221.3460550062182
 20
415.5103499468632
 30
0.0
 10
218.7779185292156
 20
411.1132950128294
 30
0.0
 10
216.2129519908422
 20
406.7194100174247
 30
0.0
 10
214.9320828621849
 20
401.9176919974534
 30
0.0
 10
214.9320828621849
 20
396.7113303390206
 30
0.0
 10
214.9320828621849
 20
391.5081386192178
 30
0.0
 10
216.2129519908422
 20
386.7064205992465
 30
0.0
 10
218.7779185292156
 20
382.3093656652109
 30
0.0
 10
221.3428656201122
 20
377.915500117284
 30
0.0
 10
224.8254613256304
 20
374.432904411764
 30
0.0
 10
229.2193268735591
 20
371.8679378733923
 30
0.0
 10
233.6163818075929
 20
369.3029907824948
 30
0.0
 10
238.4180998275651
 20
368.0189322677306
 30
0.0
 10
243.6244809334739
 20
368.0189322677306
 30
0.0
 10
248.8276726532767
 20
368.0189322677306
 30
0.0
 10
253.629390673249
 20
369.3029907824948
 30
0.0
 10
258.0264456072828
 20
371.8679378733923
 30
0.0
 10
261.744822514931
 20
374.0377900366693
 30
0.0
 10
264.8068276514578
 20
376.8608440324369
 30
0.0
 10
267.2124610168648
 20
380.3370609657431
 30
0.0
 10
267.6553578411222
 20
380.9711264815978
 30
0.0
 10
268.0727590240067
 20
381.6306876388244
 30
0.0
 10
268.4678539516262
 20
382.3093656652109
 30
0.0
 10
271.0328204899997
 20
386.7064205992465
 30
0.0
 10
272.316879004763
 20
391.5081386192178
 30
0.0
 10
272.316879004763
 20
396.7113303390206
 30
0.0
 10
272.316879004763
 20
396.7113303390206
 30
0.0
 10
280.1582959059961
 20
396.7113303390206
 30
0.0
 10
280.1582959059961
 20
396.7113303390206
 30
0.0
  0
HATCH
  5
4E
330
49
100
AcDbEntity
  8
Ebene 1
 62
     8
420
  7697781
100
AcDbHatch
 10
0.0
 20
0.0
 30
0.0
210
0.0
220
0.0
230
1.0
  2
SOLID
 70
     1
 71
     0
 91
        1
 92
        1
 93
        1
 72
     4
 94
        3
 73
     0
 74
     1
 95
       53
 96
       49
 40
0.0
 40
0.0
 40
0.0
 40
0.0
 40
1.0
 40
1.0
 40
1.0
 40
2.0
 40
2.0
 40
2.0
 40
3.0
 40
3.0
 40
3.0
 40
4.0
 40
4.0
 40
4.0
 40
5.0
 40
5.0
 40
5.0
 40
6.0
 40
6.0
 40
6.0
 40
7.0
 40
7.0
 40
7.0
 40
8.0
 40
8.0
 40
8.0
 40
9.0
 40
9.0
 40
9.0
 40
10.0
 40
10.0
 40
10.0
 40
11.0
 40
11.0
 40
11.0
 40
12.0
 40
12.0
 40
12.0
 40
13.0
 40
13.0
 40
13.0
 40
14.0
 40
14.0
 40
14.0
 40
15.0
 40
15.0
 40
15.0
 40
16.0
 40
16.0
 40
16.0
 40
16.0
 10
280.1582959059961
 20
396.7113303390206
 10
280.1582959059961
 20
388.4620609657431
 10
277.4244863787671
 20
380.8500464944282
 10
272.8139370503932
 20
374.7355849322157
 10
266.1450668350708
 20
365.8905032288803
 10
255.5507040899729
 20
360.1743259803916
 10
243.6244809334739
 20
360.1743259803916
 10
223.4457990175924
 20
360.1743259803916
 10
207.0874765748458
 20
376.5326484231391
 10
207.0874765748458
 20
396.7113303390206
 10
207.0874765748458
 20
416.8900122549021
 10
223.4457990175924
 20
433.2483346976487
 10
243.6244809334739
 20
433.2483346976487
 10
243.6244809334739
 20
433.2483346976487
 10
243.6244809334739
 20
425.4037284103097
 10
243.6244809334739
 20
425.4037284103097
 10
238.4180998275651
 20
425.4037284103097
 10
233.6163818075929
 20
424.1228398341755
 10
229.2225162596651
 20
421.5578927432789
 10
224.8254613256304
 20
418.9897562662763
 10
221.3460550062182
 20
415.5103499468632
 10
218.7779185292156
 20
411.1132950128294
 10
216.2129519908422
 20
406.7194100174247
 10
214.9320828621849
 20
401.9176919974534
 10
214.9320828621849
 20
396.7113303390206
 10
214.9320828621849
 20
391.5081386192178
 10
216.2129519908422
 20
386.7064205992465
 10
218.7779185292156
 20
382.3093656652109
 10
221.3428656201122
 20
377.915500117284
 10
224.8254613256304
 20
374.432904411764
 10
229.2193268735591
 20
371.8679378733923
 10
233.6163818075929
 20
369.3029907824948
 10
238.4180998275651
 20
368.0189322677306
 10
243.6244809334739
 20
368.0189322677306
 10
248.8276726532767
 20
368.0189322677306
 10
253.629390673249
 20
369.3029907824948
 10
258.0264456072828
 20
371.8679378733923
 10
261.744822514931
 20
374.0377900366693
 10
264.8068276514578
 20
376.8608440324369
 10
267.2124610168648
 20
380.3370609657431
 10
267.6553578411222
 20
380.9711264815978
 10
268.0727590240067
 20
381.6306876388244
 10
268.4678539516262
 20
382.3093656652109
 10
271.0328204899997
 20
386.7064205992465
 10
272.316879004763
 20
391.5081386192178
 10
272.316879004763
 20
396.7113303390206
 10
272.316879004763
 20
396.7113303390206
 10
280.1582959059961
 20
396.7113303390206
 10
280.1582959059961
 20
396.7113303390206
 97
        0
 97
        0
 75
     2
 76
     1
 98
        0
  0
ENDBLK
  5
4C
330
49
100
AcDbEntity
  8
0
100
AcDbBlockEnd
  0
BLOCK
  5
51
330
4F
100
AcDbEntity
  8
0
100
AcDbBlockBegin
  2
block 4
 70
     0
 10
0.0
 20
0.0
 30
0.0
  3
block 4
  1

  0
POLYLINE
  5
53
330
4F
100
AcDbEntity
  8
Ebene 1
370
     0
100
AcDb2dPolyline
 66
     1
 10
0.0
 20
0.0
 30
0.0
  0
VERTEX
  5
54
330
53
100
AcDbEntity
  8
Ebene 1
370
     0
100
AcDbVertex
100
AcDb2dVertex
 10
280.1597338037718
 20
392.8068243424386
 30
0.0
  0
VERTEX
  5
55
330
53
100
AcDbEntity
  8
Ebene 1
370
     0
100
AcDbVertex
100
AcDb2dVertex
 10
254.7639163276117
 20
392.8068243424386
 30
0.0
  0
VERTEX
  5
56
330
53
100
AcDbEntity
  8
Ebene 1
370
     0
100
AcDbVertex
100
AcDb2dVertex
 10
254.7639163276117
 20
400.6149299198796
 30
0.0
  0
VERTEX
  5
57
330
53
100
AcDbEntity
  8
Ebene 1
370
     0
100
AcDbVertex
100
AcDb2dVertex
 10
280.1597338037718
 20
400.6149299198796
 30
0.0
  0
VERTEX
  5
58
330
53
100
AcDbEntity
  8
Ebene 1
370
     0
100
AcDbVertex
100
AcDb2dVertex
 10
280.1597338037718
 20
392.8068243424386
 30
0.0
  0
VERTEX
  5
59
330
53
100
AcDbEntity
  8
Ebene 1
370
     0
100
AcDbVertex
100
AcDb2dVertex
 10
280.1597338037718
 20
392.8068243424386
 30
0.0
  0
SEQEND
  5
5B
330
53
100
AcDbEntity
  8
Ebene 1
370
     0
  0
HATCH
  5
5A
330
4F
100
AcDbEntity
  8
Ebene 1
 62
   132
420
  1882064
100
AcDbHatch
 10
0.0
 20
0.0
 30
0.0
210
0.0
220
0.0
230
1.0
  2
SOLID
 70
     1
 71
     0
 91
        1
 92
        1
 93
        4
 72
     1
 10
280.1597338037718
 20
392.8068243424386
 11
254.7639163276117
 21
392.8068243424386
 72
     1
 10
254.7639163276117
 20
392.8068243424386
 11
254.7639163276117
 21
400.6149299198796
 72
     1
 10
254.7639163276117
 20
400.6149299198796
 11
280.1597338037718
 21
400.6149299198796
 72
     1
 10
280.1597338037718
 20
400.6149299198796
 11
280.1597338037718
 21
392.8068243424386
 97
        0
 75
     2
 76
     1
 98
        0
  0
ENDBLK
  5
52
330
4F
100
AcDbEntity
  8
0
100
AcDbBlockEnd
  0
ENDSEC
  0
SECTION
  2
ENTITIES
  0
INSERT
  5
42
330
1F
100
AcDbEntity
  8
Ebene 1
100
AcDbBlockReference
  2
block 2
 10
0.0
 20
0.0
 30
0.0
  0
INSERT
  5
4A
330
1F
100
AcDbEntity
  8
Ebene 1
100
AcDbBlockReference
  2
block 3
 10
0.0
 20
0.0
 30
0.0
  0
INSERT
  5
50
330
1F
100
AcDbEntity
  8
Ebene 1
100
AcDbBlockReference
  2
block 4
 10
0.0
 20
0.0
 30
0.0
  0
ENDSEC
  0
SECTION
  2
OBJECTS
  0
DICTIONARY
  5
C
330
0
100
AcDbDictionary
281
     1
  3
ACAD_GROUP
350
D
  3
ACAD_LAYOUT
350
1A
  3
ACAD_MATERIAL
350
3B
  3
ACAD_MLEADERSTYLE
350
5D
  3
ACAD_MLINESTYLE
350
17
  3
ACAD_PLOTSETTINGS
350
19
  3
ACAD_PLOTSTYLENAME
350
E
  3
ACAD_TABLESTYLE
350
5C
  3
ACAD_VISUALSTYLE
350
2A
  0
SUN
  5
3F
330
29
100
AcDbSun
 90
        1
290
     0
 63
     7
421
 16777215
 40
1.0
291
     1
 91
  2455826
 92
 54000000
292
     0
 70
     2
 71
   256
280
     1
  0
DICTIONARY
  5
D
102
{ACAD_REACTORS
330
C
102
}
330
C
100
AcDbDictionary
281
     1
  0
DICTIONARY
  5
1A
102
{ACAD_REACTORS
330
C
102
}
330
C
100
AcDbDictionary
281
     1
  3
Layout1
350
1E
  3
Layout2
350
26
  3
Model
350
22
  0
DICTIONARY
  5
3B
102
{ACAD_REACTORS
330
C
102
}
330
C
100
AcDbDictionary
281
     1
  3
ByBlock
350
3D
  3
ByLayer
350
3C
  3
Global
350
3E
  0
DICTIONARY
  5
5D
102
{ACAD_REACTORS
330
C
102
}
330
C
100
AcDbDictionary
281
     1
  0
DICTIONARY
  5
17
102
{ACAD_REACTORS
330
C
102
}
330
C
100
AcDbDictionary
281
     1
  3
Standard
350
18
  0
DICTIONARY
  5
19
102
{ACAD_REACTORS
330
C
102
}
330
C
100
AcDbDictionary
281
     1
  0
ACDBDICTIONARYWDFLT
  5
E
102
{ACAD_REACTORS
330
C
102
}
330
C
100
AcDbDictionary
281
     1
  3
Normal
350
F
100
AcDbDictionaryWithDefault
340
F
  0
DICTIONARY
  5
5C
102
{ACAD_REACTORS
330
C
102
}
330
C
100
AcDbDictionary
281
     1
  0
DICTIONARY
  5
2A
102
{ACAD_REACTORS
330
C
102
}
330
C
100
AcDbDictionary
281
     1
  3
2dWireframe
350
2F
  3
3D Hidden
350
31
  3
3dWireframe
350
30
  3
Basic
350
32
  3
Brighten
350
36
  3
ColorChange
350
3A
  3
Conceptual
350
34
  3
Dim
350
35
  3
Facepattern
350
39
  3
Flat
350
2B
  3
FlatWithEdges
350
2C
  3
Gouraud
350
2D
  3
GouraudWithEdges
350
2E
  3
Linepattern
350
38
  3
Realistic
350
33
  3
Thicken
350
37
  0
LAYOUT
  5
1E
102
{ACAD_REACTORS
330
1A
102
}
330
1A
100
AcDbPlotSettings
  1

  2
none_device
  4

  6

 40
0.0
 41
0.0
 42
0.0
 43
0.0
 44
0.0
 45
0.0
 46
0.0
 47
0.0
 48
0.0
 49
0.0
140
0.0
141
0.0
142
1.0
143
1.0
 70
   688
 72
     0
 73
     0
 74
     5
  7

 75
    16
 76
     0
 77
     2
 78
   300
147
1.0
148
0.0
149
0.0
100
AcDbLayout
  1
Layout1
 70
     1
 71
     1
 10
0.0
 20
0.0
 11
12.0
 21
9.0
 12
0.0
 22
0.0
 32
0.0
 14
1.000000000000000E+20
 24
1.000000000000000E+20
 34
1.000000000000000E+20
 15
-1.000000000000000E+20
 25
-1.000000000000000E+20
 35
-1.000000000000000E+20
146
0.0
 13
0.0
 23
0.0
 33
0.0
 16
1.0
 26
0.0
 36
0.0
 17
0.0
 27
1.0
 37
0.0
 76
     0
330
1B
  0
LAYOUT
  5
26
102
{ACAD_REACTORS
330
1A
102
}
330
1A
100
AcDbPlotSettings
  1

  2
none_device
  4

  6

 40
0.0
 41
0.0
 42
0.0
 43
0.0
 44
0.0
 45
0.0
 46
0.0
 47
0.0
 48
0.0
 49
0.0
140
0.0
141
0.0
142
1.0
143
1.0
 70
   688
 72
     0
 73
     0
 74
     5
  7

 75
    16
 76
     0
 77
     2
 78
   300
147
1.0
148
0.0
149
0.0
100
AcDbLayout
  1
Layout2
 70
     1
 71
     2
 10
0.0
 20
0.0
 11
0.0
 21
0.0
 12
0.0
 22
0.0
 32
0.0
 14
0.0
 24
0.0
 34
0.0
 15
0.0
 25
0.0
 35
0.0
146
0.0
 13
0.0
 23
0.0
 33
0.0
 16
1.0
 26
0.0
 36
0.0
 17
0.0
 27
1.0
 37
0.0
 76
     0
330
23
  0
LAYOUT
  5
22
102
{ACAD_REACTORS
330
1A
102
}
330
1A
100
AcDbPlotSettings
  1

  2
none_device
  4

  6

 40
0.0
 41
0.0
 42
0.0
 43
0.0
 44
0.0
 45
0.0
 46
0.0
 47
0.0
 48
0.0
 49
0.0
140
0.0
141
0.0
142
1.0
143
1.0
 70
  1712
 72
     0
 73
     0
 74
     0
  7

 75
     0
 76
     0
 77
     2
 78
   300
147
1.0
148
0.0
149
0.0
100
AcDbLayout
  1
Model
 70
     1
 71
     0
 10
0.0
 20
0.0
 11
12.0
 21
9.0
 12
0.0
 22
0.0
 32
0.0
 14
1.000000000000000E+20
 24
1.000000000000000E+20
 34
1.000000000000000E+20
 15
-1.000000000000000E+20
 25
-1.000000000000000E+20
 35
-1.000000000000000E+20
146
0.0
 13
0.0
 23
0.0
 33
0.0
 16
1.0
 26
0.0
 36
0.0
 17
0.0
 27
1.0
 37
0.0
 76
     0
330
1F
331
29
  0
MATERIAL
  5
3D
102
{ACAD_REACTORS
330
3B
102
}
330
3B
100
AcDbMaterial
  1
ByBlock
 72
     1
 94
      127
  0
MATERIAL
  5
3C
102
{ACAD_REACTORS
330
3B
102
}
330
3B
100
AcDbMaterial
  1
ByLayer
 72
     1
 94
      127
  0
MATERIAL
  5
3E
102
{ACAD_REACTORS
330
3B
102
}
330
3B
100
AcDbMaterial
  1
Global
 72
     1
 94
      127
  0
MLINESTYLE
  5
18
102
{ACAD_REACTORS
330
17
102
}
330
17
100
AcDbMlineStyle
  2
Standard
 70
     0
  3

 62
   256
 51
90.0
 52
90.0
 71
     2
 49
0.5
 62
   256
  6
BYLAYER
 49
-0.5
 62
   256
  6
BYLAYER
  0
ACDBPLACEHOLDER
  5
F
102
{ACAD_REACTORS
330
E
102
}
330
E
  0
VISUALSTYLE
  5
2F
102
{ACAD_REACTORS
330
2A
102
}
330
2A
100
AcDbVisualStyle
  2
2dWireframe
 70
     4
177
     2
291
     0
 71
     0
176
     1
 72
     2
176
     1
 73
     0
176
     1
 90
        0
176
     1
 40
-0.6
176
     1
 41
-30.0
176
     1
 62
     5
 63
     7
421
 16777215
176
     1
 74
     1
176
     1
 91
        4
176
     1
 64
     7
176
     1
 65
   257
176
     1
 75
     1
176
     1
175
     1
176
     1
 42
1.0
176
     1
 92
        0
176
     1
 66
   257
176
     1
 43
1.0
176
     1
 76
     1
176
     1
 77
     6
176
     1
 78
     2
176
     1
 67
     7
176
     1
 79
     5
176
     1
170
     0
176
     1
171
     0
176
     1
290
     0
176
     1
 93
        1
176
     1
 44
0.0
176
     1
173
     0
176
     1
  0
VISUALSTYLE
  5
31
102
{ACAD_REACTORS
330
2A
102
}
330
2A
100
AcDbVisualStyle
  2
3D Hidden
 70
     6
177
     2
291
     0
 71
     1
176
     1
 72
     2
176
     1
 73
     2
176
     1
 90
        0
176
     1
 40
-0.6
176
     1
 41
-30.0
176
     1
 62
     5
 63
     7
421
 16777215
176
     1
 74
     2
176
     1
 91
        2
176
     1
 64
     7
176
     1
 65
   257
176
     1
 75
     2
176
     1
175
     1
176
     1
 42
40.0
176
     1
 92
        0
176
     1
 66
   257
176
     1
 43
1.0
176
     1
 76
     1
176
     1
 77
     6
176
     1
 78
     2
176
     1
 67
     7
176
     1
 79
     3
176
     1
170
     0
176
     1
171
     0
176
     1
290
     0
176
     1
 93
        1
176
     1
 44
0.0
176
     1
173
     0
176
     1
  0
VISUALSTYLE
  5
30
102
{ACAD_REACTORS
330
2A
102
}
330
2A
100
AcDbVisualStyle
  2
3dWireframe
 70
     5
177
     2
291
     0
 71
     0
176
     1
 72
     2
176
     1
 73
     0
176
     1
 90
        0
176
     1
 40
-0.6
176
     1
 41
-30.0
176
     1
 62
     5
 63
     7
421
 16777215
176
     1
 74
     1
176
     1
 91
        4
176
     1
 64
     7
176
     1
 65
   257
176
     1
 75
     1
176
     1
175
     1
176
     1
 42
1.0
176
     1
 92
        0
176
     1
 66
   257
176
     1
 43
1.0
176
     1
 76
     1
176
     1
 77
     6
176
     1
 78
     2
176
     1
 67
     7
176
     1
 79
     5
176
     1
170
     0
176
     1
171
     0
176
     1
290
     0
176
     1
 93
        1
176
     1
 44
0.0
176
     1
173
     0
176
     1
  0
VISUALSTYLE
  5
32
102
{ACAD_REACTORS
330
2A
102
}
330
2A
100
AcDbVisualStyle
  2
Basic
 70
     7
177
     2
291
     1
 71
     1
176
     1
 72
     0
176
     1
 73
     1
176
     1
 90
        0
176
     1
 40
-0.6
176
     1
 41
-30.0
176
     1
 62
     5
 63
     7
421
 16777215
176
     1
 74
     0
176
     1
 91
        4
176
     1
 64
     7
176
     1
 65
   257
176
     1
 75
     1
176
     1
175
     1
176
     1
 42
1.0
176
     1
 92
        8
176
     1
 66
     7
176
     1
 43
1.0
176
     1
 76
     1
176
     1
 77
     6
176
     1
 78
     2
176
     1
 67
     7
176
     1
 79
     5
176
     1
170
     0
176
     1
171
     0
176
     1
290
     0
176
     1
 93
        1
176
     1
 44
0.0
176
     1
173
     0
176
     1
  0
VISUALSTYLE
  5
36
102
{ACAD_REACTORS
330
2A
102
}
330
2A
100
AcDbVisualStyle
  2
Brighten
 70
    12
177
     2
291
     1
 71
     2
176
     1
 72
     2
176
     1
 73
     0
176
     1
 90
        0
176
     1
 40
-0.6
176
     1
 41
-30.0
176
     1
 62
     5
 63
     7
421
 16777215
176
     1
 74
     1
176
     1
 91
        4
176
     1
 64
     7
176
     1
 65
   257
176
     1
 75
     1
176
     1
175
     1
176
     1
 42
1.0
176
     1
 92
        8
176
     1
 66
     7
176
     1
 43
1.0
176
     1
 76
     1
176
     1
 77
     6
176
     1
 78
     2
176
     1
 67
     7
176
     1
 79
     5
176
     1
170
     0
176
     1
171
     0
176
     1
290
     0
176
     1
 93
        1
176
     1
 44
50.0
176
     1
173
     0
176
     1
  0
VISUALSTYLE
  5
3A
102
{ACAD_REACTORS
330
2A
102
}
330
2A
100
AcDbVisualStyle
  2
ColorChange
 70
    16
177
     2
291
     1
 71
     2
176
     1
 72
     2
176
     1
 73
     3
176
     1
 90
        0
176
     1
 40
-0.6
176
     1
 41
-30.0
176
     1
 62
     5
 63
     8
421
  8421504
176
     1
 74
     1
176
     1
 91
        4
176
     1
 64
     7
176
     1
 65
   257
176
     1
 75
     1
176
     1
175
     1
176
     1
 42
1.0
176
     1
 92
        8
176
     1
 66
     8
424
  8421504
176
     1
 43
1.0
176
     1
 76
     1
176
     1
 77
     6
176
     1
 78
     2
176
     1
 67
     7
176
     1
 79
     5
176
     1
170
     0
176
     1
171
     0
176
     1
290
     0
176
     1
 93
        1
176
     1
 44
0.0
176
     1
173
     0
176
     1
  0
VISUALSTYLE
  5
34
102
{ACAD_REACTORS
330
2A
102
}
330
2A
100
AcDbVisualStyle
  2
Conceptual
 70
     9
177
     2
291
     0
 71
     3
176
     1
 72
     2
176
     1
 73
     0
176
     1
 90
        0
176
     1
 40
-0.6
176
     1
 41
-30.0
176
     1
 62
     5
 63
     7
421
 16777215
176
     1
 74
     2
176
     1
 91
        2
176
     1
 64
     7
176
     1
 65
   257
176
     1
 75
     1
176
     1
175
     1
176
     1
 42
40.0
176
     1
 92
        8
176
     1
 66
     7
176
     1
 43
1.0
176
     1
 76
     1
176
     1
 77
     6
176
     1
 78
     2
176
     1
 67
     7
176
     1
 79
     3
176
     1
170
     0
176
     1
171
     0
176
     1
290
     0
176
     1
 93
        1
176
     1
 44
0.0
176
     1
173
     0
176
     1
  0
VISUALSTYLE
  5
35
102
{ACAD_REACTORS
330
2A
102
}
330
2A
100
AcDbVisualStyle
  2
Dim
 70
    11
177
     2
291
     1
 71
     2
176
     1
 72
     2
176
     1
 73
     0
176
     1
 90
        0
176
     1
 40
-0.6
176
     1
 41
-30.0
176
     1
 62
     5
 63
     7
421
 16777215
176
     1
 74
     1
176
     1
 91
        4
176
     1
 64
     7
176
     1
 65
   257
176
     1
 75
     1
176
     1
175
     1
176
     1
 42
1.0
176
     1
 92
        8
176
     1
 66
     7
176
     1
 43
1.0
176
     1
 76
     1
176
     1
 77
     6
176
     1
 78
     2
176
     1
 67
     7
176
     1
 79
     5
176
     1
170
     0
176
     1
171
     0
176
     1
290
     0
176
     1
 93
        1
176
     1
 44
-50.0
176
     1
173
     0
176
     1
  0
VISUALSTYLE
  5
39
102
{ACAD_REACTORS
330
2A
102
}
330
2A
100
AcDbVisualStyle
  2
Facepattern
 70
    15
177
     2
291
     1
 71
     2
176
     1
 72
     2
176
     1
 73
     0
176
     1
 90
        0
176
     1
 40
-0.6
176
     1
 41
-30.0
176
     1
 62
     5
 63
     7
421
 16777215
176
     1
 74
     1
176
     1
 91
        4
176
     1
 64
     7
176
     1
 65
   257
176
     1
 75
     1
176
     1
175
     1
176
     1
 42
1.0
176
     1
 92
        8
176
     1
 66
     7
176
     1
 43
1.0
176
     1
 76
     1
176
     1
 77
     6
176
     1
 78
     2
176
     1
 67
     7
176
     1
 79
     5
176
     1
170
     0
176
     1
171
     0
176
     1
290
     0
176
     1
 93
        1
176
     1
 44
0.0
176
     1
173
     0
176
     1
  0
VISUALSTYLE
  5
2B
102
{ACAD_REACTORS
330
2A
102
}
330
2A
100
AcDbVisualStyle
  2
Flat
 70
     0
177
     2
291
     1
 71
     2
176
     1
 72
     1
176
     1
 73
     1
176
     1
 90
        2
176
     1
 40
-0.6
176
     1
 41
30.0
176
     1
 62
     5
 63
     7
421
 16777215
176
     1
 74
     0
176
     1
 91
        4
176
     1
 64
     7
176
     1
 65
   257
176
     1
 75
     1
176
     1
175
     1
176
     1
 42
1.0
176
     1
 92
        8
176
     1
 66
     7
176
     1
 43
1.0
176
     1
 76
     1
176
     1
 77
     6
176
     1
 78
     2
176
     1
 67
     7
176
     1
 79
     5
176
     1
170
     0
176
     1
171
     0
176
     1
290
     0
176
     1
 93
       13
176
     1
 44
0.0
176
     1
173
     0
176
     1
  0
VISUALSTYLE
  5
2C
102
{ACAD_REACTORS
330
2A
102
}
330
2A
100
AcDbVisualStyle
  2
FlatWithEdges
 70
     1
177
     2
291
     1
 71
     2
176
     1
 72
     1
176
     1
 73
     1
176
     1
 90
        2
176
     1
 40
-0.6
176
     1
 41
30.0
176
     1
 62
     5
 63
     7
421
 16777215
176
     1
 74
     1
176
     1
 91
        4
176
     1
 64
     7
176
     1
 65
   257
176
     1
 75
     1
176
     1
175
     1
176
     1
 42
1.0
176
     1
 92
        0
176
     1
 66
   257
176
     1
 43
1.0
176
     1
 76
     1
176
     1
 77
     6
176
     1
 78
     2
176
     1
 67
     7
176
     1
 79
     5
176
     1
170
     0
176
     1
171
     0
176
     1
290
     0
176
     1
 93
       13
176
     1
 44
0.0
176
     1
173
     0
176
     1
  0
VISUALSTYLE
  5
2D
102
{ACAD_REACTORS
330
2A
102
}
330
2A
100
AcDbVisualStyle
  2
Gouraud
 70
     2
177
     2
291
     1
 71
     2
176
     1
 72
     2
176
     1
 73
     1
176
     1
 90
        2
176
     1
 40
-0.6
176
     1
 41
30.0
176
     1
 62
     5
 63
     7
421
 16777215
176
     1
 74
     0
176
     1
 91
        4
176
     1
 64
     7
176
     1
 65
   257
176
     1
 75
     1
176
     1
175
     1
176
     1
 42
1.0
176
     1
 92
        0
176
     1
 66
     7
176
     1
 43
1.0
176
     1
 76
     1
176
     1
 77
     6
176
     1
 78
     2
176
     1
 67
     7
176
     1
 79
     5
176
     1
170
     0
176
     1
171
     0
176
     1
290
     0
176
     1
 93
       13
176
     1
 44
0.0
176
     1
173
     0
176
     1
  0
VISUALSTYLE
  5
2E
102
{ACAD_REACTORS
330
2A
102
}
330
2A
100
AcDbVisualStyle
  2
GouraudWithEdges
 70
     3
177
     2
291
     1
 71
     2
176
     1
 72
     2
176
     1
 73
     1
176
     1
 90
        2
176
     1
 40
-0.6
176
     1
 41
30.0
176
     1
 62
     5
 63
     7
421
 16777215
176
     1
 74
     1
176
     1
 91
        4
176
     1
 64
     7
176
     1
 65
   257
176
     1
 75
     1
176
     1
175
     1
176
     1
 42
1.0
176
     1
 92
        0
176
     1
 66
   257
176
     1
 43
1.0
176
     1
 76
     1
176
     1
 77
     6
176
     1
 78
     2
176
     1
 67
     7
176
     1
 79
     5
176
     1
170
     0
176
     1
171
     0
176
     1
290
     0
176
     1
 93
       13
176
     1
 44
0.0
176
     1
173
     0
176
     1
  0
VISUALSTYLE
  5
38
102
{ACAD_REACTORS
330
2A
102
}
330
2A
100
AcDbVisualStyle
  2
Linepattern
 70
    14
177
     2
291
     1
 71
     2
176
     1
 72
     2
176
     1
 73
     0
176
     1
 90
        0
176
     1
 40
-0.6
176
     1
 41
-30.0
176
     1
 62
     5
 63
     7
421
 16777215
176
     1
 74
     1
176
     1
 91
        4
176
     1
 64
     7
176
     1
 65
   257
176
     1
 75
     7
176
     1
175
     7
176
     1
 42
1.0
176
     1
 92
        8
176
     1
 66
     7
176
     1
 43
1.0
176
     1
 76
     1
176
     1
 77
     6
176
     1
 78
     2
176
     1
 67
     7
176
     1
 79
     5
176
     1
170
     0
176
     1
171
     0
176
     1
290
     0
176
     1
 93
        1
176
     1
 44
0.0
176
     1
173
     0
176
     1
  0
VISUALSTYLE
  5
33
102
{ACAD_REACTORS
330
2A
102
}
330
2A
100
AcDbVisualStyle
  2
Realistic
 70
     8
177
     2
291
     0
 71
     2
176
     1
 72
     2
176
     1
 73
     0
176
     1
 90
        0
176
     1
 40
-0.6
176
     1
 41
-30.0
176
     1
 62
     5
 63
     7
421
 16777215
176
     1
 74
     1
176
     1
 91
        0
176
     1
 64
     7
176
     1
 65
   257
176
     1
 75
     1
176
     1
175
     1
176
     1
 42
1.0
176
     1
 92
        8
176
     1
 66
     8
424
  7895160
176
     1
 43
1.0
176
     1
 76
     1
176
     1
 77
     6
176
     1
 78
     2
176
     1
 67
     7
176
     1
 79
     5
176
     1
170
     0
176
     1
171
     0
176
     1
290
     0
176
     1
 93
       13
176
     1
 44
0.0
176
     1
173
     0
176
     1
  0
VISUALSTYLE
  5
37
102
{ACAD_REACTORS
330
2A
102
}
330
2A
100
AcDbVisualStyle
  2
Thicken
 70
    13
177
     2
291
     1
 71
     2
176
     1
 72
     2
176
     1
 73
     0
176
     1
 90
        0
176
     1
 40
-0.6
176
     1
 41
-30.0
176
     1
 62
     5
 63
     7
421
 16777215
176
     1
 74
     1
176
     1
 91
        4
176
     1
 64
     7
176
     1
 65
   257
176
     1
 75
     1
176
     1
175
     1
176
     1
 42
1.0
176
     1
 92
       12
176
     1
 66
     7
176
     1
 43
1.0
176
     1
 76
     1
176
     1
 77
     6
176
     1
 78
     2
176
     1
 67
     7
176
     1
 79
     5
176
     1
170
     0
176
     1
171
     0
176
     1
290
     0
176
     1
 93
        1
176
     1
 44
0.0
176
     1
173
     0
176
     1
  0
ENDSEC
  0
EOF
