  0
SECTION
  2
HEADER
  9
$ACADVER
  1
AC1024
  9
$ACADMAINTVER
 70
     6
  9
$DWGCODEPAGE
  3
ANSI_1252
  9
$INSBASE
 10
0.0
 20
0.0
 30
0.0
  9
$EXTMIN
 10
1.000000000000000E+20
 20
1.000000000000000E+20
 30
1.000000000000000E+20
  9
$EXTMAX
 10
-1.000000000000000E+20
 20
-1.000000000000000E+20
 30
-1.000000000000000E+20
  9
$LIMMIN
 10
0.0
 20
0.0
  9
$LIMMAX
 10
12.0
 20
9.0
  9
$ORTHOMODE
 70
     0
  9
$REGENMODE
 70
     1
  9
$FILLMODE
 70
     1
  9
$QTEXTMODE
 70
     0
  9
$MIRRTEXT
 70
     1
  9
$LTSCALE
 40
1.0
  9
$ATTMODE
 70
     1
  9
$TEXTSIZE
 40
0.2
  9
$TRACEWID
 40
0.05
  9
$TEXTSTYLE
  7
Standard
  9
$CLAYER
  8
0
  9
$CELTYPE
  6
ByLayer
  9
$CECOLOR
 62
   256
  9
$CELTSCALE
 40
1.0
  9
$DISPSILH
 70
     0
  9
$DIMSCALE
 40
1.0
  9
$DIMASZ
 40
0.18
  9
$DIMEXO
 40
0.0625
  9
$DIMDLI
 40
0.38
  9
$DIMRND
 40
0.0
  9
$DIMDLE
 40
0.0
  9
$DIMEXE
 40
0.18
  9
$DIMTP
 40
0.0
  9
$DIMTM
 40
0.0
  9
$DIMTXT
 40
0.18
  9
$DIMCEN
 40
0.09
  9
$DIMTSZ
 40
0.0
  9
$DIMTOL
 70
     0
  9
$DIMLIM
 70
     0
  9
$DIMTIH
 70
     1
  9
$DIMTOH
 70
     1
  9
$DIMSE1
 70
     0
  9
$DIMSE2
 70
     0
  9
$DIMTAD
 70
     0
  9
$DIMZIN
 70
     0
  9
$DIMBLK
  1

  9
$DIMASO
 70
     1
  9
$DIMSHO
 70
     1
  9
$DIMPOST
  1

  9
$DIMAPOST
  1

  9
$DIMALT
 70
     0
  9
$DIMALTD
 70
     2
  9
$DIMALTF
 40
25.4
  9
$DIMLFAC
 40
1.0
  9
$DIMTOFL
 70
     0
  9
$DIMTVP
 40
0.0
  9
$DIMTIX
 70
     0
  9
$DIMSOXD
 70
     0
  9
$DIMSAH
 70
     0
  9
$DIMBLK1
  1

  9
$DIMBLK2
  1

  9
$DIMSTYLE
  2
Standard
  9
$DIMCLRD
 70
     0
  9
$DIMCLRE
 70
     0
  9
$DIMCLRT
 70
     0
  9
$DIMTFAC
 40
1.0
  9
$DIMGAP
 40
0.09
  9
$DIMJUST
 70
     0
  9
$DIMSD1
 70
     0
  9
$DIMSD2
 70
     0
  9
$DIMTOLJ
 70
     1
  9
$DIMTZIN
 70
     0
  9
$DIMALTZ
 70
     0
  9
$DIMALTTZ
 70
     0
  9
$DIMUPT
 70
     0
  9
$DIMDEC
 70
     4
  9
$DIMTDEC
 70
     4
  9
$DIMALTU
 70
     2
  9
$DIMALTTD
 70
     2
  9
$DIMTXSTY
  7
Standard
  9
$DIMAUNIT
 70
     0
  9
$DIMADEC
 70
     0
  9
$DIMALTRND
 40
0.0
  9
$DIMAZIN
 70
     0
  9
$DIMDSEP
 70
    46
  9
$DIMATFIT
 70
     3
  9
$DIMFRAC
 70
     0
  9
$DIMLDRBLK
  1

  9
$DIMLUNIT
 70
     2
  9
$DIMLWD
 70
    -2
  9
$DIMLWE
 70
    -2
  9
$DIMTMOVE
 70
     0
  9
$DIMFXL
 40
1.0
  9
$DIMFXLON
 70
     0
  9
$DIMJOGANG
 40
0.7853981633974483
  9
$DIMTFILL
 70
     0
  9
$DIMTFILLCLR
 70
     0
  9
$DIMARCSYM
 70
     0
  9
$DIMLTYPE
  6

  9
$DIMLTEX1
  6

  9
$DIMLTEX2
  6

  9
$DIMTXTDIRECTION
 70
     0
  9
$LUNITS
 70
     2
  9
$LUPREC
 70
     4
  9
$SKETCHINC
 40
0.1
  9
$FILLETRAD
 40
0.5
  9
$AUNITS
 70
     0
  9
$AUPREC
 70
     0
  9
$MENU
  1
.
  9
$ELEVATION
 40
0.0
  9
$PELEVATION
 40
0.0
  9
$THICKNESS
 40
0.0
  9
$LIMCHECK
 70
     0
  9
$CHAMFERA
 40
0.5
  9
$CHAMFERB
 40
0.5
  9
$CHAMFERC
 40
1.0
  9
$CHAMFERD
 40
0.0
  9
$SKPOLY
 70
     0
  9
$TDCREATE
 40
2457286.558250382
  9
$TDUCREATE
 40
2457286.474917049
  9
$TDUPDATE
 40
2457286.558250417
  9
$TDUUPDATE
 40
2457286.474917084
  9
$TDINDWG
 40
0.0000000116
  9
$TDUSRTIMER
 40
0.0000000116
  9
$USRTIMER
 70
     1
  9
$ANGBASE
 50
0.0
  9
$ANGDIR
 70
     0
  9
$PDMODE
 70
     0
  9
$PDSIZE
 40
0.0
  9
$PLINEWID
 40
0.0
  9
$SPLFRAME
 70
     0
  9
$SPLINETYPE
 70
     6
  9
$SPLINESEGS
 70
     8
  9
$HANDSEED
  5
6B
  9
$SURFTAB1
 70
     6
  9
$SURFTAB2
 70
     6
  9
$SURFTYPE
 70
     6
  9
$SURFU
 70
     6
  9
$SURFV
 70
     6
  9
$UCSBASE
  2

  9
$UCSNAME
  2

  9
$UCSORG
 10
0.0
 20
0.0
 30
0.0
  9
$UCSXDIR
 10
1.0
 20
0.0
 30
0.0
  9
$UCSYDIR
 10
0.0
 20
1.0
 30
0.0
  9
$UCSORTHOREF
  2

  9
$UCSORTHOVIEW
 70
     0
  9
$UCSORGTOP
 10
0.0
 20
0.0
 30
0.0
  9
$UCSORGBOTTOM
 10
0.0
 20
0.0
 30
0.0
  9
$UCSORGLEFT
 10
0.0
 20
0.0
 30
0.0
  9
$UCSORGRIGHT
 10
0.0
 20
0.0
 30
0.0
  9
$UCSORGFRONT
 10
0.0
 20
0.0
 30
0.0
  9
$UCSORGBACK
 10
0.0
 20
0.0
 30
0.0
  9
$PUCSBASE
  2

  9
$PUCSNAME
  2

  9
$PUCSORG
 10
0.0
 20
0.0
 30
0.0
  9
$PUCSXDIR
 10
1.0
 20
0.0
 30
0.0
  9
$PUCSYDIR
 10
0.0
 20
1.0
 30
0.0
  9
$PUCSORTHOREF
  2

  9
$PUCSORTHOVIEW
 70
     0
  9
$PUCSORGTOP
 10
0.0
 20
0.0
 30
0.0
  9
$PUCSORGBOTTOM
 10
0.0
 20
0.0
 30
0.0
  9
$PUCSORGLEFT
 10
0.0
 20
0.0
 30
0.0
  9
$PUCSORGRIGHT
 10
0.0
 20
0.0
 30
0.0
  9
$PUCSORGFRONT
 10
0.0
 20
0.0
 30
0.0
  9
$PUCSORGBACK
 10
0.0
 20
0.0
 30
0.0
  9
$USERI1
 70
     0
  9
$USERI2
 70
     0
  9
$USERI3
 70
     0
  9
$USERI4
 70
     0
  9
$USERI5
 70
     0
  9
$USERR1
 40
0.0
  9
$USERR2
 40
0.0
  9
$USERR3
 40
0.0
  9
$USERR4
 40
0.0
  9
$USERR5
 40
0.0
  9
$WORLDVIEW
 70
     1
  9
$SHADEDGE
 70
     3
  9
$SHADEDIF
 70
    70
  9
$TILEMODE
 70
     1
  9
$MAXACTVP
 70
    64
  9
$PINSBASE
 10
0.0
 20
0.0
 30
0.0
  9
$PLIMCHECK
 70
     0
  9
$PEXTMIN
 10
1.000000000000000E+20
 20
1.000000000000000E+20
 30
1.000000000000000E+20
  9
$PEXTMAX
 10
-1.000000000000000E+20
 20
-1.000000000000000E+20
 30
-1.000000000000000E+20
  9
$PLIMMIN
 10
0.0
 20
0.0
  9
$PLIMMAX
 10
12.0
 20
9.0
  9
$UNITMODE
 70
     0
  9
$VISRETAIN
 70
     1
  9
$PLINEGEN
 70
     0
  9
$PSLTSCALE
 70
     1
  9
$TREEDEPTH
 70
  3020
  9
$CMLSTYLE
  2
Standard
  9
$CMLJUST
 70
     0
  9
$CMLSCALE
 40
1.0
  9
$PROXYGRAPHICS
 70
     1
  9
$MEASUREMENT
 70
     0
  9
$CELWEIGHT
370
    -1
  9
$ENDCAPS
280
     0
  9
$JOINSTYLE
280
     0
  9
$LWDISPLAY
290
     1
  9
$INSUNITS
 70
     1
  9
$HYPERLINKBASE
  1

  9
$STYLESHEET
  1

  9
$XEDIT
290
     1
  9
$CEPSNTYPE
380
     0
  9
$PSTYLEMODE
290
     1
  9
$FINGERPRINTGUID
  2
{A2F96B22-E334-4752-B135-53259D5E6F53}
  9
$VERSIONGUID
  2
{FAEB1C32-E019-11D5-929B-00C0DF256EC4}
  9
$EXTNAMES
290
     1
  9
$PSVPSCALE
 40
0.0
  9
$OLESTARTUP
290
     0
  9
$SORTENTS
280
   127
  9
$INDEXCTL
280
     0
  9
$HIDETEXT
280
     1
  9
$XCLIPFRAME
280
     2
  9
$HALOGAP
280
     0
  9
$OBSCOLOR
 70
   257
  9
$OBSLTYPE
280
     0
  9
$INTERSECTIONDISPLAY
280
     0
  9
$INTERSECTIONCOLOR
 70
   257
  9
$DIMASSOC
280
     2
  9
$PROJECTNAME
  1

  9
$CAMERADISPLAY
290
     0
  9
$LENSLENGTH
 40
50.0
  9
$CAMERAHEIGHT
 40
0.0
  9
$STEPSPERSEC
 40
2.0
  9
$STEPSIZE
 40
6.0
  9
$3DDWFPREC
 40
2.0
  9
$PSOLWIDTH
 40
0.25
  9
$PSOLHEIGHT
 40
4.0
  9
$LOFTANG1
 40
1.570796326794897
  9
$LOFTANG2
 40
1.570796326794897
  9
$LOFTMAG1
 40
0.0
  9
$LOFTMAG2
 40
0.0
  9
$LOFTPARAM
 70
     7
  9
$LOFTNORMALS
280
     1
  9
$LATITUDE
 40
37.795
  9
$LONGITUDE
 40
-122.394
  9
$NORTHDIRECTION
 40
0.0
  9
$TIMEZONE
 70
 -8000
  9
$LIGHTGLYPHDISPLAY
280
     1
  9
$TILEMODELIGHTSYNCH
280
     1
  9
$CMATERIAL
347
3C
  9
$SOLIDHIST
280
     1
  9
$SHOWHIST
280
     1
  9
$DWFFRAME
280
     2
  9
$DGNFRAME
280
     2
  9
$REALWORLDSCALE
290
     1
  9
$INTERFERECOLOR
 62
   256
  9
$CSHADOW
280
     0
  9
$SHADOWPLANELOCATION
 40
0.0
  0
ENDSEC
  0
SECTION
  2
CLASSES
  0
CLASS
  1
ACDBDICTIONARYWDFLT
  2
AcDbDictionaryWithDefault
  3
ObjectDBX Classes
 90
        0
 91
        4
280
     0
281
     0
  0
CLASS
  1
VISUALSTYLE
  2
AcDbVisualStyle
  3
ObjectDBX Classes
 90
     4095
 91
        4
280
     0
281
     0
  0
CLASS
  1
MATERIAL
  2
AcDbMaterial
  3
ObjectDBX Classes
 90
     1153
 91
        4
280
     0
281
     0
  0
CLASS
  1
SUN
  2
AcDbSun
  3
SCENEOE
 90
     1024
 91
        4
280
     0
281
     0
  0
ENDSEC
  0
SECTION
  2
TABLES
  0
TABLE
  2
VPORT
  5
8
330
0
100
AcDbSymbolTable
 70
     1
  0
VPORT
  5
29
330
8
100
AcDbSymbolTableRecord
100
AcDbViewportTableRecord
  2
*Active
 70
     0
 10
0.0
 20
0.0
 11
1.0
 21
1.0
 12
0.0
 22
0.0
 13
0.0
 23
0.0
 14
0.5
 24
0.5
 15
0.5
 25
0.5
 16
0.0
 26
0.0
 36
1.0
 17
243.6236051893088
 27
396.7113303390197
 37
0.0
 40
173.2569423634886
 41
0.999976031309051
 42
50.0
 43
0.0
 44
0.0
 50
0.0
 51
0.0
 71
     0
 72
   100
 73
     1
 74
     3
 75
     0
 76
     0
 77
     0
 78
     0
281
     0
 65
     1
110
0.0
120
0.0
130
0.0
111
1.0
121
0.0
131
0.0
112
0.0
122
1.0
132
0.0
 79
     0
146
0.0
 60
     3
 61
     5
292
     1
282
     1
141
0.0
142
0.0
 63
   250
361
3F
  0
ENDTAB
  0
TABLE
  2
LTYPE
  5
5
330
0
100
AcDbSymbolTable
 70
     1
  0
LTYPE
  5
14
330
5
100
AcDbSymbolTableRecord
100
AcDbLinetypeTableRecord
  2
ByBlock
 70
     0
  3

 72
    65
 73
     0
 40
0.0
  0
LTYPE
  5
15
330
5
100
AcDbSymbolTableRecord
100
AcDbLinetypeTableRecord
  2
ByLayer
 70
     0
  3

 72
    65
 73
     0
 40
0.0
  0
LTYPE
  5
16
330
5
100
AcDbSymbolTableRecord
100
AcDbLinetypeTableRecord
  2
Continuous
 70
     0
  3
Solid line
 72
    65
 73
     0
 40
0.0
  0
ENDTAB
  0
TABLE
  2
LAYER
  5
2
330
0
100
AcDbSymbolTable
 70
     2
  0
LAYER
  5
10
330
2
100
AcDbSymbolTableRecord
100
AcDbLayerTableRecord
  2
0
 70
     0
 62
     7
  6
Continuous
370
    -3
390
F
347
3E
  0
LAYER
  5
40
330
2
100
AcDbSymbolTableRecord
100
AcDbLayerTableRecord
  2
Ebene 1
 70
     0
 62
     7
  6
Continuous
370
    -3
390
F
347
3E
  0
ENDTAB
  0
TABLE
  2
STYLE
  5
3
330
0
100
AcDbSymbolTable
 70
     1
  0
STYLE
  5
11
330
3
100
AcDbSymbolTableRecord
100
AcDbTextStyleTableRecord
  2
Standard
 70
     0
 40
0.0
 41
1.0
 50
0.0
 71
     0
 42
0.2
  3
txt
  4

  0
ENDTAB
  0
TABLE
  2
VIEW
  5
6
330
0
100
AcDbSymbolTable
 70
     0
  0
ENDTAB
  0
TABLE
  2
UCS
  5
7
330
0
100
AcDbSymbolTable
 70
     0
  0
ENDTAB
  0
TABLE
  2
APPID
  5
9
330
0
100
AcDbSymbolTable
 70
     1
  0
APPID
  5
12
330
9
100
AcDbSymbolTableRecord
100
AcDbRegAppTableRecord
  2
ACAD
 70
     0
  0
ENDTAB
  0
TABLE
  2
DIMSTYLE
  5
A
330
0
100
AcDbSymbolTable
 70
     1
100
AcDbDimStyleTable
  0
DIMSTYLE
105
27
330
A
100
AcDbSymbolTableRecord
100
AcDbDimStyleTableRecord
  2
Standard
 70
     0
178
     0
340
11
  0
ENDTAB
  0
TABLE
  2
BLOCK_RECORD
  5
1
330
0
100
AcDbSymbolTable
 70
     5
  0
BLOCK_RECORD
  5
1F
330
1
100
AcDbSymbolTableRecord
100
AcDbBlockTableRecord
  2
*Model_Space
340
22
 70
     0
280
     1
281
     0
  0
BLOCK_RECORD
  5
1B
330
1
100
AcDbSymbolTableRecord
100
AcDbBlockTableRecord
  2
*Paper_Space
340
1E
 70
     0
280
     1
281
     0
  0
BLOCK_RECORD
  5
23
330
1
100
AcDbSymbolTableRecord
100
AcDbBlockTableRecord
  2
*Paper_Space0
340
26
 70
     0
280
     1
281
     0
  0
BLOCK_RECORD
  5
41
330
1
100
AcDbSymbolTableRecord
100
AcDbBlockTableRecord
  2
block 2
340
0
102
{BLKREFS
331
42
102
}
 70
     0
280
     1
281
     0
  0
BLOCK_RECORD
  5
49
330
1
100
AcDbSymbolTableRecord
100
AcDbBlockTableRecord
  2
block 3
340
0
102
{BLKREFS
331
4A
102
}
 70
     0
280
     1
281
     0
  0
BLOCK_RECORD
  5
4F
330
1
100
AcDbSymbolTableRecord
100
AcDbBlockTableRecord
  2
block 4
340
0
102
{BLKREFS
331
50
102
}
 70
     0
280
     1
281
     0
  0
BLOCK_RECORD
  5
5C
330
1
100
AcDbSymbolTableRecord
100
AcDbBlockTableRecord
  2
block 5
340
0
102
{BLKREFS
331
5D
102
}
 70
     0
280
     1
281
     0
  0
ENDTAB
  0
ENDSEC
  0
SECTION
  2
BLOCKS
  0
BLOCK
  5
20
330
1F
100
AcDbEntity
  8
0
100
AcDbBlockBegin
  2
*Model_Space
 70
     0
 10
0.0
 20
0.0
 30
0.0
  3
*Model_Space
  1

  0
ENDBLK
  5
21
330
1F
100
AcDbEntity
  8
0
100
AcDbBlockEnd
  0
BLOCK
  5
1C
330
1B
100
AcDbEntity
 67
     1
  8
0
100
AcDbBlockBegin
  2
*Paper_Space
 70
     0
 10
0.0
 20
0.0
 30
0.0
  3
*Paper_Space
  1

  0
ENDBLK
  5
1D
330
1B
100
AcDbEntity
 67
     1
  8
0
100
AcDbBlockEnd
  0
BLOCK
  5
24
330
23
100
AcDbEntity
  8
0
100
AcDbBlockBegin
  2
*Paper_Space0
 70
     0
 10
0.0
 20
0.0
 30
0.0
  3
*Paper_Space0
  1

  0
ENDBLK
  5
25
330
23
100
AcDbEntity
  8
0
100
AcDbBlockEnd
  0
BLOCK
  5
43
330
41
100
AcDbEntity
  8
0
100
AcDbBlockBegin
  2
block 2
 70
     0
 10
0.0
 20
0.0
 30
0.0
  3
block 2
  1

  0
SPLINE
  5
45
330
41
100
AcDbEntity
  8
Ebene 1
370
     0
100
AcDbSpline
210
0.0
220
0.0
230
1.0
 70
    11
 71
     3
 72
    47
 73
    43
 74
     0
 42
0.0000000001
 43
0.0000000001
 12
1.0
 22
0.0
 32
0.0
 13
1.0
 23
0.0
 33
0.0
 40
0.0
 40
0.0
 40
0.0
 40
0.0
 40
1.0
 40
1.0
 40
1.0
 40
2.0
 40
2.0
 40
2.0
 40
3.0
 40
3.0
 40
3.0
 40
4.0
 40
4.0
 40
4.0
 40
5.0
 40
5.0
 40
5.0
 40
6.0
 40
6.0
 40
6.0
 40
7.0
 40
7.0
 40
7.0
 40
8.0
 40
8.0
 40
8.0
 40
9.0
 40
9.0
 40
9.0
 40
10.0
 40
10.0
 40
10.0
 40
11.0
 40
11.0
 40
11.0
 40
12.0
 40
12.0
 40
12.0
 40
13.0
 40
13.0
 40
13.0
 40
14.0
 40
14.0
 40
14.0
 40
14.0
 10
309.318359705685
 20
395.3437057195915
 30
0.0
 10
308.8340397570028
 20
399.0780101102937
 30
0.0
 10
307.6328080436142
 20
402.5829120710787
 30
0.0
 10
305.7178539516262
 20
405.8647903741576
 30
0.0
 10
303.1529068607306
 20
410.2618453081914
 30
0.0
 10
299.6735005413175
 20
413.7412516276045
 30
0.0
 10
295.2764456072828
 20
416.309388104607
 30
0.0
 10
290.879390673249
 20
418.8743351955036
 30
0.0
 10
286.0808425919067
 20
420.1552237716378
 30
0.0
 10
280.8744809334739
 20
420.1552237716378
 30
0.0
 10
275.6680998275651
 20
420.1552237716378
 30
0.0
 10
270.8663818075929
 20
418.8743351955036
 30
0.0
 10
266.4725162596651
 20
416.309388104607
 30
0.0
 10
262.0754613256304
 20
413.7412516276045
 30
0.0
 10
258.5960550062182
 20
410.2618453081914
 30
0.0
 10
256.0279185292156
 20
405.8647903741576
 30
0.0
 10
253.4629519908422
 20
401.4709053787528
 30
0.0
 10
252.1820828621849
 20
396.6691873587815
 30
0.0
 10
252.1820828621849
 20
391.4628257003496
 30
0.0
 10
252.1820828621849
 20
386.2596339805459
 30
0.0
 10
253.4629519908422
 20
381.4579159605746
 30
0.0
 10
256.0279185292156
 20
377.060861026539
 30
0.0
 10
258.5928656201122
 20
372.6669954786121
 30
0.0
 10
262.0754613256304
 20
369.1843997730921
 30
0.0
 10
266.4693268735591
 20
366.6194332347204
 30
0.0
 10
270.8663818075929
 20
364.0544861438229
 30
0.0
 10
275.6680998275651
 20
362.7704276290588
 30
0.0
 10
280.8744809334739
 20
362.7704276290588
 30
0.0
 10
286.0776726532767
 20
362.7704276290588
 30
0.0
 10
290.879390673249
 20
364.0544861438229
 30
0.0
 10
295.2764456072828
 20
366.6194332347204
 30
0.0
 10
298.994822514931
 20
368.7892853979974
 30
0.0
 10
302.0568276514568
 20
371.6123393937651
 30
0.0
 10
304.4624610168648
 20
375.0885563270713
 30
0.0
 10
304.9053578411222
 20
375.7226218429259
 30
0.0
 10
305.3227590240058
 20
376.3821830001525
 30
0.0
 10
305.7178539516262
 20
377.060861026539
 30
0.0
 10
308.2828204899997
 20
381.4579159605746
 30
0.0
 10
309.5668790047639
 20
386.2596339805459
 30
0.0
 10
309.5668790047639
 20
391.4628257003496
 30
0.0
 10
309.5668790047639
 20
392.7819480148028
 30
0.0
 10
309.4840327559123
 20
394.0755746878822
 30
0.0
 10
309.318359705685
 20
395.3437057195915
 30
0.0
  0
SPLINE
  5
46
330
41
100
AcDbEntity
  8
Ebene 1
370
     0
100
AcDbSpline
210
0.0
220
0.0
230
1.0
 70
    11
 71
     3
 72
   926
 73
   922
 74
     0
 42
0.0000000001
 43
0.0000000001
 12
1.0
 22
0.0
 32
0.0
 13
1.0
 23
0.0
 33
0.0
 40
0.0
 40
0.0
 40
0.0
 40
0.0
 40
1.0
 40
1.0
 40
1.0
 40
2.0
 40
2.0
 40
2.0
 40
3.0
 40
3.0
 40
3.0
 40
4.0
 40
4.0
 40
4.0
 40
5.0
 40
5.0
 40
5.0
 40
6.0
 40
6.0
 40
6.0
 40
7.0
 40
7.0
 40
7.0
 40
8.0
 40
8.0
 40
8.0
 40
9.0
 40
9.0
 40
9.0
 40
10.0
 40
10.0
 40
10.0
 40
11.0
 40
11.0
 40
11.0
 40
12.0
 40
12.0
 40
12.0
 40
13.0
 40
13.0
 40
13.0
 40
14.0
 40
14.0
 40
14.0
 40
15.0
 40
15.0
 40
15.0
 40
16.0
 40
16.0
 40
16.0
 40
17.0
 40
17.0
 40
17.0
 40
18.0
 40
18.0
 40
18.0
 40
19.0
 40
19.0
 40
19.0
 40
20.0
 40
20.0
 40
20.0
 40
21.0
 40
21.0
 40
21.0
 40
22.0
 40
22.0
 40
22.0
 40
23.0
 40
23.0
 40
23.0
 40
24.0
 40
24.0
 40
24.0
 40
25.0
 40
25.0
 40
25.0
 40
26.0
 40
26.0
 40
26.0
 40
27.0
 40
27.0
 40
27.0
 40
28.0
 40
28.0
 40
28.0
 40
29.0
 40
29.0
 40
29.0
 40
30.0
 40
30.0
 40
30.0
 40
31.0
 40
31.0
 40
31.0
 40
32.0
 40
32.0
 40
32.0
 40
33.0
 40
33.0
 40
33.0
 40
34.0
 40
34.0
 40
34.0
 40
35.0
 40
35.0
 40
35.0
 40
36.0
 40
36.0
 40
36.0
 40
37.0
 40
37.0
 40
37.0
 40
38.0
 40
38.0
 40
38.0
 40
39.0
 40
39.0
 40
39.0
 40
40.0
 40
40.0
 40
40.0
 40
41.0
 40
41.0
 40
41.0
 40
42.0
 40
42.0
 40
42.0
 40
43.0
 40
43.0
 40
43.0
 40
44.0
 40
44.0
 40
44.0
 40
45.0
 40
45.0
 40
45.0
 40
46.0
 40
46.0
 40
46.0
 40
47.0
 40
47.0
 40
47.0
 40
48.0
 40
48.0
 40
48.0
 40
49.0
 40
49.0
 40
49.0
 40
50.0
 40
50.0
 40
50.0
 40
51.0
 40
51.0
 40
51.0
 40
52.0
 40
52.0
 40
52.0
 40
53.0
 40
53.0
 40
53.0
 40
54.0
 40
54.0
 40
54.0
 40
55.0
 40
55.0
 40
55.0
 40
56.0
 40
56.0
 40
56.0
 40
57.0
 40
57.0
 40
57.0
 40
58.0
 40
58.0
 40
58.0
 40
59.0
 40
59.0
 40
59.0
 40
60.0
 40
60.0
 40
60.0
 40
61.0
 40
61.0
 40
61.0
 40
62.0
 40
62.0
 40
62.0
 40
63.0
 40
63.0
 40
63.0
 40
64.0
 40
64.0
 40
64.0
 40
65.0
 40
65.0
 40
65.0
 40
66.0
 40
66.0
 40
66.0
 40
67.0
 40
67.0
 40
67.0
 40
68.0
 40
68.0
 40
68.0
 40
69.0
 40
69.0
 40
69.0
 40
70.0
 40
70.0
 40
70.0
 40
71.0
 40
71.0
 40
71.0
 40
72.0
 40
72.0
 40
72.0
 40
73.0
 40
73.0
 40
73.0
 40
74.0
 40
74.0
 40
74.0
 40
75.0
 40
75.0
 40
75.0
 40
76.0
 40
76.0
 40
76.0
 40
77.0
 40
77.0
 40
77.0
 40
78.0
 40
78.0
 40
78.0
 40
79.0
 40
79.0
 40
79.0
 40
80.0
 40
80.0
 40
80.0
 40
81.0
 40
81.0
 40
81.0
 40
82.0
 40
82.0
 40
82.0
 40
83.0
 40
83.0
 40
83.0
 40
84.0
 40
84.0
 40
84.0
 40
85.0
 40
85.0
 40
85.0
 40
86.0
 40
86.0
 40
86.0
 40
87.0
 40
87.0
 40
87.0
 40
88.0
 40
88.0
 40
88.0
 40
89.0
 40
89.0
 40
89.0
 40
90.0
 40
90.0
 40
90.0
 40
91.0
 40
91.0
 40
91.0
 40
92.0
 40
92.0
 40
92.0
 40
93.0
 40
93.0
 40
93.0
 40
94.0
 40
94.0
 40
94.0
 40
95.0
 40
95.0
 40
95.0
 40
96.0
 40
96.0
 40
96.0
 40
97.0
 40
97.0
 40
97.0
 40
98.0
 40
98.0
 40
98.0
 40
99.0
 40
99.0
 40
99.0
 40
100.0
 40
100.0
 40
100.0
 40
101.0
 40
101.0
 40
101.0
 40
102.0
 40
102.0
 40
102.0
 40
103.0
 40
103.0
 40
103.0
 40
104.0
 40
104.0
 40
104.0
 40
105.0
 40
105.0
 40
105.0
 40
106.0
 40
106.0
 40
106.0
 40
107.0
 40
107.0
 40
107.0
 40
108.0
 40
108.0
 40
108.0
 40
109.0
 40
109.0
 40
109.0
 40
110.0
 40
110.0
 40
110.0
 40
111.0
 40
111.0
 40
111.0
 40
112.0
 40
112.0
 40
112.0
 40
113.0
 40
113.0
 40
113.0
 40
114.0
 40
114.0
 40
114.0
 40
115.0
 40
115.0
 40
115.0
 40
116.0
 40
116.0
 40
116.0
 40
117.0
 40
117.0
 40
117.0
 40
118.0
 40
118.0
 40
118.0
 40
119.0
 40
119.0
 40
119.0
 40
120.0
 40
120.0
 40
120.0
 40
121.0
 40
121.0
 40
121.0
 40
122.0
 40
122.0
 40
122.0
 40
123.0
 40
123.0
 40
123.0
 40
124.0
 40
124.0
 40
124.0
 40
125.0
 40
125.0
 40
125.0
 40
126.0
 40
126.0
 40
126.0
 40
127.0
 40
127.0
 40
127.0
 40
128.0
 40
128.0
 40
128.0
 40
129.0
 40
129.0
 40
129.0
 40
130.0
 40
130.0
 40
130.0
 40
131.0
 40
131.0
 40
131.0
 40
132.0
 40
132.0
 40
132.0
 40
133.0
 40
133.0
 40
133.0
 40
134.0
 40
134.0
 40
134.0
 40
135.0
 40
135.0
 40
135.0
 40
136.0
 40
136.0
 40
136.0
 40
137.0
 40
137.0
 40
137.0
 40
138.0
 40
138.0
 40
138.0
 40
139.0
 40
139.0
 40
139.0
 40
140.0
 40
140.0
 40
140.0
 40
141.0
 40
141.0
 40
141.0
 40
142.0
 40
142.0
 40
142.0
 40
143.0
 40
143.0
 40
143.0
 40
144.0
 40
144.0
 40
144.0
 40
145.0
 40
145.0
 40
145.0
 40
146.0
 40
146.0
 40
146.0
 40
147.0
 40
147.0
 40
147.0
 40
148.0
 40
148.0
 40
148.0
 40
149.0
 40
149.0
 40
149.0
 40
150.0
 40
150.0
 40
150.0
 40
151.0
 40
151.0
 40
151.0
 40
152.0
 40
152.0
 40
152.0
 40
153.0
 40
153.0
 40
153.0
 40
154.0
 40
154.0
 40
154.0
 40
155.0
 40
155.0
 40
155.0
 40
156.0
 40
156.0
 40
156.0
 40
157.0
 40
157.0
 40
157.0
 40
158.0
 40
158.0
 40
158.0
 40
159.0
 40
159.0
 40
159.0
 40
160.0
 40
160.0
 40
160.0
 40
161.0
 40
161.0
 40
161.0
 40
162.0
 40
162.0
 40
162.0
 40
163.0
 40
163.0
 40
163.0
 40
164.0
 40
164.0
 40
164.0
 40
165.0
 40
165.0
 40
165.0
 40
166.0
 40
166.0
 40
166.0
 40
167.0
 40
167.0
 40
167.0
 40
168.0
 40
168.0
 40
168.0
 40
169.0
 40
169.0
 40
169.0
 40
170.0
 40
170.0
 40
170.0
 40
171.0
 40
171.0
 40
171.0
 40
172.0
 40
172.0
 40
172.0
 40
173.0
 40
173.0
 40
173.0
 40
174.0
 40
174.0
 40
174.0
 40
175.0
 40
175.0
 40
175.0
 40
176.0
 40
176.0
 40
176.0
 40
177.0
 40
177.0
 40
177.0
 40
178.0
 40
178.0
 40
178.0
 40
179.0
 40
179.0
 40
179.0
 40
180.0
 40
180.0
 40
180.0
 40
181.0
 40
181.0
 40
181.0
 40
182.0
 40
182.0
 40
182.0
 40
183.0
 40
183.0
 40
183.0
 40
184.0
 40
184.0
 40
184.0
 40
185.0
 40
185.0
 40
185.0
 40
186.0
 40
186.0
 40
186.0
 40
187.0
 40
187.0
 40
187.0
 40
188.0
 40
188.0
 40
188.0
 40
189.0
 40
189.0
 40
189.0
 40
190.0
 40
190.0
 40
190.0
 40
191.0
 40
191.0
 40
191.0
 40
192.0
 40
192.0
 40
192.0
 40
193.0
 40
193.0
 40
193.0
 40
194.0
 40
194.0
 40
194.0
 40
195.0
 40
195.0
 40
195.0
 40
196.0
 40
196.0
 40
196.0
 40
197.0
 40
197.0
 40
197.0
 40
198.0
 40
198.0
 40
198.0
 40
199.0
 40
199.0
 40
199.0
 40
200.0
 40
200.0
 40
200.0
 40
201.0
 40
201.0
 40
201.0
 40
202.0
 40
202.0
 40
202.0
 40
203.0
 40
203.0
 40
203.0
 40
204.0
 40
204.0
 40
204.0
 40
205.0
 40
205.0
 40
205.0
 40
206.0
 40
206.0
 40
206.0
 40
207.0
 40
207.0
 40
207.0
 40
208.0
 40
208.0
 40
208.0
 40
209.0
 40
209.0
 40
209.0
 40
210.0
 40
210.0
 40
210.0
 40
211.0
 40
211.0
 40
211.0
 40
212.0
 40
212.0
 40
212.0
 40
213.0
 40
213.0
 40
213.0
 40
214.0
 40
214.0
 40
214.0
 40
215.0
 40
215.0
 40
215.0
 40
216.0
 40
216.0
 40
216.0
 40
217.0
 40
217.0
 40
217.0
 40
218.0
 40
218.0
 40
218.0
 40
219.0
 40
219.0
 40
219.0
 40
220.0
 40
220.0
 40
220.0
 40
221.0
 40
221.0
 40
221.0
 40
222.0
 40
222.0
 40
222.0
 40
223.0
 40
223.0
 40
223.0
 40
224.0
 40
224.0
 40
224.0
 40
225.0
 40
225.0
 40
225.0
 40
226.0
 40
226.0
 40
226.0
 40
227.0
 40
227.0
 40
227.0
 40
228.0
 40
228.0
 40
228.0
 40
229.0
 40
229.0
 40
229.0
 40
230.0
 40
230.0
 40
230.0
 40
231.0
 40
231.0
 40
231.0
 40
232.0
 40
232.0
 40
232.0
 40
233.0
 40
233.0
 40
233.0
 40
234.0
 40
234.0
 40
234.0
 40
235.0
 40
235.0
 40
235.0
 40
236.0
 40
236.0
 40
236.0
 40
237.0
 40
237.0
 40
237.0
 40
238.0
 40
238.0
 40
238.0
 40
239.0
 40
239.0
 40
239.0
 40
240.0
 40
240.0
 40
240.0
 40
241.0
 40
241.0
 40
241.0
 40
242.0
 40
242.0
 40
242.0
 40
243.0
 40
243.0
 40
243.0
 40
244.0
 40
244.0
 40
244.0
 40
245.0
 40
245.0
 40
245.0
 40
246.0
 40
246.0
 40
246.0
 40
247.0
 40
247.0
 40
247.0
 40
248.0
 40
248.0
 40
248.0
 40
249.0
 40
249.0
 40
249.0
 40
250.0
 40
250.0
 40
250.0
 40
251.0
 40
251.0
 40
251.0
 40
252.0
 40
252.0
 40
252.0
 40
253.0
 40
253.0
 40
253.0
 40
254.0
 40
254.0
 40
254.0
 40
255.0
 40
255.0
 40
255.0
 40
256.0
 40
256.0
 40
256.0
 40
257.0
 40
257.0
 40
257.0
 40
258.0
 40
258.0
 40
258.0
 40
259.0
 40
259.0
 40
259.0
 40
260.0
 40
260.0
 40
260.0
 40
261.0
 40
261.0
 40
261.0
 40
262.0
 40
262.0
 40
262.0
 40
263.0
 40
263.0
 40
263.0
 40
264.0
 40
264.0
 40
264.0
 40
265.0
 40
265.0
 40
265.0
 40
266.0
 40
266.0
 40
266.0
 40
267.0
 40
267.0
 40
267.0
 40
268.0
 40
268.0
 40
268.0
 40
269.0
 40
269.0
 40
269.0
 40
270.0
 40
270.0
 40
270.0
 40
271.0
 40
271.0
 40
271.0
 40
272.0
 40
272.0
 40
272.0
 40
273.0
 40
273.0
 40
273.0
 40
274.0
 40
274.0
 40
274.0
 40
275.0
 40
275.0
 40
275.0
 40
276.0
 40
276.0
 40
276.0
 40
277.0
 40
277.0
 40
277.0
 40
278.0
 40
278.0
 40
278.0
 40
279.0
 40
279.0
 40
279.0
 40
280.0
 40
280.0
 40
280.0
 40
281.0
 40
281.0
 40
281.0
 40
282.0
 40
282.0
 40
282.0
 40
283.0
 40
283.0
 40
283.0
 40
284.0
 40
284.0
 40
284.0
 40
285.0
 40
285.0
 40
285.0
 40
286.0
 40
286.0
 40
286.0
 40
287.0
 40
287.0
 40
287.0
 40
288.0
 40
288.0
 40
288.0
 40
289.0
 40
289.0
 40
289.0
 40
290.0
 40
290.0
 40
290.0
 40
291.0
 40
291.0
 40
291.0
 40
292.0
 40
292.0
 40
292.0
 40
293.0
 40
293.0
 40
293.0
 40
294.0
 40
294.0
 40
294.0
 40
295.0
 40
295.0
 40
295.0
 40
296.0
 40
296.0
 40
296.0
 40
297.0
 40
297.0
 40
297.0
 40
298.0
 40
298.0
 40
298.0
 40
299.0
 40
299.0
 40
299.0
 40
300.0
 40
300.0
 40
300.0
 40
301.0
 40
301.0
 40
301.0
 40
302.0
 40
302.0
 40
302.0
 40
303.0
 40
303.0
 40
303.0
 40
304.0
 40
304.0
 40
304.0
 40
305.0
 40
305.0
 40
305.0
 40
306.0
 40
306.0
 40
306.0
 40
307.0
 40
307.0
 40
307.0
 40
307.0
 10
284.4622291431097
 20
376.3662555170995
 30
0.0
 10
284.2136903965556
 20
376.6657660989204
 30
0.0
 10
284.124484822969
 20
376.9142853979974
 30
0.0
 10
284.2009522996086
 20
377.1150222479137
 30
0.0
 10
284.1754566582367
 20
376.9907723221131
 30
0.0
 10
284.0894210232791
 20
376.8792410457827
 30
0.0
 10
283.9396754561076
 20
376.780467313878
 30
0.0
 10
283.815406082831
 20
376.9270429424214
 30
0.0
 10
283.5891930390189
 20
377.1150222479137
 30
0.0
 10
283.2673762019331
 20
377.3380653530949
 30
0.0
 10
282.9423699787403
 20
377.5642978443811
 30
0.0
 10
282.7193268735591
 20
377.7491072112443
 30
0.0
 10
282.5950769477586
 20
377.9020421645218
 30
0.0
 10
282.5440856650148
 20
377.9753202550546
 30
0.0
 10
282.477166899218
 20
378.0804727591712
 30
0.0
 10
282.3879613256304
 20
378.2174802293957
 30
0.0
 10
282.3019256906737
 20
378.3544876996202
 30
0.0
 10
282.1904138618211
 20
378.5361076803765
 30
0.0
 10
282.0534063915966
 20
378.7591507855577
 30
0.0
 10
281.9163989213721
 20
378.9821938907407
 30
0.0
 10
281.8176251894674
 20
379.1765519684432
 30
0.0
 10
281.7538958097757
 20
379.3390550800395
 30
0.0
 10
281.6933558161909
 20
379.5015581916359
 30
0.0
 10
281.6869770439789
 20
379.5939531513286
 30
0.0
 10
281.7347789406167
 20
379.6194487927005
 30
0.0
 10
281.2631970888815
 20
379.4187119427843
 30
0.0
 10
280.5781597377591
 20
379.5557194130088
 30
0.0
 10
279.6796279922974
 20
380.030471203374
 30
0.0
 10
279.5075761698599
 20
380.1292449352786
 30
0.0
 10
279.2431099402529
 20
380.3905217787797
 30
0.0
 10
278.8957974617942
 20
380.8143017338771
 30
0.0
 10
278.5485044308125
 20
381.2380622414985
 30
0.0
 10
278.1852644693008
 20
381.4228716083599
 30
0.0
 10
277.8124757969463
 20
381.375069711723
 30
0.0
 10
277.6882064236697
 20
381.3495935178271
 30
0.0
 10
277.5193245398623
 20
381.3049810072953
 30
0.0
 10
277.3090389791041
 20
381.2444410137105
 30
0.0
 10
277.0955640322409
 20
381.1807116340187
 30
0.0
 10
276.9171334375906
 20
381.1520460540178
 30
0.0
 10
276.7673684229421
 20
381.1520460540178
 30
0.0
 10
276.6176228557706
 20
381.1520460540178
 30
0.0
 10
276.4168860058544
 20
381.1998285031787
 30
0.0
 10
276.1683472593013
 20
381.3017916211902
 30
0.0
 10
275.9707997954911
 20
381.375069711723
 30
0.0
 10
275.703163627255
 20
381.5184559541594
 30
0.0
 10
275.3654193071143
 20
381.7287609623927
 30
0.0
 10
275.0308449256045
 20
381.9422359092569
 30
0.0
 10
274.7982531095804
 20
382.0728646072694
 30
0.0
 10
274.6739837363039
 20
382.1206665039062
 30
0.0
 10
274.352166899218
 20
382.2959077124506
 30
0.0
 10
274.1896832350976
 20
382.3819433474073
 30
0.0
 10
274.1896832350976
 20
382.3819433474073
 30
0.0
 10
274.1896832350976
 20
382.3819433474073
 30
0.0
 10
273.5906620714568
 20
382.6814539292282
 30
0.0
 10
273.5906620714568
 20
382.6814539292282
 30
0.0
 10
273.4408970568084
 20
382.7547320197609
 30
0.0
 10
273.2847727174239
 20
382.8726226208255
 30
0.0
 10
273.1254589919336
 20
383.0351257324219
 30
0.0
 10
272.9629558803372
 20
383.1976288440183
 30
0.0
 10
272.8578033762205
 20
383.3664912803506
 30
0.0
 10
272.8068315409537
 20
383.5417519363709
 30
0.0
 10
272.7558597056859
 20
383.6914975035434
 30
0.0
 10
272.6953197121011
 20
383.9878186992573
 30
0.0
 10
272.6188327879854
 20
384.4370942957266
 30
0.0
 10
272.5455546974526
 20
384.8863504447181
 30
0.0
 10
272.4467809655471
 20
385.2113566679109
 30
0.0
 10
272.3225115922705
 20
385.4089041317202
 30
0.0
 10
272.1727660250981
 20
385.6574234307973
 30
0.0
 10
271.9592910782349
 20
385.9059621773522
 30
0.0
 10
271.6852566903099
 20
386.1544814764293
 30
0.0
 10
271.4112417498609
 20
386.4030202229824
 30
0.0
 10
271.1627224507838
 20
386.530478982364
 30
0.0
 10
270.9396793456026
 20
386.530478982364
 30
0.0
 10
271.1372268094119
 20
386.530478982364
 30
0.0
 10
271.1372268094119
 20
386.6961520325913
 30
0.0
 10
270.9396793456026
 20
387.0338963527302
 30
0.0
 10
270.7389424956864
 20
387.3716406728709
 30
0.0
 10
270.566890673249
 20
387.613800647212
 30
0.0
 10
270.4171256586005
 20
387.7635656618604
 30
0.0
 10
270.3661538233328
 20
387.8113481110213
 30
0.0
 10
270.2163888086843
 20
387.9738512226177
 30
0.0
 10
269.9678695096072
 20
388.2478661630666
 30
0.0
 10
269.7193307630541
 20
388.5219005509916
 30
0.0
 10
269.5058558161909
 20
388.7576817531208
 30
0.0
 10
269.3337845462765
 20
388.958418603037
 30
0.0
 10
269.1585433377322
 20
389.1591554529532
 30
0.0
 10
269.0087977705607
 20
389.3885578828704
 30
0.0
 10
268.8845283972842
 20
389.6498347263714
 30
0.0
 10
268.7602590240067
 20
389.9111115698724
 30
0.0
 10
268.7347828301117
 20
390.1309652889468
 30
0.0
 10
268.8080609206445
 20
390.303017111386
 30
0.0
 10
268.8335565620164
 20
390.3285127527579
 30
0.0
 10
268.8080609206445
 20
390.3667464910777
 30
0.0
 10
268.7347828301117
 20
390.4145483877146
 30
0.0
 10
268.6582959059961
 20
390.4655202229824
 30
0.0
 10
268.5659009463034
 20
390.5164920582483
 30
0.0
 10
268.4543891174508
 20
390.564293954887
 30
0.0
 10
268.3428578411222
 20
390.6152657901548
 30
0.0
 10
268.2377053370046
 20
390.6598783006848
 30
0.0
 10
268.13576166647
 20
390.6949226528995
 30
0.0
 10
268.0369879345653
 20
390.7331758386954
 30
0.0
 10
267.9636903965556
 20
390.7522927078535
 30
0.0
 10
267.9127185612888
 20
390.7522927078535
 30
0.0
 10
267.9636903965556
 20
390.6503295898438
 30
0.0
 10
268.0178710654054
 20
390.4718989951944
 30
0.0
 10
268.0815809976211
 20
390.2106221516933
 30
0.0
 10
268.142120991206
 20
389.9493453081923
 30
0.0
 10
268.2122291431097
 20
389.754987230488
 30
0.0
 10
268.2855072336424
 20
389.6307178572115
 30
0.0
 10
268.3364985163862
 20
389.5319441253068
 30
0.0
 10
268.5467840771435
 20
389.1687041637942
 30
0.0
 10
268.9227621356031
 20
388.5473767448875
 30
0.0
 10
269.5695851958817
 20
387.5022888183594
 30
0.0
 10
269.8690957777026
 20
386.7280264461733
 30
0.0
 10
269.8181044949588
 20
386.2309684005431
 30
0.0
 10
269.6683589277873
 20
386.1831665039062
 30
0.0
 10
269.5695851958817
 20
386.2054727591712
 30
0.0
 10
269.5185939131388
 20
386.3042464910777
 30
0.0
 10
269.470811463977
 20
386.4030202229824
 30
0.0
 10
269.4325582781812
 20
386.5432170793119
 30
0.0
 10
269.4070820842862
 20
386.7152689017494
 30
0.0
 10
269.3815864429143
 20
386.8905101102937
 30
0.0
 10
269.3560908015425
 20
387.0147794835702
 30
0.0
 10
269.3306146076466
 20
387.0912469602099
 30
0.0
 10
269.2573170696378
 20
387.2378225887514
 30
0.0
 10
269.0629589919336
 20
387.4003257003478
 30
0.0
 10
268.7538996992716
 20
387.5755669088921
 30
0.0
 10
268.4416315730268
 20
387.7508081174365
 30
0.0
 10
268.2472734953226
 20
387.9260493259808
 30
0.0
 10
268.1739954047898
 20
388.0981205958942
 30
0.0
 10
268.1994715986857
 20
388.0981205958942
 30
0.0
 10
268.2281566261636
 20
388.1108586928422
 30
0.0
 10
268.2663903644825
 20
388.136354334214
 30
0.0
 10
268.3046241028023
 20
388.1618499755859
 30
0.0
 10
268.3364985163862
 20
388.1745880725339
 30
0.0
 10
268.3619747102812
 20
388.1745880725339
 30
0.0
 10
268.3874703516531
 20
388.3976311777151
 30
0.0
 10
268.2568416536405
 20
388.684384215112
 30
0.0
 10
267.9700691687685
 20
389.0316966935698
 30
0.0
 10
267.6832966838956
 20
389.3821791106584
 30
0.0
 10
267.565406082831
 20
389.6307178572115
 30
0.0
 10
267.6132079794679
 20
389.7804634243839
 30
0.0
 10
267.4156605156586
 20
389.9302284390324
 30
0.0
 10
267.2404193071143
 20
390.2233602486413
 30
0.0
 10
267.0906542924658
 20
390.6566889145797
 30
0.0
 10
266.9409087252934
 20
391.0932069666251
 30
0.0
 10
266.8166393520169
 20
391.373600679286
 30
0.0
 10
266.7178656201122
 20
391.4978700525626
 30
0.0
 10
266.6159025021016
 20
391.647635067211
 30
0.0
 10
266.494822514931
 20
391.7782637652235
 30
0.0
 10
266.3450769477586
 20
391.8897755940743
 30
0.0
 10
266.1953119331101
 20
392.0013068704047
 30
0.0
 10
266.0073131801419
 20
392.1287461823122
 30
0.0
 10
265.7842895224367
 20
392.2657731000108
 30
0.0
 10
265.5580570311495
 20
392.4027805702353
 30
0.0
 10
265.408311463977
 20
392.4951755299298
 30
0.0
 10
265.3350139259683
 20
392.5461473651958
 30
0.0
 10
265.2840420907005
 20
392.5684536204608
 30
0.0
 10
265.1852683587958
 20
392.6799848967912
 30
0.0
 10
265.0355033441474
 20
392.8807217467074
 30
0.0
 10
264.2134585228005
 20
393.8780272240729
 30
0.0
 10
263.9649197762474
 20
394.4133190080229
 30
0.0
 10
264.2899259994401
 20
394.4865970985556
 30
0.0
 10
263.9649197762474
 20
394.4133190080229
 30
0.0
 10
263.6972641605344
 20
394.655478982364
 30
0.0
 10
263.4869785997771
 20
395.2162469602099
 30
0.0
 10
263.273503652913
 20
395.7770343855318
 30
0.0
 10
263.2065848871162
 20
396.2071931128412
 30
0.0
 10
263.2798629776489
 20
396.5035143085552
 30
0.0
 10
263.2798629776489
 20
396.5035143085552
 30
0.0
 10
263.2065848871162
 20
396.541748046875
 30
0.0
 10
263.2065848871162
 20
396.541748046875
 30
0.0
 10
263.2288911423821
 20
396.6405217787797
 30
0.0
 10
263.2416292393291
 20
396.9336535883886
 30
0.0
 10
263.2416292393291
 20
397.4211629231768
 30
0.0
 10
263.2416292393291
 20
397.9054634243839
 30
0.0
 10
263.273503652913
 20
398.3483602486403
 30
0.0
 10
263.3372330326047
 20
398.7466445623659
 30
0.0
 10
263.3977730261904
 20
399.1449288760914
 30
0.0
 10
263.515663627255
 20
399.3456657260076
 30
0.0
 10
263.6909048357984
 20
399.3456657260076
 30
0.0
 10
263.515663627255
 20
399.3201700846357
 30
0.0
 10
263.3850154817655
 20
399.4762944240192
 30
0.0
 10
263.2989798468088
 20
399.8108688055299
 30
0.0
 10
263.2129636593281
 20
400.1486131256706
 30
0.0
 10
263.2065848871162
 20
400.3780155555878
 30
0.0
 10
263.2798629776489
 20
400.5022849288644
 30
0.0
 10
263.3053586190208
 20
400.5787524055031
 30
0.0
 10
263.4168898953494
 20
400.5277805702362
 30
0.0
 10
263.6176072977896
 20
400.3525199142159
 30
0.0
 10
263.8151742090749
 20
400.1804680917776
 30
0.0
 10
263.9266860379275
 20
400.065766876819
 30
0.0
 10
263.9521816792994
 20
400.0179649801812
 30
0.0
 10
264.2771684550162
 20
400.1932061887255
 30
0.0
 10
264.4014378282927
 20
400.4162492939067
 30
0.0
 10
264.3249703516531
 20
400.6902836818317
 30
0.0
 10
264.2771684550162
 20
400.7890574137373
 30
0.0
 10
264.0158916115151
 20
401.0503148097614
 30
0.0
 10
263.54113982115
 20
401.4740947648588
 30
0.0
 10
262.4705562532499
 20
402.1718896604052
 30
0.0
 10
261.9225263723529
 20
402.509633980545
 30
0.0
 10
261.897030730981
 20
402.484138339174
 30
0.0
 10
262.0467762981534
 20
402.758172727099
 30
0.0
 10
262.0085425598336
 20
402.9939539292282
 30
0.0
 10
261.7854994546524
 20
403.1946907791435
 30
0.0
 10
261.5369801555753
 20
403.044925764495
 30
0.0
 10
261.3935939131388
 20
403.0066920261761
 30
0.0
 10
261.355360174819
 20
403.0799895641849
 30
0.0
 10
261.3203158226052
 20
403.1564570408245
 30
0.0
 10
261.2884414090213
 20
403.293464511049
 30
0.0
 10
261.2629652151263
 20
403.4910119748583
 30
0.0
 10
261.2374695737544
 20
403.6917488247745
 30
0.0
 10
261.1737401940627
 20
403.8032606536271
 30
0.0
 10
261.074966462158
 20
403.8287562949981
 30
0.0
 10
260.9506970888815
 20
403.85425193637
 30
0.0
 10
260.8009515217091
 20
403.9530256682756
 30
0.0
 10
260.6288996992716
 20
404.125077490713
 30
0.0
 10
262.8433449256045
 20
407.661834417605
 30
0.0
 10
265.7715319780127
 20
410.4275378058937
 30
0.0
 10
269.4070820842862
 20
412.4221293131513
 30
0.0
 10
269.5568276514578
 20
412.4444355684172
 30
0.0
 10
269.8308425919067
 20
412.4571931128412
 30
0.0
 10
270.2291269056323
 20
412.4571931128412
 30
0.0
 10
270.4266938169185
 20
412.4316974714693
 30
0.0
 10
270.6146731224098
 20
412.3711574778836
 30
0.0
 10
270.7899143309542
 20
412.2723837459789
 30
0.0
 10
270.9619856008685
 20
412.1704206279683
 30
0.0
 10
271.1436055816239
 20
412.0334131577438
 30
0.0
 10
271.3315848871162
 20
411.8613613353054
 30
0.0
 10
271.5163942539775
 20
411.6861006792851
 30
0.0
 10
271.659780496414
 20
411.5618507534855
 30
0.0
 10
271.7617436144255
 20
411.4885532154758
 30
0.0
 10
271.8095260635864
 20
411.6383182301242
 30
0.0
 10
271.7489860700016
 20
411.8613613353054
 30
0.0
 10
271.5737448614573
 20
412.1608719171263
 30
0.0
 10
271.6215467580951
 20
412.3106174842987
 30
0.0
 10
271.89875108465
 20
412.4603630514703
 30
0.0
 10
272.3958091302802
 20
412.6069386800127
 30
0.0
 10
272.9693346525492
 20
412.6834061566524
 30
0.0
 10
273.3421233249028
 20
412.6706680597044
 30
0.0
 10
273.5173645334471
 20
412.5718943277998
 30
0.0
 10
273.3676189662747
 20
412.794937432981
 30
0.0
 10
273.1190802197216
 20
413.1071861117498
 30
0.0
 10
272.7685978026338
 20
413.5054704254753
 30
0.0
 10
272.7685978026338
 20
413.5054704254753
 30
0.0
 10
272.5837884357716
 20
413.3174716725071
 30
0.0
 10
272.5837884357716
 20
413.3174716725071
 30
0.0
 10
272.3830515858563
 20
413.4927323285274
 30
0.0
 10
271.8605173463302
 20
413.4066966935698
 30
0.0
 10
271.0129574361354
 20
413.056214276482
 30
0.0
 10
270.9651749869745
 20
413.0307186351101
 30
0.0
 10
270.837716227592
 20
412.9637998693133
 30
0.0
 10
270.6401687637817
 20
412.8522880404607
 30
0.0
 10
270.4394319138664
 20
412.7407567641312
 30
0.0
 10
270.27692880227
 20
412.6579299627565
 30
0.0
 10
270.1526594289935
 20
412.6101280661187
 30
0.0
 10
270.0061032479271
 20
412.5591562308518
 30
0.0
 10
269.8563382332786
 20
412.5463986864279
 30
0.0
 10
269.7065926661062
 20
412.5718943277998
 30
0.0
 10
270.9014456072828
 20
413.2186979406024
 30
0.0
 10
272.0708029070875
 20
413.7285135306565
 30
0.0
 10
273.2178539516262
 20
414.1044915891162
 30
0.0
 10
273.2911514896359
 20
414.0535003063724
 30
0.0
 10
273.4154014154365
 20
413.9483672497317
 30
0.0
 10
273.5906620714568
 20
413.7858641381354
 30
0.0
 10
273.7659032800002
 20
413.6233610265399
 30
0.0
 10
273.9029107502247
 20
413.5054704254753
 30
0.0
 10
274.0016844821293
 20
413.4321923349416
 30
0.0
 10
273.9284063915966
 20
413.4799747841034
 30
0.0
 10
273.8774151088528
 20
413.4576685288375
 30
0.0
 10
273.8519389149578
 20
413.3557248583029
 30
0.0
 10
273.7531651830523
 20
413.056214276482
 30
0.0
 10
273.7531651830523
 20
412.8076755299289
 30
0.0
 10
273.8519389149578
 20
412.6101280661187
 30
0.0
 10
273.9761888407584
 20
412.4348868575753
 30
0.0
 10
274.1450707245658
 20
412.3361131256706
 30
0.0
 10
274.355356285324
 20
412.3106174842987
 30
0.0
 10
274.5688506796632
 20
412.2851218429269
 30
0.0
 10
274.8237487509523
 20
412.2978793873508
 30
0.0
 10
275.1232593327732
 20
412.3488512226177
 30
0.0
 10
275.422769914594
 20
412.3966531192555
 30
0.0
 10
275.6203173784033
 20
412.4221293131513
 30
0.0
 10
275.722280496414
 20
412.4221293131513
 30
0.0
 10
275.722280496414
 20
412.4221293131513
 30
0.0
 10
276.0950691687685
 20
412.3838955748315
 30
0.0
 10
276.0950691687685
 20
412.3838955748315
 30
0.0
 10
276.8215296443159
 20
412.3169962565107
 30
0.0
 10
277.1433464814017
 20
412.3711574778836
 30
0.0
 10
277.063689618657
 20
412.5527774586399
 30
0.0
 10
277.1306083844547
 20
412.4380762436813
 30
0.0
 10
277.2070758610935
 20
412.253266876819
 30
0.0
 10
277.2899221099442
 20
411.991990033318
 30
0.0
 10
277.3886958418498
 20
411.6797413545501
 30
0.0
 10
277.5002076707024
 20
411.4630770215799
 30
0.0
 10
277.6244770439789
 20
411.3388076483034
 30
0.0
 10
277.7519358033614
 20
411.437581380208
 30
0.0
 10
277.7742420586274
 20
411.6128225887524
 30
0.0
 10
277.7009445206177
 20
411.8613613353054
 30
0.0
 10
277.6244770439789
 20
412.1098806343825
 30
0.0
 10
277.6244770439789
 20
412.2851218429269
 30
0.0
 10
277.7009445206177
 20
412.3838955748315
 30
0.0
 10
277.7264401619896
 20
412.4348868575753
 30
0.0
 10
277.7997182525223
 20
412.4858586928422
 30
0.0
 10
277.9239876257998
 20
412.53366058948
 30
0.0
 10
278.0482569990763
 20
412.5846324247468
 30
0.0
 10
278.1916432415128
 20
412.6388130935966
 30
0.0
 10
278.3541269056323
 20
412.7025230258123
 30
0.0
 10
278.5166300172286
 20
412.7662524055031
 30
0.0
 10
278.6217825213453
 20
412.8076755299289
 30
0.0
 10
278.672754356613
 20
412.8331711713008
 30
0.0
 10
278.8225193712615
 20
412.9319449032055
 30
0.0
 10
278.7205562532499
 20
413.1071861117498
 30
0.0
 10
278.3732632222682
 20
413.3557248583029
 30
0.0
 10
278.3222719395244
 20
413.3812010521979
 30
0.0
 10
278.2171194354078
 20
413.4194347905177
 30
0.0
 10
278.0546357712883
 20
413.4672366871555
 30
0.0
 10
277.8953220457979
 20
413.5182085224224
 30
0.0
 10
277.7519358033614
 20
413.5691998051661
 30
0.0
 10
277.6276664300849
 20
413.6169822543279
 30
0.0
 10
277.5033970568084
 20
413.6679735370708
 30
0.0
 10
277.3727683587958
 20
413.7348728553925
 30
0.0
 10
277.2357608885713
 20
413.8240978764552
 30
0.0
 10
277.0987534183469
 20
413.9101335114128
 30
0.0
 10
277.0350240386551
 20
414.0089072433175
 30
0.0
 10
277.0477621356031
 20
414.1236084582761
 30
0.0
 10
277.060500232551
 20
414.2351202871287
 30
0.0
 10
277.1274189983487
 20
414.3785065295651
 30
0.0
 10
277.2516883716253
 20
414.5505777994795
 30
0.0
 10
277.4014339387968
 20
414.67482772528
 30
0.0
 10
277.6467832992448
 20
414.7258190080229
 30
0.0
 10
277.9813382332786
 20
414.700323366651
 30
0.0
 10
278.3158931673124
 20
414.678017111386
 30
0.0
 10
278.5739806247075
 20
414.6142877316943
 30
0.0
 10
278.7460518946218
 20
414.5155139997896
 30
0.0
 10
279.4183511487963
 20
414.13953594133
 30
0.0
 10
279.520314266807
 20
413.8049810072953
 30
0.0
 10
279.0455624764427
 20
413.5054704254753
 30
0.0
 10
279.2940817755198
 20
413.4799747841034
 30
0.0
 10
279.5935923573406
 20
413.3812010521979
 30
0.0
 10
279.9440942219044
 20
413.2059598436545
 30
0.0
 10
280.2913872528861
 20
413.0339080212161
 30
0.0
 10
280.4283947231106
 20
412.8459092682488
 30
0.0
 10
280.3551166325778
 20
412.6451724183325
 30
0.0
 10
280.5526640963872
 20
413.0211504767922
 30
0.0
 10
280.7534009463034
 20
413.2059598436545
 30
0.0
 10
280.9509484101127
 20
413.2059598436545
 30
0.0
 10
281.0752177833901
 20
413.1836535883886
 30
0.0
 10
281.1962977705607
 20
413.0147911520562
 30
0.0
 10
281.3078095994133
 20
412.7025230258123
 30
0.0
 10
281.4193408757419
 20
412.3902743470435
 30
0.0
 10
281.4862401940627
 20
412.2245818493411
 30
0.0
 10
281.5117358354346
 20
412.1991056554461
 30
0.0
 10
281.7124726853508
 20
411.9250712675203
 30
0.0
 10
281.9100201491601
 20
411.8613613353054
 30
0.0
 10
282.1107569990763
 20
412.0111069024779
 30
0.0
 10
282.3083044628856
 20
412.1608719171263
 30
0.0
 10
282.5154200850138
 20
412.3775362500955
 30
0.0
 10
282.7257056457711
 20
412.6642892874925
 30
0.0
 10
282.9200637234744
 20
412.9287555170995
 30
0.0
 10
283.037954324539
 20
413.059384215112
 30
0.0
 10
283.0730181242288
 20
413.059384215112
 30
0.0
 10
282.8308581498877
 20
413.1613473331226
 30
0.0
 10
282.8085518946218
 20
413.2569316789213
 30
0.0
 10
283.006099358432
 20
413.3557248583029
 30
0.0
 10
283.3788880307857
 20
413.5819379021141
 30
0.0
 10
283.7166323509255
 20
413.6424778956989
 30
0.0
 10
284.0161429327463
 20
413.5437041637942
 30
0.0
 10
284.0894210232791
 20
413.4927323285274
 30
0.0
 10
284.1882142026607
 20
413.3812010521979
 30
0.0
 10
284.3124641284612
 20
413.2059598436545
 30
0.0
 10
284.5355072336424
 20
412.7567036946612
 30
0.0
 10
284.5004628814286
 20
412.5463986864279
 30
0.0
 10
284.2009522996086
 20
412.5718943277998
 30
0.0
 10
284.4239954047898
 20
412.3711574778836
 30
0.0
 10
284.5163903644825
 20
412.1226187313305
 30
0.0
 10
284.4813460122696
 20
411.8231081495096
 30
0.0
 10
284.4431122739497
 20
411.5267869537956
 30
0.0
 10
284.2487347487695
 20
411.3897794835711
 30
0.0
 10
283.9014417177877
 20
411.412085738837
 30
0.0
 10
283.7771723445112
 20
411.412085738837
 30
0.0
 10
283.5955523637549
 20
411.4758151185279
 30
0.0
 10
283.3597711616258
 20
411.6000844918044
 30
0.0
 10
283.1239899594966
 20
411.724334417605
 30
0.0
 10
282.9423699787403
 20
411.7944425695086
 30
0.0
 10
282.8181006054638
 20
411.8039912803497
 30
0.0
 10
282.6938506796632
 20
411.8199382108796
 30
0.0
 10
282.5185900236429
 20
411.7498300589768
 30
0.0
 10
282.2955663659377
 20
411.6000844918044
 30
0.0
 10
282.1936032479271
 20
411.4758151185279
 30
0.0
 10
282.0629551024385
 20
411.2623401716646
 30
0.0
 10
281.9036413769481
 20
410.9660189759497
 30
0.0
 10
281.7411382653518
 20
410.6665083941289
 30
0.0
 10
281.5977714703922
 20
410.4530139997896
 30
0.0
 10
281.4735020971148
 20
410.3287640739891
 30
0.0
 10
281.1007134247611
 20
409.9591453402654
 30
0.0
 10
280.4857453305904
 20
409.8221378700409
 30
0.0
 10
279.6254667709245
 20
409.9145328297336
 30
0.0
 10
279.6764386061914
 20
409.8986053466797
 30
0.0
 10
279.6637005092434
 20
409.8285166422529
 30
0.0
 10
279.5840436464987
 20
409.6946791106584
 30
0.0
 10
279.498008011542
 20
409.544933543486
 30
0.0
 10
279.3801174104765
 20
409.3760516596776
 30
0.0
 10
279.230352395828
 20
409.1912617402922
 30
0.0
 10
279.0806068286565
 20
409.003262987324
 30
0.0
 10
278.9945711936989
 20
408.8981104832073
 30
0.0
 10
278.9690949998039
 20
408.8726342893115
 30
0.0
 10
278.7460518946218
 20
408.6240955427584
 30
0.0
 10
278.5962868799734
 20
408.3373425053614
 30
0.0
 10
278.5198194033346
 20
408.0123362821687
 30
0.0
 10
278.5198194033346
 20
407.9645343855318
 30
0.0
 10
278.5070813063867
 20
407.7956719491995
 30
0.0
 10
278.4815856650148
 20
407.5088994643265
 30
0.0
 10
278.4560900236429
 20
407.2221464269305
 30
0.0
 10
278.408307574482
 20
407.0054626464844
 30
0.0
 10
278.3318400978433
 20
406.8557170793119
 30
0.0
 10
278.6313506796632
 20
406.9289951698456
 30
0.0
 10
278.8703212678984
 20
406.7792496026732
 30
0.0
 10
279.0423730903367
 20
406.4064414828435
 30
0.0
 10
279.1921186575091
 20
406.0591484518609
 30
0.0
 10
279.1921186575091
 20
405.8711496988935
 30
0.0
 10
279.0423730903367
 20
405.8456735049976
 30
0.0
 10
279.8644373591596
 20
405.9699234307982
 30
0.0
 10
280.587708448601
 20
405.9221409816364
 30
0.0
 10
281.2122252536137
 20
405.6959084903492
 30
0.0
 10
282.1075676129703
 20
405.3740916532624
 30
0.0
 10
282.6173637555485
 20
405.0491048775466
 30
0.0
 10
282.741633128825
 20
404.7240986543547
 30
0.0
 10
282.8913981434735
 20
404.9503311456419
 30
0.0
 10
283.2514487188791
 20
404.9630692425899
 30
0.0
 10
283.824974241149
 20
404.7623323926737
 30
0.0
 10
284.0511872849602
 20
404.6380630193971
 30
0.0
 10
284.2487347487695
 20
404.2652743470435
 30
0.0
 10
284.4239954047898
 20
403.6439469281368
 30
0.0
 10
284.5227691366945
 20
403.2679688696771
 30
0.0
 10
284.6916315730268
 20
402.9461520325904
 30
0.0
 10
284.927412775156
 20
402.6721370921414
 30
0.0
 10
285.1663833633911
 20
402.3981221516924
 30
0.0
 10
285.4213008821562
 20
402.3216546750537
 30
0.0
 10
285.6953158226052
 20
402.4459046008542
 30
0.0
 10
285.6953158226052
 20
402.4459046008542
 30
0.0
 10
285.8068276514578
 20
402.5223915249699
 30
0.0
 10
285.8068276514578
 20
402.5223915249699
 30
0.0
 10
285.9056013833633
 20
402.5701739741307
 30
0.0
 10
285.9852582461081
 20
402.6147864846625
 30
0.0
 10
286.0489876257998
 20
402.6530202229815
 30
0.0
 10
286.1127170054906
 20
402.6880645751953
 30
0.0
 10
286.1796357712883
 20
402.7390558579391
 30
0.0
 10
286.2529138618211
 20
402.8027657901539
 30
0.0
 10
286.3293813384598
 20
402.8633057837396
 30
0.0
 10
286.3739938489916
 20
402.9206758386954
 30
0.0
 10
286.3835425598336
 20
402.9684582878563
 30
0.0
 10
286.3963001042575
 20
403.0194495706
 30
0.0
 10
286.3771832350976
 20
403.0704214058669
 30
0.0
 10
286.3293813384598
 20
403.1182233025047
 30
0.0
 10
286.1541401299164
 20
403.2679688696771
 30
0.0
 10
286.0234919844279
 20
403.4750844918044
 30
0.0
 10
285.9374757969463
 20
403.7363613353054
 30
0.0
 10
285.8514401619896
 20
403.9976187313305
 30
0.0
 10
285.8705570311495
 20
404.2270406087237
 30
0.0
 10
285.99163701832
 20
404.4277774586399
 30
0.0
 10
286.0681044949588
 20
404.5265511905445
 30
0.0
 10
286.265651958769
 20
404.676296757717
 30
0.0
 10
286.5906581819609
 20
404.8770336076323
 30
0.0
 10
286.9156644051536
 20
405.0745810714425
 30
0.0
 10
287.1132118689638
 20
405.2753179213578
 30
0.0
 10
287.1896793456026
 20
405.472865385168
 30
0.0
 10
287.2884530775073
 20
405.7978716083599
 30
0.0
 10
287.1641837042307
 20
406.0655272240729
 30
0.0
 10
286.813701287143
 20
406.275812784831
 30
0.0
 10
286.4663888086843
 20
406.4892877316943
 30
0.0
 10
286.2911476001409
 20
406.6804758707685
 30
0.0
 10
286.2911476001409
 20
406.8557170793119
 30
0.0
 10
286.2911476001409
 20
406.9799864525885
 30
0.0
 10
286.3739938489916
 20
407.1297320197609
 30
0.0
 10
286.533307574482
 20
407.3049732283052
 30
0.0
 10
286.6958106860784
 20
407.4802338843256
 30
0.0
 10
286.7658993905052
 20
407.6395476098151
 30
0.0
 10
286.7404037491333
 20
407.7892931769875
 30
0.0
 10
286.7404037491333
 20
407.8657606536271
 30
0.0
 10
286.6958106860784
 20
408.0218849930106
 30
0.0
 10
286.6097750511208
 20
408.2576856426167
 30
0.0
 10
286.5237394161641
 20
408.4934668447459
 30
0.0
 10
286.4727675808963
 20
408.6687080532902
 30
0.0
 10
286.4600100364723
 20
408.7802198821428
 30
0.0
 10
286.4472719395244
 20
408.8917511584714
 30
0.0
 10
286.5046225470041
 20
409.0223798564839
 30
0.0
 10
286.6288919202807
 20
409.1721448711323
 30
0.0
 10
286.800943742719
 20
409.274088541667
 30
0.0
 10
287.2119856008685
 20
409.267729216931
 30
0.0
 10
287.8587892136711
 20
409.1530280019724
 30
0.0
 10
288.5088016600557
 20
409.0414967256438
 30
0.0
 10
288.9325621676762
 20
408.9236061245792
 30
0.0
 10
289.1301096314864
 20
408.7993367513018
 30
0.0
 10
289.2065965556021
 20
408.7515543021409
 30
0.0
 10
289.3690802197216
 20
408.6750868255021
 30
0.0
 10
289.6176189662747
 20
408.5763130935966
 30
0.0
 10
289.8661382653518
 20
408.4775199142159
 30
0.0
 10
290.0828220457979
 20
408.3691974714693
 30
0.0
 10
290.2708013512893
 20
408.2576856426167
 30
0.0
 10
290.4556107181515
 20
408.1461543662872
 30
0.0
 10
290.5639331608982
 20
408.0410018621706
 30
0.0
 10
290.58942880227
 20
407.9422281302659
 30
0.0
 10
290.58942880227
 20
407.9422281302659
 30
0.0
 10
290.4014494967778
 20
407.9422281302659
 30
0.0
 10
290.4014494967778
 20
407.9422281302659
 30
0.0
 10
290.5766907053221
 20
407.7892931769875
 30
0.0
 10
290.6818237619627
 20
407.6172413545501
 30
0.0
 10
290.7200769477586
 20
407.4165045046338
 30
0.0
 10
290.7551212999724
 20
407.2189570408245
 30
0.0
 10
290.6627068928028
 20
407.0691920261761
 30
0.0
 10
290.4396832350976
 20
406.9672289081645
 30
0.0
 10
290.58942880227
 20
406.9927245495364
 30
0.0
 10
290.7869762660794
 20
406.9576801973235
 30
0.0
 10
291.0355150126334
 20
406.8557170793119
 30
0.0
 10
291.4369887124649
 20
406.7059520646635
 30
0.0
 10
291.4465374233059
 20
406.568944594439
 30
0.0
 10
291.0737487509523
 20
406.4446946686394
 30
0.0
 10
291.150216227592
 20
406.4701708625344
 30
0.0
 10
291.2553687317086
 20
406.4956665039062
 30
0.0
 10
291.3923762019331
 20
406.5211621452781
 30
0.0
 10
291.5293836721576
 20
406.546638339174
 30
0.0
 10
291.6345361762742
 20
406.581702138863
 30
0.0
 10
291.707814266807
 20
406.6326739741307
 30
0.0
 10
291.7587861020747
 20
406.6581696155026
 30
0.0
 10
291.8193260956596
 20
406.6995927399284
 30
0.0
 10
291.8957935722992
 20
406.7633221196193
 30
0.0
 10
291.969091110308
 20
406.8270320518341
 30
0.0
 10
292.0264417177877
 20
406.8620958515239
 30
0.0
 10
292.0646754561076
 20
406.8748339484719
 30
0.0
 10
292.0997198083205
 20
406.8875720454198
 30
0.0
 10
292.1570704158003
 20
406.9003295898438
 30
0.0
 10
292.230367953809
 20
406.9130676867917
 30
0.0
 10
292.3068354304487
 20
406.9258057837396
 30
0.0
 10
292.3801135209815
 20
406.9066889145797
 30
0.0
 10
292.4533916115151
 20
406.8557170793119
 30
0.0
 10
292.4820766389921
 20
406.8557170793119
 30
0.0
 10
292.5362378603659
 20
406.9194464590037
 30
0.0
 10
292.6222734953226
 20
407.0436963848042
 30
0.0
 10
292.7083091302802
 20
407.1679657580808
 30
0.0
 10
292.8038934760789
 20
407.2922351313573
 30
0.0
 10
292.9026672079835
 20
407.4165045046338
 30
0.0
 10
293.0014409398882
 20
407.5407738779104
 30
0.0
 10
293.0906465134758
 20
407.6044838101261
 30
0.0
 10
293.1639440514846
 20
407.6044838101261
 30
0.0
 10
293.2372221420183
 20
407.6044838101261
 30
0.0
 10
293.307330293921
 20
407.5726288440183
 30
0.0
 10
293.3678702875068
 20
407.5088994643265
 30
0.0
 10
293.4315802197216
 20
407.4483594707417
 30
0.0
 10
293.4793821163594
 20
407.378270766314
 30
0.0
 10
293.5176158546792
 20
407.3049732283052
 30
0.0
 10
293.5558495929981
 20
407.2285057516656
 30
0.0
 10
293.594083331318
 20
407.1488488889208
 30
0.0
 10
293.6291276835318
 20
407.0628327014401
 30
0.0
 10
293.6673808693276
 20
406.9736076803765
 30
0.0
 10
293.6992358354346
 20
406.9066889145797
 30
0.0
 10
293.7247314768065
 20
406.8557170793119
 30
0.0
 10
293.7725139259683
 20
406.7314477060354
 30
0.0
 10
293.8935939131388
 20
406.6008190080229
 30
0.0
 10
294.0784032800002
 20
406.4638115377984
 30
0.0
 10
294.2632126468625
 20
406.3267846200979
 30
0.0
 10
294.384292634033
 20
406.1961559220854
 30
0.0
 10
294.4320750831948
 20
406.0718865488088
 30
0.0
 10
294.4575707245658
 20
405.9986084582761
 30
0.0
 10
294.5085425598336
 20
405.8106097053078
 30
0.0
 10
294.5818400978433
 20
405.5110991234869
 30
0.0
 10
294.655118188376
 20
405.211588541667
 30
0.0
 10
294.7570813063867
 20
405.0076817531208
 30
0.0
 10
294.8813506796632
 20
404.8961504767922
 30
0.0
 10
295.0056006054638
 20
404.7814492618336
 30
0.0
 10
295.193599358432
 20
404.6890543021409
 30
0.0
 10
295.4421186575091
 20
404.6157567641312
 30
0.0
 10
295.489920554146
 20
404.5902805702362
 30
0.0
 10
295.6046217691055
 20
404.6030186671833
 30
0.0
 10
295.7766930390189
 20
404.6508205638211
 30
0.0
 10
295.9519342475633
 20
404.7017923990888
 30
0.0
 10
296.0953204899997
 20
404.7145304960359
 30
0.0
 10
296.2068323188523
 20
404.6890543021409
 30
0.0
 10
296.3183441477049
 20
404.666748046875
 30
0.0
 10
296.3757142026607
 20
404.5647849288644
 30
0.0
 10
296.3757142026607
 20
404.38954372032
 30
0.0
 10
296.5254597698331
 20
404.5392892874925
 30
0.0
 10
296.5987378603659
 20
404.6412524055031
 30
0.0
 10
296.5987378603659
 20
404.6890543021409
 30
0.0
 10
296.6242335017378
 20
404.3672374650541
 30
0.0
 10
296.7038903644825
 20
404.1027712354471
 30
0.0
 10
296.840897834707
 20
403.9052237716378
 30
0.0
 10
296.9779053049315
 20
403.7076763078276
 30
0.0
 10
297.1977590240067
 20
403.6184512867649
 30
0.0
 10
297.4972696058276
 20
403.6439469281368
 30
0.0
 10
297.4972696058276
 20
403.6439469281368
 30
0.0
 10
297.4208021291888
 20
402.8218826593138
 30
0.0
 10
297.4208021291888
 20
402.8218826593138
 30
0.0
 10
297.3475240386551
 20
402.6976327335133
 30
0.0
 10
297.1595252856878
 20
402.6052183263446
 30
0.0
 10
296.8600147038669
 20
402.5415083941289
 30
0.0
 10
296.560504122046
 20
402.480968400544
 30
0.0
 10
296.3757142026607
 20
402.4235983455883
 30
0.0
 10
296.299227278545
 20
402.3726265103214
 30
0.0
 10
296.2259491880122
 20
402.3503202550555
 30
0.0
 10
296.0443292072559
 20
402.2005746878831
 30
0.0
 10
295.7575761698599
 20
401.9265402999581
 30
0.0
 10
295.4931099402529
 20
401.671642228669
 30
0.0
 10
295.3720299530814
 20
401.5155178892846
 30
0.0
 10
295.3943362083473
 20
401.4517885095938
 30
0.0
 10
294.9673668671439
 20
401.9169915891162
 30
0.0
 10
294.3333013512893
 20
402.0476202871287
 30
0.0
 10
293.4984989855193
 20
401.8500728233184
 30
0.0
 10
292.5521847908958
 20
401.7003272561469
 30
0.0
 10
291.9021723445112
 20
401.5505622414985
 30
0.0
 10
291.5548793135295
 20
401.4008166743261
 30
0.0
 10
291.1565949998039
 20
401.2032692105167
 30
0.0
 10
290.8825606118789
 20
401.0152704575485
 30
0.0
 10
290.7328150447065
 20
400.8432186351101
 30
0.0
 10
290.7073194033346
 20
400.8177229937382
 30
0.0
 10
290.6658962789088
 20
400.7285174201515
 30
0.0
 10
290.602166899218
 20
400.5787524055031
 30
0.0
 10
290.5416269056323
 20
400.4321767769607
 30
0.0
 10
290.4779169734175
 20
400.2919993681062
 30
0.0
 10
290.4173769798317
 20
400.1677299948296
 30
0.0
 10
290.3695750831948
 20
400.075315587661
 30
0.0
 10
290.328151958769
 20
400.0179649801812
 30
0.0
 10
290.2899182204492
 20
399.9956587249162
 30
0.0
 10
290.4301150767797
 20
400.0338924632351
 30
0.0
 10
290.5830500300581
 20
400.1454237395646
 30
0.0
 10
290.7519319138664
 20
400.336592431162
 30
0.0
 10
290.9399112193578
 20
400.5500868255021
 30
0.0
 10
291.0578212678984
 20
400.6679774265667
 30
0.0
 10
291.1087931031661
 20
400.6934536204617
 30
0.0
 10
291.7556161634448
 20
401.1140441894531
 30
0.0
 10
292.2909079473948
 20
401.2638092041016
 30
0.0
 10
292.7146684550162
 20
401.136350444719
 30
0.0
 10
293.2627177833892
 20
400.9866048775466
 30
0.0
 10
293.3519233569768
 20
400.7890574137373
 30
0.0
 10
292.9759452985172
 20
400.5405186671833
 30
0.0
 10
292.9281628493554
 20
400.4895468319164
 30
0.0
 10
292.7975147038669
 20
400.4704299627565
 30
0.0
 10
292.5840397570037
 20
400.4831680597044
 30
0.0
 10
292.3737347487695
 20
400.4959061566524
 30
0.0
 10
292.230367953809
 20
400.4895468319164
 30
0.0
 10
292.1570704158003
 20
400.4640511905445
 30
0.0
 10
292.3801135209815
 20
400.4162492939067
 30
0.0
 10
292.5681122739497
 20
400.34616058948
 30
0.0
 10
292.7178578411222
 20
400.2601249545232
 30
0.0
 10
292.8644334696646
 20
400.1740893195656
 30
0.0
 10
292.9026672079835
 20
400.0530287798711
 30
0.0
 10
292.8293891174508
 20
399.9032637652226
 30
0.0
 10
293.2276734311763
 20
399.6802206600414
 30
0.0
 10
293.3009515217091
 20
399.4317013609643
 30
0.0
 10
293.052412775156
 20
399.1576669730393
 30
0.0
 10
292.7274259994401
 20
398.8326801973235
 30
0.0
 10
292.3450691687685
 20
398.695672727099
 30
0.0
 10
291.8957935722992
 20
398.7466445623659
 30
0.0
 10
291.969091110308
 20
398.7466445623659
 30
0.0
 10
291.969091110308
 20
398.695672727099
 30
0.0
 10
291.8957935722992
 20
398.5968989951934
 30
0.0
 10
291.8957935722992
 20
398.5968989951934
 30
0.0
 10
291.2585386703386
 20
398.185857137044
 30
0.0
 10
291.2585386703386
 20
398.185857137044
 30
0.0
 10
291.2107562211768
 20
398.160380943149
 30
0.0
 10
291.0482531095804
 20
398.0998409495633
 30
0.0
 10
290.7742381691323
 20
397.9978778315526
 30
0.0
 10
290.5002232286834
 20
397.899104099648
 30
0.0
 10
290.3122244757151
 20
397.7875728233184
 30
0.0
 10
290.2134507438104
 20
397.6633228975188
 30
0.0
 10
290.1401726532767
 20
397.5645297181372
 30
0.0
 10
290.1019389149578
 20
397.4147841509648
 30
0.0
 10
290.1019389149578
 20
397.2140473010495
 30
0.0
 10
290.1019389149578
 20
397.0133104511333
 30
0.0
 10
290.0891813705339
 20
396.8635648839618
 30
0.0
 10
290.063685729162
 20
396.7647911520562
 30
0.0
 10
290.0382095352661
 20
396.6660174201515
 30
0.0
 10
289.9394358033614
 20
396.6405217787797
 30
0.0
 10
289.7641945948171
 20
396.6914936140474
 30
0.0
 10
289.6908970568084
 20
396.541748046875
 30
0.0
 10
289.4583052407852
 20
396.4238574458104
 30
0.0
 10
289.0727590240067
 20
396.3378218108537
 30
0.0
 10
288.687232254706
 20
396.2486162372661
 30
0.0
 10
288.4323147359401
 20
396.1179680917776
 30
0.0
 10
288.3080648101395
 20
395.9459162693402
 30
0.0
 10
288.4578103773119
 20
395.7451794194239
 30
0.0
 10
288.445072280364
 20
395.5444425695096
 30
0.0
 10
288.2698310718206
 20
395.3468951056984
 30
0.0
 10
287.9703204899997
 20
395.0983563591453
 30
0.0
 10
287.7090436464987
 20
395.1238520005172
 30
0.0
 10
287.4860005413175
 20
395.4201731962312
 30
0.0
 10
287.36173116804
 20
395.3723907470703
 30
0.0
 10
287.2693362083473
 20
395.2481213737938
 30
0.0
 10
287.2056068286565
 20
395.0473845238776
 30
0.0
 10
287.1450668350708
 20
394.8466476739632
 30
0.0
 10
287.0494824892721
 20
394.7096402037387
 30
0.0
 10
286.9252131159956
 20
394.6363621132041
 30
0.0
 10
287.100454324539
 20
394.3623277252809
 30
0.0
 10
287.074978130644
 20
394.1615908753629
 30
0.0
 10
286.8519350254619
 20
394.0373409495623
 30
0.0
 10
286.8774112193578
 20
394.0373409495623
 30
0.0
 10
286.9315918882075
 20
394.0150346942974
 30
0.0
 10
287.0176080756883
 20
393.9640434115536
 30
0.0
 10
287.106833096751
 20
393.9130715762876
 30
0.0
 10
287.1992280564446
 20
393.8525315827028
 30
0.0
 10
287.2980017883492
 20
393.7760641060631
 30
0.0
 10
287.3999649063599
 20
393.7027665680544
 30
0.0
 10
287.4605048999456
 20
393.6645328297345
 30
0.0
 10
287.4860005413175
 20
393.6645328297345
 30
0.0
 10
287.3872268094119
 20
393.4415091720293
 30
0.0
 10
287.2502193391874
 20
393.3299778956989
 30
0.0
 10
287.074978130644
 20
393.3299778956989
 30
0.0
 10
287.2247236978164
 20
392.9316935819734
 30
0.0
 10
287.0367249448482
 20
392.4951755299298
 30
0.0
 10
286.5141907053221
 20
392.0204237395646
 30
0.0
 10
286.4154169734175
 20
391.9216500076582
 30
0.0
 10
286.259292634033
 20
391.8228762757535
 30
0.0
 10
286.0489876257998
 20
391.7241025438489
 30
0.0
 10
285.8355126789356
 20
391.6221394258391
 30
0.0
 10
285.6411546012323
 20
391.5424825630944
 30
0.0
 10
285.469083331318
 20
391.4787531834027
 30
0.0
 10
285.2938421227736
 20
391.418213189816
 30
0.0
 10
285.195068390869
 20
391.373600679286
 30
0.0
 10
285.1695727494971
 20
391.3481244853901
 30
0.0
 10
284.92105345042
 20
391.1250813802071
 30
0.0
 10
284.7330546974526
 20
390.8956595028139
 30
0.0
 10
284.6087853241752
 20
390.6566889145797
 30
0.0
 10
284.4845353983756
 20
390.4209077124506
 30
0.0
 10
284.4654185292156
 20
390.1915052825334
 30
0.0
 10
284.5514347166963
 20
389.9652727912453
 30
0.0
 10
284.6406597377591
 20
389.7422296860641
 30
0.0
 10
284.8700621676762
 20
389.5924841188917
 30
0.0
 10
285.2428702875068
 20
389.5191865808829
 30
0.0
 10
285.2428702875068
 20
389.5191865808829
 30
0.0
 10
285.2811040258257
 20
389.219695446538
 30
0.0
 10
285.2811040258257
 20
389.219695446538
 30
0.0
 10
285.2811040258257
 20
389.219695446538
 30
0.0
 10
285.2811040258257
 20
388.5473767448875
 30
0.0
 10
285.2811040258257
 20
388.5473767448875
 30
0.0
 10
285.2811040258257
 20
388.5473767448875
 30
0.0
 10
285.3193377641455
 20
388.2478661630666
 30
0.0
 10
285.3193377641455
 20
388.2478661630666
 30
0.0
 10
285.3448139580414
 20
388.0726249545223
 30
0.0
 10
285.3607608885713
 20
387.9165006151379
 30
0.0
 10
285.3734989855193
 20
387.7794931449134
 30
0.0
 10
285.3862370824663
 20
387.6424856746889
 30
0.0
 10
285.3862370824663
 20
387.4704144047755
 30
0.0
 10
285.3734989855193
 20
387.2569394579114
 30
0.0
 10
285.3607608885713
 20
387.0466538971541
 30
0.0
 10
285.3065802197216
 20
386.9287632960895
 30
0.0
 10
285.2078064878169
 20
386.9032676547176
 30
0.0
 10
285.1090327559123
 20
386.8777720133457
 30
0.0
 10
284.9720252856878
 20
386.9032676547176
 30
0.0
 10
284.7967840771435
 20
386.9765457452504
 30
0.0
 10
284.5960472272282
 20
387.078508863262
 30
0.0
 10
284.3602660250981
 20
387.6265581916359
 30
0.0
 10
284.08625108465
 20
388.6206742828963
 30
0.0
 10
284.0352598019062
 20
388.8691935819734
 30
0.0
 10
283.8855142347338
 20
389.1687041637942
 30
0.0
 10
283.6369754881807
 20
389.5191865808829
 30
0.0
 10
283.5127061149042
 20
389.3949366550823
 30
0.0
 10
283.4075730582636
 20
389.3120904062307
 30
0.0
 10
283.3183480371999
 20
389.2770460540178
 30
0.0
 10
283.2323318497192
 20
389.2388123156979
 30
0.0
 10
283.1686024700284
 20
389.232433543486
 30
0.0
 10
283.1335386703386
 20
389.2579291848579
 30
0.0
 10
283.0953049320187
 20
389.2802159926468
 30
0.0
 10
283.0284056136979
 20
389.3375860476026
 30
0.0
 10
282.9264424956864
 20
389.4236022350833
 30
0.0
 10
282.8276687637817
 20
389.5128272561469
 30
0.0
 10
282.741633128825
 20
389.5797265744677
 30
0.0
 10
282.6651656521854
 20
389.6307178572115
 30
0.0
 10
282.5408962789088
 20
389.7039959477443
 30
0.0
 10
282.3242319459396
 20
389.767725327436
 30
0.0
 10
282.0119832671708
 20
389.8155272240729
 30
0.0
 10
281.7029045270328
 20
389.8664990593406
 30
0.0
 10
281.5085464493286
 20
389.9270390529255
 30
0.0
 10
281.4320789726899
 20
390.0035065295651
 30
0.0
 10
280.8362471951541
 20
389.5542503805718
 30
0.0
 10
280.4730072336424
 20
389.6657622094244
 30
0.0
 10
280.3487378603659
 20
390.3380614635989
 30
0.0
 10
280.3009554112041
 20
390.2138115377984
 30
0.0
 10
280.3073147359401
 20
390.04492965399
 30
0.0
 10
280.3678547295258
 20
389.8346440932328
 30
0.0
 10
280.4315841092166
 20
389.6211496988926
 30
0.0
 10
280.4602691366945
 20
389.503259097828
 30
0.0
 10
280.4602691366945
 20
389.477782903934
 30
0.0
 10
280.2881978667801
 20
389.1559660668463
 30
0.0
 10
280.0141829263321
 20
389.1304704254744
 30
0.0
 10
279.6413942539775
 20
389.4044853659234
 30
0.0
 10
279.4916292393291
 20
389.5542503805718
 30
0.0
 10
279.1475255944533
 20
389.5733672497317
 30
0.0
 10
278.6122338105033
 20
389.4618359734031
 30
0.0
 10
278.0992288343432
 20
389.3567029167625
 30
0.0
 10
277.7551251894674
 20
389.3343966614975
 30
0.0
 10
277.5735052087111
 20
389.3949366550823
 30
0.0
 10
277.602170788713
 20
389.3821791106584
 30
0.0
 10
277.6435939131388
 20
389.3471347584436
 30
0.0
 10
277.6977551345117
 20
389.2929735370708
 30
0.0
 10
277.7710526725214
 20
389.2451716404339
 30
0.0
 10
277.8220245077882
 20
389.2069379021141
 30
0.0
 10
277.8475201491601
 20
389.1814422607422
 30
0.0
 10
277.8220245077882
 20
389.0826685288375
 30
0.0
 10
277.7837907694693
 20
389.0062010521979
 30
0.0
 10
277.7328189342015
 20
388.958418603037
 30
0.0
 10
277.6850170375637
 20
388.9074273202932
 30
0.0
 10
277.6340452022969
 20
388.8883104511333
 30
0.0
 10
277.5862433056591
 20
388.9010679955572
 30
0.0
 10
277.5352714703922
 20
388.9138060925052
 30
0.0
 10
277.4779014154365
 20
388.9138060925052
 30
0.0
 10
277.4173808693276
 20
388.9010679955572
 30
0.0
 10
277.3536514896359
 20
388.8883104511333
 30
0.0
 10
277.2994708207862
 20
388.8691935819734
 30
0.0
 10
277.2484989855193
 20
388.8436979406015
 30
0.0
 10
277.1497252536137
 20
388.7704198500687
 30
0.0
 10
277.0254558803372
 20
388.6397911520562
 30
0.0
 10
276.8757103131657
 20
388.4549817851948
 30
0.0
 10
276.7259452985172
 20
388.2669830322266
 30
0.0
 10
276.6144334696646
 20
388.149092431162
 30
0.0
 10
276.537965993025
 20
388.0981205958942
 30
0.0
 10
276.6877115601974
 20
387.6998362821687
 30
0.0
 10
276.7578197121011
 20
387.3939469281358
 30
0.0
 10
276.7450621676762
 20
387.1836613673786
 30
0.0
 10
276.7323240707292
 20
386.9701669730384
 30
0.0
 10
276.6940903324094
 20
386.6611076803765
 30
0.0
 10
276.6303609527176
 20
386.250085269703
 30
0.0
 10
276.5698209591328
 20
385.8390434115536
 30
0.0
 10
276.537965993025
 20
385.5076778636267
 30
0.0
 10
276.537965993025
 20
385.2591391170718
 30
0.0
 10
276.537965993025
 20
384.860854803348
 30
0.0
 10
276.6558565940895
 20
384.3988605574068
 30
0.0
 10
276.8916377962187
 20
383.8763068704047
 30
0.0
 10
277.1306083844547
 20
383.3537531834027
 30
0.0
 10
277.4110020971148
 20
382.993702607997
 30
0.0
 10
277.7328189342015
 20
382.7929657580808
 30
0.0
 10
277.9080601427459
 20
382.6941920261761
 30
0.0
 10
278.2075707245658
 20
382.6336520325913
 30
0.0
 10
278.6313506796632
 20
382.6081758386954
 30
0.0
 10
279.0551111872846
 20
382.5826801973235
 30
0.0
 10
279.3546217691055
 20
382.6081758386954
 30
0.0
 10
279.5266930390189
 20
382.6814539292282
 30
0.0
 10
279.6764386061914
 20
382.7547320197609
 30
0.0
 10
279.787950435044
 20
382.8439570408245
 30
0.0
 10
279.8644373591596
 20
382.9427307727292
 30
0.0
 10
279.9377154496924
 20
383.0415045046338
 30
0.0
 10
280.0014448293841
 20
383.1880606856994
 30
0.0
 10
280.049227278545
 20
383.3728700525626
 30
0.0
 10
280.1002185612888
 20
383.5576794194239
 30
0.0
 10
280.1384522996086
 20
383.6883081174365
 30
0.0
 10
280.1639479409805
 20
383.7647755940761
 30
0.0
 10
280.3359997634179
 20
384.2395468319155
 30
0.0
 10
280.6610059866107
 20
384.4880661309926
 30
0.0
 10
281.132568390869
 20
384.5135617723645
 30
0.0
 10
281.4320789726899
 20
384.5358680276313
 30
0.0
 10
281.6487433056591
 20
384.5039936140474
 30
0.0
 10
281.7889401619896
 20
384.4179774265667
 30
0.0
 10
281.925947632214
 20
384.33194179161
 30
0.0
 10
281.9801088535869
 20
384.2140511905454
 30
0.0
 10
281.9546326596919
 20
384.064286175897
 30
0.0
 10
281.92913701832
 20
383.9145406087246
 30
0.0
 10
281.8813351216822
 20
383.7584162693402
 30
0.0
 10
281.8048676450435
 20
383.5959131577438
 30
0.0
 10
281.7315895545107
 20
383.4334100461474
 30
0.0
 10
281.6391945948171
 20
383.254979451498
 30
0.0
 10
281.5244739323825
 20
383.0542426015818
 30
0.0
 10
281.4129621035299
 20
382.8535057516656
 30
0.0
 10
281.3460433377322
 20
382.7069495706
 30
0.0
 10
281.3205671438373
 20
382.6049864525885
 30
0.0
 10
281.2727652471995
 20
382.4074389887792
 30
0.0
 10
281.2281527366677
 20
382.1270452761182
 30
0.0
 10
281.1899189983487
 20
381.7638053146056
 30
0.0
 10
281.1516852600289
 20
381.4037547391999
 30
0.0
 10
281.123000232551
 20
381.1870904062307
 30
0.0
 10
281.0975240386551
 20
381.110622929591
 30
0.0
 10
281.1453064878169
 20
381.0851272882192
 30
0.0
 10
281.3333052407852
 20
381.072389191273
 30
0.0
 10
281.658311463977
 20
381.072389191273
 30
0.0
 10
281.658311463977
 20
381.123361026539
 30
0.0
 10
281.674238947031
 20
381.2030178892855
 30
0.0
 10
281.7124726853508
 20
381.3177191042432
 30
0.0
 10
281.7507064236697
 20
381.4292503805718
 30
0.0
 10
281.7698232928296
 20
381.4961496988926
 30
0.0
 10
281.7698232928296
 20
381.5216453402645
 30
0.0
 10
281.8940926661062
 20
381.3209084903501
 30
0.0
 10
282.0916401299164
 20
381.2093966614975
 30
0.0
 10
282.3656550703654
 20
381.1870904062307
 30
0.0
 10
282.6396700108135
 20
381.1615947648588
 30
0.0
 10
282.8404068607297
 20
381.2603684967635
 30
0.0
 10
282.9646762340062
 20
381.4834116019447
 30
0.0
 10
283.015648069274
 20
381.4101335114119
 30
0.0
 10
283.1654130839224
 20
381.2221347584436
 30
0.0
 10
283.4139323829995
 20
380.9226241766246
 30
0.0
 10
283.6624711295526
 20
380.6263029809088
 30
0.0
 10
283.7994785997771
 20
380.3745942957266
 30
0.0
 10
283.824974241149
 20
380.1770468319155
 30
0.0
 10
283.850450435044
 20
380.0750837139058
 30
0.0
 10
283.8982523316818
 20
379.9157699884145
 30
0.0
 10
283.9747198083205
 20
379.6895374971282
 30
0.0
 10
284.0480173463302
 20
379.466494391947
 30
0.0
 10
284.0734935402261
 20
379.3103700525626
 30
0.0
 10
284.0480173463302
 20
379.221164478975
 30
0.0
 10
284.0225217049583
 20
379.1351288440183
 30
0.0
 10
283.8982523316818
 20
379.0905163334864
 30
0.0
 10
283.6752092265006
 20
379.0905163334864
 30
0.0
 10
283.576435494595
 20
379.0905163334864
 30
0.0
 10
283.5127061149042
 20
379.0554719812735
 30
0.0
 10
283.4904193071143
 20
378.9790045046338
 30
0.0
 10
283.4649236657424
 20
378.9057069666251
 30
0.0
 10
283.4649236657424
 20
378.8133120069324
 30
0.0
 10
283.4904193071143
 20
378.7018001780798
 30
0.0
 10
283.5158955010102
 20
378.5870795156443
 30
0.0
 10
283.544580528488
 20
378.4819464590037
 30
0.0
 10
283.582814266807
 20
378.383172727099
 30
0.0
 10
283.6210480051268
 20
378.2843989951944
 30
0.0
 10
283.6688499017646
 20
378.1760571049708
 30
0.0
 10
283.7325598339794
 20
378.0645452761182
 30
0.0
 10
283.7962892136711
 20
377.9530139997896
 30
0.0
 10
283.824974241149
 20
377.8861146814688
 30
0.0
 10
283.824974241149
 20
377.8606190400969
 30
0.0
 10
284.2742303901414
 20
377.038554771274
 30
0.0
 10
284.8828197121011
 20
376.8155116660928
 30
0.0
 10
285.6570820842862
 20
377.1883197859224
 30
0.0
 10
285.6570820842862
 20
376.4650292490041
 30
0.0
 10
285.4818408757419
 20
376.0667449352786
 30
0.0
 10
285.1313390111773
 20
375.9934668447459
 30
0.0
 10
284.9337915473679
 20
375.9424755620021
 30
0.0
 10
284.7107484421867
 20
376.0699343213855
 30
0.0
 10
284.4622291431097
 20
376.3662555170995
 30
0.0
  0
SPLINE
  5
47
330
41
100
AcDbEntity
  8
Ebene 1
370
     0
100
AcDbSpline
210
0.0
220
0.0
230
1.0
 70
    11
 71
     3
 72
   140
 73
   136
 74
     0
 42
0.0000000001
 43
0.0000000001
 12
1.0
 22
0.0
 32
0.0
 13
1.0
 23
0.0
 33
0.0
 40
0.0
 40
0.0
 40
0.0
 40
0.0
 40
1.0
 40
1.0
 40
1.0
 40
2.0
 40
2.0
 40
2.0
 40
3.0
 40
3.0
 40
3.0
 40
4.0
 40
4.0
 40
4.0
 40
5.0
 40
5.0
 40
5.0
 40
6.0
 40
6.0
 40
6.0
 40
7.0
 40
7.0
 40
7.0
 40
8.0
 40
8.0
 40
8.0
 40
9.0
 40
9.0
 40
9.0
 40
10.0
 40
10.0
 40
10.0
 40
11.0
 40
11.0
 40
11.0
 40
12.0
 40
12.0
 40
12.0
 40
13.0
 40
13.0
 40
13.0
 40
14.0
 40
14.0
 40
14.0
 40
15.0
 40
15.0
 40
15.0
 40
16.0
 40
16.0
 40
16.0
 40
17.0
 40
17.0
 40
17.0
 40
18.0
 40
18.0
 40
18.0
 40
19.0
 40
19.0
 40
19.0
 40
20.0
 40
20.0
 40
20.0
 40
21.0
 40
21.0
 40
21.0
 40
22.0
 40
22.0
 40
22.0
 40
23.0
 40
23.0
 40
23.0
 40
24.0
 40
24.0
 40
24.0
 40
25.0
 40
25.0
 40
25.0
 40
26.0
 40
26.0
 40
26.0
 40
27.0
 40
27.0
 40
27.0
 40
28.0
 40
28.0
 40
28.0
 40
29.0
 40
29.0
 40
29.0
 40
30.0
 40
30.0
 40
30.0
 40
31.0
 40
31.0
 40
31.0
 40
32.0
 40
32.0
 40
32.0
 40
33.0
 40
33.0
 40
33.0
 40
34.0
 40
34.0
 40
34.0
 40
35.0
 40
35.0
 40
35.0
 40
36.0
 40
36.0
 40
36.0
 40
37.0
 40
37.0
 40
37.0
 40
38.0
 40
38.0
 40
38.0
 40
39.0
 40
39.0
 40
39.0
 40
40.0
 40
40.0
 40
40.0
 40
41.0
 40
41.0
 40
41.0
 40
42.0
 40
42.0
 40
42.0
 40
43.0
 40
43.0
 40
43.0
 40
44.0
 40
44.0
 40
44.0
 40
45.0
 40
45.0
 40
45.0
 40
45.0
 10
285.0198271823247
 20
367.9258174522256
 30
0.0
 10
284.9720252856878
 20
368.1743367513027
 30
0.0
 10
284.9465296443159
 20
368.3750736012171
 30
0.0
 10
284.9497190304219
 20
368.5248386158655
 30
0.0
 10
284.924242836526
 20
368.7223860796767
 30
0.0
 10
285.0102590240067
 20
368.9900222479137
 30
0.0
 10
285.2078064878169
 20
369.3277665680525
 30
0.0
 10
285.4085433377322
 20
369.6623409495642
 30
0.0
 10
285.5073170696378
 20
369.9172390208532
 30
0.0
 10
285.5073170696378
 20
370.0924802293957
 30
0.0
 10
285.1090327559123
 20
370.1912539613022
 30
0.0
 10
284.9592871887398
 20
370.5162601844931
 30
0.0
 10
285.0580609206445
 20
371.0642900653911
 30
0.0
 10
285.1090327559123
 20
371.4370787377447
 30
0.0
 10
285.469083331318
 20
371.9373261694818
 30
0.0
 10
286.1413825854925
 20
372.5586535883886
 30
0.0
 10
286.6161538233328
 20
372.982433543486
 30
0.0
 10
286.7658993905052
 20
373.5814547071277
 30
0.0
 10
286.5906581819609
 20
374.3525276932069
 30
0.0
 10
286.5173800914281
 20
374.6743445302927
 30
0.0
 10
286.4536507117373
 20
375.1490963206579
 30
0.0
 10
286.4026594289935
 20
375.7704237395646
 30
0.0
 10
286.3580663659377
 20
376.3726342893115
 30
0.0
 10
286.3070750831948
 20
376.799584183038
 30
0.0
 10
286.259292634033
 20
377.0513123156979
 30
0.0
 10
286.2847688279289
 20
376.9907723221131
 30
0.0
 10
286.4026594289935
 20
376.9270429424214
 30
0.0
 10
286.6097750511208
 20
376.8728817210485
 30
0.0
 10
286.8455562532499
 20
376.8123417274619
 30
0.0
 10
286.9889424956864
 20
376.7326848647172
 30
0.0
 10
287.0399143309542
 20
376.6339111328125
 30
0.0
 10
287.087716227592
 20
376.7071892233453
 30
0.0
 10
287.1514456072828
 20
376.8441966935698
 30
0.0
 10
287.2247236978164
 20
377.0417441573791
 30
0.0
 10
287.3011911744552
 20
377.2424810072953
 30
0.0
 10
287.3744887124649
 20
377.3922265744677
 30
0.0
 10
287.4477668029976
 20
377.4910003063724
 30
0.0
 10
287.4987386382645
 20
377.567487230488
 30
0.0
 10
287.6038911423821
 20
377.6598821901807
 30
0.0
 10
287.7663942539775
 20
377.7713940190333
 30
0.0
 10
287.9288973655739
 20
377.8829252953619
 30
0.0
 10
288.0340304222145
 20
377.9530139997896
 30
0.0
 10
288.0850217049583
 20
377.9785096411615
 30
0.0
 10
288.1328041541201
 20
378.0008158964265
 30
0.0
 10
288.2475248165547
 20
378.0836621452781
 30
0.0
 10
288.4195766389921
 20
378.2206696155026
 30
0.0
 10
288.5948178475364
 20
378.3576770857271
 30
0.0
 10
288.7382040899729
 20
378.4628295898438
 30
0.0
 10
288.8497159188255
 20
378.5361076803765
 30
0.0
 10
288.9644365812601
 20
378.6125751570162
 30
0.0
 10
289.1109927623265
 20
378.666736378389
 30
0.0
 10
289.2989915152948
 20
378.7049895641849
 30
0.0
 10
289.4869708207862
 20
378.7432233025047
 30
0.0
 10
289.6176189662747
 20
378.6858532475489
 30
0.0
 10
289.6908970568084
 20
378.5361076803765
 30
0.0
 10
289.8151664300849
 20
378.3863621132041
 30
0.0
 10
289.789670788713
 20
378.1569402358109
 30
0.0
 10
289.6176189662747
 20
377.8446915570421
 30
0.0
 10
289.4423777577313
 20
377.5324234307973
 30
0.0
 10
289.4423777577313
 20
377.315759097828
 30
0.0
 10
289.6176189662747
 20
377.1915091720275
 30
0.0
 10
289.6431146076466
 20
377.2647872625621
 30
0.0
 10
289.6654014154365
 20
377.4272903741567
 30
0.0
 10
289.6908970568084
 20
377.6758096732337
 30
0.0
 10
289.7163926981802
 20
377.9275378058937
 30
0.0
 10
289.789670788713
 20
378.1123277252791
 30
0.0
 10
289.9139401619896
 20
378.2397864846625
 30
0.0
 10
290.063685729162
 20
378.3863621132041
 30
0.0
 10
290.2070719715985
 20
378.4755676867917
 30
0.0
 10
290.3440794418229
 20
378.4978739420567
 30
0.0
 10
290.4811063595234
 20
378.5265395220595
 30
0.0
 10
290.605356285324
 20
378.5074226528995
 30
0.0
 10
290.7168875616526
 20
378.4437127206838
 30
0.0
 10
290.8315887766112
 20
378.3799833409921
 30
0.0
 10
290.9622174746237
 20
378.2939477060354
 30
0.0
 10
291.1087931031661
 20
378.1824358771828
 30
0.0
 10
291.2585386703386
 20
378.0709046008542
 30
0.0
 10
291.3955655880391
 20
378.0008158964265
 30
0.0
 10
291.5198155138396
 20
377.9785096411615
 30
0.0
 10
291.8926236336692
 20
377.8510508817781
 30
0.0
 10
292.3418797826616
 20
377.5770359413291
 30
0.0
 10
292.8644334696646
 20
377.1564453723386
 30
0.0
 10
292.8421272143987
 20
377.1787516276036
 30
0.0
 10
292.8421272143987
 20
377.2106260411874
 30
0.0
 10
292.8644334696646
 20
377.2488597795073
 30
0.0
 10
292.8899291110356
 20
377.2870935178271
 30
0.0
 10
292.9409009463034
 20
377.32213787004
 30
0.0
 10
293.0141790368361
 20
377.3603716083599
 30
0.0
 10
293.0906465134758
 20
377.3986053466797
 30
0.0
 10
293.1575652792726
 20
377.4336496988926
 30
0.0
 10
293.2212946589643
 20
377.4718834372125
 30
0.0
 10
293.2818346525492
 20
377.5101366230083
 30
0.0
 10
293.3519233569768
 20
377.5388022030093
 30
0.0
 10
293.4252208949856
 20
377.5642978443811
 30
0.0
 10
293.4252208949856
 20
377.5642978443811
 30
0.0
 10
293.5367327238382
 20
377.602531582701
 30
0.0
 10
293.5367327238382
 20
377.602531582701
 30
0.0
 10
293.7119739323825
 20
377.602531582701
 30
0.0
 10
293.8362433056591
 20
377.6152696796489
 30
0.0
 10
293.9095213961918
 20
377.6407653210208
 30
0.0
 10
293.9860083203075
 20
377.6662609623927
 30
0.0
 10
294.0911413769481
 20
377.6407653210208
 30
0.0
 10
294.2281488471726
 20
377.5642978443811
 30
0.0
 10
294.3651563173971
 20
377.4910003063724
 30
0.0
 10
294.4575707245658
 20
377.4336496988926
 30
0.0
 10
294.5085425598336
 20
377.3986053466797
 30
0.0
 10
294.5563444564714
 20
377.3603716083599
 30
0.0
 10
294.6455500300581
 20
377.2934528425631
 30
0.0
 10
294.7698194033346
 20
377.1915091720275
 30
0.0
 10
294.8940887766112
 20
377.0927159926468
 30
0.0
 10
294.9801244115679
 20
377.0162485160072
 30
0.0
 10
295.0310962468357
 20
376.9684660668463
 30
0.0
 10
295.1043743373684
 20
376.9206641702094
 30
0.0
 10
295.2413818075929
 20
376.8314585966218
 30
0.0
 10
295.4421186575091
 20
376.7071892233453
 30
0.0
 10
295.6396661213184
 20
376.5829198500687
 30
0.0
 10
295.7958099081789
 20
376.4841461181641
 30
0.0
 10
295.9073217370315
 20
376.4076786415244
 30
0.0
 10
296.02202295199
 20
376.3344005509916
 30
0.0
 10
296.1207966838956
 20
376.222869274663
 30
0.0
 10
296.2068323188523
 20
376.0731237074906
 30
0.0
 10
296.292867953809
 20
375.9233586928422
 30
0.0
 10
296.3247229199169
 20
375.7608555812458
 30
0.0
 10
296.299227278545
 20
375.5856143727015
 30
0.0
 10
296.4489922931934
 20
375.5601187313296
 30
0.0
 10
296.7485028750143
 20
375.4613449994249
 30
0.0
 10
297.1977590240067
 20
375.2892931769875
 30
0.0
 10
297.2710565620164
 20
375.2383213417197
 30
0.0
 10
297.4271809014008
 20
375.1937088311879
 30
0.0
 10
297.6661514896359
 20
375.158664478975
 30
0.0
 10
297.9019326917651
 20
375.1204307406551
 30
0.0
 10
298.0580570311495
 20
375.0630606856994
 30
0.0
 10
298.1313351216822
 20
374.9897825951666
 30
0.0
 10
294.5244700428875
 20
371.1758213417197
 30
0.0
 10
290.1497213641187
 20
368.8243491976864
 30
0.0
 10
285.0198271823247
 20
367.9258174522256
 30
0.0
  0
HATCH
  5
48
330
41
100
AcDbEntity
  8
Ebene 1
 62
   252
420
  7835547
100
AcDbHatch
 10
0.0
 20
0.0
 30
0.0
210
0.0
220
0.0
230
1.0
  2
SOLID
 70
     1
 71
     0
 91
        3
 92
        1
 93
        1
 72
     4
 94
        3
 73
     0
 74
     1
 95
       47
 96
       43
 40
0.0
 40
0.0
 40
0.0
 40
0.0
 40
1.0
 40
1.0
 40
1.0
 40
2.0
 40
2.0
 40
2.0
 40
3.0
 40
3.0
 40
3.0
 40
4.0
 40
4.0
 40
4.0
 40
5.0
 40
5.0
 40
5.0
 40
6.0
 40
6.0
 40
6.0
 40
7.0
 40
7.0
 40
7.0
 40
8.0
 40
8.0
 40
8.0
 40
9.0
 40
9.0
 40
9.0
 40
10.0
 40
10.0
 40
10.0
 40
11.0
 40
11.0
 40
11.0
 40
12.0
 40
12.0
 40
12.0
 40
13.0
 40
13.0
 40
13.0
 40
14.0
 40
14.0
 40
14.0
 40
14.0
 10
309.318359705685
 20
395.3437057195915
 10
308.8340397570028
 20
399.0780101102937
 10
307.6328080436142
 20
402.5829120710787
 10
305.7178539516262
 20
405.8647903741576
 10
303.1529068607306
 20
410.2618453081914
 10
299.6735005413175
 20
413.7412516276045
 10
295.2764456072828
 20
416.309388104607
 10
290.879390673249
 20
418.8743351955036
 10
286.0808425919067
 20
420.1552237716378
 10
280.8744809334739
 20
420.1552237716378
 10
275.6680998275651
 20
420.1552237716378
 10
270.8663818075929
 20
418.8743351955036
 10
266.4725162596651
 20
416.309388104607
 10
262.0754613256304
 20
413.7412516276045
 10
258.5960550062182
 20
410.2618453081914
 10
256.0279185292156
 20
405.8647903741576
 10
253.4629519908422
 20
401.4709053787528
 10
252.1820828621849
 20
396.6691873587815
 10
252.1820828621849
 20
391.4628257003496
 10
252.1820828621849
 20
386.2596339805459
 10
253.4629519908422
 20
381.4579159605746
 10
256.0279185292156
 20
377.060861026539
 10
258.5928656201122
 20
372.6669954786121
 10
262.0754613256304
 20
369.1843997730921
 10
266.4693268735591
 20
366.6194332347204
 10
270.8663818075929
 20
364.0544861438229
 10
275.6680998275651
 20
362.7704276290588
 10
280.8744809334739
 20
362.7704276290588
 10
286.0776726532767
 20
362.7704276290588
 10
290.879390673249
 20
364.0544861438229
 10
295.2764456072828
 20
366.6194332347204
 10
298.994822514931
 20
368.7892853979974
 10
302.0568276514568
 20
371.6123393937651
 10
304.4624610168648
 20
375.0885563270713
 10
304.9053578411222
 20
375.7226218429259
 10
305.3227590240058
 20
376.3821830001525
 10
305.7178539516262
 20
377.060861026539
 10
308.2828204899997
 20
381.4579159605746
 10
309.5668790047639
 20
386.2596339805459
 10
309.5668790047639
 20
391.4628257003496
 10
309.5668790047639
 20
392.7819480148028
 10
309.4840327559123
 20
394.0755746878822
 10
309.318359705685
 20
395.3437057195915
 97
        0
 97
        0
 92
        1
 93
        1
 72
     4
 94
        3
 73
     0
 74
     1
 95
      926
 96
      922
 40
0.0
 40
0.0
 40
0.0
 40
0.0
 40
1.0
 40
1.0
 40
1.0
 40
2.0
 40
2.0
 40
2.0
 40
3.0
 40
3.0
 40
3.0
 40
4.0
 40
4.0
 40
4.0
 40
5.0
 40
5.0
 40
5.0
 40
6.0
 40
6.0
 40
6.0
 40
7.0
 40
7.0
 40
7.0
 40
8.0
 40
8.0
 40
8.0
 40
9.0
 40
9.0
 40
9.0
 40
10.0
 40
10.0
 40
10.0
 40
11.0
 40
11.0
 40
11.0
 40
12.0
 40
12.0
 40
12.0
 40
13.0
 40
13.0
 40
13.0
 40
14.0
 40
14.0
 40
14.0
 40
15.0
 40
15.0
 40
15.0
 40
16.0
 40
16.0
 40
16.0
 40
17.0
 40
17.0
 40
17.0
 40
18.0
 40
18.0
 40
18.0
 40
19.0
 40
19.0
 40
19.0
 40
20.0
 40
20.0
 40
20.0
 40
21.0
 40
21.0
 40
21.0
 40
22.0
 40
22.0
 40
22.0
 40
23.0
 40
23.0
 40
23.0
 40
24.0
 40
24.0
 40
24.0
 40
25.0
 40
25.0
 40
25.0
 40
26.0
 40
26.0
 40
26.0
 40
27.0
 40
27.0
 40
27.0
 40
28.0
 40
28.0
 40
28.0
 40
29.0
 40
29.0
 40
29.0
 40
30.0
 40
30.0
 40
30.0
 40
31.0
 40
31.0
 40
31.0
 40
32.0
 40
32.0
 40
32.0
 40
33.0
 40
33.0
 40
33.0
 40
34.0
 40
34.0
 40
34.0
 40
35.0
 40
35.0
 40
35.0
 40
36.0
 40
36.0
 40
36.0
 40
37.0
 40
37.0
 40
37.0
 40
38.0
 40
38.0
 40
38.0
 40
39.0
 40
39.0
 40
39.0
 40
40.0
 40
40.0
 40
40.0
 40
41.0
 40
41.0
 40
41.0
 40
42.0
 40
42.0
 40
42.0
 40
43.0
 40
43.0
 40
43.0
 40
44.0
 40
44.0
 40
44.0
 40
45.0
 40
45.0
 40
45.0
 40
46.0
 40
46.0
 40
46.0
 40
47.0
 40
47.0
 40
47.0
 40
48.0
 40
48.0
 40
48.0
 40
49.0
 40
49.0
 40
49.0
 40
50.0
 40
50.0
 40
50.0
 40
51.0
 40
51.0
 40
51.0
 40
52.0
 40
52.0
 40
52.0
 40
53.0
 40
53.0
 40
53.0
 40
54.0
 40
54.0
 40
54.0
 40
55.0
 40
55.0
 40
55.0
 40
56.0
 40
56.0
 40
56.0
 40
57.0
 40
57.0
 40
57.0
 40
58.0
 40
58.0
 40
58.0
 40
59.0
 40
59.0
 40
59.0
 40
60.0
 40
60.0
 40
60.0
 40
61.0
 40
61.0
 40
61.0
 40
62.0
 40
62.0
 40
62.0
 40
63.0
 40
63.0
 40
63.0
 40
64.0
 40
64.0
 40
64.0
 40
65.0
 40
65.0
 40
65.0
 40
66.0
 40
66.0
 40
66.0
 40
67.0
 40
67.0
 40
67.0
 40
68.0
 40
68.0
 40
68.0
 40
69.0
 40
69.0
 40
69.0
 40
70.0
 40
70.0
 40
70.0
 40
71.0
 40
71.0
 40
71.0
 40
72.0
 40
72.0
 40
72.0
 40
73.0
 40
73.0
 40
73.0
 40
74.0
 40
74.0
 40
74.0
 40
75.0
 40
75.0
 40
75.0
 40
76.0
 40
76.0
 40
76.0
 40
77.0
 40
77.0
 40
77.0
 40
78.0
 40
78.0
 40
78.0
 40
79.0
 40
79.0
 40
79.0
 40
80.0
 40
80.0
 40
80.0
 40
81.0
 40
81.0
 40
81.0
 40
82.0
 40
82.0
 40
82.0
 40
83.0
 40
83.0
 40
83.0
 40
84.0
 40
84.0
 40
84.0
 40
85.0
 40
85.0
 40
85.0
 40
86.0
 40
86.0
 40
86.0
 40
87.0
 40
87.0
 40
87.0
 40
88.0
 40
88.0
 40
88.0
 40
89.0
 40
89.0
 40
89.0
 40
90.0
 40
90.0
 40
90.0
 40
91.0
 40
91.0
 40
91.0
 40
92.0
 40
92.0
 40
92.0
 40
93.0
 40
93.0
 40
93.0
 40
94.0
 40
94.0
 40
94.0
 40
95.0
 40
95.0
 40
95.0
 40
96.0
 40
96.0
 40
96.0
 40
97.0
 40
97.0
 40
97.0
 40
98.0
 40
98.0
 40
98.0
 40
99.0
 40
99.0
 40
99.0
 40
100.0
 40
100.0
 40
100.0
 40
101.0
 40
101.0
 40
101.0
 40
102.0
 40
102.0
 40
102.0
 40
103.0
 40
103.0
 40
103.0
 40
104.0
 40
104.0
 40
104.0
 40
105.0
 40
105.0
 40
105.0
 40
106.0
 40
106.0
 40
106.0
 40
107.0
 40
107.0
 40
107.0
 40
108.0
 40
108.0
 40
108.0
 40
109.0
 40
109.0
 40
109.0
 40
110.0
 40
110.0
 40
110.0
 40
111.0
 40
111.0
 40
111.0
 40
112.0
 40
112.0
 40
112.0
 40
113.0
 40
113.0
 40
113.0
 40
114.0
 40
114.0
 40
114.0
 40
115.0
 40
115.0
 40
115.0
 40
116.0
 40
116.0
 40
116.0
 40
117.0
 40
117.0
 40
117.0
 40
118.0
 40
118.0
 40
118.0
 40
119.0
 40
119.0
 40
119.0
 40
120.0
 40
120.0
 40
120.0
 40
121.0
 40
121.0
 40
121.0
 40
122.0
 40
122.0
 40
122.0
 40
123.0
 40
123.0
 40
123.0
 40
124.0
 40
124.0
 40
124.0
 40
125.0
 40
125.0
 40
125.0
 40
126.0
 40
126.0
 40
126.0
 40
127.0
 40
127.0
 40
127.0
 40
128.0
 40
128.0
 40
128.0
 40
129.0
 40
129.0
 40
129.0
 40
130.0
 40
130.0
 40
130.0
 40
131.0
 40
131.0
 40
131.0
 40
132.0
 40
132.0
 40
132.0
 40
133.0
 40
133.0
 40
133.0
 40
134.0
 40
134.0
 40
134.0
 40
135.0
 40
135.0
 40
135.0
 40
136.0
 40
136.0
 40
136.0
 40
137.0
 40
137.0
 40
137.0
 40
138.0
 40
138.0
 40
138.0
 40
139.0
 40
139.0
 40
139.0
 40
140.0
 40
140.0
 40
140.0
 40
141.0
 40
141.0
 40
141.0
 40
142.0
 40
142.0
 40
142.0
 40
143.0
 40
143.0
 40
143.0
 40
144.0
 40
144.0
 40
144.0
 40
145.0
 40
145.0
 40
145.0
 40
146.0
 40
146.0
 40
146.0
 40
147.0
 40
147.0
 40
147.0
 40
148.0
 40
148.0
 40
148.0
 40
149.0
 40
149.0
 40
149.0
 40
150.0
 40
150.0
 40
150.0
 40
151.0
 40
151.0
 40
151.0
 40
152.0
 40
152.0
 40
152.0
 40
153.0
 40
153.0
 40
153.0
 40
154.0
 40
154.0
 40
154.0
 40
155.0
 40
155.0
 40
155.0
 40
156.0
 40
156.0
 40
156.0
 40
157.0
 40
157.0
 40
157.0
 40
158.0
 40
158.0
 40
158.0
 40
159.0
 40
159.0
 40
159.0
 40
160.0
 40
160.0
 40
160.0
 40
161.0
 40
161.0
 40
161.0
 40
162.0
 40
162.0
 40
162.0
 40
163.0
 40
163.0
 40
163.0
 40
164.0
 40
164.0
 40
164.0
 40
165.0
 40
165.0
 40
165.0
 40
166.0
 40
166.0
 40
166.0
 40
167.0
 40
167.0
 40
167.0
 40
168.0
 40
168.0
 40
168.0
 40
169.0
 40
169.0
 40
169.0
 40
170.0
 40
170.0
 40
170.0
 40
171.0
 40
171.0
 40
171.0
 40
172.0
 40
172.0
 40
172.0
 40
173.0
 40
173.0
 40
173.0
 40
174.0
 40
174.0
 40
174.0
 40
175.0
 40
175.0
 40
175.0
 40
176.0
 40
176.0
 40
176.0
 40
177.0
 40
177.0
 40
177.0
 40
178.0
 40
178.0
 40
178.0
 40
179.0
 40
179.0
 40
179.0
 40
180.0
 40
180.0
 40
180.0
 40
181.0
 40
181.0
 40
181.0
 40
182.0
 40
182.0
 40
182.0
 40
183.0
 40
183.0
 40
183.0
 40
184.0
 40
184.0
 40
184.0
 40
185.0
 40
185.0
 40
185.0
 40
186.0
 40
186.0
 40
186.0
 40
187.0
 40
187.0
 40
187.0
 40
188.0
 40
188.0
 40
188.0
 40
189.0
 40
189.0
 40
189.0
 40
190.0
 40
190.0
 40
190.0
 40
191.0
 40
191.0
 40
191.0
 40
192.0
 40
192.0
 40
192.0
 40
193.0
 40
193.0
 40
193.0
 40
194.0
 40
194.0
 40
194.0
 40
195.0
 40
195.0
 40
195.0
 40
196.0
 40
196.0
 40
196.0
 40
197.0
 40
197.0
 40
197.0
 40
198.0
 40
198.0
 40
198.0
 40
199.0
 40
199.0
 40
199.0
 40
200.0
 40
200.0
 40
200.0
 40
201.0
 40
201.0
 40
201.0
 40
202.0
 40
202.0
 40
202.0
 40
203.0
 40
203.0
 40
203.0
 40
204.0
 40
204.0
 40
204.0
 40
205.0
 40
205.0
 40
205.0
 40
206.0
 40
206.0
 40
206.0
 40
207.0
 40
207.0
 40
207.0
 40
208.0
 40
208.0
 40
208.0
 40
209.0
 40
209.0
 40
209.0
 40
210.0
 40
210.0
 40
210.0
 40
211.0
 40
211.0
 40
211.0
 40
212.0
 40
212.0
 40
212.0
 40
213.0
 40
213.0
 40
213.0
 40
214.0
 40
214.0
 40
214.0
 40
215.0
 40
215.0
 40
215.0
 40
216.0
 40
216.0
 40
216.0
 40
217.0
 40
217.0
 40
217.0
 40
218.0
 40
218.0
 40
218.0
 40
219.0
 40
219.0
 40
219.0
 40
220.0
 40
220.0
 40
220.0
 40
221.0
 40
221.0
 40
221.0
 40
222.0
 40
222.0
 40
222.0
 40
223.0
 40
223.0
 40
223.0
 40
224.0
 40
224.0
 40
224.0
 40
225.0
 40
225.0
 40
225.0
 40
226.0
 40
226.0
 40
226.0
 40
227.0
 40
227.0
 40
227.0
 40
228.0
 40
228.0
 40
228.0
 40
229.0
 40
229.0
 40
229.0
 40
230.0
 40
230.0
 40
230.0
 40
231.0
 40
231.0
 40
231.0
 40
232.0
 40
232.0
 40
232.0
 40
233.0
 40
233.0
 40
233.0
 40
234.0
 40
234.0
 40
234.0
 40
235.0
 40
235.0
 40
235.0
 40
236.0
 40
236.0
 40
236.0
 40
237.0
 40
237.0
 40
237.0
 40
238.0
 40
238.0
 40
238.0
 40
239.0
 40
239.0
 40
239.0
 40
240.0
 40
240.0
 40
240.0
 40
241.0
 40
241.0
 40
241.0
 40
242.0
 40
242.0
 40
242.0
 40
243.0
 40
243.0
 40
243.0
 40
244.0
 40
244.0
 40
244.0
 40
245.0
 40
245.0
 40
245.0
 40
246.0
 40
246.0
 40
246.0
 40
247.0
 40
247.0
 40
247.0
 40
248.0
 40
248.0
 40
248.0
 40
249.0
 40
249.0
 40
249.0
 40
250.0
 40
250.0
 40
250.0
 40
251.0
 40
251.0
 40
251.0
 40
252.0
 40
252.0
 40
252.0
 40
253.0
 40
253.0
 40
253.0
 40
254.0
 40
254.0
 40
254.0
 40
255.0
 40
255.0
 40
255.0
 40
256.0
 40
256.0
 40
256.0
 40
257.0
 40
257.0
 40
257.0
 40
258.0
 40
258.0
 40
258.0
 40
259.0
 40
259.0
 40
259.0
 40
260.0
 40
260.0
 40
260.0
 40
261.0
 40
261.0
 40
261.0
 40
262.0
 40
262.0
 40
262.0
 40
263.0
 40
263.0
 40
263.0
 40
264.0
 40
264.0
 40
264.0
 40
265.0
 40
265.0
 40
265.0
 40
266.0
 40
266.0
 40
266.0
 40
267.0
 40
267.0
 40
267.0
 40
268.0
 40
268.0
 40
268.0
 40
269.0
 40
269.0
 40
269.0
 40
270.0
 40
270.0
 40
270.0
 40
271.0
 40
271.0
 40
271.0
 40
272.0
 40
272.0
 40
272.0
 40
273.0
 40
273.0
 40
273.0
 40
274.0
 40
274.0
 40
274.0
 40
275.0
 40
275.0
 40
275.0
 40
276.0
 40
276.0
 40
276.0
 40
277.0
 40
277.0
 40
277.0
 40
278.0
 40
278.0
 40
278.0
 40
279.0
 40
279.0
 40
279.0
 40
280.0
 40
280.0
 40
280.0
 40
281.0
 40
281.0
 40
281.0
 40
282.0
 40
282.0
 40
282.0
 40
283.0
 40
283.0
 40
283.0
 40
284.0
 40
284.0
 40
284.0
 40
285.0
 40
285.0
 40
285.0
 40
286.0
 40
286.0
 40
286.0
 40
287.0
 40
287.0
 40
287.0
 40
288.0
 40
288.0
 40
288.0
 40
289.0
 40
289.0
 40
289.0
 40
290.0
 40
290.0
 40
290.0
 40
291.0
 40
291.0
 40
291.0
 40
292.0
 40
292.0
 40
292.0
 40
293.0
 40
293.0
 40
293.0
 40
294.0
 40
294.0
 40
294.0
 40
295.0
 40
295.0
 40
295.0
 40
296.0
 40
296.0
 40
296.0
 40
297.0
 40
297.0
 40
297.0
 40
298.0
 40
298.0
 40
298.0
 40
299.0
 40
299.0
 40
299.0
 40
300.0
 40
300.0
 40
300.0
 40
301.0
 40
301.0
 40
301.0
 40
302.0
 40
302.0
 40
302.0
 40
303.0
 40
303.0
 40
303.0
 40
304.0
 40
304.0
 40
304.0
 40
305.0
 40
305.0
 40
305.0
 40
306.0
 40
306.0
 40
306.0
 40
307.0
 40
307.0
 40
307.0
 40
307.0
 10
284.4622291431097
 20
376.3662555170995
 10
284.2136903965556
 20
376.6657660989204
 10
284.124484822969
 20
376.9142853979974
 10
284.2009522996086
 20
377.1150222479137
 10
284.1754566582367
 20
376.9907723221131
 10
284.0894210232791
 20
376.8792410457827
 10
283.9396754561076
 20
376.780467313878
 10
283.815406082831
 20
376.9270429424214
 10
283.5891930390189
 20
377.1150222479137
 10
283.2673762019331
 20
377.3380653530949
 10
282.9423699787403
 20
377.5642978443811
 10
282.7193268735591
 20
377.7491072112443
 10
282.5950769477586
 20
377.9020421645218
 10
282.5440856650148
 20
377.9753202550546
 10
282.477166899218
 20
378.0804727591712
 10
282.3879613256304
 20
378.2174802293957
 10
282.3019256906737
 20
378.3544876996202
 10
282.1904138618211
 20
378.5361076803765
 10
282.0534063915966
 20
378.7591507855577
 10
281.9163989213721
 20
378.9821938907407
 10
281.8176251894674
 20
379.1765519684432
 10
281.7538958097757
 20
379.3390550800395
 10
281.6933558161909
 20
379.5015581916359
 10
281.6869770439789
 20
379.5939531513286
 10
281.7347789406167
 20
379.6194487927005
 10
281.2631970888815
 20
379.4187119427843
 10
280.5781597377591
 20
379.5557194130088
 10
279.6796279922974
 20
380.030471203374
 10
279.5075761698599
 20
380.1292449352786
 10
279.2431099402529
 20
380.3905217787797
 10
278.8957974617942
 20
380.8143017338771
 10
278.5485044308125
 20
381.2380622414985
 10
278.1852644693008
 20
381.4228716083599
 10
277.8124757969463
 20
381.375069711723
 10
277.6882064236697
 20
381.3495935178271
 10
277.5193245398623
 20
381.3049810072953
 10
277.3090389791041
 20
381.2444410137105
 10
277.0955640322409
 20
381.1807116340187
 10
276.9171334375906
 20
381.1520460540178
 10
276.7673684229421
 20
381.1520460540178
 10
276.6176228557706
 20
381.1520460540178
 10
276.4168860058544
 20
381.1998285031787
 10
276.1683472593013
 20
381.3017916211902
 10
275.9707997954911
 20
381.375069711723
 10
275.703163627255
 20
381.5184559541594
 10
275.3654193071143
 20
381.7287609623927
 10
275.0308449256045
 20
381.9422359092569
 10
274.7982531095804
 20
382.0728646072694
 10
274.6739837363039
 20
382.1206665039062
 10
274.352166899218
 20
382.2959077124506
 10
274.1896832350976
 20
382.3819433474073
 10
274.1896832350976
 20
382.3819433474073
 10
274.1896832350976
 20
382.3819433474073
 10
273.5906620714568
 20
382.6814539292282
 10
273.5906620714568
 20
382.6814539292282
 10
273.4408970568084
 20
382.7547320197609
 10
273.2847727174239
 20
382.8726226208255
 10
273.1254589919336
 20
383.0351257324219
 10
272.9629558803372
 20
383.1976288440183
 10
272.8578033762205
 20
383.3664912803506
 10
272.8068315409537
 20
383.5417519363709
 10
272.7558597056859
 20
383.6914975035434
 10
272.6953197121011
 20
383.9878186992573
 10
272.6188327879854
 20
384.4370942957266
 10
272.5455546974526
 20
384.8863504447181
 10
272.4467809655471
 20
385.2113566679109
 10
272.3225115922705
 20
385.4089041317202
 10
272.1727660250981
 20
385.6574234307973
 10
271.9592910782349
 20
385.9059621773522
 10
271.6852566903099
 20
386.1544814764293
 10
271.4112417498609
 20
386.4030202229824
 10
271.1627224507838
 20
386.530478982364
 10
270.9396793456026
 20
386.530478982364
 10
271.1372268094119
 20
386.530478982364
 10
271.1372268094119
 20
386.6961520325913
 10
270.9396793456026
 20
387.0338963527302
 10
270.7389424956864
 20
387.3716406728709
 10
270.566890673249
 20
387.613800647212
 10
270.4171256586005
 20
387.7635656618604
 10
270.3661538233328
 20
387.8113481110213
 10
270.2163888086843
 20
387.9738512226177
 10
269.9678695096072
 20
388.2478661630666
 10
269.7193307630541
 20
388.5219005509916
 10
269.5058558161909
 20
388.7576817531208
 10
269.3337845462765
 20
388.958418603037
 10
269.1585433377322
 20
389.1591554529532
 10
269.0087977705607
 20
389.3885578828704
 10
268.8845283972842
 20
389.6498347263714
 10
268.7602590240067
 20
389.9111115698724
 10
268.7347828301117
 20
390.1309652889468
 10
268.8080609206445
 20
390.303017111386
 10
268.8335565620164
 20
390.3285127527579
 10
268.8080609206445
 20
390.3667464910777
 10
268.7347828301117
 20
390.4145483877146
 10
268.6582959059961
 20
390.4655202229824
 10
268.5659009463034
 20
390.5164920582483
 10
268.4543891174508
 20
390.564293954887
 10
268.3428578411222
 20
390.6152657901548
 10
268.2377053370046
 20
390.6598783006848
 10
268.13576166647
 20
390.6949226528995
 10
268.0369879345653
 20
390.7331758386954
 10
267.9636903965556
 20
390.7522927078535
 10
267.9127185612888
 20
390.7522927078535
 10
267.9636903965556
 20
390.6503295898438
 10
268.0178710654054
 20
390.4718989951944
 10
268.0815809976211
 20
390.2106221516933
 10
268.142120991206
 20
389.9493453081923
 10
268.2122291431097
 20
389.754987230488
 10
268.2855072336424
 20
389.6307178572115
 10
268.3364985163862
 20
389.5319441253068
 10
268.5467840771435
 20
389.1687041637942
 10
268.9227621356031
 20
388.5473767448875
 10
269.5695851958817
 20
387.5022888183594
 10
269.8690957777026
 20
386.7280264461733
 10
269.8181044949588
 20
386.2309684005431
 10
269.6683589277873
 20
386.1831665039062
 10
269.5695851958817
 20
386.2054727591712
 10
269.5185939131388
 20
386.3042464910777
 10
269.470811463977
 20
386.4030202229824
 10
269.4325582781812
 20
386.5432170793119
 10
269.4070820842862
 20
386.7152689017494
 10
269.3815864429143
 20
386.8905101102937
 10
269.3560908015425
 20
387.0147794835702
 10
269.3306146076466
 20
387.0912469602099
 10
269.2573170696378
 20
387.2378225887514
 10
269.0629589919336
 20
387.4003257003478
 10
268.7538996992716
 20
387.5755669088921
 10
268.4416315730268
 20
387.7508081174365
 10
268.2472734953226
 20
387.9260493259808
 10
268.1739954047898
 20
388.0981205958942
 10
268.1994715986857
 20
388.0981205958942
 10
268.2281566261636
 20
388.1108586928422
 10
268.2663903644825
 20
388.136354334214
 10
268.3046241028023
 20
388.1618499755859
 10
268.3364985163862
 20
388.1745880725339
 10
268.3619747102812
 20
388.1745880725339
 10
268.3874703516531
 20
388.3976311777151
 10
268.2568416536405
 20
388.684384215112
 10
267.9700691687685
 20
389.0316966935698
 10
267.6832966838956
 20
389.3821791106584
 10
267.565406082831
 20
389.6307178572115
 10
267.6132079794679
 20
389.7804634243839
 10
267.4156605156586
 20
389.9302284390324
 10
267.2404193071143
 20
390.2233602486413
 10
267.0906542924658
 20
390.6566889145797
 10
266.9409087252934
 20
391.0932069666251
 10
266.8166393520169
 20
391.373600679286
 10
266.7178656201122
 20
391.4978700525626
 10
266.6159025021016
 20
391.647635067211
 10
266.494822514931
 20
391.7782637652235
 10
266.3450769477586
 20
391.8897755940743
 10
266.1953119331101
 20
392.0013068704047
 10
266.0073131801419
 20
392.1287461823122
 10
265.7842895224367
 20
392.2657731000108
 10
265.5580570311495
 20
392.4027805702353
 10
265.408311463977
 20
392.4951755299298
 10
265.3350139259683
 20
392.5461473651958
 10
265.2840420907005
 20
392.5684536204608
 10
265.1852683587958
 20
392.6799848967912
 10
265.0355033441474
 20
392.8807217467074
 10
264.2134585228005
 20
393.8780272240729
 10
263.9649197762474
 20
394.4133190080229
 10
264.2899259994401
 20
394.4865970985556
 10
263.9649197762474
 20
394.4133190080229
 10
263.6972641605344
 20
394.655478982364
 10
263.4869785997771
 20
395.2162469602099
 10
263.273503652913
 20
395.7770343855318
 10
263.2065848871162
 20
396.2071931128412
 10
263.2798629776489
 20
396.5035143085552
 10
263.2798629776489
 20
396.5035143085552
 10
263.2065848871162
 20
396.541748046875
 10
263.2065848871162
 20
396.541748046875
 10
263.2288911423821
 20
396.6405217787797
 10
263.2416292393291
 20
396.9336535883886
 10
263.2416292393291
 20
397.4211629231768
 10
263.2416292393291
 20
397.9054634243839
 10
263.273503652913
 20
398.3483602486403
 10
263.3372330326047
 20
398.7466445623659
 10
263.3977730261904
 20
399.1449288760914
 10
263.515663627255
 20
399.3456657260076
 10
263.6909048357984
 20
399.3456657260076
 10
263.515663627255
 20
399.3201700846357
 10
263.3850154817655
 20
399.4762944240192
 10
263.2989798468088
 20
399.8108688055299
 10
263.2129636593281
 20
400.1486131256706
 10
263.2065848871162
 20
400.3780155555878
 10
263.2798629776489
 20
400.5022849288644
 10
263.3053586190208
 20
400.5787524055031
 10
263.4168898953494
 20
400.5277805702362
 10
263.6176072977896
 20
400.3525199142159
 10
263.8151742090749
 20
400.1804680917776
 10
263.9266860379275
 20
400.065766876819
 10
263.9521816792994
 20
400.0179649801812
 10
264.2771684550162
 20
400.1932061887255
 10
264.4014378282927
 20
400.4162492939067
 10
264.3249703516531
 20
400.6902836818317
 10
264.2771684550162
 20
400.7890574137373
 10
264.0158916115151
 20
401.0503148097614
 10
263.54113982115
 20
401.4740947648588
 10
262.4705562532499
 20
402.1718896604052
 10
261.9225263723529
 20
402.509633980545
 10
261.897030730981
 20
402.484138339174
 10
262.0467762981534
 20
402.758172727099
 10
262.0085425598336
 20
402.9939539292282
 10
261.7854994546524
 20
403.1946907791435
 10
261.5369801555753
 20
403.044925764495
 10
261.3935939131388
 20
403.0066920261761
 10
261.355360174819
 20
403.0799895641849
 10
261.3203158226052
 20
403.1564570408245
 10
261.2884414090213
 20
403.293464511049
 10
261.2629652151263
 20
403.4910119748583
 10
261.2374695737544
 20
403.6917488247745
 10
261.1737401940627
 20
403.8032606536271
 10
261.074966462158
 20
403.8287562949981
 10
260.9506970888815
 20
403.85425193637
 10
260.8009515217091
 20
403.9530256682756
 10
260.6288996992716
 20
404.125077490713
 10
262.8433449256045
 20
407.661834417605
 10
265.7715319780127
 20
410.4275378058937
 10
269.4070820842862
 20
412.4221293131513
 10
269.5568276514578
 20
412.4444355684172
 10
269.8308425919067
 20
412.4571931128412
 10
270.2291269056323
 20
412.4571931128412
 10
270.4266938169185
 20
412.4316974714693
 10
270.6146731224098
 20
412.3711574778836
 10
270.7899143309542
 20
412.2723837459789
 10
270.9619856008685
 20
412.1704206279683
 10
271.1436055816239
 20
412.0334131577438
 10
271.3315848871162
 20
411.8613613353054
 10
271.5163942539775
 20
411.6861006792851
 10
271.659780496414
 20
411.5618507534855
 10
271.7617436144255
 20
411.4885532154758
 10
271.8095260635864
 20
411.6383182301242
 10
271.7489860700016
 20
411.8613613353054
 10
271.5737448614573
 20
412.1608719171263
 10
271.6215467580951
 20
412.3106174842987
 10
271.89875108465
 20
412.4603630514703
 10
272.3958091302802
 20
412.6069386800127
 10
272.9693346525492
 20
412.6834061566524
 10
273.3421233249028
 20
412.6706680597044
 10
273.5173645334471
 20
412.5718943277998
 10
273.3676189662747
 20
412.794937432981
 10
273.1190802197216
 20
413.1071861117498
 10
272.7685978026338
 20
413.5054704254753
 10
272.7685978026338
 20
413.5054704254753
 10
272.5837884357716
 20
413.3174716725071
 10
272.5837884357716
 20
413.3174716725071
 10
272.3830515858563
 20
413.4927323285274
 10
271.8605173463302
 20
413.4066966935698
 10
271.0129574361354
 20
413.056214276482
 10
270.9651749869745
 20
413.0307186351101
 10
270.837716227592
 20
412.9637998693133
 10
270.6401687637817
 20
412.8522880404607
 10
270.4394319138664
 20
412.7407567641312
 10
270.27692880227
 20
412.6579299627565
 10
270.1526594289935
 20
412.6101280661187
 10
270.0061032479271
 20
412.5591562308518
 10
269.8563382332786
 20
412.5463986864279
 10
269.7065926661062
 20
412.5718943277998
 10
270.9014456072828
 20
413.2186979406024
 10
272.0708029070875
 20
413.7285135306565
 10
273.2178539516262
 20
414.1044915891162
 10
273.2911514896359
 20
414.0535003063724
 10
273.4154014154365
 20
413.9483672497317
 10
273.5906620714568
 20
413.7858641381354
 10
273.7659032800002
 20
413.6233610265399
 10
273.9029107502247
 20
413.5054704254753
 10
274.0016844821293
 20
413.4321923349416
 10
273.9284063915966
 20
413.4799747841034
 10
273.8774151088528
 20
413.4576685288375
 10
273.8519389149578
 20
413.3557248583029
 10
273.7531651830523
 20
413.056214276482
 10
273.7531651830523
 20
412.8076755299289
 10
273.8519389149578
 20
412.6101280661187
 10
273.9761888407584
 20
412.4348868575753
 10
274.1450707245658
 20
412.3361131256706
 10
274.355356285324
 20
412.3106174842987
 10
274.5688506796632
 20
412.2851218429269
 10
274.8237487509523
 20
412.2978793873508
 10
275.1232593327732
 20
412.3488512226177
 10
275.422769914594
 20
412.3966531192555
 10
275.6203173784033
 20
412.4221293131513
 10
275.722280496414
 20
412.4221293131513
 10
275.722280496414
 20
412.4221293131513
 10
276.0950691687685
 20
412.3838955748315
 10
276.0950691687685
 20
412.3838955748315
 10
276.8215296443159
 20
412.3169962565107
 10
277.1433464814017
 20
412.3711574778836
 10
277.063689618657
 20
412.5527774586399
 10
277.1306083844547
 20
412.4380762436813
 10
277.2070758610935
 20
412.253266876819
 10
277.2899221099442
 20
411.991990033318
 10
277.3886958418498
 20
411.6797413545501
 10
277.5002076707024
 20
411.4630770215799
 10
277.6244770439789
 20
411.3388076483034
 10
277.7519358033614
 20
411.437581380208
 10
277.7742420586274
 20
411.6128225887524
 10
277.7009445206177
 20
411.8613613353054
 10
277.6244770439789
 20
412.1098806343825
 10
277.6244770439789
 20
412.2851218429269
 10
277.7009445206177
 20
412.3838955748315
 10
277.7264401619896
 20
412.4348868575753
 10
277.7997182525223
 20
412.4858586928422
 10
277.9239876257998
 20
412.53366058948
 10
278.0482569990763
 20
412.5846324247468
 10
278.1916432415128
 20
412.6388130935966
 10
278.3541269056323
 20
412.7025230258123
 10
278.5166300172286
 20
412.7662524055031
 10
278.6217825213453
 20
412.8076755299289
 10
278.672754356613
 20
412.8331711713008
 10
278.8225193712615
 20
412.9319449032055
 10
278.7205562532499
 20
413.1071861117498
 10
278.3732632222682
 20
413.3557248583029
 10
278.3222719395244
 20
413.3812010521979
 10
278.2171194354078
 20
413.4194347905177
 10
278.0546357712883
 20
413.4672366871555
 10
277.8953220457979
 20
413.5182085224224
 10
277.7519358033614
 20
413.5691998051661
 10
277.6276664300849
 20
413.6169822543279
 10
277.5033970568084
 20
413.6679735370708
 10
277.3727683587958
 20
413.7348728553925
 10
277.2357608885713
 20
413.8240978764552
 10
277.0987534183469
 20
413.9101335114128
 10
277.0350240386551
 20
414.0089072433175
 10
277.0477621356031
 20
414.1236084582761
 10
277.060500232551
 20
414.2351202871287
 10
277.1274189983487
 20
414.3785065295651
 10
277.2516883716253
 20
414.5505777994795
 10
277.4014339387968
 20
414.67482772528
 10
277.6467832992448
 20
414.7258190080229
 10
277.9813382332786
 20
414.700323366651
 10
278.3158931673124
 20
414.678017111386
 10
278.5739806247075
 20
414.6142877316943
 10
278.7460518946218
 20
414.5155139997896
 10
279.4183511487963
 20
414.13953594133
 10
279.520314266807
 20
413.8049810072953
 10
279.0455624764427
 20
413.5054704254753
 10
279.2940817755198
 20
413.4799747841034
 10
279.5935923573406
 20
413.3812010521979
 10
279.9440942219044
 20
413.2059598436545
 10
280.2913872528861
 20
413.0339080212161
 10
280.4283947231106
 20
412.8459092682488
 10
280.3551166325778
 20
412.6451724183325
 10
280.5526640963872
 20
413.0211504767922
 10
280.7534009463034
 20
413.2059598436545
 10
280.9509484101127
 20
413.2059598436545
 10
281.0752177833901
 20
413.1836535883886
 10
281.1962977705607
 20
413.0147911520562
 10
281.3078095994133
 20
412.7025230258123
 10
281.4193408757419
 20
412.3902743470435
 10
281.4862401940627
 20
412.2245818493411
 10
281.5117358354346
 20
412.1991056554461
 10
281.7124726853508
 20
411.9250712675203
 10
281.9100201491601
 20
411.8613613353054
 10
282.1107569990763
 20
412.0111069024779
 10
282.3083044628856
 20
412.1608719171263
 10
282.5154200850138
 20
412.3775362500955
 10
282.7257056457711
 20
412.6642892874925
 10
282.9200637234744
 20
412.9287555170995
 10
283.037954324539
 20
413.059384215112
 10
283.0730181242288
 20
413.059384215112
 10
282.8308581498877
 20
413.1613473331226
 10
282.8085518946218
 20
413.2569316789213
 10
283.006099358432
 20
413.3557248583029
 10
283.3788880307857
 20
413.5819379021141
 10
283.7166323509255
 20
413.6424778956989
 10
284.0161429327463
 20
413.5437041637942
 10
284.0894210232791
 20
413.4927323285274
 10
284.1882142026607
 20
413.3812010521979
 10
284.3124641284612
 20
413.2059598436545
 10
284.5355072336424
 20
412.7567036946612
 10
284.5004628814286
 20
412.5463986864279
 10
284.2009522996086
 20
412.5718943277998
 10
284.4239954047898
 20
412.3711574778836
 10
284.5163903644825
 20
412.1226187313305
 10
284.4813460122696
 20
411.8231081495096
 10
284.4431122739497
 20
411.5267869537956
 10
284.2487347487695
 20
411.3897794835711
 10
283.9014417177877
 20
411.412085738837
 10
283.7771723445112
 20
411.412085738837
 10
283.5955523637549
 20
411.4758151185279
 10
283.3597711616258
 20
411.6000844918044
 10
283.1239899594966
 20
411.724334417605
 10
282.9423699787403
 20
411.7944425695086
 10
282.8181006054638
 20
411.8039912803497
 10
282.6938506796632
 20
411.8199382108796
 10
282.5185900236429
 20
411.7498300589768
 10
282.2955663659377
 20
411.6000844918044
 10
282.1936032479271
 20
411.4758151185279
 10
282.0629551024385
 20
411.2623401716646
 10
281.9036413769481
 20
410.9660189759497
 10
281.7411382653518
 20
410.6665083941289
 10
281.5977714703922
 20
410.4530139997896
 10
281.4735020971148
 20
410.3287640739891
 10
281.1007134247611
 20
409.9591453402654
 10
280.4857453305904
 20
409.8221378700409
 10
279.6254667709245
 20
409.9145328297336
 10
279.6764386061914
 20
409.8986053466797
 10
279.6637005092434
 20
409.8285166422529
 10
279.5840436464987
 20
409.6946791106584
 10
279.498008011542
 20
409.544933543486
 10
279.3801174104765
 20
409.3760516596776
 10
279.230352395828
 20
409.1912617402922
 10
279.0806068286565
 20
409.003262987324
 10
278.9945711936989
 20
408.8981104832073
 10
278.9690949998039
 20
408.8726342893115
 10
278.7460518946218
 20
408.6240955427584
 10
278.5962868799734
 20
408.3373425053614
 10
278.5198194033346
 20
408.0123362821687
 10
278.5198194033346
 20
407.9645343855318
 10
278.5070813063867
 20
407.7956719491995
 10
278.4815856650148
 20
407.5088994643265
 10
278.4560900236429
 20
407.2221464269305
 10
278.408307574482
 20
407.0054626464844
 10
278.3318400978433
 20
406.8557170793119
 10
278.6313506796632
 20
406.9289951698456
 10
278.8703212678984
 20
406.7792496026732
 10
279.0423730903367
 20
406.4064414828435
 10
279.1921186575091
 20
406.0591484518609
 10
279.1921186575091
 20
405.8711496988935
 10
279.0423730903367
 20
405.8456735049976
 10
279.8644373591596
 20
405.9699234307982
 10
280.587708448601
 20
405.9221409816364
 10
281.2122252536137
 20
405.6959084903492
 10
282.1075676129703
 20
405.3740916532624
 10
282.6173637555485
 20
405.0491048775466
 10
282.741633128825
 20
404.7240986543547
 10
282.8913981434735
 20
404.9503311456419
 10
283.2514487188791
 20
404.9630692425899
 10
283.824974241149
 20
404.7623323926737
 10
284.0511872849602
 20
404.6380630193971
 10
284.2487347487695
 20
404.2652743470435
 10
284.4239954047898
 20
403.6439469281368
 10
284.5227691366945
 20
403.2679688696771
 10
284.6916315730268
 20
402.9461520325904
 10
284.927412775156
 20
402.6721370921414
 10
285.1663833633911
 20
402.3981221516924
 10
285.4213008821562
 20
402.3216546750537
 10
285.6953158226052
 20
402.4459046008542
 10
285.6953158226052
 20
402.4459046008542
 10
285.8068276514578
 20
402.5223915249699
 10
285.8068276514578
 20
402.5223915249699
 10
285.9056013833633
 20
402.5701739741307
 10
285.9852582461081
 20
402.6147864846625
 10
286.0489876257998
 20
402.6530202229815
 10
286.1127170054906
 20
402.6880645751953
 10
286.1796357712883
 20
402.7390558579391
 10
286.2529138618211
 20
402.8027657901539
 10
286.3293813384598
 20
402.8633057837396
 10
286.3739938489916
 20
402.9206758386954
 10
286.3835425598336
 20
402.9684582878563
 10
286.3963001042575
 20
403.0194495706
 10
286.3771832350976
 20
403.0704214058669
 10
286.3293813384598
 20
403.1182233025047
 10
286.1541401299164
 20
403.2679688696771
 10
286.0234919844279
 20
403.4750844918044
 10
285.9374757969463
 20
403.7363613353054
 10
285.8514401619896
 20
403.9976187313305
 10
285.8705570311495
 20
404.2270406087237
 10
285.99163701832
 20
404.4277774586399
 10
286.0681044949588
 20
404.5265511905445
 10
286.265651958769
 20
404.676296757717
 10
286.5906581819609
 20
404.8770336076323
 10
286.9156644051536
 20
405.0745810714425
 10
287.1132118689638
 20
405.2753179213578
 10
287.1896793456026
 20
405.472865385168
 10
287.2884530775073
 20
405.7978716083599
 10
287.1641837042307
 20
406.0655272240729
 10
286.813701287143
 20
406.275812784831
 10
286.4663888086843
 20
406.4892877316943
 10
286.2911476001409
 20
406.6804758707685
 10
286.2911476001409
 20
406.8557170793119
 10
286.2911476001409
 20
406.9799864525885
 10
286.3739938489916
 20
407.1297320197609
 10
286.533307574482
 20
407.3049732283052
 10
286.6958106860784
 20
407.4802338843256
 10
286.7658993905052
 20
407.6395476098151
 10
286.7404037491333
 20
407.7892931769875
 10
286.7404037491333
 20
407.8657606536271
 10
286.6958106860784
 20
408.0218849930106
 10
286.6097750511208
 20
408.2576856426167
 10
286.5237394161641
 20
408.4934668447459
 10
286.4727675808963
 20
408.6687080532902
 10
286.4600100364723
 20
408.7802198821428
 10
286.4472719395244
 20
408.8917511584714
 10
286.5046225470041
 20
409.0223798564839
 10
286.6288919202807
 20
409.1721448711323
 10
286.800943742719
 20
409.274088541667
 10
287.2119856008685
 20
409.267729216931
 10
287.8587892136711
 20
409.1530280019724
 10
288.5088016600557
 20
409.0414967256438
 10
288.9325621676762
 20
408.9236061245792
 10
289.1301096314864
 20
408.7993367513018
 10
289.2065965556021
 20
408.7515543021409
 10
289.3690802197216
 20
408.6750868255021
 10
289.6176189662747
 20
408.5763130935966
 10
289.8661382653518
 20
408.4775199142159
 10
290.0828220457979
 20
408.3691974714693
 10
290.2708013512893
 20
408.2576856426167
 10
290.4556107181515
 20
408.1461543662872
 10
290.5639331608982
 20
408.0410018621706
 10
290.58942880227
 20
407.9422281302659
 10
290.58942880227
 20
407.9422281302659
 10
290.4014494967778
 20
407.9422281302659
 10
290.4014494967778
 20
407.9422281302659
 10
290.5766907053221
 20
407.7892931769875
 10
290.6818237619627
 20
407.6172413545501
 10
290.7200769477586
 20
407.4165045046338
 10
290.7551212999724
 20
407.2189570408245
 10
290.6627068928028
 20
407.0691920261761
 10
290.4396832350976
 20
406.9672289081645
 10
290.58942880227
 20
406.9927245495364
 10
290.7869762660794
 20
406.9576801973235
 10
291.0355150126334
 20
406.8557170793119
 10
291.4369887124649
 20
406.7059520646635
 10
291.4465374233059
 20
406.568944594439
 10
291.0737487509523
 20
406.4446946686394
 10
291.150216227592
 20
406.4701708625344
 10
291.2553687317086
 20
406.4956665039062
 10
291.3923762019331
 20
406.5211621452781
 10
291.5293836721576
 20
406.546638339174
 10
291.6345361762742
 20
406.581702138863
 10
291.707814266807
 20
406.6326739741307
 10
291.7587861020747
 20
406.6581696155026
 10
291.8193260956596
 20
406.6995927399284
 10
291.8957935722992
 20
406.7633221196193
 10
291.969091110308
 20
406.8270320518341
 10
292.0264417177877
 20
406.8620958515239
 10
292.0646754561076
 20
406.8748339484719
 10
292.0997198083205
 20
406.8875720454198
 10
292.1570704158003
 20
406.9003295898438
 10
292.230367953809
 20
406.9130676867917
 10
292.3068354304487
 20
406.9258057837396
 10
292.3801135209815
 20
406.9066889145797
 10
292.4533916115151
 20
406.8557170793119
 10
292.4820766389921
 20
406.8557170793119
 10
292.5362378603659
 20
406.9194464590037
 10
292.6222734953226
 20
407.0436963848042
 10
292.7083091302802
 20
407.1679657580808
 10
292.8038934760789
 20
407.2922351313573
 10
292.9026672079835
 20
407.4165045046338
 10
293.0014409398882
 20
407.5407738779104
 10
293.0906465134758
 20
407.6044838101261
 10
293.1639440514846
 20
407.6044838101261
 10
293.2372221420183
 20
407.6044838101261
 10
293.307330293921
 20
407.5726288440183
 10
293.3678702875068
 20
407.5088994643265
 10
293.4315802197216
 20
407.4483594707417
 10
293.4793821163594
 20
407.378270766314
 10
293.5176158546792
 20
407.3049732283052
 10
293.5558495929981
 20
407.2285057516656
 10
293.594083331318
 20
407.1488488889208
 10
293.6291276835318
 20
407.0628327014401
 10
293.6673808693276
 20
406.9736076803765
 10
293.6992358354346
 20
406.9066889145797
 10
293.7247314768065
 20
406.8557170793119
 10
293.7725139259683
 20
406.7314477060354
 10
293.8935939131388
 20
406.6008190080229
 10
294.0784032800002
 20
406.4638115377984
 10
294.2632126468625
 20
406.3267846200979
 10
294.384292634033
 20
406.1961559220854
 10
294.4320750831948
 20
406.0718865488088
 10
294.4575707245658
 20
405.9986084582761
 10
294.5085425598336
 20
405.8106097053078
 10
294.5818400978433
 20
405.5110991234869
 10
294.655118188376
 20
405.211588541667
 10
294.7570813063867
 20
405.0076817531208
 10
294.8813506796632
 20
404.8961504767922
 10
295.0056006054638
 20
404.7814492618336
 10
295.193599358432
 20
404.6890543021409
 10
295.4421186575091
 20
404.6157567641312
 10
295.489920554146
 20
404.5902805702362
 10
295.6046217691055
 20
404.6030186671833
 10
295.7766930390189
 20
404.6508205638211
 10
295.9519342475633
 20
404.7017923990888
 10
296.0953204899997
 20
404.7145304960359
 10
296.2068323188523
 20
404.6890543021409
 10
296.3183441477049
 20
404.666748046875
 10
296.3757142026607
 20
404.5647849288644
 10
296.3757142026607
 20
404.38954372032
 10
296.5254597698331
 20
404.5392892874925
 10
296.5987378603659
 20
404.6412524055031
 10
296.5987378603659
 20
404.6890543021409
 10
296.6242335017378
 20
404.3672374650541
 10
296.7038903644825
 20
404.1027712354471
 10
296.840897834707
 20
403.9052237716378
 10
296.9779053049315
 20
403.7076763078276
 10
297.1977590240067
 20
403.6184512867649
 10
297.4972696058276
 20
403.6439469281368
 10
297.4972696058276
 20
403.6439469281368
 10
297.4208021291888
 20
402.8218826593138
 10
297.4208021291888
 20
402.8218826593138
 10
297.3475240386551
 20
402.6976327335133
 10
297.1595252856878
 20
402.6052183263446
 10
296.8600147038669
 20
402.5415083941289
 10
296.560504122046
 20
402.480968400544
 10
296.3757142026607
 20
402.4235983455883
 10
296.299227278545
 20
402.3726265103214
 10
296.2259491880122
 20
402.3503202550555
 10
296.0443292072559
 20
402.2005746878831
 10
295.7575761698599
 20
401.9265402999581
 10
295.4931099402529
 20
401.671642228669
 10
295.3720299530814
 20
401.5155178892846
 10
295.3943362083473
 20
401.4517885095938
 10
294.9673668671439
 20
401.9169915891162
 10
294.3333013512893
 20
402.0476202871287
 10
293.4984989855193
 20
401.8500728233184
 10
292.5521847908958
 20
401.7003272561469
 10
291.9021723445112
 20
401.5505622414985
 10
291.5548793135295
 20
401.4008166743261
 10
291.1565949998039
 20
401.2032692105167
 10
290.8825606118789
 20
401.0152704575485
 10
290.7328150447065
 20
400.8432186351101
 10
290.7073194033346
 20
400.8177229937382
 10
290.6658962789088
 20
400.7285174201515
 10
290.602166899218
 20
400.5787524055031
 10
290.5416269056323
 20
400.4321767769607
 10
290.4779169734175
 20
400.2919993681062
 10
290.4173769798317
 20
400.1677299948296
 10
290.3695750831948
 20
400.075315587661
 10
290.328151958769
 20
400.0179649801812
 10
290.2899182204492
 20
399.9956587249162
 10
290.4301150767797
 20
400.0338924632351
 10
290.5830500300581
 20
400.1454237395646
 10
290.7519319138664
 20
400.336592431162
 10
290.9399112193578
 20
400.5500868255021
 10
291.0578212678984
 20
400.6679774265667
 10
291.1087931031661
 20
400.6934536204617
 10
291.7556161634448
 20
401.1140441894531
 10
292.2909079473948
 20
401.2638092041016
 10
292.7146684550162
 20
401.136350444719
 10
293.2627177833892
 20
400.9866048775466
 10
293.3519233569768
 20
400.7890574137373
 10
292.9759452985172
 20
400.5405186671833
 10
292.9281628493554
 20
400.4895468319164
 10
292.7975147038669
 20
400.4704299627565
 10
292.5840397570037
 20
400.4831680597044
 10
292.3737347487695
 20
400.4959061566524
 10
292.230367953809
 20
400.4895468319164
 10
292.1570704158003
 20
400.4640511905445
 10
292.3801135209815
 20
400.4162492939067
 10
292.5681122739497
 20
400.34616058948
 10
292.7178578411222
 20
400.2601249545232
 10
292.8644334696646
 20
400.1740893195656
 10
292.9026672079835
 20
400.0530287798711
 10
292.8293891174508
 20
399.9032637652226
 10
293.2276734311763
 20
399.6802206600414
 10
293.3009515217091
 20
399.4317013609643
 10
293.052412775156
 20
399.1576669730393
 10
292.7274259994401
 20
398.8326801973235
 10
292.3450691687685
 20
398.695672727099
 10
291.8957935722992
 20
398.7466445623659
 10
291.969091110308
 20
398.7466445623659
 10
291.969091110308
 20
398.695672727099
 10
291.8957935722992
 20
398.5968989951934
 10
291.8957935722992
 20
398.5968989951934
 10
291.2585386703386
 20
398.185857137044
 10
291.2585386703386
 20
398.185857137044
 10
291.2107562211768
 20
398.160380943149
 10
291.0482531095804
 20
398.0998409495633
 10
290.7742381691323
 20
397.9978778315526
 10
290.5002232286834
 20
397.899104099648
 10
290.3122244757151
 20
397.7875728233184
 10
290.2134507438104
 20
397.6633228975188
 10
290.1401726532767
 20
397.5645297181372
 10
290.1019389149578
 20
397.4147841509648
 10
290.1019389149578
 20
397.2140473010495
 10
290.1019389149578
 20
397.0133104511333
 10
290.0891813705339
 20
396.8635648839618
 10
290.063685729162
 20
396.7647911520562
 10
290.0382095352661
 20
396.6660174201515
 10
289.9394358033614
 20
396.6405217787797
 10
289.7641945948171
 20
396.6914936140474
 10
289.6908970568084
 20
396.541748046875
 10
289.4583052407852
 20
396.4238574458104
 10
289.0727590240067
 20
396.3378218108537
 10
288.687232254706
 20
396.2486162372661
 10
288.4323147359401
 20
396.1179680917776
 10
288.3080648101395
 20
395.9459162693402
 10
288.4578103773119
 20
395.7451794194239
 10
288.445072280364
 20
395.5444425695096
 10
288.2698310718206
 20
395.3468951056984
 10
287.9703204899997
 20
395.0983563591453
 10
287.7090436464987
 20
395.1238520005172
 10
287.4860005413175
 20
395.4201731962312
 10
287.36173116804
 20
395.3723907470703
 10
287.2693362083473
 20
395.2481213737938
 10
287.2056068286565
 20
395.0473845238776
 10
287.1450668350708
 20
394.8466476739632
 10
287.0494824892721
 20
394.7096402037387
 10
286.9252131159956
 20
394.6363621132041
 10
287.100454324539
 20
394.3623277252809
 10
287.074978130644
 20
394.1615908753629
 10
286.8519350254619
 20
394.0373409495623
 10
286.8774112193578
 20
394.0373409495623
 10
286.9315918882075
 20
394.0150346942974
 10
287.0176080756883
 20
393.9640434115536
 10
287.106833096751
 20
393.9130715762876
 10
287.1992280564446
 20
393.8525315827028
 10
287.2980017883492
 20
393.7760641060631
 10
287.3999649063599
 20
393.7027665680544
 10
287.4605048999456
 20
393.6645328297345
 10
287.4860005413175
 20
393.6645328297345
 10
287.3872268094119
 20
393.4415091720293
 10
287.2502193391874
 20
393.3299778956989
 10
287.074978130644
 20
393.3299778956989
 10
287.2247236978164
 20
392.9316935819734
 10
287.0367249448482
 20
392.4951755299298
 10
286.5141907053221
 20
392.0204237395646
 10
286.4154169734175
 20
391.9216500076582
 10
286.259292634033
 20
391.8228762757535
 10
286.0489876257998
 20
391.7241025438489
 10
285.8355126789356
 20
391.6221394258391
 10
285.6411546012323
 20
391.5424825630944
 10
285.469083331318
 20
391.4787531834027
 10
285.2938421227736
 20
391.418213189816
 10
285.195068390869
 20
391.373600679286
 10
285.1695727494971
 20
391.3481244853901
 10
284.92105345042
 20
391.1250813802071
 10
284.7330546974526
 20
390.8956595028139
 10
284.6087853241752
 20
390.6566889145797
 10
284.4845353983756
 20
390.4209077124506
 10
284.4654185292156
 20
390.1915052825334
 10
284.5514347166963
 20
389.9652727912453
 10
284.6406597377591
 20
389.7422296860641
 10
284.8700621676762
 20
389.5924841188917
 10
285.2428702875068
 20
389.5191865808829
 10
285.2428702875068
 20
389.5191865808829
 10
285.2811040258257
 20
389.219695446538
 10
285.2811040258257
 20
389.219695446538
 10
285.2811040258257
 20
389.219695446538
 10
285.2811040258257
 20
388.5473767448875
 10
285.2811040258257
 20
388.5473767448875
 10
285.2811040258257
 20
388.5473767448875
 10
285.3193377641455
 20
388.2478661630666
 10
285.3193377641455
 20
388.2478661630666
 10
285.3448139580414
 20
388.0726249545223
 10
285.3607608885713
 20
387.9165006151379
 10
285.3734989855193
 20
387.7794931449134
 10
285.3862370824663
 20
387.6424856746889
 10
285.3862370824663
 20
387.4704144047755
 10
285.3734989855193
 20
387.2569394579114
 10
285.3607608885713
 20
387.0466538971541
 10
285.3065802197216
 20
386.9287632960895
 10
285.2078064878169
 20
386.9032676547176
 10
285.1090327559123
 20
386.8777720133457
 10
284.9720252856878
 20
386.9032676547176
 10
284.7967840771435
 20
386.9765457452504
 10
284.5960472272282
 20
387.078508863262
 10
284.3602660250981
 20
387.6265581916359
 10
284.08625108465
 20
388.6206742828963
 10
284.0352598019062
 20
388.8691935819734
 10
283.8855142347338
 20
389.1687041637942
 10
283.6369754881807
 20
389.5191865808829
 10
283.5127061149042
 20
389.3949366550823
 10
283.4075730582636
 20
389.3120904062307
 10
283.3183480371999
 20
389.2770460540178
 10
283.2323318497192
 20
389.2388123156979
 10
283.1686024700284
 20
389.232433543486
 10
283.1335386703386
 20
389.2579291848579
 10
283.0953049320187
 20
389.2802159926468
 10
283.0284056136979
 20
389.3375860476026
 10
282.9264424956864
 20
389.4236022350833
 10
282.8276687637817
 20
389.5128272561469
 10
282.741633128825
 20
389.5797265744677
 10
282.6651656521854
 20
389.6307178572115
 10
282.5408962789088
 20
389.7039959477443
 10
282.3242319459396
 20
389.767725327436
 10
282.0119832671708
 20
389.8155272240729
 10
281.7029045270328
 20
389.8664990593406
 10
281.5085464493286
 20
389.9270390529255
 10
281.4320789726899
 20
390.0035065295651
 10
280.8362471951541
 20
389.5542503805718
 10
280.4730072336424
 20
389.6657622094244
 10
280.3487378603659
 20
390.3380614635989
 10
280.3009554112041
 20
390.2138115377984
 10
280.3073147359401
 20
390.04492965399
 10
280.3678547295258
 20
389.8346440932328
 10
280.4315841092166
 20
389.6211496988926
 10
280.4602691366945
 20
389.503259097828
 10
280.4602691366945
 20
389.477782903934
 10
280.2881978667801
 20
389.1559660668463
 10
280.0141829263321
 20
389.1304704254744
 10
279.6413942539775
 20
389.4044853659234
 10
279.4916292393291
 20
389.5542503805718
 10
279.1475255944533
 20
389.5733672497317
 10
278.6122338105033
 20
389.4618359734031
 10
278.0992288343432
 20
389.3567029167625
 10
277.7551251894674
 20
389.3343966614975
 10
277.5735052087111
 20
389.3949366550823
 10
277.602170788713
 20
389.3821791106584
 10
277.6435939131388
 20
389.3471347584436
 10
277.6977551345117
 20
389.2929735370708
 10
277.7710526725214
 20
389.2451716404339
 10
277.8220245077882
 20
389.2069379021141
 10
277.8475201491601
 20
389.1814422607422
 10
277.8220245077882
 20
389.0826685288375
 10
277.7837907694693
 20
389.0062010521979
 10
277.7328189342015
 20
388.958418603037
 10
277.6850170375637
 20
388.9074273202932
 10
277.6340452022969
 20
388.8883104511333
 10
277.5862433056591
 20
388.9010679955572
 10
277.5352714703922
 20
388.9138060925052
 10
277.4779014154365
 20
388.9138060925052
 10
277.4173808693276
 20
388.9010679955572
 10
277.3536514896359
 20
388.8883104511333
 10
277.2994708207862
 20
388.8691935819734
 10
277.2484989855193
 20
388.8436979406015
 10
277.1497252536137
 20
388.7704198500687
 10
277.0254558803372
 20
388.6397911520562
 10
276.8757103131657
 20
388.4549817851948
 10
276.7259452985172
 20
388.2669830322266
 10
276.6144334696646
 20
388.149092431162
 10
276.537965993025
 20
388.0981205958942
 10
276.6877115601974
 20
387.6998362821687
 10
276.7578197121011
 20
387.3939469281358
 10
276.7450621676762
 20
387.1836613673786
 10
276.7323240707292
 20
386.9701669730384
 10
276.6940903324094
 20
386.6611076803765
 10
276.6303609527176
 20
386.250085269703
 10
276.5698209591328
 20
385.8390434115536
 10
276.537965993025
 20
385.5076778636267
 10
276.537965993025
 20
385.2591391170718
 10
276.537965993025
 20
384.860854803348
 10
276.6558565940895
 20
384.3988605574068
 10
276.8916377962187
 20
383.8763068704047
 10
277.1306083844547
 20
383.3537531834027
 10
277.4110020971148
 20
382.993702607997
 10
277.7328189342015
 20
382.7929657580808
 10
277.9080601427459
 20
382.6941920261761
 10
278.2075707245658
 20
382.6336520325913
 10
278.6313506796632
 20
382.6081758386954
 10
279.0551111872846
 20
382.5826801973235
 10
279.3546217691055
 20
382.6081758386954
 10
279.5266930390189
 20
382.6814539292282
 10
279.6764386061914
 20
382.7547320197609
 10
279.787950435044
 20
382.8439570408245
 10
279.8644373591596
 20
382.9427307727292
 10
279.9377154496924
 20
383.0415045046338
 10
280.0014448293841
 20
383.1880606856994
 10
280.049227278545
 20
383.3728700525626
 10
280.1002185612888
 20
383.5576794194239
 10
280.1384522996086
 20
383.6883081174365
 10
280.1639479409805
 20
383.7647755940761
 10
280.3359997634179
 20
384.2395468319155
 10
280.6610059866107
 20
384.4880661309926
 10
281.132568390869
 20
384.5135617723645
 10
281.4320789726899
 20
384.5358680276313
 10
281.6487433056591
 20
384.5039936140474
 10
281.7889401619896
 20
384.4179774265667
 10
281.925947632214
 20
384.33194179161
 10
281.9801088535869
 20
384.2140511905454
 10
281.9546326596919
 20
384.064286175897
 10
281.92913701832
 20
383.9145406087246
 10
281.8813351216822
 20
383.7584162693402
 10
281.8048676450435
 20
383.5959131577438
 10
281.7315895545107
 20
383.4334100461474
 10
281.6391945948171
 20
383.254979451498
 10
281.5244739323825
 20
383.0542426015818
 10
281.4129621035299
 20
382.8535057516656
 10
281.3460433377322
 20
382.7069495706
 10
281.3205671438373
 20
382.6049864525885
 10
281.2727652471995
 20
382.4074389887792
 10
281.2281527366677
 20
382.1270452761182
 10
281.1899189983487
 20
381.7638053146056
 10
281.1516852600289
 20
381.4037547391999
 10
281.123000232551
 20
381.1870904062307
 10
281.0975240386551
 20
381.110622929591
 10
281.1453064878169
 20
381.0851272882192
 10
281.3333052407852
 20
381.072389191273
 10
281.658311463977
 20
381.072389191273
 10
281.658311463977
 20
381.123361026539
 10
281.674238947031
 20
381.2030178892855
 10
281.7124726853508
 20
381.3177191042432
 10
281.7507064236697
 20
381.4292503805718
 10
281.7698232928296
 20
381.4961496988926
 10
281.7698232928296
 20
381.5216453402645
 10
281.8940926661062
 20
381.3209084903501
 10
282.0916401299164
 20
381.2093966614975
 10
282.3656550703654
 20
381.1870904062307
 10
282.6396700108135
 20
381.1615947648588
 10
282.8404068607297
 20
381.2603684967635
 10
282.9646762340062
 20
381.4834116019447
 10
283.015648069274
 20
381.4101335114119
 10
283.1654130839224
 20
381.2221347584436
 10
283.4139323829995
 20
380.9226241766246
 10
283.6624711295526
 20
380.6263029809088
 10
283.7994785997771
 20
380.3745942957266
 10
283.824974241149
 20
380.1770468319155
 10
283.850450435044
 20
380.0750837139058
 10
283.8982523316818
 20
379.9157699884145
 10
283.9747198083205
 20
379.6895374971282
 10
284.0480173463302
 20
379.466494391947
 10
284.0734935402261
 20
379.3103700525626
 10
284.0480173463302
 20
379.221164478975
 10
284.0225217049583
 20
379.1351288440183
 10
283.8982523316818
 20
379.0905163334864
 10
283.6752092265006
 20
379.0905163334864
 10
283.576435494595
 20
379.0905163334864
 10
283.5127061149042
 20
379.0554719812735
 10
283.4904193071143
 20
378.9790045046338
 10
283.4649236657424
 20
378.9057069666251
 10
283.4649236657424
 20
378.8133120069324
 10
283.4904193071143
 20
378.7018001780798
 10
283.5158955010102
 20
378.5870795156443
 10
283.544580528488
 20
378.4819464590037
 10
283.582814266807
 20
378.383172727099
 10
283.6210480051268
 20
378.2843989951944
 10
283.6688499017646
 20
378.1760571049708
 10
283.7325598339794
 20
378.0645452761182
 10
283.7962892136711
 20
377.9530139997896
 10
283.824974241149
 20
377.8861146814688
 10
283.824974241149
 20
377.8606190400969
 10
284.2742303901414
 20
377.038554771274
 10
284.8828197121011
 20
376.8155116660928
 10
285.6570820842862
 20
377.1883197859224
 10
285.6570820842862
 20
376.4650292490041
 10
285.4818408757419
 20
376.0667449352786
 10
285.1313390111773
 20
375.9934668447459
 10
284.9337915473679
 20
375.9424755620021
 10
284.7107484421867
 20
376.0699343213855
 10
284.4622291431097
 20
376.3662555170995
 97
        0
 97
        0
 92
        1
 93
        1
 72
     4
 94
        3
 73
     0
 74
     1
 95
      140
 96
      136
 40
0.0
 40
0.0
 40
0.0
 40
0.0
 40
1.0
 40
1.0
 40
1.0
 40
2.0
 40
2.0
 40
2.0
 40
3.0
 40
3.0
 40
3.0
 40
4.0
 40
4.0
 40
4.0
 40
5.0
 40
5.0
 40
5.0
 40
6.0
 40
6.0
 40
6.0
 40
7.0
 40
7.0
 40
7.0
 40
8.0
 40
8.0
 40
8.0
 40
9.0
 40
9.0
 40
9.0
 40
10.0
 40
10.0
 40
10.0
 40
11.0
 40
11.0
 40
11.0
 40
12.0
 40
12.0
 40
12.0
 40
13.0
 40
13.0
 40
13.0
 40
14.0
 40
14.0
 40
14.0
 40
15.0
 40
15.0
 40
15.0
 40
16.0
 40
16.0
 40
16.0
 40
17.0
 40
17.0
 40
17.0
 40
18.0
 40
18.0
 40
18.0
 40
19.0
 40
19.0
 40
19.0
 40
20.0
 40
20.0
 40
20.0
 40
21.0
 40
21.0
 40
21.0
 40
22.0
 40
22.0
 40
22.0
 40
23.0
 40
23.0
 40
23.0
 40
24.0
 40
24.0
 40
24.0
 40
25.0
 40
25.0
 40
25.0
 40
26.0
 40
26.0
 40
26.0
 40
27.0
 40
27.0
 40
27.0
 40
28.0
 40
28.0
 40
28.0
 40
29.0
 40
29.0
 40
29.0
 40
30.0
 40
30.0
 40
30.0
 40
31.0
 40
31.0
 40
31.0
 40
32.0
 40
32.0
 40
32.0
 40
33.0
 40
33.0
 40
33.0
 40
34.0
 40
34.0
 40
34.0
 40
35.0
 40
35.0
 40
35.0
 40
36.0
 40
36.0
 40
36.0
 40
37.0
 40
37.0
 40
37.0
 40
38.0
 40
38.0
 40
38.0
 40
39.0
 40
39.0
 40
39.0
 40
40.0
 40
40.0
 40
40.0
 40
41.0
 40
41.0
 40
41.0
 40
42.0
 40
42.0
 40
42.0
 40
43.0
 40
43.0
 40
43.0
 40
44.0
 40
44.0
 40
44.0
 40
45.0
 40
45.0
 40
45.0
 40
45.0
 10
285.0198271823247
 20
367.9258174522256
 10
284.9720252856878
 20
368.1743367513027
 10
284.9465296443159
 20
368.3750736012171
 10
284.9497190304219
 20
368.5248386158655
 10
284.924242836526
 20
368.7223860796767
 10
285.0102590240067
 20
368.9900222479137
 10
285.2078064878169
 20
369.3277665680525
 10
285.4085433377322
 20
369.6623409495642
 10
285.5073170696378
 20
369.9172390208532
 10
285.5073170696378
 20
370.0924802293957
 10
285.1090327559123
 20
370.1912539613022
 10
284.9592871887398
 20
370.5162601844931
 10
285.0580609206445
 20
371.0642900653911
 10
285.1090327559123
 20
371.4370787377447
 10
285.469083331318
 20
371.9373261694818
 10
286.1413825854925
 20
372.5586535883886
 10
286.6161538233328
 20
372.982433543486
 10
286.7658993905052
 20
373.5814547071277
 10
286.5906581819609
 20
374.3525276932069
 10
286.5173800914281
 20
374.6743445302927
 10
286.4536507117373
 20
375.1490963206579
 10
286.4026594289935
 20
375.7704237395646
 10
286.3580663659377
 20
376.3726342893115
 10
286.3070750831948
 20
376.799584183038
 10
286.259292634033
 20
377.0513123156979
 10
286.2847688279289
 20
376.9907723221131
 10
286.4026594289935
 20
376.9270429424214
 10
286.6097750511208
 20
376.8728817210485
 10
286.8455562532499
 20
376.8123417274619
 10
286.9889424956864
 20
376.7326848647172
 10
287.0399143309542
 20
376.6339111328125
 10
287.087716227592
 20
376.7071892233453
 10
287.1514456072828
 20
376.8441966935698
 10
287.2247236978164
 20
377.0417441573791
 10
287.3011911744552
 20
377.2424810072953
 10
287.3744887124649
 20
377.3922265744677
 10
287.4477668029976
 20
377.4910003063724
 10
287.4987386382645
 20
377.567487230488
 10
287.6038911423821
 20
377.6598821901807
 10
287.7663942539775
 20
377.7713940190333
 10
287.9288973655739
 20
377.8829252953619
 10
288.0340304222145
 20
377.9530139997896
 10
288.0850217049583
 20
377.9785096411615
 10
288.1328041541201
 20
378.0008158964265
 10
288.2475248165547
 20
378.0836621452781
 10
288.4195766389921
 20
378.2206696155026
 10
288.5948178475364
 20
378.3576770857271
 10
288.7382040899729
 20
378.4628295898438
 10
288.8497159188255
 20
378.5361076803765
 10
288.9644365812601
 20
378.6125751570162
 10
289.1109927623265
 20
378.666736378389
 10
289.2989915152948
 20
378.7049895641849
 10
289.4869708207862
 20
378.7432233025047
 10
289.6176189662747
 20
378.6858532475489
 10
289.6908970568084
 20
378.5361076803765
 10
289.8151664300849
 20
378.3863621132041
 10
289.789670788713
 20
378.1569402358109
 10
289.6176189662747
 20
377.8446915570421
 10
289.4423777577313
 20
377.5324234307973
 10
289.4423777577313
 20
377.315759097828
 10
289.6176189662747
 20
377.1915091720275
 10
289.6431146076466
 20
377.2647872625621
 10
289.6654014154365
 20
377.4272903741567
 10
289.6908970568084
 20
377.6758096732337
 10
289.7163926981802
 20
377.9275378058937
 10
289.789670788713
 20
378.1123277252791
 10
289.9139401619896
 20
378.2397864846625
 10
290.063685729162
 20
378.3863621132041
 10
290.2070719715985
 20
378.4755676867917
 10
290.3440794418229
 20
378.4978739420567
 10
290.4811063595234
 20
378.5265395220595
 10
290.605356285324
 20
378.5074226528995
 10
290.7168875616526
 20
378.4437127206838
 10
290.8315887766112
 20
378.3799833409921
 10
290.9622174746237
 20
378.2939477060354
 10
291.1087931031661
 20
378.1824358771828
 10
291.2585386703386
 20
378.0709046008542
 10
291.3955655880391
 20
378.0008158964265
 10
291.5198155138396
 20
377.9785096411615
 10
291.8926236336692
 20
377.8510508817781
 10
292.3418797826616
 20
377.5770359413291
 10
292.8644334696646
 20
377.1564453723386
 10
292.8421272143987
 20
377.1787516276036
 10
292.8421272143987
 20
377.2106260411874
 10
292.8644334696646
 20
377.2488597795073
 10
292.8899291110356
 20
377.2870935178271
 10
292.9409009463034
 20
377.32213787004
 10
293.0141790368361
 20
377.3603716083599
 10
293.0906465134758
 20
377.3986053466797
 10
293.1575652792726
 20
377.4336496988926
 10
293.2212946589643
 20
377.4718834372125
 10
293.2818346525492
 20
377.5101366230083
 10
293.3519233569768
 20
377.5388022030093
 10
293.4252208949856
 20
377.5642978443811
 10
293.4252208949856
 20
377.5642978443811
 10
293.5367327238382
 20
377.602531582701
 10
293.5367327238382
 20
377.602531582701
 10
293.7119739323825
 20
377.602531582701
 10
293.8362433056591
 20
377.6152696796489
 10
293.9095213961918
 20
377.6407653210208
 10
293.9860083203075
 20
377.6662609623927
 10
294.0911413769481
 20
377.6407653210208
 10
294.2281488471726
 20
377.5642978443811
 10
294.3651563173971
 20
377.4910003063724
 10
294.4575707245658
 20
377.4336496988926
 10
294.5085425598336
 20
377.3986053466797
 10
294.5563444564714
 20
377.3603716083599
 10
294.6455500300581
 20
377.2934528425631
 10
294.7698194033346
 20
377.1915091720275
 10
294.8940887766112
 20
377.0927159926468
 10
294.9801244115679
 20
377.0162485160072
 10
295.0310962468357
 20
376.9684660668463
 10
295.1043743373684
 20
376.9206641702094
 10
295.2413818075929
 20
376.8314585966218
 10
295.4421186575091
 20
376.7071892233453
 10
295.6396661213184
 20
376.5829198500687
 10
295.7958099081789
 20
376.4841461181641
 10
295.9073217370315
 20
376.4076786415244
 10
296.02202295199
 20
376.3344005509916
 10
296.1207966838956
 20
376.222869274663
 10
296.2068323188523
 20
376.0731237074906
 10
296.292867953809
 20
375.9233586928422
 10
296.3247229199169
 20
375.7608555812458
 10
296.299227278545
 20
375.5856143727015
 10
296.4489922931934
 20
375.5601187313296
 10
296.7485028750143
 20
375.4613449994249
 10
297.1977590240067
 20
375.2892931769875
 10
297.2710565620164
 20
375.2383213417197
 10
297.4271809014008
 20
375.1937088311879
 10
297.6661514896359
 20
375.158664478975
 10
297.9019326917651
 20
375.1204307406551
 10
298.0580570311495
 20
375.0630606856994
 10
298.1313351216822
 20
374.9897825951666
 10
294.5244700428875
 20
371.1758213417197
 10
290.1497213641187
 20
368.8243491976864
 10
285.0198271823247
 20
367.9258174522256
 97
        0
 97
        0
 75
     2
 76
     1
 98
        0
  0
ENDBLK
  5
44
330
41
100
AcDbEntity
  8
0
100
AcDbBlockEnd
  0
BLOCK
  5
4B
330
49
100
AcDbEntity
  8
0
100
AcDbBlockBegin
  2
block 3
 70
     0
 10
0.0
 20
0.0
 30
0.0
  3
block 3
  1

  0
SPLINE
  5
4D
330
49
100
AcDbEntity
  8
Ebene 1
370
     0
100
AcDbSpline
210
0.0
220
0.0
230
1.0
 70
    11
 71
     3
 72
    53
 73
    49
 74
     0
 42
0.0000000001
 43
0.0000000001
 12
1.0
 22
0.0
 32
0.0
 13
1.0
 23
0.0
 33
0.0
 40
0.0
 40
0.0
 40
0.0
 40
0.0
 40
1.0
 40
1.0
 40
1.0
 40
2.0
 40
2.0
 40
2.0
 40
3.0
 40
3.0
 40
3.0
 40
4.0
 40
4.0
 40
4.0
 40
5.0
 40
5.0
 40
5.0
 40
6.0
 40
6.0
 40
6.0
 40
7.0
 40
7.0
 40
7.0
 40
8.0
 40
8.0
 40
8.0
 40
9.0
 40
9.0
 40
9.0
 40
10.0
 40
10.0
 40
10.0
 40
11.0
 40
11.0
 40
11.0
 40
12.0
 40
12.0
 40
12.0
 40
13.0
 40
13.0
 40
13.0
 40
14.0
 40
14.0
 40
14.0
 40
15.0
 40
15.0
 40
15.0
 40
16.0
 40
16.0
 40
16.0
 40
16.0
 10
238.6582959059961
 20
391.4628218856524
 30
0.0
 10
238.6582959059961
 20
383.213552512374
 30
0.0
 10
235.9244863787671
 20
375.601538041059
 30
0.0
 10
231.3139370503932
 20
369.4870764788466
 30
0.0
 10
224.6450668350708
 20
360.6419947755112
 30
0.0
 10
214.0507040899729
 20
354.9258175270224
 30
0.0
 10
202.1244809334739
 20
354.9258175270224
 30
0.0
 10
181.9457990175924
 20
354.9258175270224
 30
0.0
 10
165.5874765748458
 20
371.28413996977
 30
0.0
 10
165.5874765748458
 20
391.4628218856524
 30
0.0
 10
165.5874765748458
 20
411.641503801533
 30
0.0
 10
181.9457990175924
 20
427.9998262442796
 30
0.0
 10
202.1244809334739
 20
427.9998262442796
 30
0.0
 10
202.1244809334739
 20
427.9998262442796
 30
0.0
 10
202.1244809334739
 20
420.1552199569405
 30
0.0
 10
202.1244809334739
 20
420.1552199569405
 30
0.0
 10
196.9180998275651
 20
420.1552199569405
 30
0.0
 10
192.1163818075929
 20
418.8743313808063
 30
0.0
 10
187.7225162596651
 20
416.3093842899098
 30
0.0
 10
183.3254613256304
 20
413.7412478129072
 30
0.0
 10
179.8460550062182
 20
410.2618414934941
 30
0.0
 10
177.2779185292156
 20
405.8647865594603
 30
0.0
 10
174.7129519908422
 20
401.4709015640556
 30
0.0
 10
173.4320828621849
 20
396.6691835440843
 30
0.0
 10
173.4320828621849
 20
391.4628218856524
 30
0.0
 10
173.4320828621849
 20
386.2596301658486
 30
0.0
 10
174.7129519908422
 20
381.4579121458773
 30
0.0
 10
177.2779185292156
 20
377.0608572118417
 30
0.0
 10
179.8428656201122
 20
372.6669916639148
 30
0.0
 10
183.3254613256304
 20
369.1843959583948
 30
0.0
 10
187.7193268735591
 20
366.6194294200232
 30
0.0
 10
192.1163818075929
 20
364.0544823291257
 30
0.0
 10
196.9180998275651
 20
362.7704238143615
 30
0.0
 10
202.1244809334739
 20
362.7704238143615
 30
0.0
 10
207.3276726532767
 20
362.7704238143615
 30
0.0
 10
212.129390673249
 20
364.0544823291257
 30
0.0
 10
216.5264456072828
 20
366.6194294200232
 30
0.0
 10
220.244822514931
 20
368.7892815833002
 30
0.0
 10
223.3068276514578
 20
371.6123355790678
 30
0.0
 10
225.7124610168648
 20
375.088552512374
 30
0.0
 10
226.1553578411222
 20
375.7226180282287
 30
0.0
 10
226.5727590240067
 20
376.3821791854552
 30
0.0
 10
226.9678539516262
 20
377.0608572118417
 30
0.0
 10
229.5328204899997
 20
381.4579121458773
 30
0.0
 10
230.816879004763
 20
386.2596301658486
 30
0.0
 10
230.816879004763
 20
391.4628218856524
 30
0.0
 10
230.816879004763
 20
391.4628218856524
 30
0.0
 10
238.6582959059961
 20
391.4628218856524
 30
0.0
 10
238.6582959059961
 20
391.4628218856524
 30
0.0
  0
HATCH
  5
4E
330
49
100
AcDbEntity
  8
Ebene 1
 62
     8
420
  7697781
100
AcDbHatch
 10
0.0
 20
0.0
 30
0.0
210
0.0
220
0.0
230
1.0
  2
SOLID
 70
     1
 71
     0
 91
        1
 92
        1
 93
        1
 72
     4
 94
        3
 73
     0
 74
     1
 95
       53
 96
       49
 40
0.0
 40
0.0
 40
0.0
 40
0.0
 40
1.0
 40
1.0
 40
1.0
 40
2.0
 40
2.0
 40
2.0
 40
3.0
 40
3.0
 40
3.0
 40
4.0
 40
4.0
 40
4.0
 40
5.0
 40
5.0
 40
5.0
 40
6.0
 40
6.0
 40
6.0
 40
7.0
 40
7.0
 40
7.0
 40
8.0
 40
8.0
 40
8.0
 40
9.0
 40
9.0
 40
9.0
 40
10.0
 40
10.0
 40
10.0
 40
11.0
 40
11.0
 40
11.0
 40
12.0
 40
12.0
 40
12.0
 40
13.0
 40
13.0
 40
13.0
 40
14.0
 40
14.0
 40
14.0
 40
15.0
 40
15.0
 40
15.0
 40
16.0
 40
16.0
 40
16.0
 40
16.0
 10
238.6582959059961
 20
391.4628218856524
 10
238.6582959059961
 20
383.213552512374
 10
235.9244863787671
 20
375.601538041059
 10
231.3139370503932
 20
369.4870764788466
 10
224.6450668350708
 20
360.6419947755112
 10
214.0507040899729
 20
354.9258175270224
 10
202.1244809334739
 20
354.9258175270224
 10
181.9457990175924
 20
354.9258175270224
 10
165.5874765748458
 20
371.28413996977
 10
165.5874765748458
 20
391.4628218856524
 10
165.5874765748458
 20
411.641503801533
 10
181.9457990175924
 20
427.9998262442796
 10
202.1244809334739
 20
427.9998262442796
 10
202.1244809334739
 20
427.9998262442796
 10
202.1244809334739
 20
420.1552199569405
 10
202.1244809334739
 20
420.1552199569405
 10
196.9180998275651
 20
420.1552199569405
 10
192.1163818075929
 20
418.8743313808063
 10
187.7225162596651
 20
416.3093842899098
 10
183.3254613256304
 20
413.7412478129072
 10
179.8460550062182
 20
410.2618414934941
 10
177.2779185292156
 20
405.8647865594603
 10
174.7129519908422
 20
401.4709015640556
 10
173.4320828621849
 20
396.6691835440843
 10
173.4320828621849
 20
391.4628218856524
 10
173.4320828621849
 20
386.2596301658486
 10
174.7129519908422
 20
381.4579121458773
 10
177.2779185292156
 20
377.0608572118417
 10
179.8428656201122
 20
372.6669916639148
 10
183.3254613256304
 20
369.1843959583948
 10
187.7193268735591
 20
366.6194294200232
 10
192.1163818075929
 20
364.0544823291257
 10
196.9180998275651
 20
362.7704238143615
 10
202.1244809334739
 20
362.7704238143615
 10
207.3276726532767
 20
362.7704238143615
 10
212.129390673249
 20
364.0544823291257
 10
216.5264456072828
 20
366.6194294200232
 10
220.244822514931
 20
368.7892815833002
 10
223.3068276514578
 20
371.6123355790678
 10
225.7124610168648
 20
375.088552512374
 10
226.1553578411222
 20
375.7226180282287
 10
226.5727590240067
 20
376.3821791854552
 10
226.9678539516262
 20
377.0608572118417
 10
229.5328204899997
 20
381.4579121458773
 10
230.816879004763
 20
386.2596301658486
 10
230.816879004763
 20
391.4628218856524
 10
230.816879004763
 20
391.4628218856524
 10
238.6582959059961
 20
391.4628218856524
 10
238.6582959059961
 20
391.4628218856524
 97
        0
 97
        0
 75
     2
 76
     1
 98
        0
  0
ENDBLK
  5
4C
330
49
100
AcDbEntity
  8
0
100
AcDbBlockEnd
  0
BLOCK
  5
51
330
4F
100
AcDbEntity
  8
0
100
AcDbBlockBegin
  2
block 4
 70
     0
 10
0.0
 20
0.0
 30
0.0
  3
block 4
  1

  0
POLYLINE
  5
53
330
4F
100
AcDbEntity
  8
Ebene 1
370
     0
100
AcDb2dPolyline
 66
     1
 10
0.0
 20
0.0
 30
0.0
  0
VERTEX
  5
54
330
53
100
AcDbEntity
  8
Ebene 1
370
     0
100
AcDbVertex
100
AcDb2dVertex
 10
212.5187044458617
 20
380.1395269791574
 30
0.0
  0
VERTEX
  5
55
330
53
100
AcDbEntity
  8
Ebene 1
370
     0
100
AcDbVertex
100
AcDb2dVertex
 10
187.1228869697015
 20
380.1395269791574
 30
0.0
  0
VERTEX
  5
56
330
53
100
AcDbEntity
  8
Ebene 1
370
     0
100
AcDbVertex
100
AcDb2dVertex
 10
187.1228869697015
 20
387.9476325565993
 30
0.0
  0
VERTEX
  5
57
330
53
100
AcDbEntity
  8
Ebene 1
370
     0
100
AcDbVertex
100
AcDb2dVertex
 10
212.5187044458617
 20
387.9476325565993
 30
0.0
  0
VERTEX
  5
58
330
53
100
AcDbEntity
  8
Ebene 1
370
     0
100
AcDbVertex
100
AcDb2dVertex
 10
212.5187044458617
 20
380.1395269791574
 30
0.0
  0
VERTEX
  5
59
330
53
100
AcDbEntity
  8
Ebene 1
370
     0
100
AcDbVertex
100
AcDb2dVertex
 10
212.5187044458617
 20
380.1395269791574
 30
0.0
  0
SEQEND
  5
5B
330
53
100
AcDbEntity
  8
Ebene 1
370
     0
  0
HATCH
  5
5A
330
4F
100
AcDbEntity
  8
Ebene 1
 62
   132
420
  1882064
100
AcDbHatch
 10
0.0
 20
0.0
 30
0.0
210
0.0
220
0.0
230
1.0
  2
SOLID
 70
     1
 71
     0
 91
        1
 92
        1
 93
        4
 72
     1
 10
212.5187044458617
 20
380.1395269791574
 11
187.1228869697015
 21
380.1395269791574
 72
     1
 10
187.1228869697015
 20
380.1395269791574
 11
187.1228869697015
 21
387.9476325565993
 72
     1
 10
187.1228869697015
 20
387.9476325565993
 11
212.5187044458617
 21
387.9476325565993
 72
     1
 10
212.5187044458617
 20
387.9476325565993
 11
212.5187044458617
 21
380.1395269791574
 97
        0
 75
     2
 76
     1
 98
        0
  0
ENDBLK
  5
52
330
4F
100
AcDbEntity
  8
0
100
AcDbBlockEnd
  0
BLOCK
  5
5E
330
5C
100
AcDbEntity
  8
0
100
AcDbBlockBegin
  2
block 5
 70
     0
 10
0.0
 20
0.0
 30
0.0
  3
block 5
  1

  0
POLYLINE
  5
60
330
5C
100
AcDbEntity
  8
Ebene 1
370
     0
100
AcDb2dPolyline
 66
     1
 10
0.0
 20
0.0
 30
0.0
  0
VERTEX
  5
61
330
60
100
AcDbEntity
  8
Ebene 1
370
     0
100
AcDbVertex
100
AcDb2dVertex
 10
211.5187044458617
 20
402.3895269791574
 30
0.0
  0
VERTEX
  5
62
330
60
100
AcDbEntity
  8
Ebene 1
370
     0
100
AcDbVertex
100
AcDb2dVertex
 10
186.1228869697015
 20
402.3895269791574
 30
0.0
  0
VERTEX
  5
63
330
60
100
AcDbEntity
  8
Ebene 1
370
     0
100
AcDbVertex
100
AcDb2dVertex
 10
186.1228869697015
 20
410.1976325565993
 30
0.0
  0
VERTEX
  5
64
330
60
100
AcDbEntity
  8
Ebene 1
370
     0
100
AcDbVertex
100
AcDb2dVertex
 10
211.5187044458617
 20
410.1976325565993
 30
0.0
  0
VERTEX
  5
65
330
60
100
AcDbEntity
  8
Ebene 1
370
     0
100
AcDbVertex
100
AcDb2dVertex
 10
211.5187044458617
 20
402.3895269791574
 30
0.0
  0
VERTEX
  5
66
330
60
100
AcDbEntity
  8
Ebene 1
370
     0
100
AcDbVertex
100
AcDb2dVertex
 10
211.5187044458617
 20
402.3895269791574
 30
0.0
  0
SEQEND
  5
68
330
60
100
AcDbEntity
  8
Ebene 1
370
     0
  0
HATCH
  5
67
330
5C
100
AcDbEntity
  8
Ebene 1
 62
   132
420
  1882064
100
AcDbHatch
 10
0.0
 20
0.0
 30
0.0
210
0.0
220
0.0
230
1.0
  2
SOLID
 70
     1
 71
     0
 91
        1
 92
        1
 93
        4
 72
     1
 10
211.5187044458617
 20
402.3895269791574
 11
186.1228869697015
 21
402.3895269791574
 72
     1
 10
186.1228869697015
 20
402.3895269791574
 11
186.1228869697015
 21
410.1976325565993
 72
     1
 10
186.1228869697015
 20
410.1976325565993
 11
211.5187044458617
 21
410.1976325565993
 72
     1
 10
211.5187044458617
 20
410.1976325565993
 11
211.5187044458617
 21
402.3895269791574
 97
        0
 75
     2
 76
     1
 98
        0
  0
ENDBLK
  5
5F
330
5C
100
AcDbEntity
  8
0
100
AcDbBlockEnd
  0
ENDSEC
  0
SECTION
  2
ENTITIES
  0
INSERT
  5
42
330
1F
100
AcDbEntity
  8
Ebene 1
100
AcDbBlockReference
  2
block 2
 10
0.0
 20
0.0
 30
0.0
  0
INSERT
  5
4A
330
1F
100
AcDbEntity
  8
Ebene 1
100
AcDbBlockReference
  2
block 3
 10
0.0
 20
0.0
 30
0.0
  0
INSERT
  5
50
330
1F
100
AcDbEntity
  8
Ebene 1
100
AcDbBlockReference
  2
block 4
 10
0.0
 20
0.0
 30
0.0
  0
INSERT
  5
5D
330
1F
100
AcDbEntity
  8
Ebene 1
100
AcDbBlockReference
  2
block 5
 10
0.0
 20
0.0
 30
0.0
  0
ENDSEC
  0
SECTION
  2
OBJECTS
  0
DICTIONARY
  5
C
330
0
100
AcDbDictionary
281
     1
  3
ACAD_GROUP
350
D
  3
ACAD_LAYOUT
350
1A
  3
ACAD_MATERIAL
350
3B
  3
ACAD_MLEADERSTYLE
350
6A
  3
ACAD_MLINESTYLE
350
17
  3
ACAD_PLOTSETTINGS
350
19
  3
ACAD_PLOTSTYLENAME
350
E
  3
ACAD_TABLESTYLE
350
69
  3
ACAD_VISUALSTYLE
350
2A
  0
SUN
  5
3F
330
29
100
AcDbSun
 90
        1
290
     0
 63
     7
421
 16777215
 40
1.0
291
     1
 91
  2455826
 92
 54000000
292
     0
 70
     2
 71
   256
280
     1
  0
DICTIONARY
  5
D
102
{ACAD_REACTORS
330
C
102
}
330
C
100
AcDbDictionary
281
     1
  0
DICTIONARY
  5
1A
102
{ACAD_REACTORS
330
C
102
}
330
C
100
AcDbDictionary
281
     1
  3
Layout1
350
1E
  3
Layout2
350
26
  3
Model
350
22
  0
DICTIONARY
  5
3B
102
{ACAD_REACTORS
330
C
102
}
330
C
100
AcDbDictionary
281
     1
  3
ByBlock
350
3D
  3
ByLayer
350
3C
  3
Global
350
3E
  0
DICTIONARY
  5
6A
102
{ACAD_REACTORS
330
C
102
}
330
C
100
AcDbDictionary
281
     1
  0
DICTIONARY
  5
17
102
{ACAD_REACTORS
330
C
102
}
330
C
100
AcDbDictionary
281
     1
  3
Standard
350
18
  0
DICTIONARY
  5
19
102
{ACAD_REACTORS
330
C
102
}
330
C
100
AcDbDictionary
281
     1
  0
ACDBDICTIONARYWDFLT
  5
E
102
{ACAD_REACTORS
330
C
102
}
330
C
100
AcDbDictionary
281
     1
  3
Normal
350
F
100
AcDbDictionaryWithDefault
340
F
  0
DICTIONARY
  5
69
102
{ACAD_REACTORS
330
C
102
}
330
C
100
AcDbDictionary
281
     1
  0
DICTIONARY
  5
2A
102
{ACAD_REACTORS
330
C
102
}
330
C
100
AcDbDictionary
281
     1
  3
2dWireframe
350
2F
  3
3D Hidden
350
31
  3
3dWireframe
350
30
  3
Basic
350
32
  3
Brighten
350
36
  3
ColorChange
350
3A
  3
Conceptual
350
34
  3
Dim
350
35
  3
Facepattern
350
39
  3
Flat
350
2B
  3
FlatWithEdges
350
2C
  3
Gouraud
350
2D
  3
GouraudWithEdges
350
2E
  3
Linepattern
350
38
  3
Realistic
350
33
  3
Thicken
350
37
  0
LAYOUT
  5
1E
102
{ACAD_REACTORS
330
1A
102
}
330
1A
100
AcDbPlotSettings
  1

  2
none_device
  4

  6

 40
0.0
 41
0.0
 42
0.0
 43
0.0
 44
0.0
 45
0.0
 46
0.0
 47
0.0
 48
0.0
 49
0.0
140
0.0
141
0.0
142
1.0
143
1.0
 70
   688
 72
     0
 73
     0
 74
     5
  7

 75
    16
 76
     0
 77
     2
 78
   300
147
1.0
148
0.0
149
0.0
100
AcDbLayout
  1
Layout1
 70
     1
 71
     1
 10
0.0
 20
0.0
 11
12.0
 21
9.0
 12
0.0
 22
0.0
 32
0.0
 14
1.000000000000000E+20
 24
1.000000000000000E+20
 34
1.000000000000000E+20
 15
-1.000000000000000E+20
 25
-1.000000000000000E+20
 35
-1.000000000000000E+20
146
0.0
 13
0.0
 23
0.0
 33
0.0
 16
1.0
 26
0.0
 36
0.0
 17
0.0
 27
1.0
 37
0.0
 76
     0
330
1B
  0
LAYOUT
  5
26
102
{ACAD_REACTORS
330
1A
102
}
330
1A
100
AcDbPlotSettings
  1

  2
none_device
  4

  6

 40
0.0
 41
0.0
 42
0.0
 43
0.0
 44
0.0
 45
0.0
 46
0.0
 47
0.0
 48
0.0
 49
0.0
140
0.0
141
0.0
142
1.0
143
1.0
 70
   688
 72
     0
 73
     0
 74
     5
  7

 75
    16
 76
     0
 77
     2
 78
   300
147
1.0
148
0.0
149
0.0
100
AcDbLayout
  1
Layout2
 70
     1
 71
     2
 10
0.0
 20
0.0
 11
0.0
 21
0.0
 12
0.0
 22
0.0
 32
0.0
 14
0.0
 24
0.0
 34
0.0
 15
0.0
 25
0.0
 35
0.0
146
0.0
 13
0.0
 23
0.0
 33
0.0
 16
1.0
 26
0.0
 36
0.0
 17
0.0
 27
1.0
 37
0.0
 76
     0
330
23
  0
LAYOUT
  5
22
102
{ACAD_REACTORS
330
1A
102
}
330
1A
100
AcDbPlotSettings
  1

  2
none_device
  4

  6

 40
0.0
 41
0.0
 42
0.0
 43
0.0
 44
0.0
 45
0.0
 46
0.0
 47
0.0
 48
0.0
 49
0.0
140
0.0
141
0.0
142
1.0
143
1.0
 70
  1712
 72
     0
 73
     0
 74
     0
  7

 75
     0
 76
     0
 77
     2
 78
   300
147
1.0
148
0.0
149
0.0
100
AcDbLayout
  1
Model
 70
     1
 71
     0
 10
0.0
 20
0.0
 11
12.0
 21
9.0
 12
0.0
 22
0.0
 32
0.0
 14
1.000000000000000E+20
 24
1.000000000000000E+20
 34
1.000000000000000E+20
 15
-1.000000000000000E+20
 25
-1.000000000000000E+20
 35
-1.000000000000000E+20
146
0.0
 13
0.0
 23
0.0
 33
0.0
 16
1.0
 26
0.0
 36
0.0
 17
0.0
 27
1.0
 37
0.0
 76
     0
330
1F
331
29
  0
MATERIAL
  5
3D
102
{ACAD_REACTORS
330
3B
102
}
330
3B
100
AcDbMaterial
  1
ByBlock
 72
     1
 94
      127
  0
MATERIAL
  5
3C
102
{ACAD_REACTORS
330
3B
102
}
330
3B
100
AcDbMaterial
  1
ByLayer
 72
     1
 94
      127
  0
MATERIAL
  5
3E
102
{ACAD_REACTORS
330
3B
102
}
330
3B
100
AcDbMaterial
  1
Global
 72
     1
 94
      127
  0
MLINESTYLE
  5
18
102
{ACAD_REACTORS
330
17
102
}
330
17
100
AcDbMlineStyle
  2
Standard
 70
     0
  3

 62
   256
 51
90.0
 52
90.0
 71
     2
 49
0.5
 62
   256
  6
BYLAYER
 49
-0.5
 62
   256
  6
BYLAYER
  0
ACDBPLACEHOLDER
  5
F
102
{ACAD_REACTORS
330
E
102
}
330
E
  0
VISUALSTYLE
  5
2F
102
{ACAD_REACTORS
330
2A
102
}
330
2A
100
AcDbVisualStyle
  2
2dWireframe
 70
     4
177
     2
291
     0
 71
     0
176
     1
 72
     2
176
     1
 73
     0
176
     1
 90
        0
176
     1
 40
-0.6
176
     1
 41
-30.0
176
     1
 62
     5
 63
     7
421
 16777215
176
     1
 74
     1
176
     1
 91
        4
176
     1
 64
     7
176
     1
 65
   257
176
     1
 75
     1
176
     1
175
     1
176
     1
 42
1.0
176
     1
 92
        0
176
     1
 66
   257
176
     1
 43
1.0
176
     1
 76
     1
176
     1
 77
     6
176
     1
 78
     2
176
     1
 67
     7
176
     1
 79
     5
176
     1
170
     0
176
     1
171
     0
176
     1
290
     0
176
     1
 93
        1
176
     1
 44
0.0
176
     1
173
     0
176
     1
  0
VISUALSTYLE
  5
31
102
{ACAD_REACTORS
330
2A
102
}
330
2A
100
AcDbVisualStyle
  2
3D Hidden
 70
     6
177
     2
291
     0
 71
     1
176
     1
 72
     2
176
     1
 73
     2
176
     1
 90
        0
176
     1
 40
-0.6
176
     1
 41
-30.0
176
     1
 62
     5
 63
     7
421
 16777215
176
     1
 74
     2
176
     1
 91
        2
176
     1
 64
     7
176
     1
 65
   257
176
     1
 75
     2
176
     1
175
     1
176
     1
 42
40.0
176
     1
 92
        0
176
     1
 66
   257
176
     1
 43
1.0
176
     1
 76
     1
176
     1
 77
     6
176
     1
 78
     2
176
     1
 67
     7
176
     1
 79
     3
176
     1
170
     0
176
     1
171
     0
176
     1
290
     0
176
     1
 93
        1
176
     1
 44
0.0
176
     1
173
     0
176
     1
  0
VISUALSTYLE
  5
30
102
{ACAD_REACTORS
330
2A
102
}
330
2A
100
AcDbVisualStyle
  2
3dWireframe
 70
     5
177
     2
291
     0
 71
     0
176
     1
 72
     2
176
     1
 73
     0
176
     1
 90
        0
176
     1
 40
-0.6
176
     1
 41
-30.0
176
     1
 62
     5
 63
     7
421
 16777215
176
     1
 74
     1
176
     1
 91
        4
176
     1
 64
     7
176
     1
 65
   257
176
     1
 75
     1
176
     1
175
     1
176
     1
 42
1.0
176
     1
 92
        0
176
     1
 66
   257
176
     1
 43
1.0
176
     1
 76
     1
176
     1
 77
     6
176
     1
 78
     2
176
     1
 67
     7
176
     1
 79
     5
176
     1
170
     0
176
     1
171
     0
176
     1
290
     0
176
     1
 93
        1
176
     1
 44
0.0
176
     1
173
     0
176
     1
  0
VISUALSTYLE
  5
32
102
{ACAD_REACTORS
330
2A
102
}
330
2A
100
AcDbVisualStyle
  2
Basic
 70
     7
177
     2
291
     1
 71
     1
176
     1
 72
     0
176
     1
 73
     1
176
     1
 90
        0
176
     1
 40
-0.6
176
     1
 41
-30.0
176
     1
 62
     5
 63
     7
421
 16777215
176
     1
 74
     0
176
     1
 91
        4
176
     1
 64
     7
176
     1
 65
   257
176
     1
 75
     1
176
     1
175
     1
176
     1
 42
1.0
176
     1
 92
        8
176
     1
 66
     7
176
     1
 43
1.0
176
     1
 76
     1
176
     1
 77
     6
176
     1
 78
     2
176
     1
 67
     7
176
     1
 79
     5
176
     1
170
     0
176
     1
171
     0
176
     1
290
     0
176
     1
 93
        1
176
     1
 44
0.0
176
     1
173
     0
176
     1
  0
VISUALSTYLE
  5
36
102
{ACAD_REACTORS
330
2A
102
}
330
2A
100
AcDbVisualStyle
  2
Brighten
 70
    12
177
     2
291
     1
 71
     2
176
     1
 72
     2
176
     1
 73
     0
176
     1
 90
        0
176
     1
 40
-0.6
176
     1
 41
-30.0
176
     1
 62
     5
 63
     7
421
 16777215
176
     1
 74
     1
176
     1
 91
        4
176
     1
 64
     7
176
     1
 65
   257
176
     1
 75
     1
176
     1
175
     1
176
     1
 42
1.0
176
     1
 92
        8
176
     1
 66
     7
176
     1
 43
1.0
176
     1
 76
     1
176
     1
 77
     6
176
     1
 78
     2
176
     1
 67
     7
176
     1
 79
     5
176
     1
170
     0
176
     1
171
     0
176
     1
290
     0
176
     1
 93
        1
176
     1
 44
50.0
176
     1
173
     0
176
     1
  0
VISUALSTYLE
  5
3A
102
{ACAD_REACTORS
330
2A
102
}
330
2A
100
AcDbVisualStyle
  2
ColorChange
 70
    16
177
     2
291
     1
 71
     2
176
     1
 72
     2
176
     1
 73
     3
176
     1
 90
        0
176
     1
 40
-0.6
176
     1
 41
-30.0
176
     1
 62
     5
 63
     8
421
  8421504
176
     1
 74
     1
176
     1
 91
        4
176
     1
 64
     7
176
     1
 65
   257
176
     1
 75
     1
176
     1
175
     1
176
     1
 42
1.0
176
     1
 92
        8
176
     1
 66
     8
424
  8421504
176
     1
 43
1.0
176
     1
 76
     1
176
     1
 77
     6
176
     1
 78
     2
176
     1
 67
     7
176
     1
 79
     5
176
     1
170
     0
176
     1
171
     0
176
     1
290
     0
176
     1
 93
        1
176
     1
 44
0.0
176
     1
173
     0
176
     1
  0
VISUALSTYLE
  5
34
102
{ACAD_REACTORS
330
2A
102
}
330
2A
100
AcDbVisualStyle
  2
Conceptual
 70
     9
177
     2
291
     0
 71
     3
176
     1
 72
     2
176
     1
 73
     0
176
     1
 90
        0
176
     1
 40
-0.6
176
     1
 41
-30.0
176
     1
 62
     5
 63
     7
421
 16777215
176
     1
 74
     2
176
     1
 91
        2
176
     1
 64
     7
176
     1
 65
   257
176
     1
 75
     1
176
     1
175
     1
176
     1
 42
40.0
176
     1
 92
        8
176
     1
 66
     7
176
     1
 43
1.0
176
     1
 76
     1
176
     1
 77
     6
176
     1
 78
     2
176
     1
 67
     7
176
     1
 79
     3
176
     1
170
     0
176
     1
171
     0
176
     1
290
     0
176
     1
 93
        1
176
     1
 44
0.0
176
     1
173
     0
176
     1
  0
VISUALSTYLE
  5
35
102
{ACAD_REACTORS
330
2A
102
}
330
2A
100
AcDbVisualStyle
  2
Dim
 70
    11
177
     2
291
     1
 71
     2
176
     1
 72
     2
176
     1
 73
     0
176
     1
 90
        0
176
     1
 40
-0.6
176
     1
 41
-30.0
176
     1
 62
     5
 63
     7
421
 16777215
176
     1
 74
     1
176
     1
 91
        4
176
     1
 64
     7
176
     1
 65
   257
176
     1
 75
     1
176
     1
175
     1
176
     1
 42
1.0
176
     1
 92
        8
176
     1
 66
     7
176
     1
 43
1.0
176
     1
 76
     1
176
     1
 77
     6
176
     1
 78
     2
176
     1
 67
     7
176
     1
 79
     5
176
     1
170
     0
176
     1
171
     0
176
     1
290
     0
176
     1
 93
        1
176
     1
 44
-50.0
176
     1
173
     0
176
     1
  0
VISUALSTYLE
  5
39
102
{ACAD_REACTORS
330
2A
102
}
330
2A
100
AcDbVisualStyle
  2
Facepattern
 70
    15
177
     2
291
     1
 71
     2
176
     1
 72
     2
176
     1
 73
     0
176
     1
 90
        0
176
     1
 40
-0.6
176
     1
 41
-30.0
176
     1
 62
     5
 63
     7
421
 16777215
176
     1
 74
     1
176
     1
 91
        4
176
     1
 64
     7
176
     1
 65
   257
176
     1
 75
     1
176
     1
175
     1
176
     1
 42
1.0
176
     1
 92
        8
176
     1
 66
     7
176
     1
 43
1.0
176
     1
 76
     1
176
     1
 77
     6
176
     1
 78
     2
176
     1
 67
     7
176
     1
 79
     5
176
     1
170
     0
176
     1
171
     0
176
     1
290
     0
176
     1
 93
        1
176
     1
 44
0.0
176
     1
173
     0
176
     1
  0
VISUALSTYLE
  5
2B
102
{ACAD_REACTORS
330
2A
102
}
330
2A
100
AcDbVisualStyle
  2
Flat
 70
     0
177
     2
291
     1
 71
     2
176
     1
 72
     1
176
     1
 73
     1
176
     1
 90
        2
176
     1
 40
-0.6
176
     1
 41
30.0
176
     1
 62
     5
 63
     7
421
 16777215
176
     1
 74
     0
176
     1
 91
        4
176
     1
 64
     7
176
     1
 65
   257
176
     1
 75
     1
176
     1
175
     1
176
     1
 42
1.0
176
     1
 92
        8
176
     1
 66
     7
176
     1
 43
1.0
176
     1
 76
     1
176
     1
 77
     6
176
     1
 78
     2
176
     1
 67
     7
176
     1
 79
     5
176
     1
170
     0
176
     1
171
     0
176
     1
290
     0
176
     1
 93
       13
176
     1
 44
0.0
176
     1
173
     0
176
     1
  0
VISUALSTYLE
  5
2C
102
{ACAD_REACTORS
330
2A
102
}
330
2A
100
AcDbVisualStyle
  2
FlatWithEdges
 70
     1
177
     2
291
     1
 71
     2
176
     1
 72
     1
176
     1
 73
     1
176
     1
 90
        2
176
     1
 40
-0.6
176
     1
 41
30.0
176
     1
 62
     5
 63
     7
421
 16777215
176
     1
 74
     1
176
     1
 91
        4
176
     1
 64
     7
176
     1
 65
   257
176
     1
 75
     1
176
     1
175
     1
176
     1
 42
1.0
176
     1
 92
        0
176
     1
 66
   257
176
     1
 43
1.0
176
     1
 76
     1
176
     1
 77
     6
176
     1
 78
     2
176
     1
 67
     7
176
     1
 79
     5
176
     1
170
     0
176
     1
171
     0
176
     1
290
     0
176
     1
 93
       13
176
     1
 44
0.0
176
     1
173
     0
176
     1
  0
VISUALSTYLE
  5
2D
102
{ACAD_REACTORS
330
2A
102
}
330
2A
100
AcDbVisualStyle
  2
Gouraud
 70
     2
177
     2
291
     1
 71
     2
176
     1
 72
     2
176
     1
 73
     1
176
     1
 90
        2
176
     1
 40
-0.6
176
     1
 41
30.0
176
     1
 62
     5
 63
     7
421
 16777215
176
     1
 74
     0
176
     1
 91
        4
176
     1
 64
     7
176
     1
 65
   257
176
     1
 75
     1
176
     1
175
     1
176
     1
 42
1.0
176
     1
 92
        0
176
     1
 66
     7
176
     1
 43
1.0
176
     1
 76
     1
176
     1
 77
     6
176
     1
 78
     2
176
     1
 67
     7
176
     1
 79
     5
176
     1
170
     0
176
     1
171
     0
176
     1
290
     0
176
     1
 93
       13
176
     1
 44
0.0
176
     1
173
     0
176
     1
  0
VISUALSTYLE
  5
2E
102
{ACAD_REACTORS
330
2A
102
}
330
2A
100
AcDbVisualStyle
  2
GouraudWithEdges
 70
     3
177
     2
291
     1
 71
     2
176
     1
 72
     2
176
     1
 73
     1
176
     1
 90
        2
176
     1
 40
-0.6
176
     1
 41
30.0
176
     1
 62
     5
 63
     7
421
 16777215
176
     1
 74
     1
176
     1
 91
        4
176
     1
 64
     7
176
     1
 65
   257
176
     1
 75
     1
176
     1
175
     1
176
     1
 42
1.0
176
     1
 92
        0
176
     1
 66
   257
176
     1
 43
1.0
176
     1
 76
     1
176
     1
 77
     6
176
     1
 78
     2
176
     1
 67
     7
176
     1
 79
     5
176
     1
170
     0
176
     1
171
     0
176
     1
290
     0
176
     1
 93
       13
176
     1
 44
0.0
176
     1
173
     0
176
     1
  0
VISUALSTYLE
  5
38
102
{ACAD_REACTORS
330
2A
102
}
330
2A
100
AcDbVisualStyle
  2
Linepattern
 70
    14
177
     2
291
     1
 71
     2
176
     1
 72
     2
176
     1
 73
     0
176
     1
 90
        0
176
     1
 40
-0.6
176
     1
 41
-30.0
176
     1
 62
     5
 63
     7
421
 16777215
176
     1
 74
     1
176
     1
 91
        4
176
     1
 64
     7
176
     1
 65
   257
176
     1
 75
     7
176
     1
175
     7
176
     1
 42
1.0
176
     1
 92
        8
176
     1
 66
     7
176
     1
 43
1.0
176
     1
 76
     1
176
     1
 77
     6
176
     1
 78
     2
176
     1
 67
     7
176
     1
 79
     5
176
     1
170
     0
176
     1
171
     0
176
     1
290
     0
176
     1
 93
        1
176
     1
 44
0.0
176
     1
173
     0
176
     1
  0
VISUALSTYLE
  5
33
102
{ACAD_REACTORS
330
2A
102
}
330
2A
100
AcDbVisualStyle
  2
Realistic
 70
     8
177
     2
291
     0
 71
     2
176
     1
 72
     2
176
     1
 73
     0
176
     1
 90
        0
176
     1
 40
-0.6
176
     1
 41
-30.0
176
     1
 62
     5
 63
     7
421
 16777215
176
     1
 74
     1
176
     1
 91
        0
176
     1
 64
     7
176
     1
 65
   257
176
     1
 75
     1
176
     1
175
     1
176
     1
 42
1.0
176
     1
 92
        8
176
     1
 66
     8
424
  7895160
176
     1
 43
1.0
176
     1
 76
     1
176
     1
 77
     6
176
     1
 78
     2
176
     1
 67
     7
176
     1
 79
     5
176
     1
170
     0
176
     1
171
     0
176
     1
290
     0
176
     1
 93
       13
176
     1
 44
0.0
176
     1
173
     0
176
     1
  0
VISUALSTYLE
  5
37
102
{ACAD_REACTORS
330
2A
102
}
330
2A
100
AcDbVisualStyle
  2
Thicken
 70
    13
177
     2
291
     1
 71
     2
176
     1
 72
     2
176
     1
 73
     0
176
     1
 90
        0
176
     1
 40
-0.6
176
     1
 41
-30.0
176
     1
 62
     5
 63
     7
421
 16777215
176
     1
 74
     1
176
     1
 91
        4
176
     1
 64
     7
176
     1
 65
   257
176
     1
 75
     1
176
     1
175
     1
176
     1
 42
1.0
176
     1
 92
       12
176
     1
 66
     7
176
     1
 43
1.0
176
     1
 76
     1
176
     1
 77
     6
176
     1
 78
     2
176
     1
 67
     7
176
     1
 79
     5
176
     1
170
     0
176
     1
171
     0
176
     1
290
     0
176
     1
 93
        1
176
     1
 44
0.0
176
     1
173
     0
176
     1
  0
ENDSEC
  0
EOF
